<?xml version="1.0" encoding="UTF-8"?>
<svg id="Layer_3" data-name="Layer 3" xmlns="http://www.w3.org/2000/svg" viewBox="0 0 50 50">
  <defs>
    <style>
      .cls-1 {
        fill: #e7e0da;
        stroke: #1e1e24;
        stroke-linecap: round;
        stroke-linejoin: round;
        stroke-width: .25px;
      }
    </style>
  </defs>
  <path class="cls-1" d="m32.34,29.67h-15.17c-1.19-.2-2.11-1.18-2.23-2.37-.12-1.23.62-2.39,1.8-2.8-.02-.24-.15-2.08,1.29-3.45,1.26-1.2,2.81-1.16,3.09-1.15.91-2.41,3.21-3.94,5.61-3.81,2.79.16,5.18,2.56,5.32,5.61,1.85.59,3.08,2.31,3.02,4.17-.05,1.67-1.13,3.18-2.74,3.81Z"/>
  <path class="cls-1" d="m17.68,31.14c.34,1.62.85,2.81,1.31,2.79.5-.02,1.08-1.55,1.16-2.83,0-.01,0-.03,0-.04-.82.03-1.64.05-2.47.08Z"/>
  <line class="cls-1" x1="21.71" y1="31.45" x2="32.43" y2="31.45"/>
  <line class="cls-1" x1="20.66" y1="33.48" x2="32.43" y2="33.48"/>
</svg>