<?xml version="1.0" encoding="UTF-8"?>
<svg id="Layer_3" data-name="Layer 3" xmlns="http://www.w3.org/2000/svg" viewBox="0 0 50 50">
  <defs>
    <style>
      .cls-1 {
        fill: #e7e0da;
        stroke: #1e1e24;
        stroke-linecap: round;
        stroke-linejoin: round;
        stroke-width: .5px;
      }
    </style>
  </defs>
  <g>
    <g>
      <circle class="cls-1" cx="19.46" cy="20.7" r="3.91"/>
      <g>
        <g id="_Radial_Repeat_" data-name="&amp;lt;Radial Repeat&amp;gt;">
          <line class="cls-1" x1="15.04" y1="20.53" x2="13.44" y2="20.51"/>
        </g>
        <g id="_Radial_Repeat_-2" data-name="&amp;lt;Radial Repeat&amp;gt;">
          <line class="cls-1" x1="16.47" y1="17.46" x2="15.35" y2="16.32"/>
        </g>
        <g id="_Radial_Repeat_-3" data-name="&amp;lt;Radial Repeat&amp;gt;">
          <line class="cls-1" x1="19.65" y1="16.31" x2="19.66" y2="14.71"/>
        </g>
        <g id="_Radial_Repeat_-4" data-name="&amp;lt;Radial Repeat&amp;gt;">
          <line class="cls-1" x1="22.72" y1="17.74" x2="23.86" y2="16.62"/>
        </g>
        <g id="_Radial_Repeat_-5" data-name="&amp;lt;Radial Repeat&amp;gt;">
          <line class="cls-1" x1="23.87" y1="20.92" x2="25.47" y2="20.93"/>
        </g>
        <g id="_Radial_Repeat_-6" data-name="&amp;lt;Radial Repeat&amp;gt;">
          <line class="cls-1" x1="22.44" y1="23.98" x2="23.56" y2="25.12"/>
        </g>
        <g id="_Radial_Repeat_-7" data-name="&amp;lt;Radial Repeat&amp;gt;">
          <line class="cls-1" x1="19.26" y1="25.14" x2="19.25" y2="26.74"/>
        </g>
        <g id="_Radial_Repeat_-8" data-name="&amp;lt;Radial Repeat&amp;gt;">
          <line class="cls-1" x1="16.2" y1="23.71" x2="15.06" y2="24.83"/>
        </g>
      </g>
    </g>
    <path class="cls-1" d="m33.94,30.23h-15.17c-1.19-.2-2.11-1.18-2.23-2.37-.12-1.23.62-2.39,1.8-2.8-.02-.24-.15-2.08,1.29-3.45,1.26-1.2,2.81-1.16,3.09-1.15.91-2.41,3.21-3.94,5.61-3.81,2.79.16,5.18,2.56,5.32,5.61,1.85.59,3.08,2.31,3.02,4.17-.05,1.67-1.13,3.18-2.74,3.81Z"/>
  </g>
  <line class="cls-1" x1="30.29" y1="31.4" x2="28.96" y2="34.31"/>
  <line class="cls-1" x1="28.46" y1="31.02" x2="26.49" y2="35.33"/>
  <path class="cls-1" d="m21.89,31.25c.45.6.93,1.47.98,2.54.04.89-.25,1.37,0,1.56.44.34,1.96-.65,2.88-1.9.6-.82.85-1.64.98-2.2h-4.83Z"/>
</svg>