<?xml version="1.0" encoding="UTF-8"?>
<svg xmlns="http://www.w3.org/2000/svg" viewBox="0 0 841.89 595.28">
  <defs>
    <style>
      .cls-1 {
        isolation: isolate;
      }

      .cls-1, .cls-2 {
        fill: none;
      }

      .cls-3 {
        fill: #f671b7;
      }

      .cls-2 {
        mix-blend-mode: color-burn;
      }
    </style>
  </defs>
  <g class="cls-1">
    <g id="Layer_1" data-name="Layer 1">
      <g class="cls-2">
        <g>
          <polygon class="cls-3" points="339.99 592.34 340.22 592.33 338.99 591.7 339.99 592.34"/>
          <path class="cls-3" d="m334.2,586.27c0,1.07,2.12,2.19,2.98,3.42l.05.29.88.09c-1.33-1.23-3.22-2.71-3.92-3.8Z"/>
          <path class="cls-3" d="m332.46,581.89c-.04.39-.8-.58.6.85-.04-.1-.05-.13-.07-.19-.12-.13-.28-.32-.53-.66Z"/>
          <path class="cls-3" d="m332.99,582.54c.58.66-.19-.59,0,0h0Z"/>
          <path class="cls-3" d="m330.32,579.52l.92.74c-.02-.29-.63-1.11-.3-.89-.84-.84-.81-.55-.61.14Z"/>
          <path class="cls-3" d="m329.24,578.97l.45.41c0-.13-.09-.27-.45-.41Z"/>
          <path class="cls-3" d="m330.65,580.24c-.32-.29-.65-.56-.96-.86.01.2-.16.36.42.41-.23.05.09.12.54.45Z"/>
          <path class="cls-3" d="m331.01,580.87c.28.6.74,1.32-.18.57,1.49,1.65,1.65,1.08.18-.57Z"/>
          <path class="cls-3" d="m333.36,586.44l.43.8.69.4c-.35-.19-.99-1.39-1.12-1.2Z"/>
          <path class="cls-3" d="m326.36,573.54c-.17.03-.11.55-.22.73l.63.6c-.16-.42-.56-1.15-.4-1.33Z"/>
          <path class="cls-3" d="m326.14,574.28l-.94-.9c.62.95.84,1.05.94.9Z"/>
          <path class="cls-3" d="m328.48,579.29c.57.45,1.14.89,1.73,1.32-.68-.53-1.33-1.09-1.99-1.64l.25.32Z"/>
          <path class="cls-3" d="m323.7,569.51l.68.42c-.39-.26-.75-.53-1.12-.8l.45.38Z"/>
          <path class="cls-3" d="m321.99,566.81c.51.31.06-.87.5-.48-.47-.72-1.07-1.23-1.58-1.71.44.56.81,1.22,1.08,2.19Z"/>
          <path class="cls-3" d="m320.09,563.79c.23.28.51.54.82.83-.24-.3-.5-.58-.82-.83Z"/>
          <path class="cls-3" d="m324.05,571.53c.02-.13.12-.42-.18-1.07l-.08.65c.08.13.18.27.27.42Z"/>
          <path class="cls-3" d="m323.78,571.13v-.02c-.29-.46-.49-.78-.57-.92.07.12.24.4.57.94Z"/>
          <path class="cls-3" d="m324.12,571.64s-.04-.07-.07-.11c0,.06,0,.1.07.11Z"/>
          <path class="cls-3" d="m326.77,576.37c-.64-.46-1.77-1.6-1.17-.15.56.27.21-.56,1.17.15Z"/>
          <path class="cls-3" d="m324.01,572.45c.22.4.44.79.68,1.18.08-.09.07-.38.38-.14-.36-.34-.72-.69-1.06-1.04Z"/>
          <polygon class="cls-3" points="323.54 571.97 324.01 572.45 323.77 572.01 323.54 571.97"/>
          <path class="cls-3" d="m320.85,566c-.46-.41-.78-.96-1.14-1.58.28.72.64,1.44,1.02,2.1.17.03.54.19.12-.51Z"/>
          <path class="cls-3" d="m322.2,568.53s-.06-.07-.09-.1c.01.09.03.15.09.1Z"/>
          <polygon class="cls-3" points="316.6 558.07 316.57 558.21 316.65 558.2 316.6 558.07"/>
          <path class="cls-3" d="m320.73,566.66c.22.55.48.79.76,1.01-.25-.35-.51-.74-.76-1.17-.08-.01-.12,0,0,.15Z"/>
          <path class="cls-3" d="m319,562.15c.05.31.13.65.25,1-.03-.32-.1-.95-.25-1Z"/>
          <path class="cls-3" d="m322.11,568.2l.06.06c-.02-.21-.05-.17-.06-.06Z"/>
          <path class="cls-3" d="m322.11,568.2c-.21-.22-.42-.37-.62-.53.2.29.42.54.62.75-.01-.08-.01-.16,0-.23Z"/>
          <path class="cls-3" d="m313.23,557.12c.42-.05,1.3,1.26,1.49,2.65.82,1.09,1.64-.26,1.84-1.57-.17.03-.34.11-1.05-1.04-.05.52.73,2.93-.06,2.04-.93-1.55-.44-1.41-.59-2.28-.18.88-1.52-1.84-2.04-1.24.25.47.54.93.82,1.39-.09.07-.48-.4-.41.05Z"/>
          <path class="cls-3" d="m317.58,560.53l.29.47c-.22-.59-.26-1.06-.31-1.94-.55-.74-.76-.86-.91-.86.36.82.7,1.65,1.07,2.47l-.14-.14Z"/>
          <path class="cls-3" d="m318.98,563.19c-.59-.17-1.33-1.29-1.39-.35.76,1.44.85.84,1.46,1.61-1.33-2.25.57.55-.11-1.23.31.42.54.81.77,1.18-.18-.44-.33-.86-.46-1.27,0,.03,0,.04,0,.06h0s0,.01,0,.01c0,.12,0,.17-.04.05,0,0-.03-.03-.03-.04-.06.01-.13,0-.2-.03-.27-.7.04-.16.2.03.02,0,.05,0,.07,0h0c-.48-.74-.92-1.48-1.38-2.22.19.52.5,1.13,1.1,2.2Z"/>
          <path class="cls-3" d="m324.03,575.6c-.02-.09.01-.1.03-.13-.14-.11-.21-.14-.03.13Z"/>
          <path class="cls-3" d="m323.62,574.55c.16.13.39.16.71.7.2.52-.17.12-.27.22.31.25,1.01.91.5-.18l-.15-.12c-.49-.96-.81-2.39-.65-2.27-.15.48-.23.86-.14,1.66Z"/>
          <path class="cls-3" d="m320.98,568.9c-.45-.58-.86-1.19-1.29-1.79l.24,1.16.16-.16c.55,1.13.67.74.89.79Z"/>
          <path class="cls-3" d="m316.69,557.76l.54.08c-.37-.29-.71-.59-1.07-.89l.53.81Z"/>
          <polygon class="cls-3" points="315.58 555.2 315.99 555.16 315.52 554.56 315.58 555.2"/>
          <path class="cls-3" d="m418.58,451.98l.41-.49c-.21.22-.33.37-.41.49Z"/>
          <path class="cls-3" d="m414.95,454.76l.02.23c.11-.21.13-.33-.02-.23Z"/>
          <path class="cls-3" d="m340.93,500.2c.99-.2,2.18-.28,1.85-.59l-.48-.21c-.51.42-.96.65-1.37.8Z"/>
          <path class="cls-3" d="m382.22,474.9c-.1,0-.2,0-.31,0-.14.24-.27.46-.4.66.21-.2.45-.42.7-.66Z"/>
          <path class="cls-3" d="m382.04,472.98l1.26-.29c-.3.03-.7.12-1.26.29Z"/>
          <path class="cls-3" d="m433.24,432.44c-.02-.27-.06-.56-.11-.84-.44,1.04-.06.66.11.84Z"/>
          <path class="cls-3" d="m313.42,527.97c.43-.65.7-1.18.9-1.67-.54.75-1.16,1.32-.9,1.67Z"/>
          <path class="cls-3" d="m420.03,456.74c.28-.31.35-.5.29-.57-.28.33-.42.53-.29.57Z"/>
          <path class="cls-3" d="m315.23,524.36c-.11.09-.17.2-.26.31-.16.53-.36,1.03-.64,1.63.43-.54.86-1.14.91-1.94Z"/>
          <path class="cls-3" d="m427.95,342.79c0-.07-.01-.15,0-.22-.06,0-.04.09,0,.22Z"/>
          <path class="cls-3" d="m426.38,315.24c.06.26.11.69.19,1.09,0-.2-.05-.53-.19-1.09Z"/>
          <path class="cls-3" d="m312.77,544.49c.11.57.06.08,0,0h0Z"/>
          <path class="cls-3" d="m311.65,547.64c-.07-.11-.15-.2-.25-.19.11.03.19.09.25.19Z"/>
          <path class="cls-3" d="m316.16,517.99s.02-.03.03-.04c-.18.09-.14.08-.03.04Z"/>
          <path class="cls-3" d="m312.73,545.39c0-.22,0-.48,0-.75-.01.12-.03.35,0,.75Z"/>
          <path class="cls-3" d="m312.91,545.23c.02.2.04.36.06.5.09.06.12-.01-.06-.5Z"/>
          <path class="cls-3" d="m312.63,543.7c.06.33.08.63.1.93.01-.12.03-.17.05-.14-.03-.17-.07-.4-.14-.79Z"/>
          <path class="cls-3" d="m440.15,391.14s.01-.09.03-.13c-.23-.59-.18-.33-.03.13Z"/>
          <path class="cls-3" d="m352.25,488.15s-.03.04-.05.05c.03,0,.06-.02.09-.03l-.04-.02Z"/>
          <path class="cls-3" d="m354.03,486.79c-.57.92-1.06,1.13-1.74,1.38l1.25.74.5-2.12Z"/>
          <path class="cls-3" d="m426.21,444.26l-1.24.87c.65-1.78,1.61-2.59.32-1.9.44.49-.38,1.66-1.35,2.69-.96,1.05-1.9,2.11-1.52,2.65l-.91.46c.21-.18.19-.27.4-.45-.92.41-1,.82-1.11,1.34-.11.51-.21,1.14-1.24,1.84-.73.47-1.32.7-.97.2-.42.49-.83,1-1.28,1.48-.47.32-.5.05-.04-.27l-2.29,1.85v-.05c-.2.44-.82,1.23-1.12,1.61-.73.26.23-.33-.03-.36l-1.17,1.2c-.75.08.19-.97,1.14-1.56-2.04-.29-.89,1.1-4.13,2.17l1.21-.96c-1.26-.13-2.1.77-3.84,1.23.49.04,3.59-.8,2.27.44-.47.18-1.06.49-1.76,1.2-.25-.41-1,.16-2,.78l-.25-.6c-1.01.79-.77,1.01-1.29,1.63-1.28.63-1.77.33-2.26.12-2.07.96,1.77-.02-.57,1.33-1.79.66-2.86,1.5-4.74,2.85-1.29.4.04-.45-.47-.41l-.84.98c-.27.12-.25-.07-.24-.16-.81.61.21.61-1.14,1.45-.07.82-3.36.47-4.78,2.03-.51.04.04-.45-.2-.61-2.2,1.62-1.92,1.33-3.6,2.91l-1.88.43c1.46-.16.1,1.11-1.08,2.2.54,0,1,0,1.3-.04l-2.06,1.39c-.31.04-.19-.27.06-.69-.13.12-.25.24-.34.34-.89.17-.65-.36-.24-.96.33-.01.65-.02.97-.04.38-.62.7-1.25.43-1.54-.11.14-.36.33-.65.51.1-.16.15-.29.05-.32-.1-.02-.27.22-.57.54l-.82-.39v.31s-3.09,1.03-3.09,1.03c-1.74,1.67-3.08,3.5-6.21,5.4.58-.88-.21-.85-.44-1.43,1.19.14,2.41-1.52,4.17-2.24-.92.38-.85.02-.67-.19l-2.77,2.04c-.16-.49-.81-.02-1.7.19,1.05.59-1.96,1.73-3.05,2.63-.23-.26-.09-.72,1.45-1.41-2,.17-1.61,2.13-3.52,2.4.36-.2.58-.25.65-.48-.72.7-2.91,1.57-2.55,1.06l.36-.2c-2.48,1.14-7.36,3.88-7.3,4.84-.08-.08-.18-1.07-.11-1.3-.97,1.61-1.93,3.24-2.86,4.86.02-.85-2.28-1.55-.5-3.02-.62.23-1.39.51-2.45,1.42.44-.13,1.48.37.99.73-1.85.12-1.22.19-3.34.63.65-.2.59,1.16-.33,1.66.05-.23-.65-.93-.38-1.23l-1.67,2.31c.45-.51-.39-.88-1.06-.84.34.04-1.95,1.17-2.48,1.64l1.08-.37c-2.61,1.42-1.64,2.89-4.11,4.43.17-.39-.05-1.68-1.38-.97-.26.86-.98,3.98-2.78,5.82l-.59.02c-.46.48-.92.96-1.36,1.46.44-1.43,2.22-4.92,3.41-6.59-1.06.42-.47-.14-1.83.83-.66.08.48-.9.88-1.2-1.11.68-2.22,1.36-3.32,2.08.52.43-2.02,2.3-1.55,2.67.98-1.04,2-2.04,3.01-3.06.53.46-.89,2.95-3.12,4.51-.72.21-.31-1.26-.49-1.41-.16.39-1.8,1.95-2.1,1.98l.7-1.01c-1.38.75-1.41,2.25-3.24,2.95-.52.36-2.01.61-1.84.98,1.3-.12,2.99,1.55,2.86,2.43-.1.05-.84.44-1.64.87-.79.43-1.66.89-2.05,1-1.18.28.15-2.11-.85-1.87.1.16-.17.72-.29.94-.59.35-.2-.61-1.18.49.31.65-2.13,2.08-.08.9-.87,1.14-1.14,1.01-2.26,2.26.67-.11.15,2.12-.56,3.31-.09-.17-.45-.06-.63,0-1.79,2.25-2.87,3.42-4.1,5.85-.25.15-1.01,1.28-1.03.65-.06.41.05.85-.24,1.64-1.13,1.34.58-1.82-.52-.89.33.25-.3,2.27-.33,3.51.35-.1.54-.75.71-1.53.2-.77.35-1.68.45-2.29.81.35.77,2.55.51,5.23-.23,2.14-.72.8-.68,1.19-.81,4.03.94,3.55.23,6.82-.5,1.33-1.07.08-1.45.38-.15-.9,0-1.59.12-2.21.14-.61.26-1.15.34-1.74-.16.48-.25.98-.35,1.47-.18-.58-.19-1.8.05-2.43-.15.27-.3.85-.4,1.61-.06.77-.14,1.72-.15,2.73,0,2.03.16,4.32.2,5.95.27.55.6,1.49.74.99l-.23-.99c.29-.98.88,1.79.89.49.24.64.57,1.3.86,2.03.28.73.5,1.54.64,2.47l-.5.5c.17-.09.03-1.28-.26-1.76.45.69-.1,3.04.95,3.64,0-.46,0-.92.04-1.39.67,1.21,1.75,2.58,2.15,4.18.32-.91-.2-.34.08-1.67-.54,1.24-1.2-4.01-1.62-2.19.51-1.38-.25-2.1.15-3.76-.19.09-.27.62-.45-.73-.07-.05-.17-.18-.24-.26,0-.04,0-.06,0-.09,0,.03,0,.05,0,.08-.04-.05-.05-.06,0,.03-.02.33-.07.61-.16.74-.64-.57-.94-2.75-1.29-3.45,0-.83.27.31.43-.16l-.46-1.06c.44-.16.55-2.19.98-.33-.04-.56-.11-1.13-.1-1.69.11-.5.19-1.09.2-1.65.02-.57.05-1.1-.04-1.53.1-.78-.36-2.02-.08-1.31.03-.87-.02-1.76.06-2.63h.12c.14-.63.22-1.28.3-1.95.13-.66.26-1.32.39-2,.36-1.33.87-2.7,1.88-3.8.11-.42.31-.82.53-1.28.22-.47.51-.98.98-1.55l.48-.02c.23-.51.81-1.14,1.32-1.71.49-.58.96-1.09.96-1.4.4-.07.83-.36,1.26-.77.46-.4.94-.93,1.42-1.49.98-1.11,2-2.35,2.82-2.97l-.29-.42c1.04-.95,1.96-1.95,3.18-3.25l-.37-.27c.94-1.27,3.24-2.27,5.16-3.75-.03.24-.55.57-.96.75,2.89-.95,4.52-4.22,7.14-5.1.46-.5.89-.72,1.33-.88-.05.03-.09.07-.12.11.06-.03.14-.09.23-.15.28-.1.58-.2.9-.3-.29.06-.56.13-.78.22.42-.29,1.04-.75,1.61-1.26l.53.23s.09-.07.14-.11c.72-.25.38-.51-.15-.61.28-.27.52-.54.69-.78.93.34,1.55-1.28,2.69-1,.23-.61,3.11-2.23,3.04-3.16.08.08.3.01-.05.23.78-.35,1.56-.69,2.1-1.28l.62.35,1.2-1.64c1.17-.23,1.68-.26.94.69,2-1.95,1.77-1.31,3.45-3.04l.09.4c.71-.41,1.62-1.5,2.21-1.44,1.96-.22,8.1-4.16,12.65-5.63-1.34-.63,2.2-.52,1.96-1.41.37.12,1.03-.03.45.53,2.04-1.32,3.44-1.22,4.6-2.65.37.12-.28.59,0,.63.15-.14.58-.56.88-.52.29.04-.21.36-.5.64,2.2-1.14,2.03-2,1.85-2.8,1.29-.21,1.82-.53,2.4-1.39.51.05,1.28-.02-.06.73.79-.34,4.91-1.92,4.72-2.54.31.03,1.11-.47,1.28-.64,1.77-.8,1.95-.82,3.64-1.69l-.52.13c.35-1.02,1.35-.84,2.7-1.59v.09c3.41-1.03,1.24-.91,4.65-1.88l-.39-.34c-.17-1.05,3.03-.86,4.64-2.16l-.77.11c.8-.83,3.39-.24,4.44-.68.26-.04-.26.32-.53.54,2.86-.93.02-.73,1.84-1.96.52.09-.02,1.01,1.3.32.39-.06,1.17-.86,2.09-1.72.46-.43.97-.86,1.48-1.22.5-.38,1.02-.69,1.53-.84-.52.04-1.02.07-.29-.67,1.25-.91,4.03-1.68,4.66-3.19.2-.07.3-.07.35-.02.8-.94,2.8-2.75,2.99-3.61.95.23,2.25-1.16,3.25-2.59.52-.7,1.01-1.37,1.42-1.82.4-.46.75-.68,1.04-.42.76-.99,1.6-1.91,2.26-2.96l.07.17c1.46-1.9,1.7-2.77,1.8-3.68.37-.41.28,0,.33.09,1.02-1.41,1.57-2.2,1.96-3,.38-.8.53-1.65.83-3.1l.58-.05c.02-.21.22-.57.51-1.05.28-.49.61-1.11.99-1.81.37-.7.77-1.49,1.12-2.31.3-.84.54-1.71.66-2.56.04.05.11.15.09.42.38-1.89,1.24-4.01,1.93-5.9.63-1.9.95-3.57.2-4.41.03-.84-.04-1.69-.06-2.54-.57,3.16-.71-.59-1.19.67.06-1.25.98-3.14.86-1.6l-.12.23c.43.35.65-.63.83-1.68.16-1.05.24-2.17.57-2.1.51-6.32.92-12.54.45-18.48l-.67.74-.14-2.06c.12-.56.51-.78.61.69.35-.82-.57-2.44-.75-2.45-.06-2.9.99,1.02.9.14l-.2-1.19-.05.28c-.42-.94-.74-.98-.92-2.74,0-1.13.36-.63.33-1.07.05,0,.05-.16-.08-.67l-.34-2.59-.41,1.12c-.45-1.09-.36-2.42-.81-1.12.35-.95,0-3.35-.47-5.64-.48-2.28-1.05-4.45-1.03-5.01-.78-1.47-1.13-3.01-1.57-4.92,0,.5-.56.94-.89-.71,1.46.26-.2-3.14.37-4.7-.29,1.34-1.4-4.59-1.78-2.51-.27-1.39.46-.21.48-1.33-1.38-3.09-1.65-7.2-2.91-11.13-.19-.02-.26.72-.75-.06l.27-2.33c-.3-.76-1.18-.46-.97-2.05-.09.24-.22.6-.42.09-.64-4.01-1.81-7.95-2.82-11.94-.97-4-1.79-8.07-1.62-12.2-.16,1.14-.31.42-.46-.41,0,.55-.43.05-.65.2l.19-3.46c-.77-.53-.45-3.61-1.11-3.9l.22,1.06c-.88-1.36-1.45,2.18-2.42,2.1,1.07,1.5-.7,4.47.98,6.93-.1.62-.39-.45-.55-.1.53.6.71,1.4.83,2.93l-.13-.15c.46,2.09.66,3.61.9,5.19.21,1.59.41,3.24.84,5.61l.38-.46c.18,1.02.08,1.26.08,1.76.97.98-.63-2.83.39-1.96-.65,1.57,1.74,7.04.93,8.21.4,1.53.41-.59.81.94l-.18.48.47.29c.2,1.02-.01,1.62-.24,1.72-.04-.25-.26-.67-.35-.93.02,1.39,1.12,3.62,1.13,4.1l-.23-1.51c1.41,4.09,2.46,9.24,4.13,13.08l.13-.36c1.24,2.95.42,2.51,1.5,5.81l-.08-.11c.39.61.72,1.49.93,2.41-.47-.78-.09,1.72-.65.68,1.27,3.21.74,1.55,2.08,3.56l-.24.59c.5.68.71.69,1.17,2.37-.61-1.32-.32,1.2-1.06-.26,0,3.7,1.91,5.1,1.04,6.95,1.32,1.45-.02-3.18.37-2.3.18-.83,1.01,1.2,1.12,2.34.21,1.15-.96,2.17-.49,5.01-.04-.29-.12-.29-.16-.58-.08,1.1.65,2.05.39,3.42.71.66.18,1.71.99,1.84l-.51-2.62c.39,1.46,1.51,2.78,1.26,5.31-.18-.18-.45-.9-.61-1.39-.17.75.28,1.38.1,2.15-.83-.15-.41-3.21-1.25-4.73-.21.8.91,2.96-.03,2.25,1.17,1.05.15,2.83,1.07,4.72l-.48-.1c.09.3.35.93.36,1.5l-.67-.99c.6,1.55-.28,3.05-.01,4.53-.05-3.15.57-.72.88-2.07.38,1.95.04,2.52-.31,3.14-.37.62-.72,1.29-.7,3.46-.05-.59.37-2.2.55-1.27-.13.83-.35,1.91-.62,2.41,0,2.87.5-.42.75.82-.6.95.14,1.42.23,2.71l-.48-.03c-.29,1.62-.06,1.86.17,2.07.23.2.46.37.07,1.82l-.49-1.32-.04,1.55-.5-.38c.15,1.7.05,2.23-.42,3.8.41-.31.82.36.56,1.8-.47.92-.34-.64-.67,1.4-.21-.52-.48-1.09.12-1.88-.14-.12-.21-.51-.34-.63-.54.97-.54,2.6-.76,3.31.09-.27.2-.59.31-.75l-.09,3.03c-.29.41-.34,0-.39-.38-.11.59.03,1.06-.19,1.92-.31-.33-.69-.39-.57-1.64-.07.95-.24,1.87-.39,2.8-.22.13-.89,1.21-.92.82-.17.35-.29.76-.38,1.21-.11.44-.22.92-.32,1.43-.22.99-.44,2.08-1.01,2.94.02.13,0,.35-.15.76-.47.84-1,1.59-1.48,2.41-.52.8-1.03,1.64-1.38,2.76l-1.25.72c-.9,1.53,1.76-.94.25,1.63-1.05,1.85-.95.29-1.53.78-.27,1.08-.91,2.94-2.59,4.05.31-.58.71-.9,1.06-1.39Zm-16.85,14.48c.32-.32.89-1.05,1.31-.98-.13.73-.6.71-1.31.98Zm-30.6,16.82c.23-.29.73-.45,1.33-.54-.36.22-.8.41-1.33.54Zm-66.94,62.68s-.01-.03-.02-.04c.16-.94.1-.61.02.04Zm-.15,1.96c.09.19.15.17.21.09-.15-.13-.16-.57-.14-1.07-.12.14-.21.4-.07.98Zm130.92-155.97l-.06.42c-.28-.89-.12-.65.06-.42Z"/>
          <path class="cls-3" d="m382.05,473.21c.15.02.22.08.29.15.12-.15.09-.24-.29-.15Z"/>
          <path class="cls-3" d="m433.26,432.59l.03-.06s-.03-.07-.05-.1v.15Z"/>
          <path class="cls-3" d="m320.37,510.48c.37-.25.6-.35.79-.4-.06-.1-.28-.04-.79.4Z"/>
          <path class="cls-3" d="m314.34,550.29c-.18-.39-.3-.79-.45-1.18.18.58.12.82.14,1.14.1-.06.18-.33.31.04Z"/>
          <path class="cls-3" d="m315.68,561.86c.14.15.19.37.33.51l.18-.15c-.38-.73-.8-1.17-.51-.36Z"/>
          <path class="cls-3" d="m313.17,551.89c-.34.22,0,.97.39,1.8-.02-.05-.04-.1-.06-.15.62.07.12-.78-.34-1.65Z"/>
          <path class="cls-3" d="m313.64,553.88c.11.26.22.52.3.79.25.02-.07-.34-.3-.79Z"/>
          <path class="cls-3" d="m312.16,542.66c-.04.43.55.19.43.45.54.4-.93-2.68-.43-.45Z"/>
          <polygon class="cls-3" points="312.12 553.01 312.49 552.54 311.95 552.16 312.12 553.01"/>
          <path class="cls-3" d="m310.62,545.84l.17,1.47c.08-.04.16.13.25.35-.17-.89-.28-1.89-.41-1.82Z"/>
          <path class="cls-3" d="m311.03,547.67c.08.47.22.9.36,1.13-.07-.25-.24-.77-.36-1.13Z"/>
          <path class="cls-3" d="m311.36,551.11c-.01-.15-.02-.3-.02-.45l-.23-1.02c.09.49.15.99.26,1.48Z"/>
          <path class="cls-3" d="m310.8,530.16l.29-1.58c-.12-.21-.34.19-.44.79,0,.4-.07.99.15.79Z"/>
          <path class="cls-3" d="m308.68,534.82c.15-.44.27-.46.46-.69l-.61-.11.15.81Z"/>
          <path class="cls-3" d="m309.28,529.99c-.16-.2.17-2.49-.38-.41.12.21-.05,1.89.38.41Z"/>
          <polygon class="cls-3" points="323.39 509.98 323.09 510.27 323.82 510.98 323.39 509.98"/>
          <path class="cls-3" d="m339.36,495.04c-1.77.85-.05.77-1.69,1.48-.25.45,1.34-.58,1.06-.15.85-.85,1.45-1.06.63-1.33Z"/>
          <path class="cls-3" d="m338.73,496.37c-.14.14-.28.28-.42.45.25-.24.36-.36.42-.45Z"/>
          <polygon class="cls-3" points="426.36 310.76 426.45 309.53 426.19 310.34 426.36 310.76"/>
          <path class="cls-3" d="m425.38,308.51l.62-.34-.66-.68c.06.27.17.8.04,1.02Z"/>
          <path class="cls-3" d="m405.8,459.33v.18c.24.05.49-.08,1-.34l-1,.16Z"/>
          <polygon class="cls-3" points="419.32 450.53 419.1 450.7 419.88 450.81 419.32 450.53"/>
          <path class="cls-3" d="m427.66,440.27c-.33.42-.59,1.01-.92,1.43.59-1.01,1.6-1.13.92-1.43Z"/>
        </g>
      </g>
    </g>
  </g>
</svg>