<?xml version="1.0" encoding="UTF-8"?>
<svg xmlns="http://www.w3.org/2000/svg" viewBox="0 0 841.89 595.28">
  <defs>
    <style>
      .cls-1 {
        isolation: isolate;
      }

      .cls-1, .cls-2 {
        fill: none;
      }

      .cls-3 {
        fill: #f671b7;
      }

      .cls-2 {
        mix-blend-mode: color-burn;
      }
    </style>
  </defs>
  <g class="cls-1">
    <g id="Layer_1" data-name="Layer 1">
      <g class="cls-2">
        <g>
          <polygon class="cls-3" points="543.27 596.67 540.32 595.15 542.14 596.32 543.27 596.67"/>
          <path class="cls-3" d="m537.15,594.82l-.46-.91-2.05-.25c.7.27,2.05.8,2.51,1.16Z"/>
        </g>
      </g>
      <g class="cls-2">
        <g>
          <path class="cls-3" d="m531.22,591.53c4.64,1.92,3.13.86,3.86,1.08-7.83-3.08-3.71-.89-3.86-1.08Z"/>
          <path class="cls-3" d="m452.94,564.46l1.45.25c-3.94-1.03-7.88-2.04-11.84-3.01,3.47.89,6.93,1.81,10.38,2.76Z"/>
          <path class="cls-3" d="m377.75,546.09c3.53,1.04,10.41,2.38,18.07,3.95,7.66,1.58,16.11,3.37,22.77,5.17l2.17.71,6.17.98c-16.25-4.19-37.62-8.42-49.18-10.81Z"/>
          <path class="cls-3" d="m336.94,538.21c1.32.21-1.01.14-1.25.13.12,0,.31.01,1.92.08.82.01,1.95.16,3.47.29,1.49.17,3.31.39,5.63.7-.92-.17-1.19-.21-1.72-.31-.83-.11-1.82-.24-3.09-.41-.62-.09-1.38-.16-2.2-.25-.82-.1-1.74-.19-2.76-.24Z"/>
          <path class="cls-3" d="m344.99,539.1c8.11,1.1-5.28-.95,0,0h0Z"/>
          <path class="cls-3" d="m306.78,541.2c3.5-.65,7.02-1.34,10.6-1.94-2.31.14-11.73,1.68-8.25.98-2.69.48-4.57.82-5.78,1.04-1.2.22-1.73.34-1.74.38,0,.05.51.02,1.42-.06.91-.08,2.2-.23,3.75-.41Z"/>
          <path class="cls-3" d="m296.91,543.15c1.81-.25,3.61-.52,5.42-.83-.96.07-2.4.27-5.42.83Z"/>
          <path class="cls-3" d="m313.91,540.23c-3.9.69-7.74,1.44-11.58,2.08,1.54-.11,1.73.09,5.3-.91-.91.37,1.33-.22,6.28-1.17Z"/>
          <path class="cls-3" d="m320.61,539.38c3.05-.31,6.58-.51,7.97-.5.69,0,.85.03.14.12-.7.09-2.27.21-5,.54,10.42-1.04,15.03-.31,14.24-.61-.39-.06-2.1-.31-5.05-.34-2.94-.05-7.12.13-12.3.8Z"/>
          <path class="cls-3" d="m373.73,546.08l7.86,1.73,6.87,1.15c-3.42-.62-15.17-3.22-14.73-2.88Z"/>
          <path class="cls-3" d="m240.58,546.31c-.66.18,3.61.27,4.41.43l7.88-.61c-2.03.07-4.96.16-7.46.25-2.5.05-4.56.03-4.83-.06Z"/>
          <path class="cls-3" d="m244.99,546.74l-11.8.71c10.55-.37,12.47-.57,11.8-.71Z"/>
          <path class="cls-3" d="m295.13,544.14c6.36-.83,12.66-2.18,19.08-3.38-7.68,1.42-15.13,2.97-22.81,3.73l3.73-.35Z"/>
          <path class="cls-3" d="m195.49,547.16l6.69-.37c-3.97.19-7.95.4-11.93.49l5.23-.12Z"/>
          <path class="cls-3" d="m165.58,546.59c4.96-.14-6.77-.71-1.53-.72-4.06-.11-7.82-.22-11.35-.31-3.53-.09-6.83-.08-9.95-.2,3.31.18,6.74.27,10.48.49,3.74.19,7.78.52,12.36.74Z"/>
          <path class="cls-3" d="m132.26,544.99c3.31.15,6.75.25,10.49.37-3.52-.17-6.99-.3-10.49-.37Z"/>
          <path class="cls-3" d="m213.07,547.88c-.92-.06-2.68-.29-9.3-.38l4.65.41c1.42,0,3.02,0,4.65-.04Z"/>
          <path class="cls-3" d="m208.58,547.93h-.16c-5.04,0-8.54,0-10.04,0,1.29,0,4.36,0,10.21,0Z"/>
          <path class="cls-3" d="m214.24,547.85c-.43,0-.75.01-1.17.02.45.03.72.04,1.17-.02Z"/>
          <path class="cls-3" d="m264.2,546.32c-6.91.72-21.38,1.71-7.35,1.32,4.96-.59-3.06-.28,7.35-1.32Z"/>
          <path class="cls-3" d="m220.02,548.27c4.19-.06,8.37-.08,12.56-.24-.25-.1-2.52-.18.91-.43-4.49.3-8.98.48-13.47.67Z"/>
          <polygon class="cls-3" points="213.87 548.53 220.02 548.27 215.36 548.33 213.87 548.53"/>
          <path class="cls-3" d="m153.69,546.66c-2.71-.04-5.55-.13-8.55-.24-2.99-.18-6.15-.37-9.49-.57,3.58.27,7.22.58,10.85.79,3.63.19,7.25.38,10.77.56,1-.09,4.1-.17-3.58-.54Z"/>
          <path class="cls-3" d="m180.35,547.72c-.37,0-.85,0-1.21,0,.74.05,1.33.07,1.21,0Z"/>
          <path class="cls-3" d="m70.04,539.15c.36.08.67.14,1.04.22.09-.01.15-.03.25-.04l-1.29-.18Z"/>
          <path class="cls-3" d="m158.47,547.33c5.39.36,8.62.28,11.7.27-4.04-.1-8.31-.15-12.9-.41-.45.04-.53.07,1.2.14Z"/>
          <path class="cls-3" d="m113.91,543.72c2.8.31,5.96.65,9.29,1.01-2.73-.36-8.29-1.04-9.29-1.01Z"/>
          <path class="cls-3" d="m177.33,547.56c.27,0,.51,0,.81,0-1.77-.15-1.55-.1-.81,0Z"/>
          <path class="cls-3" d="m177.33,547.56c-2.78-.03-4.96.01-7.16.04,3.29.06,6.33.14,8.97.12-.67-.04-1.34-.1-1.82-.16Z"/>
          <path class="cls-3" d="m49.84,538.95c.5-.12,4.28.27,9.45.98,5.16.7,11.73,1.55,17.79,2.62,6.02.61,7.1.3,5.39-.35-.86-.33-2.41-.75-4.4-1.23-1.98-.5-4.4-1.05-6.98-1.59-.2.06-.3.13-1.9,0-.8-.06-1.97-.18-3.71-.36-1.74-.18-4.06-.44-7.13-.88,2.13.48,8.93,1.52,13.9,2.35,4.97.82,8.11,1.42,2.89.88-8.17-1.02-11.51-1.5-13.78-1.91-2.27-.44-3.5-.77-7.43-1.48,3.32.76-1.88.14-7.48-.51-5.6-.71-11.59-1.54-9.88-.86,4.76.74,9.52,1.49,14.3,2.11.25.15-4.96-.47-1,.25Z"/>
          <path class="cls-3" d="m94.53,542.33l5.08.48c-5.79-.61-9.9-1.35-17.48-2.54-4.23-.41-6.78-.66-8.35-.82-1.57-.14-2.16-.15-2.46-.12,4.15.58,8.3,1.16,12.46,1.64l12.48,1.49-1.74-.13Z"/>
          <path class="cls-3" d="m122.44,544.93c-4.01.1-16.25-.76-8.81.35,7.47.61,10.1.74,11.97.79,1.87.06,3,.02,7.47.21-6.04-.35-8.61-.63-9.37-.7-.75-.08.33-.04,1.61.02,2.58.11,5.99.25-2.71-.6,4.74.35,9.01.61,13.03.85-4.34-.33-8.52-.68-12.45-1.11.22.03.37.05.55.07h.11s-.02.01-.02.01c1.03.14,1.37.2.21.07-.08,0-.37-.02-.5-.03-.17.05-.62.06-1.1.07-6.97-.67-1.09-.2,1.1-.07.08-.01.27-.02.3-.04-.02,0-.06,0-.09-.01l-12.07-.89-12.06-1.1c5.09.56,11.47,1.28,22.82,2.12Z"/>
          <path class="cls-3" d="m243.98,549.26c-.75,0-.72-.04-.78-.07-1.57.11-2.16.17.78.07Z"/>
          <path class="cls-3" d="m233.99,549.38c1.76-.13,3.22-.36,8.95-.53,4.98-.06-.01.21.25.34,3.45-.25,12.06-.95,1.23-.57l-1.71.12c-4.88.11-10.46.16-14.61.15-4.15-.07-6.86-.17-6.01-.21,2.86.32,5.38.59,11.89.7Z"/>
          <path class="cls-3" d="m177.42,548.9l-10.09-.21c-3.37-.06-6.73-.13-10.09-.29,3.42.31,6.84.55,10.26.77l-.51-.24c11.48.45,9.01.1,10.44-.03Z"/>
          <path class="cls-3" d="m67.78,538.63l2.71-.09c-3.87-.33-7.76-.58-11.62-1,2.96.42,5.94.74,8.91,1.09Z"/>
          <polygon class="cls-3" points="41.88 534.71 42.9 534.49 36.04 533.55 41.88 534.71"/>
          <path class="cls-3" d="m787.52,381.77l.21,5.94c-.08-2.81-.15-4.62-.21-5.94Z"/>
          <path class="cls-3" d="m786.88,338.78l-.21-1.05c.14,1.99.23,2.8.21,1.05Z"/>
          <path class="cls-3" d="m231.72,103.71c8.62.86,18.23,1.99,17.22,1.49l-2.63-.59c-6.04-.27-10.66-.58-14.59-.9Z"/>
          <path class="cls-3" d="m673.16,114.41c-.82.03-1.68.07-2.53.1-2.08.33-4.04.65-5.78.93,2.5-.31,5.34-.66,8.32-1.03Z"/>
          <path class="cls-3" d="m679.06,112.03c3.78-.29,7.57-.61,11.35-.95-2.55.21-6.2.52-11.35.95Z"/>
          <path class="cls-3" d="m684.29,519.06l-6.92.68c10.84-.38,6.06-.44,6.92-.68Z"/>
          <path class="cls-3" d="m10.54,281.37c.72-7.42,1.29-13.33,1.79-18.51-1.06,8.92-1.94,16.12-1.79,18.51Z"/>
          <path class="cls-3" d="m782.64,364.93c.14,3.63.25,5.19.34,5.08-.13-3.74-.25-5.85-.34-5.08Z"/>
          <path class="cls-3" d="m14.35,241.42c-.17,1.3-.33,2.58-.5,3.91-.43,5.43-.94,10.9-1.52,17.53.37-3.3.77-6.83,1.14-10.45.36-3.62.66-7.34.89-10.98Z"/>
          <path class="cls-3" d="m31.22,290.84c.02-.62.03-1.37.05-1.93-.06-.19-.06.67-.05,1.93Z"/>
          <path class="cls-3" d="m99.73,63.58c-.79.96-1.83,2.21-3.03,3.54-1.18,1.35-2.51,2.79-3.81,4.16,1.28-1.33,3.43-3.56,6.84-7.7Z"/>
          <path class="cls-3" d="m12.46,443.96c.71,5.5.16.87,0,0h0Z"/>
          <path class="cls-3" d="m14.65,470.94c-.24-1.16-.45-2.03-.58-2.16.18.43.37,1.19.58,2.16Z"/>
          <path class="cls-3" d="m17.87,186c.02-.16.04-.29.06-.48-.28,1.63-.23,1.35-.06.48Z"/>
          <path class="cls-3" d="m13.31,452.27c-.22-2.07-.48-4.46-.76-7.06.11,1.14.32,3.29.76,7.06Z"/>
          <path class="cls-3" d="m13.36,451.13c.23,1.9.45,3.38.64,4.8.18.68.11.06-.64-4.8Z"/>
          <path class="cls-3" d="m11.56,436.29c.31,3.16.67,6.09.99,8.92-.11-1.08-.14-1.54-.09-1.25-.2-1.61-.53-3.89-.9-7.67Z"/>
          <path class="cls-3" d="m288.79,519c-.37-.02-.79-.05-1.19-.07-5.62.03-3.16.07,1.19.07Z"/>
          <path class="cls-3" d="m376.76,107.51c-.26,0-.4,0-.64-.02.26.02.59.04.82.06l-.19-.05Z"/>
          <path class="cls-3" d="m396.76,108.33c-8.54.05-13.37-.29-19.81-.78l6.54,1.63,13.27-.85Z"/>
          <path class="cls-3" d="m789.94,484.68l-.04-14.04c1.11,16.93,1.42,29.15,1.46,15.98-.72-.96-1.2-14.59-1.57-28.24-.38-13.64-.69-27.28-1.39-28.24l.1-9.27c.04,2.65.13,3.08.17,5.7.29-18.02-1.25-13.36-1.47-36.57-.04-8.09.07-13.74.32-8.23l-.63-18.02c-.06-5.24.2-3.97.26,1.25l-.52-27.49.04.2c-.27-3.92-.72-12.8-.92-17.14.1-6.99.19,3.5.34,1.71l-.53-15.22c.27-6.21.77,6.41.87,16.92,1.17-14.23-.53-12.63-.1-43.32l.34,14.37c.66-9.27.24-20.49.57-36.74-.22,3.85-.86,32.54-1.39,16.03.05-4.66.03-10.79-.32-19.7.49-.09.27-8.79.21-19.66l.64.74c-.12-5.85-.14-8.56-.27-10.67-.11-2.11-.24-3.61-.33-7.07.26-13.12.79-15.83,1.26-18.91.41-21-1.01,14.49-.76-10.37.25-8.73.36-16.17.39-24.03,0-.98,0-1.97,0-2.97,0-.5,0-1,0-1.51.01-.48.02-.96.04-1.45.08-1.97.25-4.06.43-6.22.36-4.33.79-9.01,1.17-14.25,1.24-12.25.22,2.18.77-2.2.14-3.64.22-7.29.2-10.95.1-2.68.23-1.81.29-1.37.02-4.64-.21-4.84-.35-5.69-.08-.43-.18-1.02-.28-2.42-.16-1.4-.23-3.6-.82-7.27-.16-.48-.34-1.31-.62-2.43-.27-1.12-.64-2.53-1.31-4.14-.68-1.58-1.69-3.53-4-4.83-1.16-.56-2.36-.77-3.54-.87-1.19-.1-2.37-.07-3.57.02-4.77.39-9.68,1.65-14.49,2.98-2.37.68-4.73,1.37-7.03,2.03-.56.15-1.12.3-1.64.42-.53.12-1.14.22-1.7.34-1.14.23-2.26.46-3.34.69-4.34.55,2.01-.74.65-.76-11.96,2.28-17.08,3.25-21.67,4.13-2.29.46-4.45.88-7.27,1.44-2.82.54-6.3,1.15-11.23,2-5.65.62-11.3,1.19-16.96,1.7,12.48-1.02-3.31,1.57-17.24,3.33,4.45-.19,8.25-.38,10.8-.56-7.41.92-14.84,1.72-22.28,2.44-2.71.12-.47-.29,3.16-.85-1.52.18-2.96.35-4.08.49-8,.38-3.89-.3,1.8-1.11,2.73-.1,5.44-.21,8.07-.3,5.47-.89,10.57-1.86,9.38-2.11-1.44.23-4.22.57-7.28.89,1.43-.24,2.34-.43,1.67-.42-.76,0-3.07.37-6.7.85l-5.12-.28-1.21.38c-4.86.32-9.73.6-14.59.83-4.87.19-9.73.43-14.6.58-10.43.82-20.19,1.62-31.51,2.17-11.32.59-24.19.97-40.83.85,8.26-.4,1.79-.83,2.24-1.44,9.06.82,25.74,0,42.95-.22-8.98.08-7.01-.25-4.73-.39-10.23.38-20.46.56-30.7.7.7-.48-6.52-.46-14.53-.8,3.02.57-2.7.61-10.75.5-8.05-.19-18.41-.43-24.66-.58-.76-.39,2.24-.55,17.49,0-16.79-1.28-21.78.43-38.26-.96,3.72.17,5.73.31,7.2.2-8.71-.07-29.95-1.4-24.93-1.44l3.71.18c-24.69-1.37-75.2-4.24-78.93-3.58-.24-.12,3.3-.84,4.8-.92l-44.24.33c3.92-.51-10.88-3.1,9.63-2.34-5.88-.44-13.15-.98-25.56-1.43,4.01.33,9.94,1.63,4.45,1.38-15-1.68-10.42-1.03-28.94-2.79,6.01.5-.74,1.26-10.24.68,1.49-.09-.73-1.17,2.75-1.09l-23.72-.23c5.92.14,1.1-.89-4.18-1.51,2.44.36-20.45-1.19-26.77-1.44l10.01.84c-26.7-1.7-26.48.07-52.97-1.51,3.22-.05,8-.97-5.46-1.89-6.21.22-27.51,1.2-50.98.3l-4.48-.59-18.01-.66c11.25-.22,42.79-.24,60,.03-9.98-.83-2.76-.55-17.73-1.38-5.27-.61,8.19,0,12.59.23l-34.84-2.2c1.51.76-26.69-.85-25.39-.22l37.89,1.47c1.49.76-22,.65-46.69-.88-6.27-.62,4.77-.93,4.27-1.18-1.61.03-7.48-.21-13.24-.43-5.76-.23-11.41-.38-12.55-.5,3.51-.02,7.03-.01,10.54.03-6.89-.44-12.55-.39-18.55-.26-6.01.17-12.35.34-20.68.57-2.87.16-7.18.36-10.89.64-1.85.16-3.56.35-4.86.5-1.3.18-2.19.37-2.42.5,4.73-.4,7.61.06,8.54.72.93.68-.09,1.47-3.09,2.2-.49.06-2.59.27-5.54.72-.73.12-1.54.2-2.36.36-.82.17-1.68.34-2.57.52-1.81.28-3.63.94-5.53,1.49-.48.12-.93.32-1.39.52l-1.37.58-1.37.58c-.46.19-.86.47-1.29.7-.84.49-1.7.94-2.49,1.43-.75.56-1.49,1.1-2.19,1.62-.74.48-1.31,1.11-1.89,1.65-.57.55-1.15,1.04-1.61,1.55-.9,1.05-1.64,1.92-2.16,2.53-1.36,1.89-1.66,2.08-1.4,1.34.13-.37.39-.97.74-1.69.43-.67.93-1.47,1.43-2.27.48-.83,1.11-1.56,1.65-2.22.54-.66,1-1.25,1.29-1.65.31-.38.46-.57.29-.54-.08.02-.24.09-.48.25-.22.18-.53.43-.92.79-.03.1-.29.42-.67.88-.37.48-.95,1.01-1.4,1.73-.49.69-1.01,1.42-1.48,2.1-.25.33-.46.67-.63.99-.18.32-.34.6-.48.85-1.71,2.59-1.45,2.01-1.68,2.18-.11.09-.31.4-.86,1.44-.58,1.03-1.39,2.85-2.48,6.02,0,.29-.13.92-.34,1.75-.22.83-.51,1.86-.75,2.99-.25,1.13-.59,2.32-.82,3.49-.24,1.16-.48,2.28-.67,3.23-.36,1.89-.56,3.09-.44,2.55.13-.53.51-2.82,1.86-7.8-.4,1.57-.62,2.97-.88,4.23-.26,1.26-.45,2.39-.63,3.43-.38,2.08-.65,3.83-.94,5.65-.59,3.64-1.14,7.55-2.07,14.97,1.04-4.67-.21,13.52-1.57,26.22-.08-.77-.66,2.05-.92,3.42-3.18,25.94-5.1,39.84-7.46,64.11-.19,1.11-.61,4.59-.96,7.16-.33,2.58-.6,4.25-.53,1.74-.17,3.51-.27,6.73-.85,14.23-.87,7.23-.56,3.05-.23-1.56.33-4.61.74-9.66-.1-4.16.28.98-1.04,19.44-1.43,30.15.38-1.63.84-7.8,1.27-14.9.45-7.1.95-15.13,1.29-20.49.44.01.41,4.68.18,12.53-.27,7.84-.73,18.87-1.27,31.58-.79,20.21-.98,8.73-1.03,12.24-.2,4.74-.35,8.81-.45,12.35-.06,3.54-.09,6.56-.1,9.22-.02,5.31.16,9.15.25,12.79.28,7.28.46,13.75.54,29.5-.14,12.51-1.05.6-1.35,3.38-.69-16.48-.13-25.31-.02-36.47-.17,4.58-.25,9.17-.32,13.75-.23-5.24-.26-16.25.04-22.25-.34,5.24-.73,21.31-.25,39.72.42,18.42,1.81,39.15,3.16,53.77.66,5.18,2.01,14.07,1.69,9.82-.43-3.06-.78-6.14-1.12-9.21-.23-4.26.38.06.91,3.99.56,3.92,1.13,7.44.49,1.61,1.76,12.32,4.14,26.03,7.23,43.24l.02,3.35c.05-.2-.4-3.03-.99-6.4-.31-1.69-.65-3.51-.96-5.21-.29-1.71-.58-3.3-.83-4.5.68,3.58,1.76,10.2,2.91,16.9.65,3.34,1.32,6.69,1.98,9.69.64,3,1.42,5.61,2.07,7.51l-1.22-6.01-1.09-6.04c1.4,6.01,3.26,12.64,5.2,19.63,1.01,3.48,2.04,7.06,3.09,10.67.54,1.8,1.09,3.62,1.64,5.44l.8,2.74.41,1.48.21.04c-.07-.03-.14-.06-.18-.08-.04-.35-.08-.64-.11-.88,0-.06-.02-.11-.02-.16-.03-.12-.06-.24-.08-.35-.06-.22-.11-.43-.15-.62-.2-.76-.36-1.29-.56-1.95-.37-1.33-.97-3.17-2.06-8.4.4,2.36-.03,1.15-.86-1.75-.81-2.91-2.12-7.49-3.15-11.96-2.23-8.89-3.86-17.18-2.74-9.59-.79-5.6-1.77-10.38-2.65-15.62-.98-5.22-1.85-10.9-2.72-18.22-.07.24.06,1.54-.06,1.18-.14-.36-.45-2.39-1.34-8.82-.14-.57-.42-1.93-.59-2.79-.05-.39-.07-.53-.11-.87.03.26.05.45.08.71-.11-.55-.12-.6.03.26.36,3.07.61,5.57.65,6.59-.35-1.58-.79-4.04-1.29-6.95-.47-2.92-.91-6.3-1.39-9.69-.5-3.39-.84-6.82-1.2-9.82-.36-3-.66-5.59-.87-7.33-.56-7.7.5,3.2.36-1.02-.4-3.46-.85-6.92-1.22-10.38.38-1.07-.61-20.49.85-2.39l-.53-8.16-.39-8.16c-.1-4.81-.22-10.53-.34-16.06-.05-5.53-.21-10.88-.29-14.97.03-7.71-.39-19.49-.12-12.77,0-8.55.09-17.11.32-25.66l.12-.23c.95-25.3,2.14-52.14,5.76-80.92.75-8.5,1.49-17.3,3.23-31.48l.7-2.72c1.09-10.91,4.27-32.65,4.46-37.38.62-2.9,1.37-7.65,2.17-13.45.83-5.78,1.63-12.67,2.62-19.61.49-3.48,1.11-6.96,1.82-10.35.21-.83.41-1.67.61-2.5.19-.83.41-1.65.67-2.44.24-.8.49-1.59.73-2.37.27-.77.57-1.51.85-2.25.51-1.52,1.28-2.84,1.9-4.2.33-.66.75-1.25,1.11-1.87.39-.59.69-1.24,1.14-1.75.86-1.04,1.56-2.16,2.49-2.97.43-.43.85-.86,1.26-1.27.38-.44.88-.72,1.29-1.07l.2-.81c1.14-1.01,2.5-1.71,3.78-2.52.62-.44,1.37-.68,2.05-1.02l2.1-.97c1.49-.48,2.95-1.04,4.48-1.48,1.57-.35,3.11-.78,4.76-1.1,6.68-1.26,13.83-2.21,21.97-2.81l-1.03-.38c7.02-.66,16.12-.75,26.24-.37,10.12.37,21.27,1.2,32.51,1.82-1.54.08-7.23-.29-11.25-.62,26.76,2.54,56.63,2.51,80.92,4.64,6.07.18,10.46.49,14.7.85-.57-.02-1.07-.04-1.51-.06.62.04,1.54.09,2.49.15,2.67.23,5.43.47,8.41.72-2.53-.25-4.96-.48-7.07-.65,4.68.26,11.77.61,18.73.9l2.93.65c.57.03,1.02.05,1.61.08,6.81.57,5.5.09,1.88-.48,3.5.12,6.72.21,9.21.24,5.5,1.09,18.25.78,25.77,2.05,4.71-.14,34.96,1.7,38.71,1.06.23.12,2.28.29-1.48.09,7.74.54,15.48,1.08,22.45,1.24l3.25.8,16.97.15c10.26.96,14.51,1.42,4.27,1.31,24.69.69,20.01.87,41.01,1.36l-1.05.34c7.49.41,19.5.57,24,1.16,8.36.84,29.08,2.11,53.12,3.36,24.03,1.26,51.37,2.35,72.94,3.02-4.17-.64.84-.44,7.11-.19,6.27.25,13.81.44,14.66,0,2.51.28,8.53.39,1.54.67,22.02-.35,33.12.04,48.3-1.39,2.53.17-4.7.6-2.45.67,1.77-.13,6.99-.52,9.29-.51,2.25.03-3.21.44-6.69.68,22.51-1.17,24.71-2.39,26.28-3.26,11.39-.5,17.06-1.11,25.19-2.47,3.97-.17,10.59-.59-3.31.97,3.92-.36,15.87-1.55,26.91-3.02,5.52-.74,10.81-1.47,14.75-2.2,3.94-.72,6.55-1.26,6.72-1.45,2.46-.25,10.85-1.78,12.88-2.19,4.35-.72,7.71-1.28,10.57-1.75,1.4-.21,2.82-.5,4.03-.84,1.24-.33,2.39-.66,3.53-.99,2.29-.66,4.55-1.34,7.28-2.08,2.72-.71,5.94-1.6,10.07-2.06-1.52.11-3.07.33-4.61.61,1.6-.52,3.29-.92,5.1-1.12.91-.09,1.85-.13,2.8-.05.94.08,1.92.29,2.69.76,1.58,1.07,2.72,3.21,3.39,5.78.7,2.58,1.1,5.59,1.32,9.02l-.1-.39c.16,3.94.06,7.13-.04,9.73-.1,2.6-.24,4.62-.34,6.26-.22,3.26-.34,4.97-.45,6.65-.12,1.69-.24,3.37-.58,6.58-.18,1.6-.41,3.59-.71,6.16-.29,2.58-.72,5.7-1.05,9.71.2-.57.39-1.15.59-1.71.3,1.54.14,8.51-.25,17.42-.36,8.91-.84,19.73-.77,28.89l.37-6.61c.23,10.01-1.87,27.92-2.05,38.01-.08,2.21-.17-3.49-.16-6.54-.25,6.6-.2,10.11-.18,11.97.04,1.86.15,2.08.27,2.08.25.01.59-.81.74,8.99-.31,3.62-.91-4.65-.85,8.54-.22,6.58,1.51,38.25,1.11,56.25.21-3.97.42-7.91.73,1.19.28,13.95-.46,37.73.57,50.32-.04,1.77-.1,2.45-.16,2.52.38,10.66.94,34.65,1.52,41.06-.74,4.94-.22,21.51.36,36.82.56,15.31,1.21,29.35.45,29.26l.6,16.41.39,8.21.25,4.12.15,1.95.11,1.09-.21-.5c.05.44.07.87.19,1.2.07.05-.03.02-.07.03h-.15c-.1.01-.19.02-.28.02-.18,0-.35.02-.51.02-3.93.21-7.26.4-10.14.55-3.19.19-5.88.38-8.24.56-4.71.36-8.1.7-11.47,1.04-4.84.14-1.32-.18-.92-.28-15.3.65-23.72.86-31.51,1.29-7.79.4-14.95.92-27.77,1.83l-2.69-.4c-6.95.51-44.28.86-74.29,2.14.29-.06.91-.18,3.3-.31-16.88.81-37.12.79-54.66.95-8.77.1-16.88.12-23.56.28-6.68.16-11.95.43-15.04.92-7.43.22-14.86.51-22.3.67,28.86-.12-4.29.85,7.58,1.03-11.35.19-29.35-.42-15.4-.56l2.18.08c5.12-.96-35.86-.19-35.08-.84-56.78.04-112.11-1.29-165.27-2.79l6.11.9-18.54-.54c-4.86-.3-6.52-.75,6.71-.36-3.47-.3-9.02-.36-13.75-.33-4.73.01-8.64.1-8.83.17-25.89-1.19,10.14-.5,2.2-.8l-10.79-.32,2.43.17c-8.75,0-9.54.29-25.44-.3-10.05-.5-5.14-.62-9.1-.81.01-.03-.32-.06-1.24-.1-.93-.03-2.45-.09-4.83-.17l-23.35-1.05,9.31.97c-10.36-.15-21.96-.96-11.21.15-7.89-.78-29.65-1.97-50.66-3.03-10.51-.49-20.81-1.14-29.1-1.59-8.29-.48-14.56-.86-16.98-1.07-7.26-.19-14.46-.56-22.05-1.02-7.6-.45-15.6-.99-24.45-1.59,2.2.2,3.94.51,3.23.63-.36.06-1.33.07-3.16,0-.92-.04-2.05-.1-3.43-.17-1.25-.08-2.72-.18-4.45-.29.89-.15.85-.31.24-.47.03-.44.02-1.06-.02-1.81-.01-.2-.03-.41-.04-.64-.03-.31-.06-.63-.09-.97-.07-.68-.14-1.41-.22-2.19-.35-3.12-.79-7-1.25-11.09-.88-8.18-1.8-17.15-1.96-22.39.25,5.53-.9-5.28-2.01-15.3-1.05-10.03-1.96-19.28-1.63-10.61-1.06-12.72.43-.82-.14-10.49-1.51-15.11-2.74-31.8-3.58-49.41-.49-8.8-.79-17.83-1.18-27-.15-4.59-.31-9.21-.47-13.86-.08-2.32-.17-4.65-.25-6.99-.07-2.34-.13-4.68-.2-7.02-.19-.58-.3,5.71-.76-2.33l.2-9.92.3-9.91c-.18-7.41-1.15-6.81-.56-20.36-.14,1.91-.36,4.77-.43-.2.04-9.19.26-18.44.37-27.72.24-9.28.37-18.6.7-27.95.24-9.35.65-18.72,1.02-28.11.39-9.39.92-18.77,1.88-28.11.95-9.33,2.4-18.62,4.71-27.68,1.11-4.54,2.56-8.98,4.15-13.36l1.3-3.24.65-1.62.73-1.58,1.47-3.16c.51-1.04,1.09-2.05,1.63-3.08,4.36-8.2,10.12-15.52,16.49-22.31,6.35-6.81,13.25-13.13,19.94-19.74-3.68,3.53-4.36,4.04-3.41,3.02.96-1.01,3.48-3.64,6.16-6.45-3.54,3.62-.23-.38-1.09.18,7.38-7.41,14.36-15.51,19.72-24.71,1.18-2.66,5.09-10.25,7.75-18.01,2.79-7.71,4.45-15.41,4.53-17.07-.71,3.25-1.46,6.5-2.38,9.71.77-3.24.63-3.79.18-2.79-.23.5-.6,1.37-1.03,2.48-.42,1.11-.94,2.43-1.52,3.83-1.12,2.81-2.52,5.87-3.65,8.08-1.17,2.2-2.02,3.57-2.05,3.03-1.3,3.42-3.14,7.24-5.57,11.23-2.43,3.99-5.42,8.13-8.94,12.22-6.97,8.24-15.84,16.4-23.94,25.48-3.9,3.69,2.99-3.48.82-1.59-2.01,2.34-4.32,4.84-7.24,8.09-2.92,3.25-6.51,7.2-10.69,12.78l.87-1.32c-5.85,7.87-9.68,15.46-12.63,22.62-2.92,7.2-4.95,14.05-6.6,21.13-3.26,14.17-4.94,29.25-6.07,50.94l.63-3.19c-.49,9.32-.69,11.27-1.01,15.63.14,5.36.42-1.18.72-7.84.27-6.66.69-13.44.83-8.55-.78,6.16-1.52,22.58-1.97,38.51-.21,7.97-.41,15.81-.58,22.18-.15,6.37-.33,11.28-.62,13.36-.11,14.35.54-4.2.5,10.14l-.29,3.8.39,3.62c-.07,9.4-.32,14.15-.58,14.51,0-2.28-.17-6.49-.18-8.93-.15,6.1.04,14.7.19,22.3.25,7.6.5,14.19.5,16.29l-.16-13.79c1.04,39.14,3.31,86.94,7.54,124.54l-.04-2.88c1.48,14.37,2.12,20.11,2.63,26.23.26,3.06.56,6.2,1.03,10.55.49,4.34,1.04,9.9,2.1,17.76l-.2-1.14c.35,2.16.71,4.57,1.09,7.15.18,1.29.37,2.63.57,4,.23,1.74.47,3.53.71,5.34,2.94.19,6,.38,9.09.58-8-.26,14.99,1.49,4.5,1.09,31.26,1.59,15.47.68,36.15,1.16l4.74.64c7.05.07,7.65-.07,23.45.74-12.98-.43,10.05,1.15-4.49.73,8.28.67,15.5,1.16,21.91,1.48,6.41.3,12.01.49,17.05.66,10.08.35,17.91.62,25.49,1.6,15.28-.27-28.68-2-20.14-1.8-7.12-.69,12.61-.13,23.01.48,10.6.47,17.96,2.07,44.63,3.18-2.65-.12-2.84-.05-5.48-.16,9.97.7,19.57.35,31.8,1.22,6.88-.38,15.9.58,17.9-.14l-24.47-.66c13.88.27,26.91-.15,49.75.86-1.78.11-8.59.14-13.27.13,6.68.41,12.87.19,19.79.62-1.99.71-29.75-.55-44.62-.54,3.58.29,10.61.39,15.81.49,5.2.06,8.57.14,4.82.47,10.77-.81,26.29.87,44.37.47l-1.2.45c2.86-.02,8.79-.13,14.05-.02l-9.54.43c14.64-.25,28.2,1.02,42.24.96-29.39-.51-6.59-.69-19-1.26,18.12.06,23.33.39,29.08.82,5.75.43,12.04.91,32.33,1.03-5.5,0-20.62-.52-12.03-.64,3.86.11,8.34.23,12.45.35,4.11.12,7.84.23,10.21.37,26.89,0-4.13-.5,7.32-.75,9.15.61,13.2-.19,24.99-.33l.08.48c30.64.27,8.12-1.02,35.7-.73l-11.66.71,14.38-.23-2.96.56c15.64-.44,20.51-.41,35.84-.44-3.57-.3,1.99-.9,15.56-1.07,9.26.17-5.18.54,14.06.2-4.34.4-9.09.8-17.47.46-.86.17-4.28.35-5.16.52,4.99.11,11.25.05,17.14-.04,5.89-.14,11.4-.28,14.88-.36-2.68.03-5.89.07-7.53.03l27.87-1.21c4.39.1.91.31-2.53.52,5.65-.17,9.55-.44,17.85-.67-2.14.45-1.61.84-13.37,1.25,8.85-.29,17.7-.67,26.55-1.06,1.78.12,13.64.1,10.2.34,7.37-.1,16.39-.48,26.02-1,9.62-.52,19.84-1.04,29.61-1.23,1.01-.11,3.04-.25,7.19-.46,9.17-.29,17.82-.57,26.9-.85,9.07-.34,18.57-.7,29.42-1.51l12.36.08c17.01-1.01-16.73-.05,11.59-1.73,10.02-.61,11.9-.56,12.16-.37.13.09-.15.22-.02.32.03.02.09.05.19.06.05,0,.11.02.17.02.03,0,.07,0,.11.01.07,0,.14,0,.22,0,.64,0,1.65,0,3.2-.06.1,0,.21-.01.34-.02.41-.19.84-.38,1.28-.58.22-.1.45-.2.68-.3.12-.05.24-.1.36-.16l.18-.08.05-.02h.01s0,0,0,0c.48.39-4.17-3.4-2.2-1.8h0s0,0,0,0h0s-.01,0-.01-.02c-.08-.47-.12-1.19-.17-1.88v-.13s-.01-.07-.01-.07c.02,0-.06-.04.05-.02l.26.04c.69.1,1.37.21,2.06.31.06,0,.22.04.21.02v-.06s-.03-.11-.03-.11l-.04-.23-.06-.45c-.06-.56-.13-1.14-.19-1.72-.16-1.4-.31-2.91-.44-4.5-.27-3.17-.52-6.66-.73-10.36-.41-7.41-.68-15.71-.65-24.25.3,6.09.34,10.88.58,16.57Zm-4.09-209.94c.14,4.07.55,12.18.3,15.15-.61-4.63-.39-8.22-.3-15.15Zm-143.57-158.92c3.01-.32,7.68-.52,12.95-.73-3.82.32-8.14.6-12.95.73ZM7.64,383.33c-.01-.17-.03-.29-.04-.43-.07-4.52-.01-5.99-.03-5.53,0,.46,0,2.83.06,5.96Zm.56,18.79c.16,1.88.22,1.75.25.95-.19-1.3-.4-5.52-.6-10.32-.06,1.34-.03,3.77.35,9.37Zm221.21,111.62l3.66.28c-8.28-.21-5.96-.24-3.66-.28Z"/>
          <path class="cls-3" d="m678.26,112.32c1.15-.04,1.48.02,1.75.08,1.58-.24,1.6-.34-1.75-.08Z"/>
          <path class="cls-3" d="m685.57,518.94l-.64.02c-.35.04-.54.08-.64.11l1.28-.13Z"/>
          <path class="cls-3" d="m30.57,111.64c.28-.43.53-.84.79-1.21.29-.36.56-.69.82-1.01.52-.63.98-1.18,1.38-1.68.87-.93,1.61-1.55,2.17-2.06.04-.12-.29.13-1.18.97-.22.21-.48.46-.78.75-.27.31-.56.68-.89,1.09-.64.84-1.54,1.79-2.31,3.16Z"/>
          <path class="cls-3" d="m22.49,500.43c-.95-3.89-1.79-7.8-2.69-11.7,1.25,5.67,1.58,7.72,2.13,10.61.06-.29-.3-2.56.56,1.1Z"/>
          <path class="cls-3" d="m97.69,544.98c1.76.12,3.72.37,5.46.49l-.46-.27c-7.48-.73-12.72-1.12-5-.22Z"/>
          <path class="cls-3" d="m23.56,511.62c-.07.51.41,2.58,1.2,5.54.4,1.48.87,3.18,1.37,5.02.51,1.84,1.15,3.79,1.76,5.81-.14-.49-.28-.95-.42-1.43.63,1.11.26-.47-.61-3.4-.8-2.95-2.04-7.25-3.29-11.55Z"/>
          <path class="cls-3" d="m28.45,529.88c.41,1.37.83,2.75,1.24,4.11.69.12,1.37.24,2.04.36.3-.02.15-.08-.35-.17-.35-.07-.9-.15-1.63-.26-.15-.45-.32-.96-.5-1.5-.25-.8-.52-1.66-.8-2.54Z"/>
          <path class="cls-3" d="m10.2,425.87c.23,3.99.75,2.45.81,4.71.82,4.41-2.92-26.48-.81-4.71Z"/>
          <path class="cls-3" d="m24.03,518.57l-.3-3.06c-.53-1.49-1.09-2.98-1.6-4.48l1.9,7.53Z"/>
          <path class="cls-3" d="m11.25,453.08c.63,4.46,1.16,8.93,1.86,13.38.05-.21.38,1.47.77,3.54-.34-2.05-.68-4.16-1-6.15-.28-2-.55-3.89-.78-5.52-.46-3.25-.79-5.42-.84-5.26Z"/>
          <path class="cls-3" d="m13.88,470.01c.36,2.14.72,4.22,1.03,6.07.36,1.84.69,3.44.96,4.62-.22-1.15-.58-2.96-.96-4.92-.35-1.96-.73-4.06-1.03-5.77Z"/>
          <path class="cls-3" d="m19.38,500.69c-.29-1.3-.51-2.62-.76-3.93l-1.96-9.34c.89,4.42,1.78,8.85,2.73,13.26Z"/>
          <path class="cls-3" d="m6.9,308.15l.73-14.73c-.08-1.51-.44,2.49-.7,7.98-.11,3.53-.32,9-.04,6.75Z"/>
          <path class="cls-3" d="m4.11,352.71c.15-3.99.27-4.26.46-6.51l-.62-.46.15,6.97Z"/>
          <path class="cls-3" d="m5.31,309.67c-.15-1.48.77-21.42-.32-2.74.1,1.51-.49,16.28.32,2.74Z"/>
          <path class="cls-3" d="m49.92,98.94l-1.79.6c-.59.22-1.15.51-1.72.77l.89.71c.8-.8,1.71-1.41,2.62-2.08Z"/>
          <path class="cls-3" d="m245.41,99.29c-17.44-1.24-4.18.39-19.93-.82-4.11,0,12.87.99,8.66.95,10.55.35,16.07.81,11.27-.14Z"/>
          <path class="cls-3" d="m234.14,99.43c-1.69-.05-3.48-.1-5.39-.15,3.05.11,4.49.15,5.39.15Z"/>
          <path class="cls-3" d="m120.65,27.48c1.28-3.6,2.45-7.24,3.44-10.92-.72,2.36-1.49,4.7-2.31,7.02-.38,1.3-.73,2.6-1.13,3.9Z"/>
          <path class="cls-3" d="m125.38,6.12c.38-.84.76-1.67,1.12-2.52.2-2.28.34-4.55.48-6.83-.33,2.54-1.05,7.46-1.59,9.34Z"/>
          <path class="cls-3" d="m786.86,243.52l-.16-.85c-.16,1.74-.15,4.37-.13,9.64l.3-8.78Z"/>
          <polygon class="cls-3" points="788.4 395.92 788.37 393.3 787.87 398.21 788.4 395.92"/>
          <path class="cls-3" d="m777.07,515.88c3.81-.21,8.04-.44,12.17-.67.48-.24.96-.48,1.44-.72l.72-.36.36-.18.18-.09.04-.02h0s0,0,0,0c-1.27-1.04,2.85,2.32-2.85-2.33h0s0,0,0,0h0s0,.01,0,.01v-.02c-.04-.69-.09-1.38-.13-2.05.01,0-.03-.03.03-.03l.36.07.71.13,1.42.26c1.38.33.83-.03.91-.17-.06-.35-.09-.69-.12-1.03-.05-.58-.1-1.15-.15-1.71.06.63.12,1.25.17,1.86.04.35.08.71.14,1.07l.02.13c.06.04-.12,0-.23-.02l-.36-.07-1.44-.26-1.44-.26s0,.09,0,.14c.04.67.08,1.32.12,1.95,0,.01,0,.02,0,.02h0s0-.01,0-.01h0c-.62-.51,5.4,4.4,2.85,2.32h0s0,0,0,0h0s-.05.03-.05.03l-.19.09-.37.18c-.25.12-.49.24-.73.35-.48.23-.96.46-1.42.68-1.63.06-3.17.12-4.6.18-.81.02-1.56.04-2.25.05-1.38.03-2.53.06-3.4.08-1.76.06-2.45.15-1.88.41Z"/>
        </g>
      </g>
    </g>
  </g>
</svg>