<?xml version="1.0" encoding="UTF-8"?>
<svg xmlns="http://www.w3.org/2000/svg" viewBox="0 0 841.89 595.28">
  <defs>
    <style>
      .cls-1 {
        isolation: isolate;
      }

      .cls-1, .cls-2 {
        fill: none;
      }

      .cls-3 {
        fill: #f671b7;
      }

      .cls-2 {
        mix-blend-mode: color-burn;
      }
    </style>
  </defs>
  <g class="cls-1">
    <g id="Layer_1" data-name="Layer 1">
      <g class="cls-2">
        <path class="cls-3" d="m389.09,594.82l.91-.35.33-1.9c-.3.63-.87,1.85-1.25,2.25Z"/>
      </g>
      <g class="cls-2">
        <g>
          <path class="cls-3" d="m391.28,592.18c-.46.87.07.74.07.9.64-1.52-.18-.92-.07-.9Z"/>
          <polygon class="cls-3" points="397.25 577.09 397.3 577.42 397.86 575.07 397.25 577.09"/>
          <path class="cls-3" d="m402.98,563.1c-1.14,1.09-1.89,5.14-3.14,7.55l-.32.35.07,1.35c1.14-3.08,2.42-7.14,3.38-9.24Z"/>
          <path class="cls-3" d="m407.22,556.04c-.43.38.35-1.73-.71,1.75.09-.16.12-.21.18-.3.1-.31.25-.74.53-1.46Z"/>
          <path class="cls-3" d="m406.69,557.5c-.51,1.52.57-.91,0,0h0Z"/>
          <path class="cls-3" d="m408.96,550.46c-.13.7-.28,1.39-.44,2.08.31-.36.94-2.13.83-1.43.53-2.11.24-1.73-.39-.65Z"/>
          <path class="cls-3" d="m409.07,548.39l-.23,1.07c.12-.16.23-.43.23-1.07Z"/>
          <path class="cls-3" d="m408.33,551.73c.19-.75.34-1.51.51-2.27-.2.25-.43.21-.25,1.04-.15-.25-.08.26-.26,1.23Z"/>
          <path class="cls-3" d="m407.8,552.94c-.54,1.07-1.13,2.47-.67.4-1.23,3.83-.57,3.44.67-.4Z"/>
          <path class="cls-3" d="m402.57,562.11l-.75,1.39-.26,1.36c.13-.68,1.25-2.76,1.01-2.75Z"/>
          <path class="cls-3" d="m413.16,537.99c-.11-.17-.59.57-.82.67l-.27,1.54c.32-.74.84-2.17,1.09-2.21Z"/>
          <path class="cls-3" d="m412.34,538.66l.4-2.31c-.61,1.99-.6,2.39-.4,2.31Z"/>
          <path class="cls-3" d="m408.43,547.79c-.22,1.26-.42,2.54-.66,3.8.31-1.5.58-3,.87-4.5l-.22.7Z"/>
          <path class="cls-3" d="m415.47,529.37v1.37c.03-.81.07-1.61.07-2.42-.01.35-.04.7-.07,1.05Z"/>
          <path class="cls-3" d="m416.73,523.58c.07,1.02.78-1.21.72-.16.15-.79.24-1.54.3-2.24.04-.71.04-1.38.05-2.01-.06.66-.16,1.33-.33,2.06-.18.72-.43,1.49-.74,2.35Z"/>
          <path class="cls-3" d="m417.87,517.07c-.05.66-.06,1.35-.07,2.11.06-.7.1-1.4.07-2.11Z"/>
          <path class="cls-3" d="m413.82,532.54c.13-.15.45-.43.88-1.67l-.64.78c-.07.27-.15.58-.24.89Z"/>
          <path class="cls-3" d="m414.03,531.68l.02-.03c.26-.96.44-1.63.52-1.91-.07.25-.23.83-.54,1.94Z"/>
          <path class="cls-3" d="m413.76,532.76c.02-.08.04-.14.06-.22-.06.07-.09.12-.06.22Z"/>
          <path class="cls-3" d="m410.62,542.1c.15-1.38.7-4.18-.42-1.64,0,1.02.65-.43.42,1.64Z"/>
          <path class="cls-3" d="m412.95,533.72l-.72,2.36c.12-.02.4-.4.33.28l.38-2.64Z"/>
          <polygon class="cls-3" points="413.13 532.52 412.95 533.72 413.22 532.85 413.13 532.52"/>
          <path class="cls-3" d="m416.68,521.17c.03-1.09.23-2.24.45-3.55-.36,1.37-.64,2.81-.95,4.17.09.22.19.87.51-.62Z"/>
          <path class="cls-3" d="m415.4,526.28c0-.07.02-.17.03-.24-.07.13-.1.25-.03.24Z"/>
          <path class="cls-3" d="m419.21,504.76c-.03.07-.07.13-.1.2.02.02.05.03.07.06l.03-.26Z"/>
          <path class="cls-3" d="m416.04,522c-.31,1.02-.35,1.66-.36,2.28.13-.79.29-1.61.49-2.5-.04-.1-.08-.12-.13.22Z"/>
          <path class="cls-3" d="m418.36,513.46c-.19.53-.38,1.14-.58,1.77.23-.51.65-1.56.58-1.77Z"/>
          <path class="cls-3" d="m415.62,525.72c0,.05-.01.1-.02.16.17-.32.11-.29.02-.16Z"/>
          <path class="cls-3" d="m415.62,525.72c.06-.55.05-.99.06-1.43-.11.64-.2,1.24-.25,1.76.06-.12.13-.24.19-.32Z"/>
          <path class="cls-3" d="m416.92,500.54c.37.22.45,3.03-.28,5.35-.07,2.36,1.49,1.04,2.47-.93-.16-.09-.32-.12-.28-2.58-.15.41-.43,1.75-.68,2.71-.25.97-.54,1.55-.55.52.16-3.23.43-2.61.82-4.15-.64,1.27-.26-4.15-1.06-3.52l-.06,2.82c-.12.04-.18-.99-.37-.23Z"/>
          <path class="cls-3" d="m418.4,509.57l-.1,1c.24-1.13.52-1.92,1.06-3.37.07-1.69-.06-2.06-.17-2.19-.21,1.64-.52,3.27-.77,4.91v-.35Z"/>
          <path class="cls-3" d="m417.55,515.04c-.14-.42-.14-1.24-.2-1.77-.07-.54-.2-.79-.54-.1-.52,2.9-.03,2.09-.18,3.85.79-4.7-.02,1.39.86-1.95-.1.93-.24,1.77-.37,2.55.21-.83.43-1.64.66-2.39-.02.04-.03.07-.05.1v.02s0,0,0,0c-.09.19-.14.25-.06.03,0-.02,0-.07,0-.1-.05-.04-.09-.14-.12-.24.35-1.34.15-.19.12.24.02.02.03.06.05.07v-.02c.25-1.58.41-3.17.57-4.76-.23.99-.35,2.25-.74,4.46Z"/>
          <path class="cls-3" d="m410.02,537.77c.08-.13.11-.12.14-.12.03-.31.03-.43-.14.12Z"/>
          <path class="cls-3" d="m410.81,535.97c-.04.35.05.67-.31,1.73-.4.9-.2-.06-.35-.05-.08.68-.36,2.35.43.38l.04-.34c.7-1.78,1.81-4.03,1.79-3.69-.52.44-.9.85-1.6,1.97Z"/>
          <path class="cls-3" d="m414.32,525.45l.66-3.91-.81,1.88.24-.05c-.58,2.17-.2,1.76-.1,2.07Z"/>
          <polygon class="cls-3" points="419.47 504.33 419.87 504.92 419.49 502.54 419.47 504.33"/>
          <path class="cls-3" d="m420,499.17l.37.23c-.03-.46-.05-.92-.09-1.39-.08.39-.19.77-.28,1.16Z"/>
          <path class="cls-3" d="m392.36,214.75l-.8-.72c.36.35.61.57.8.72Z"/>
          <path class="cls-3" d="m396.83,221.12l.27.07c-.28-.27-.42-.35-.27-.07Z"/>
          <path class="cls-3" d="m415.96,373.28c.31-1.7.81-3.6.38-3.38l-.41.53c.12,1.17.1,2.08.04,2.85Z"/>
          <path class="cls-3" d="m409.37,287.39c-.03.16-.07.33-.1.5.18.4.34.77.49,1.11-.12-.48-.25-1.03-.39-1.61Z"/>
          <path class="cls-3" d="m407.5,286.32l.13-2.23c-.06.5-.1,1.22-.13,2.23Z"/>
          <path class="cls-3" d="m351.64,199.55l-1.44.13c2.1.48,1.22.05,1.44-.13Z"/>
          <path class="cls-3" d="m418.69,446.47c.1-1.46.11-2.62.09-3.63-.17,1.76-.47,3.19-.09,3.63Z"/>
          <path class="cls-3" d="m398.01,214.36c-.53-.55-.79-.75-.85-.67.53.56.87.86.85.67Z"/>
          <path class="cls-3" d="m418.59,438.65c-.02.26-.04.51-.07.77.12,1.06.23,2.12.26,3.42.13-1.3.17-2.78-.19-4.19Z"/>
          <path class="cls-3" d="m367.93,68.07c.08-.09.16-.21.23-.29-.03-.06-.12.08-.23.29Z"/>
          <path class="cls-3" d="m383.31,23.17c.04.48.07,1.27.09,2.01.02-.36,0-.97-.09-2.01Z"/>
          <path class="cls-3" d="m420.75,478.23c.07,1.11.05.17,0,0h0Z"/>
          <path class="cls-3" d="m419.21,483.63c-.04-.23-.11-.41-.21-.44.11.09.18.24.21.44Z"/>
          <path class="cls-3" d="m415.42,427.96s0-.06,0-.09c-.07.33-.06.27,0,.09Z"/>
          <path class="cls-3" d="m420.61,479.91c.04-.42.07-.9.08-1.42-.03.23-.05.66-.08,1.42Z"/>
          <path class="cls-3" d="m420.81,479.68c0,.38,0,.68,0,.97.08.14.12.01,0-.97Z"/>
          <path class="cls-3" d="m420.67,476.69c.03.63.03,1.23.02,1.8.02-.22.04-.31.06-.25-.02-.32-.04-.78-.08-1.54Z"/>
          <path class="cls-3" d="m316.09,139.79c.03-.07.07-.14.11-.21.17-1.12.05-.64-.11.21Z"/>
          <path class="cls-3" d="m410.36,345.23s.02.08.03.12c0-.05,0-.12,0-.16l-.03.04Z"/>
          <path class="cls-3" d="m409.87,341.34c.61,1.64.58,2.58.52,3.84l1.19-1.34-1.72-2.5Z"/>
          <path class="cls-3" d="m376.43,205.07c.79.4,1.56.83,2.32,1.27-3.14-.54-5.24-1.37-3.1-.11.38-.58,2.82.17,5.09,1.18,2.28,1,4.4,2.2,4.9,1.75.42.39.85.76,1.26,1.15-.38-.29-.5-.25-.89-.52,1.19,1.14,1.76,1.34,2.54,1.52.72.24,1.68.45,3.13,2.02.97,1.13,1.47,2.05.69,1.41.84.7,1.57,1.51,2.34,2.31.53.81.22.73-.33-.04.53.64.97,1.36,1.46,2.03.46.7.88,1.43,1.32,2.15h-.05c.5.53,1.57,1.85,2,2.57.34,1.28-.39-.55-.41-.17.47.83.97,1.65,1.39,2.52.07,1.22-1.04-.9-1.8-2.69-.11,1.5.23,1.95.69,2.81.48.84,1.2,2.04,1.59,4.92-.28-.85-.6-1.69-.93-2.51-.19,1.85.63,3.77.81,6.83.07-.38,0-1.91.07-3.01.03-1.08.19-1.72.77-.27.09.89.35,2,.94,3.62-.46.11-.02,1.7.35,3.74l-.65-.04c.52,2.18.83,1.96,1.29,3.23.29,2.5-.17,3.09-.51,3.73.36,4.03.48-2.88,1.13,1.88.11,3.39.63,5.74,1.39,9.75,0,2.39-.43-.38-.53.49l.71,2.05c.04.51-.14.36-.22.29.36,1.75.65.09,1.07,2.85.78.69-.53,5.8.54,9.18-.11.86-.42-.38-.65-.1.88,4.69.7,4.02,1.68,7.86l-.19,3.34c.31-2.47,1.1.6,1.74,3.3.17-.88.33-1.63.39-2.13l.63,4.33c-.07.53-.32.11-.63-.59.08.29.15.57.21.79-.13,1.57-.56.79-.98-.3.1-.54.2-1.07.29-1.59-.46-1.05-.95-2.03-1.31-1.78.09.28.19.82.27,1.41-.12-.27-.23-.45-.28-.31-.06.15.11.6.32,1.3l-.65,1.03.3.22-.09,5.72c.96,4.03,2.21,7.51,2.85,13.97-.61-1.58-.87-.3-1.49-.36.56-1.8-.54-4.99-.6-8.35.03,1.75-.29,1.38-.41.94l.92,5.94c-.51-.11-.31,1.29-.44,2.86.94-1.23.89,4.42,1.31,6.84-.33.17-.7-.4-.76-3.37-.59,3.31,1.38,4.18.89,7.42-.04-.73,0-1.12-.19-1.4.38,1.68.33,5.83,0,4.87l-.04-.72c.11,4.82.64,14.65,1.52,15.34-.11.05-1.05-.59-1.24-.87l3.22,8.47c-.76-.73-2.38,2.25-2.96-1.72-.06,1.15-.12,2.57.24,4.98.07-.79.97-1.99,1.09-.93-.69,2.97-.35,2.05-.9,5.7.11-1.18,1.31.08,1.34,1.93-.18-.28-1.12.2-1.27-.47l1.3,4.57c-.25-1.14-.96-.17-1.24.88.2-.49.13,3.99.29,5.21l.19-1.96c.03,5.21,1.77,5.08,1.9,10.25-.26-.62-1.48-1.49-1.53,1.14.62,1.18,2.96,5.23,3.57,9.79l-.3.89.5,3.49c-.94-2.15-2.98-8.22-3.81-11.54-.19,1.96-.37.56-.23,3.47-.27,1.04-.52-1.57-.57-2.43l.04,6.8c.66-.33.86,5.17,1.41,4.89l-.96-7.36c.66-.32,2.06,4.2,2.11,9.02-.22,1.23-1.23-.87-1.45-.77.25.62.6,4.55.46,5l-.43-2.03c-.16,2.69,1.05,4.34.52,7.59,0,1.11-.74,3.35-.34,3.53.7-1.84,3.06-2.28,3.68-1.1-.04.39-.52,5.86-.85,7.15-.53,1.85-1.54-2.69-1.99-1.12.19.06.45,1.06.54,1.48-.11,1.17-.59-.46-.41,2.07.7.4.14,5.16.62,1.18.29,2.47-.04,2.64.11,5.56.4-.94,1.6,2.56,1.9,5.03-.18-.14-.38.43-.47.7.15,5.09-.04,7.83.17,12.58-.15.44-.24,2.74-.58,1.78.15.68.41,1.29.5,2.76-.45,2.86-.25-3.26-.85-1.07.4.17.73,3.76,1.08,5.83.58-.67-.12-4.82-.46-6.9.84-.05,1.9,3.54,2.53,8.48.41,3.92-.46,1.73-.3,2.41.24,7.4,1.8,6.22,1.54,12.39-.4,2.47-1.06.17-1.42.73-.38-3.2.06-4.94-.08-7.11l-.1,2.69c-.24-1.01-.49-3.14-.4-4.32-.39,2.07.61,12.5.52,18.23.22,1,.46,2.74.65,1.9l-.14-1.81c.37-1.7.72,3.38.84,1.07.2,1.21.44,2.5.61,3.92.21,1.42.24,2.97.07,4.7l-.63.64c.18-.07.41-2.24.24-3.21.25,1.44-.93,5.25-.15,6.84l.47-2.4c.32,2.47.7,5.55.32,8.6.7-1.35-.02-.71.83-2.84-.5.92-.36-1.04-.24-2.86.07-1.82.07-3.5-.41-2,.43-1.11.54-2.08.63-3.13.07-1.06.22-2.2.48-3.68-.2.09-.35,1.05-.34-1.55-.06-.12-.15-.39-.2-.56,0-.08,0-.11,0-.18,0,.05-.01.09-.02.14-.03-.11-.04-.12,0,.05-.07.62-.16,1.12-.26,1.33-.52-1.26-.6-5.38-.97-6.71,0-1.51.27.61.44-.22l-.48-2.01c.44-.23.5-4.04.98-.51l-.18-3.19c.14-1.89.1-4.48-.18-6.06.01-1.51-.71-3.77-.29-2.48l-.54-4.98.11-.05c-.2-4.93-1.25-10.12-.7-15.8-.19-1.66-.41-3.37-.4-6.15l.37-.56c-.23-2.13.12-6.42-.32-7.33.95-2.34-.18-10.37-.13-14.13l-.51-.12c-.07-2.59-.3-5.06-.62-8.26l-.44.21c-.47-2.75.06-7.13-.14-11.5.18.29.18,1.4.1,2.19.83-5.27-1.13-11.01-.56-15.78-.21-1.18-.18-2.03-.1-2.87,0,.11.02.21.03.29,0-.12,0-.3-.01-.49.06-.53.12-1.07.18-1.65-.09.5-.16.98-.19,1.39-.04-.91-.15-2.29-.31-3.64l.46-.6c0-.11-.02-.2-.03-.31.13-1.34-.27-1.06-.6-.34-.1-.68-.22-1.3-.36-1.78.74-1.11-.39-3.55.38-5.05-.44-.9-.57-6.8-1.45-7.49.11-.05.15-.45.18.28.04-1.52.08-3.03-.22-4.38l.59-.67-.96-3.27c.29-2.02.47-2.86,1.03-.89-.93-4.78-.44-3.89-1.33-7.94l.4.18c-.08-1.46-.71-3.77-.42-4.67.61-3.3-.61-16.17-.34-24.6-1.08,1.69.32-3.93-.6-4.21.25-.5.34-1.68.65-.34-.5-4.27.08-6.46-.86-9.37.25-.51.46.89.6.45-.08-.34-.32-1.35-.18-1.8.14-.45.27.61.43,1.28-.31-4.37-1.19-4.76-2-5.03.23-2.24.11-3.34-.52-4.91.21-.79.4-2.09.67.62-.06-1.53-.27-9.36-.93-9.47.13-.49-.11-2.14-.22-2.53-.23-3.43-.21-3.73-.54-7.09l-.03.94c-.87-1.26-.41-2.78-.74-5.48l.09.07c-.02-6.26-.51-2.66-.47-8.84l-.44.38c-1.09-.47.07-5.48-.76-9.01l-.12,1.32c-.57-1.89.71-5.61.5-7.62.02-.44.25.66.41,1.25-.26-5.27-.71-.57-1.54-4.37.19-.77,1.03.75.56-1.86-.01-.67-.68-2.5-1.52-4.58-.39-1.04-.89-2.13-1.26-3.2-.44-1.05-.74-2.09-.97-3,.07.85.14,1.67-.76.05-.58-1.27-1.16-3.11-1.98-4.83-.2-.43-.41-.86-.62-1.27-.23-.4-.48-.78-.73-1.14-.25-.36-.5-.69-.76-.98-.27-.28-.56-.52-.83-.71-.17-.33-.2-.48-.16-.53-.37-.41-.86-.94-1.44-1.48-.57-.55-1.17-1.17-1.83-1.69-1.26-1.1-2.59-1.92-3.22-2.16-.16-.6-.92-1.43-2.06-2.18-1.12-.77-2.58-1.5-4.01-2.1-2.85-1.22-5.56-1.92-5.27-2.64-2.07-.72-4.16-1.38-6.26-1.91l.21-.1c-4-1.19-5.51-1.1-7-1.07-.91-.31-.2-.3-.1-.36-5.81-1.56-6.41-1.56-11.44-1.84l-.4-.59c-1.4-.02-8.19-2.51-13.64-3.99.07-.04.21-.07.66,0-3.11-.79-6.42-2.75-8.99-4.67-1.3-.95-2.42-1.9-3.39-2.62-.51-.34-.93-.68-1.34-.92-.41-.24-.8-.39-1.16-.44-1.13-.82-2.05-1.86-3.05-2.86,1.63,2.16,1.36,2.14.82,1.8-.54-.34-1.37-1-.77,0-1.58-1.6-2.75-4.97-1.27-2.74l.15.4c.64.14-.19-1.34-1.1-2.87-.8-1.6-1.59-3.32-1.27-3.37-2.16-4.84-3-10.15-3.05-15.32-.04-5.19.73-10.27,1.96-15.11l-1,.95c.31-1.14.6-2.28.92-3.41.22-.42.46-.67.53-.52.08.15-.03.68-.33,1.9.18-.29.31-.7.42-1.14.13-.44.22-.91.28-1.36.12-.9.13-1.68.07-1.74.97-2.27,1.04-1.72.87-.83-.17.9-.39,2.21-.17,1.5.18-.65.39-1.29.63-1.92l-.25.39c.16-.82.18-1.29.31-1.91.06-.31.15-.65.29-1.1.16-.44.4-.96.73-1.64.94-1.66.82-.69,1.16-1.35.04.03.16-.19.55-1.01.73-1.29,1.42-2.59,2.23-3.84-.47.41-.95.82-1.41,1.24.76-1.85,2.19-3.6.56-2.16,1.17-1.07,3.53-4.51,5.94-7.76,2.41-3.25,4.88-6.28,5.61-6.9,1.48-2.42,3.35-4.48,5.7-6.99-.66.56-1.5.49.58-1.65.24,1.7,4.13-3.59,6.51-4.67-1.95,1.13,5.72-6.26,2.73-4.43,1.79-1.74.47.24,2-.93,1.85-2.34,4.14-4.68,6.53-7.19,2.37-2.54,4.89-5.24,7.03-8.31-.07-.2-1.04.63-.29-.79,1.04-.85,1.97-1.81,2.97-2.73.74-1.29-.03-1.63,1.85-3.64-.32.25-.8.62-.34-.26,4.15-6.02,7.06-13.11,8.72-20.44,1.65-7.35,2.23-14.83,2.99-22.23-.35,2.01-.38.67-.38-.86-.09.99-.43-.02-.67.18.17-2.05.34-4.11.46-6.17-.36-.54-.47-2.19-.57-3.77-.1-1.58-.25-3.1-.58-3.39l.27,1.92c-.48-1.26-.81-.33-1.17.87-.37,1.2-.75,2.67-1.24,2.51.52,1.4.31,3.31.08,5.42-.17,2.12-.43,4.43.17,6.77-.2,1.02-.3-.88-.53-.34.42,1.19.39,2.62.1,5.24l-.09-.3c-.1,1.85-.29,3.42-.45,4.87-.23,1.44-.49,2.76-.75,4.11-.29,1.34-.69,2.68-1.08,4.19-.18.76-.49,1.53-.75,2.37-.29.84-.53,1.75-.9,2.7.21-.14.44-.28.65-.43-.64,1.65-.91,1.95-1.29,2.69.01,2.16,1.67-4.67,1.81-2.68-.39.5-.89,1.46-1.38,2.67-.26.6-.48,1.28-.78,1.95-.3.67-.61,1.37-.91,2.06-.31.69-.59,1.39-.92,2.02-.34.63-.67,1.22-.98,1.74-.63,1.04-1.16,1.8-1.61,2.01-1.4,2.33.89-.42-.51,1.92l-.62.47-.03.79c-.94,1.52-1.84,2.02-2.06,1.95.26-.34.64-1.05.86-1.45-.78.87-1.68,2.22-2.43,3.45-.73,1.24-1.49,2.25-1.75,2.54.57-.67,1.18-1.3,1.71-1.99-4.02,6.28-10.64,12.74-15.24,18.5l.55-.25c-3.56,4.37-3.28,3.09-7.38,7.72l.12-.2c-.69,1.06-1.73,2.35-2.9,3.57.86-1.34-2.36,1.84-1.19.12-3.79,4.85-1.78,2.5-3.83,6.08l-.89.47c-.63,1.28-.6,1.45-2.46,3.93,1.35-2.18-1.69,1.19-.22-1.3-1.19,1.14-2.12,2.23-2.86,3.26-.76,1.02-1.35,1.96-1.85,2.83-1.05,1.71-1.8,3.05-3.12,4-.4,1.54.5.43,1.41-.87.88-1.32,1.9-2.74,1.48-2,.55-.48.34.14-.15,1.07-.48.94-1.21,2.23-1.82,3.05-1.1,1.76-3.06,2.28-5.5,7.05.23-.48.18-.55.43-1.01-.59.81-.9,1.77-1.29,2.74-.19.49-.4.98-.62,1.49-.21.52-.46,1.04-.79,1.58.04.76-.27,1.49-.49,2.13-.2.65-.33,1.18-.02,1.49.4-1.58,1-3.09,1.53-4.64-.83,2.67-.94,5.33-2.43,9.58-.07-.38.06-1.74.18-2.67-.56,1.23-.48,2.52-1.06,3.8-.34-.27-.01-1.73.42-3.5.22-.88.55-1.81.8-2.73.25-.92.46-1.81.61-2.55-.45.6-.75,2.01-.99,3.03-.25,1.02-.44,1.67-.62.83.15,1.18-.13,2.46-.59,3.9-.24.72-.43,1.5-.56,2.33-.14.83-.22,1.71-.18,2.63l-.43-.31c-.02.58.08,1.8-.07,2.85l-.38-1.99c.13,2.99-1.07,5.67-.75,8.58-.06-1.51.08-2.34.14-2.78.08-.44.17-.5.26-.45.18.11.39.64.63-.6.03.92.03,1.66.01,2.29-.02.63,0,1.14-.04,1.57-.07.86-.22,1.42-.39,2.01-.19.59-.31,1.22-.35,2.22-.02,1-.04,2.38.44,4.44-.12-.56-.28-1.62-.24-2.32.04-.71.15-1.05.34-.2.11,1.58.33,3.67.28,4.69,1.55,5.37.25-.94,1.15,1.27-.03.98.19,1.63.56,2.29.41.65.92,1.33,1.43,2.41l-.44.2c.22.76.48,1.32.71,1.76.22.44.4.75.55.98.31.45.5.57.68.66.18.09.35.17.61.55.28.37.71,1,1.37,2.24l-1.84-1.68,1.73,2.43-.79-.22c1,1.31,1.81,2.03,2.45,2.87.32.42.65.84,1.01,1.31.4.44.85.93,1.38,1.53-.14-.38.09-.46.6-.2.52.25,1.27.88,2.35,1.72.63.71.36.64.31.68-.05.05.11.25,1.73,1.37-.89-.27-1.95-.55-2.98-2.02-.24.01-.88-.34-1.11-.38,1.32,1.68,4.03,3.4,5.28,4.1-.46-.32-1.01-.69-1.25-.95,1.73.89,3.48,1.69,5.27,2.33.72.56.02.38-.68.19,1.06.47,1.86.65,3.43,1.27-.55.16-.63.65-2.9-.26,1.71.7,3.45,1.26,5.18,1.77.27.3,2.46,1.36,1.75,1.27,2.79,1.22,7.2,1.38,10.89,2.49.21-.03.62-.01,1.43.11,3.51.85,6.53,1.91,10.75,2.25l2.17,1.19c3.21.57-2.93-1.59,2.43-.62,3.78.71,1.24.93,2.49,1.45,1.89.15,5.32.37,8.31,2.2-1.11-.29-1.9-.72-2.93-1Zm24.82,27.07c-.31-.71-.99-2.1-.9-2.71.8.66.7,1.41.9,2.71Zm7.58,61.31c-.2-.58-.17-1.49-.05-2.53.09.74.12,1.59.05,2.53Zm10.87,172.89s-.02-.06-.03-.08c.09-1.77.05-1.14.03.08Zm0,3.67c.09.36.15.33.21.18-.14-.25-.2-1.07-.22-2.01-.11.27-.17.75,0,1.83Zm-96.36-339.75l-.41.57c.56-1.47.51-1.01.41-.57Z"/>
          <path class="cls-3" d="m407.72,286.47c.07-.23.15-.3.24-.36-.1-.31-.2-.31-.24.36Z"/>
          <path class="cls-3" d="m351.91,199.53l-.12-.03c-.07.01-.12.03-.14.06l.27-.02Z"/>
          <path class="cls-3" d="m412.95,413.4c.04-.76.11-1.18.19-1.47-.12-.04-.21.31-.19,1.47Z"/>
          <path class="cls-3" d="m421.03,489.7l-.08-2.4c0,1.16-.11,1.57-.2,2.15.11-.05.29-.5.28.25Z"/>
          <path class="cls-3" d="m416.02,509.89c0,.35-.1.72-.1,1.07l.24-.06c.21-1.45.18-2.49-.14-1.01Z"/>
          <path class="cls-3" d="m419.33,491.83c-.42.17-.38,1.65-.42,3.32,0-.1.01-.19.02-.29.53.53.46-1.25.4-3.02Z"/>
          <path class="cls-3" d="m418.9,495.54c-.02.51-.04,1.03-.09,1.53.21.21.09-.62.09-1.53Z"/>
          <path class="cls-3" d="m420.25,474.65c-.06.79.55.46.41.91.57.84-.94-5.15-.41-.91Z"/>
          <polygon class="cls-3" points="417.91 493.1 418.45 492.54 418.11 491.59 417.91 493.1"/>
          <path class="cls-3" d="m418.46,480.08l-.05,2.64c.08-.04.15.29.19.71-.03-1.63,0-3.41-.15-3.35Z"/>
          <path class="cls-3" d="m418.61,483.43c-.03.85-.03,1.65.04,2.12,0-.46,0-1.45-.04-2.12Z"/>
          <polygon class="cls-3" points="417.94 489.5 418.06 488.73 418.13 486.87 417.94 489.5"/>
          <path class="cls-3" d="m417.04,451.81l-.28-2.86c-.19-.28-.25.5-.13,1.57.15.68.27,1.74.42,1.29Z"/>
          <path class="cls-3" d="m416.12,460.56c.06-.78.17-.84.31-1.29l-.62-.05.31,1.34Z"/>
          <path class="cls-3" d="m415.54,452.2c-.19-.28-.7-4.14-.48-.51.18.28.48,3.15.48.51Z"/>
          <polygon class="cls-3" points="414.48 408.9 414.52 409.63 415.53 409.49 414.48 408.9"/>
          <path class="cls-3" d="m410.68,370.86c-.12,3.41.66.78.46,3.87.27.79.16-2.52.39-1.71-.33-2.04-.22-3.13-.86-2.16Z"/>
          <path class="cls-3" d="m411.54,373.01c.05.33.11.67.19,1.04-.09-.59-.14-.87-.19-1.04Z"/>
          <path class="cls-3" d="m383.47,15.05c.03-.74.03-1.48.05-2.22l-.23,1.45.18.77Z"/>
          <path class="cls-3" d="m382.39,10.88l.61-.57-.69-1.27c.07.49.2,1.45.09,1.84Z"/>
          <path class="cls-3" d="m401.21,238.17l.18.13c.1-.35.05-.85-.13-1.82,0,.56-.03,1.13-.05,1.69Z"/>
          <polygon class="cls-3" points="390.14 213.4 390.46 213.73 390.23 212.69 390.14 213.4"/>
          <path class="cls-3" d="m369.03,204.23c.95.27,2.1.42,3.03.72-2.07-.48-3.12-1.48-3.03-.72Z"/>
        </g>
      </g>
      <g class="cls-2">
        <path class="cls-3" d="m382.88,7.83c.08,1.46.46.9.55,1.11-.29-2.42-.65-1.04-.55-1.11Z"/>
      </g>
    </g>
  </g>
</svg>