<?xml version="1.0" encoding="UTF-8"?>
<svg xmlns="http://www.w3.org/2000/svg" viewBox="0 0 841.89 595.28">
  <defs>
    <style>
      .cls-1 {
        isolation: isolate;
      }

      .cls-1, .cls-2 {
        fill: none;
      }

      .cls-3 {
        fill: #f671b7;
      }

      .cls-2 {
        mix-blend-mode: color-burn;
      }
    </style>
  </defs>
  <g class="cls-1">
    <g id="Layer_1" data-name="Layer 1">
      <g class="cls-2">
        <g>
          <polygon class="cls-3" points="231.26 578.88 231.06 579.3 233.39 576.57 231.26 578.88"/>
          <path class="cls-3" d="m247.98,563.7c-2.07.88-6.03,5.53-9.17,8.06l-.6.33-.95,1.65c3.54-3.37,8.01-7.9,10.72-10.03Z"/>
          <path class="cls-3" d="m258.04,556.94c-.74.28,1.81-1.89-2.17,1.77.23-.15.3-.19.43-.28.36-.32.87-.76,1.74-1.49Z"/>
          <path class="cls-3" d="m256.3,558.43c-1.78,1.57,1.33-.84,0,0h0Z"/>
          <path class="cls-3" d="m264.53,551.22l-2.23,2.18c.61-.29,2.76-2.03,2.04-1.29,2.36-2.15,1.76-1.85.19-.9Z"/>
          <path class="cls-3" d="m266.47,548.93l-1.17,1.12c.26-.13.6-.38,1.17-1.12Z"/>
          <path class="cls-3" d="m262.81,552.41l2.49-2.36c-.42.2-.61.05-1.16,1.07.08-.34-.31.25-1.33,1.29Z"/>
          <path class="cls-3" d="m261.25,553.56c-1.44,1-3.22,2.43-1,.18-4.47,3.99-3.48,3.77,1-.18Z"/>
          <path class="cls-3" d="m248.35,562.38l-1.9,1.4-1.36,1.53c.68-.77,3.51-2.87,3.26-2.94Z"/>
          <path class="cls-3" d="m279.94,539.41c.06-.24-1.08.31-1.38.3l-1.73,1.53c1.01-.64,2.85-1.92,3.11-1.84Z"/>
          <path class="cls-3" d="m278.56,539.71l2.59-2.3c-2.47,1.84-2.85,2.28-2.59,2.3Z"/>
          <polygon class="cls-3" points="266.39 547.96 262.39 552.01 267.23 547.25 266.39 547.96"/>
          <polygon class="cls-3" points="290.51 531.53 289.14 532.98 291.63 530.48 290.51 531.53"/>
          <path class="cls-3" d="m297.56,526.34c-1.01,1.08,1.9-.76.76.28,1.9-1.43,3.4-2.82,4.77-4.07-1.52,1.23-3.21,2.41-5.53,3.79Z"/>
          <path class="cls-3" d="m305.4,520.51c-.75.62-1.5,1.31-2.32,2.05.8-.65,1.58-1.32,2.32-2.05Z"/>
          <path class="cls-3" d="m285.89,533.94c.27-.09.83-.2,2.45-1.27l-1.35.46c-.34.24-.71.52-1.1.8Z"/>
          <path class="cls-3" d="m286.95,533.15l.05-.02c1.19-.87,2.02-1.47,2.38-1.72-.31.22-1.04.74-2.42,1.74Z"/>
          <path class="cls-3" d="m285.62,534.14c.1-.07.18-.13.28-.2-.13.04-.2.08-.28.2Z"/>
          <path class="cls-3" d="m273.7,542.6c1.43-1.46,4.64-4.24,1.17-2.02-.96,1.14,1-.16-1.17,2.02Z"/>
          <path class="cls-3" d="m283.94,534.71l-2.98,2.15c.13.05.75-.22.02.48l2.96-2.63Z"/>
          <polygon class="cls-3" points="285.3 533.54 283.94 534.71 285.06 533.93 285.3 533.54"/>
          <path class="cls-3" d="m300.04,523.83c1.18-1.08,2.59-2.09,4.17-3.26-1.76,1.15-3.57,2.37-5.24,3.58-.16.28-.75,1.01,1.07-.32Z"/>
          <path class="cls-3" d="m293.63,528.3c.08-.07.19-.16.27-.23-.2.1-.35.19-.27.23Z"/>
          <path class="cls-3" d="m320,509.39c-.1.04-.19.08-.3.12,0,.03,0,.06-.02.1l.31-.22Z"/>
          <path class="cls-3" d="m298.64,524.3c-1.33.86-2.04,1.49-2.69,2.13.93-.73,1.93-1.48,3.02-2.27.07-.13.07-.17-.33.14Z"/>
          <path class="cls-3" d="m309.68,517.22c-.73.4-1.53.88-2.37,1.39.73-.36,2.19-1.14,2.37-1.39Z"/>
          <path class="cls-3" d="m294.4,527.86c-.06.05-.12.1-.18.15.47-.23.4-.23.18-.15Z"/>
          <path class="cls-3" d="m294.4,527.86c.62-.53,1.08-.98,1.55-1.44-.76.59-1.46,1.15-2.05,1.65.18-.09.36-.17.5-.22Z"/>
          <path class="cls-3" d="m323.19,503.76c0,.48-3.18,3.19-6.35,4.93-2.71,2.29-.07,2.02,2.87.82-.01-.2-.1-.33,2.73-2.64-1.17.56-6.88,4.27-4.58,2.2,3.81-2.96,3.3-2.18,5.34-3.36-1.9.76,4.58-4.15,3.29-4.14l-3.29,2.67c-.13-.05,1.01-1.08,0-.48Z"/>
          <path class="cls-3" d="m314.02,513.48l-1.19.9c1.43-.93,2.52-1.51,4.54-2.55,1.92-1.6,2.26-2.02,2.32-2.23l-6.05,4.22.38-.34Z"/>
          <path class="cls-3" d="m307.34,518.28c.7-1.03,3.53-3.26,1.46-2.36-3.57,2.57-2.3,2.08-4.33,3.75,5.71-4.19-1.52,1.37,2.79-1.39-1.09.87-2.1,1.61-3.05,2.31,1.07-.7,2.11-1.36,3.1-1.96-.06.03-.1.05-.15.07l-.03.02h0c-.28.12-.38.16-.08-.02.02-.02.09-.07.12-.09,0-.08.08-.2.17-.32,1.72-1.12.33-.1-.17.32,0,.03-.04.08-.03.1h.02s5.66-4.31,5.66-4.31c-1.26.82-2.8,1.91-5.48,3.89Z"/>
          <path class="cls-3" d="m277.31,537.54c.2-.1.21-.07.24-.06.33-.32.45-.45-.24.06Z"/>
          <path class="cls-3" d="m279.79,535.98c-.37.36-.61.76-1.97,1.74-1.24.78-.12-.17-.27-.23-.74.7-2.63,2.39.02.63l.36-.35c2.36-1.61,5.61-3.4,5.24-3.05-.9.19-1.65.42-3.39,1.27Z"/>
          <path class="cls-3" d="m293.59,526.81l4.67-3.63-2.66,1.46.25.09c-2.78,1.89-2.03,1.69-2.27,2.08Z"/>
          <polygon class="cls-3" points="320.68 509.17 320.3 510 322.71 507.49 320.68 509.17"/>
          <polygon class="cls-3" points="326.91 504.66 326.91 505.15 328.42 503.76 326.91 504.66"/>
          <path class="cls-3" d="m365.54,259.93c-.5-.34-1.02-.64-1.5-1.01.67.53,1.16.8,1.5,1.01Z"/>
          <path class="cls-3" d="m376.62,266.78l.37-.03c-.58-.18-.84-.22-.37.03Z"/>
          <path class="cls-3" d="m427.41,391.05c-1.87-2.38-4.49-4.32-4.38-3.77l.53.8c1.72.92,2.94,1.97,3.85,2.97Z"/>
          <path class="cls-3" d="m381.22,306.03c-.07.24-.14.48-.21.73.11.63.21,1.21.3,1.74-.03-.74-.11-1.58-.09-2.46Z"/>
          <path class="cls-3" d="m379.64,304.05c.22-1.12.42-2.23.72-3.33-.24.74-.47,1.81-.72,3.33Z"/>
          <path class="cls-3" d="m339.21,197.02l-.22-2.07c-.34,3.16.03,1.8.22,2.07Z"/>
          <path class="cls-3" d="m387.51,453.84c1.61-1.46,2.78-2.54,3.85-3.37-1.96,1.29-3.61,2.64-3.85,3.37Z"/>
          <path class="cls-3" d="m372.24,259c-.9-.5-1.32-.67-1.35-.57.93.52,1.47.78,1.35.57Z"/>
          <path class="cls-3" d="m395.81,448.07c-.29.03-.57.08-.86.15-1.13.48-2.24,1.19-3.59,2.25,1.46-.96,3.01-1.77,4.45-2.4Z"/>
          <path class="cls-3" d="m397.2,76.19c-.09-.16-.2-.34-.28-.48-.08,0,.06.19.28.48Z"/>
          <path class="cls-3" d="m354.31,17.8c.43.56,1.14,1.48,1.81,2.34-.29-.44-.86-1.13-1.81-2.34Z"/>
          <path class="cls-3" d="m351.93,486.28c-1.27,1.04-.17.2,0,0h0Z"/>
          <path class="cls-3" d="m344.58,489.77c.25-.25.42-.46.39-.56-.04.16-.18.36-.39.56Z"/>
          <path class="cls-3" d="m401.93,454.57s-.08.04-.13.06c.49-.13.4-.11.13-.06Z"/>
          <path class="cls-3" d="m349.87,487.65c.53-.33,1.1-.74,1.73-1.19-.29.18-.8.56-1.73,1.19Z"/>
          <path class="cls-3" d="m350.26,487.61c-.46.33-.82.59-1.16.83-.12.18.05.11,1.16-.83Z"/>
          <path class="cls-3" d="m353.71,484.84c-.73.59-1.43,1.12-2.11,1.62.27-.18.39-.24.33-.18.37-.3.9-.73,1.77-1.44Z"/>
          <path class="cls-3" d="m394.09,161.34c.1-.03.22-.07.33-.11,1.37-.9.75-.54-.33.11Z"/>
          <path class="cls-3" d="m392.29,367.15c.03.07.05.11.08.18-.02-.08-.05-.18-.07-.25v.07Z"/>
          <path class="cls-3" d="m390.33,361.22c.26.63.47,1.19.65,1.71.21.51.37.98.52,1.44.26.92.54,1.74.81,2.71.17-.79.34-1.56.53-2.31l-1.3-1.72c-.43-.59-.8-1.21-1.21-1.84Z"/>
          <path class="cls-3" d="m345.88,235.97c.55,1.31,1.03,2.67,1.65,3.97-3.09-4.22-4.26-7.91-3.14-3.93.75,0,2.59,3.75,4.88,7.26.59.87,1.17,1.73,1.73,2.55.6.78,1.18,1.5,1.7,2.12,1.01,1.25,1.93,1.94,2.27,1.85.54.77,1.03,1.58,1.63,2.32-.55-.59-.69-.64-1.19-1.27.74,1.18,1.43,1.83,1.97,2.36.56.5,1.03.83,1.57,1.15.55.31,1.14.64,1.9,1.21.74.58,1.72,1.32,3.04,2.48.88.85,1.69,1.5,2.06,1.88.37.38.33.46-.39.02.77.5,1.52,1.01,2.3,1.48l2.37,1.36c.65.45.88.65.77.65-.12.01-.56-.22-1.21-.66,2.35,1.49,4.8,2.78,7.3,3.98h-.07c.57.19,1.52.43,2.47.72.94.29,1.9.57,2.54.72,1.89.92-1.03-.24-.6.11,1.47.42,2.91.92,4.41,1.24.83.45.32.47-.78.25-1.1-.21-2.75-.8-4.23-1.38,1.76,1.38,2.69,1.7,4.25,2.02.78.16,1.71.37,2.99.73.65.15,1.38.35,2.23.6.42.13.88.27,1.37.42.49.14,1.02.28,1.58.44-1.45-.2-2.87-.52-4.3-.83.63.36,1.33.67,2.08.96.75.28,1.59.48,2.48.71.89.23,1.86.46,2.92.64,1.06.19,2.18.49,3.43.69-.59-.13-3.03-.82-4.67-1.37-1.62-.64-2.45-1.14.03-.82.69.16,1.49.31,2.46.44.97.15,2.11.21,3.46.18,0,.24.65.39,1.72.51,1.08.05,2.56.1,4.22.09l-.23.64c3.61-.27,3.3-.57,5.38-1.04,1.94-.1,3.13-.17,3.97-.1.84.06,1.32.21,1.82.35l5.81,1.62-4.23-7.17-.04-.07c-1.47-1.24-2.06-1.49-2.09-1.44-.05.07.44.44.8.89.38.44.7.85.5.81-.21-.01-.86-.58-2.74-1.6-2.62-1.48-5.19-2-7.79-2-2.61,0-5.31.57-8.37,1.92-3.69,1.36.48-.65-.89-.26-1.02.62-1.99,1.31-2.89,2.07-.72.45-.58.17-.5.03-1.2.88-1.1,1.12-1.23,1.38-.11.29-.44.66-1.97,2.27-.19.66-1.94,2.09-3.73,4.27-1.77,2.17-3.51,5.1-4.09,7.76-.66,1.17-.13-.74-.51-.46-1.11,3.57-1.38,5.12-1.65,6.51-.27,1.38-.42,2.63-.68,5.6-.53,1.61-.87,3.27-1.3,4.91,1.1-3.6.77,1.19.87,5.32.38-1.27.7-2.35.88-3.07l-.19,3.26c-.07,1.08-.04,2.17-.07,3.26-.15.78-.33.11-.53-.97.03.45.06.87.08,1.2-.38,2.32-.68,1.1-.93-.61.18-.79.37-1.57.54-2.34-.21-1.64-.46-3.22-.87-2.92.02.44,0,1.27-.07,2.18-.06-.44-.12-.72-.21-.53-.08.22-.06.92.05,2.02l-.81,1.46.26.39-.24,2.17-.14,2.18c-.11,1.46-.2,2.91-.2,4.38.23,1.56.46,3.06.82,4.58.34,1.52.63,3.06,1.07,4.7.2.82.4,1.66.61,2.54.2.88.48,1.79.72,2.75.46,1.92,1.07,4,1.69,6.36-1.05-2.24-.95-.31-1.58-.29,0-2.76-1.93-7.42-2.35-12.57.28,2.66-.09,2.12-.28,1.45.3,1.51.56,3.02.96,4.5.38,1.48.69,2.98,1.16,4.44-.52-.1.02,1.99.44,4.36.24-1,.86.61,1.58,2.88.35,1.14.85,2.42,1.27,3.65.41,1.23.9,2.37,1.31,3.2-.2.32-.97-.34-2.29-4.7.22,1.25.52,2.24.87,3.09.38.84.82,1.54,1.25,2.24.44.69.86,1.38,1.27,2.19.44.8.85,1.71,1.2,2.9-.46-1.01-.65-1.57-.98-1.9,1.23,2.28,3.91,7.99,2.98,6.81l-.51-.98c.79,1.73,2.01,3.82,3.28,6.04l.71,1.25,1.21-.53c.42-.18.86-.36,1.26-.61.37-.3.79-.57,1.08-.95.29-.38.6-.75.76-1.18l.28-.63.16-.63c.38-1.7.12-3.31-.44-4.7-.57-1.38-1.52-2.61-2.77-3.32-1.26-.74-2.68-.73-3.65-.48l-1.11.28.13.94c.19,1.36.38,2.23.59,2.44-.12.09-1.08-.89-1.28-1.36,1.15,4.54,3.3,8.58,5.93,11.96-.58-.34-.79.63-1.21,1.07-.41.43-1.17.35-2.55-2.53.6,1.71,1.31,3.93,3.62,7.03-.62-1.1-.65-3.17.22-1.76.84,2.14,1.24,2.86,1.74,3.64.5.79,1.04,1.71,2.81,4-.61-.71-.33-.9.34-.66.33.12.77.34,1.24.66.48.31,1.03.68,1.56,1.15-.45-.16-.54,1.03-1.43.42,2.07,1.35,4.29,2.42,6.55,3.23-1.66-.68-.77.67.56,1.75-.29-.27,1.13.46,2.83,1.2,1.71.75,3.66,1.57,4.51,1.88l-2.59-1.36c3.59,1.56,5.39,1.96,7.21,2.53.9.29,1.8.61,2.81,1.23,1.01.61,2.14,1.55,3.16,3.16-.36-.33-.96-.58-1.22-.34-.29.25-.13.87.54,2.39.52.58,1.9,2.01,2.54,4.67.29,1.31.44,2.88.23,4.53-.2,1.65-.7,3.39-1.49,5.03l-.99,1.02c-.88,1.61-1.95,3.13-3.18,4.55.93-1.53,2.55-4.46,3.37-7.74.42-1.63.66-3.32.68-4.85.05-1.54-.22-2.9-.48-3.95-.06,1.26-.16,1.42-.25,1.75-.11.33-.06.8-.48,2.67-.33.62-.28.08-.19-.73.08-.81.14-1.88.13-2.4-.13,2.75-1.17,5.61-2.8,8.11.4,0-.35,1.59-1.38,3.06-.99,1.47-2.31,2.77-1.99,2.87,2.43-2.47,4.29-5.43,5.31-8.57.37-.07.37,1.48-.6,3.76-.5,1.12-1.2,2.43-2.22,3.68-1,1.25-2.28,2.47-3.69,3.56-1.58.91.31-1.77.02-1.85-.25.38-1.47,1.5-2.77,2.51-1.29,1.01-2.65,1.91-2.97,2.03.78-.66,1.55-1.32,2.28-1.99-3.35,2.05-4.93,4.26-9.35,6.54-.71.47-1.88,1.05-2.87,1.62-.99.56-1.78,1.12-1.77,1.37,2.72-1.28,4.53.39,3.5,1.92-.24.17-2.03,1.32-3.72,2.86-1.71,1.53-3.28,3.48-3.89,4.22-.9,1.06-.78-.01-.49-1.15.27-1.14.72-2.31-.21-1.43.07.18-.57,1.67-.82,2.29-.49.79-.53.56-.67.58-.13.02-.42.28-1.13,2.23.19.44-.48,2.4-.64,3.62-.12.6-.17.98-.12.81.02-.09.09-.31.19-.7.11-.39.24-.96.54-1.71-.23.97-.28,1.73-.4,2.38-.04.66-.14,1.21-.15,1.79,0,.58-.06,1.19.05,1.95.06.76.24,1.67.64,2.81-.06-.64.42-.16,1.1.79l-.04-.29c.04.23.09.48.14.75.08.25.22.52.34.76.35.46.79.86,1.35,1.06,1.08.45,2.33.35,3.31.11-.17.22.65.28,1.09.2.63-.25,1.16-.64,1.56-1.11.18-.24.34-.5.46-.76.07-.28.21-.53.23-.8.13-.71.05-1.41-.11-2.07-.21-.63-.47-1.24-.87-1.75-.74-1.05-1.75-1.81-2.86-2.36-1.11-.53-2.36-.89-3.72-.84-1.35.06-2.72.44-4.09,1.12-.35.06-1.32.51-2.03.88-.71.36-1.19.6-.67,0-.79.75-1.42,1.53-2.99,3.12-1.71,1.35-.88.43.07-.58.96-1,2.12-2.05.6-1.19.02.24-.97,1.35-2.11,2.75-1.16,1.35-2.54,2.97-3.56,4.15.55-.13,1.84-1.41,3.23-2.95,1.37-1.56,2.89-3.42,4.11-4.52.27.33-.56,1.51-1.87,3.4-1.29,1.91-3.35,4.45-5.81,7.27-1.99,2.23-2.6,2.52-2.71,2.45-.12-.08.19-.6-.14-.2-8.16,7.6-5.94,7.6-13.28,13.33-3.17,1.95-.82-.71-1.7-.48,3.52-3.31,5.78-4.65,8.23-6.83l-3.19,2.49c1.02-1.16,3.37-3.37,4.72-4.49-1.24.93-4.81,3.98-8.84,7.55-4.13,3.46-8.79,7.36-12.32,9.81-1.08,1.09-3.03,2.87-1.92,2.27l2.08-1.75c2.23-1.22-3.64,3.65-.81,1.67-2.65,2.54-5.66,5.34-9.88,8.28l-1.14.08c.2.09,2.9-1.73,3.93-2.76-1.53,1.54-6.79,4.07-8.21,6.1l3.15-1.8c-2.76,2.42-6.02,5.65-9.84,8.14,2.04-.72.81-.67,3.85-1.99-2.77.97,9.42-6.89,5.23-4.95,3.17-1.3,4.82-3.15,8.71-5.24-.23-.08-1.46.63,1.65-1.62.1-.15.38-.46.56-.65.1-.07.13-.09.22-.14-.07.04-.12.07-.18.11.11-.12.12-.14-.07.04-.78.48-1.43.85-1.74.94,1.25-1.49,6.02-5.29,7.48-6.75,1.84-1.34-.6.77.51.17.73-.74,1.46-1.45,2.18-2.2.52.15,5.12-3.3,1.16.34l3.72-3.09c1.17-.82,2.54-1.82,3.8-2.87,1.25-1.06,2.42-2.13,3.26-3.01,1.78-1.45,3.98-4.2,2.73-2.62,1.83-1.75,3.56-3.61,5.35-5.41l.13.03c2.78-2.51,5.29-5.48,8.01-8.39,1.4-1.47,2.67-2.95,4.1-4.18,1.42-1.23,3.02-2.21,4.63-2.56.44-.2.9-.32,1.38-.44.42-.07.85-.13,1.37-.06.99.09,2.28.62,3.17,1.65.03.21.03.42,0,.61.19.2.3.46.4.71.04.17.05.37,0,.55-.06.19-.18.37-.33.48-.16.11-.34.15-.49.19-.63.11-1.12.02-1.33.11-.04-.1-.09-.18-.12-.24v-.08s-.1.12-.1.14c-.03.05-.07.09-.11.14-.05.05-.1.09-.16.13-.07.04-.03.03-.06.05-.02.01-.04.03-.07.04-.01,0-.04.02-.04.02l.06-.02s.07-.02.1-.02c.04,0,0,.01.16-.02.23-.03.44-.02.63.04l.41.13-.65-1.93c-.31-.9-.62-1.91-.73-3.05-.09-1.14-.02-2.39.24-3.65.5-2.52,1.8-4.93,2.93-6.4l-.31-.45c1.04-1.41,2.17-2.71,3.48-3.98,1.35-1.29,2.92-2.6,4.79-4.01l-.49-.2c1.56-1.32,3.84-2.67,6.42-4.22,2.57-1.56,5.48-3.35,8.03-5.75-.23.45-1.59,1.6-2.63,2.27,1.77-1.07,3.46-2.43,4.95-4.15,1.47-1.7,2.67-3.63,3.58-5.67,1.83-4.08,2.5-8.58,1.88-12.76-.64-2-1.3-3.38-2.02-4.66.11.16.21.3.31.42-.12-.18-.3-.44-.48-.72-.47-.8-1.02-1.6-1.71-2.36.56.67,1.02,1.39,1.44,1.98-.26-.31-.55-.65-.87-1.03-.34-.35-.72-.71-1.12-1.08-.83-.69-1.77-1.38-2.74-1.93-.18-.3-.36-.62-.56-.92-.16-.09-.29-.15-.46-.24-1.83-1.2-1.63-.6-.8.23-1-.45-1.93-.78-2.66-.99-1.22-1.43-5.13-1.85-6.72-3.48-.69-.1-2.92-1.01-4.95-2.27-2.04-1.23-3.94-2.67-4.59-2.76.03-.13-.35-.57.41.17-1.53-1.57-2.86-3.28-4.23-4.72l-.02-1.12c-.56-.57-1.11-1.15-1.61-1.78-.54-.61-1.02-1.25-1.5-1.91-.91-2.82-1.07-3.97.44-1.55-1.7-2.98-2.01-4.38-2.42-5.57-.16-.61-.3-1.2-.53-1.98-.09-.4-.2-.85-.32-1.37-.06-.27-.13-.55-.21-.86-.05-.31-.11-.65-.18-1.02l.41.26c-.03-.43-.08-.9-.14-1.42l-1.11,1.38c.64-.19,1.36-.15,1.98.27.6.4,1.04,1.03,1.09,1.48.18.6.45,1.55.35,2.64-.06.53-.18,1.1-.45,1.53-.28.42-.64.72-1.17.91l1.88.7c-1.99-3.48-4.3-7.79-6.17-12.37-1.85-4.58-3.27-9.39-4.09-13.52-.58,2.61-.82-5.7-1.67-6.02.14-.76,0-2.48.58-.55-1.32-6.17-.85-9.38-1.77-13.68.25-.73.45,1.33.59.68-.08-.5-.31-1.98-.16-2.64.14-.64.26.91.42,1.9-.03-.8-.07-1.5-.13-2.13-.03-.63-.05-1.18-.1-1.66-.08-.97-.21-1.67-.36-2.18-.31-1.03-.69-1.33-1.07-1.59.29-1.63.45-2.85.49-3.97.09-1.11.06-2.12-.06-3.34.39-1.11.87-2.96.51,1.04.11-1.13.68-4.53,1.31-7.66.35-1.56.63-3.07.85-4.19.22-1.13.34-1.88.2-1.98.32-.64.95-3,1.08-3.58.86-2.37,1.43-3.6,2.02-4.81.6-1.2,1.18-2.41,2.51-4.44l-.82,1.07c.19-1.02.72-1.91,1.54-2.88.81-.99,1.91-2.04,3.35-3.37l-.03.13c1.78-1.35,2.96-1.96,3.77-2.37.79-.44,1.24-.6,1.64-.84.42-.21.85-.38,1.7-.66.86-.21,2.16-.57,4.31-.56-.17-.16-.33-.29-.51-.44.32-.52,2.13-.6,4.3-.04,2.21.51,4.54,1.9,6.34,3.39l.59-2.08c-.39.06-.77.14-1.14.22h1.18s-.48,1.7-.48,1.7l-.48-.51c.19.11.38.24.58.4l.41-1.43c-1.47.2-3.39.19-5.25-.09-1.86-.19-3.65-.59-4.95-.62-.62-.07.97-.17,1.83-.26-1.85-.09-2.82-.13-3.35-.13-.52.02-.58.12-.59.24-.01.24.21.64-2.57.55-.99-.43,1.36-.75-2.32-1.13-.45-.09-1.34-.21-2.52-.29-1.18-.06-2.61-.23-4.16-.42-.78-.08-1.56-.24-2.35-.4-.79-.17-1.59-.3-2.35-.53-1.52-.46-2.97-.91-4.09-1.54.96.64,1.93,1.29-.57.55-.94-.32-2.02-.78-3.13-1.38-.55-.29-1.13-.59-1.71-.89-.56-.33-1.13-.67-1.7-1-.57-.33-1.13-.66-1.69-.98-.54-.34-1.08-.66-1.6-.96-1.05-.57-2-1.1-2.86-1.42-.38-.34-.5-.5-.48-.56-.67-.35-1.5-.91-2.4-1.53-.45-.31-.93-.63-1.41-.95-.46-.35-.93-.71-1.39-1.06-.46-.35-.92-.69-1.36-1.02-.42-.34-.83-.67-1.2-.97-.74-.59-1.37-1.06-1.78-1.3-.18-.82-1.15-2.01-2.38-3.45-.6-.74-1.29-1.52-2-2.33-.68-.84-1.39-1.7-2.08-2.55-.66-.87-1.29-1.74-1.87-2.55-.59-.8-1.03-1.6-1.43-2.27-.8-1.33-1.1-2.3-.76-2.46l-1.08-2.07-.98-2.12c-.68-1.4-1.19-2.87-1.78-4.32l.23.17c-.48-1.41-.83-2.61-1.19-3.61-.32-1.02-.57-1.87-.83-2.6-.54-1.45-.85-2.46-1.27-3.46-.18-1.38.17-.41.27-.31-.6-4.33-.71-6.72-.87-8.93-.06-1.11-.22-2.17-.26-3.42-.07-1.25-.21-2.68-.23-4.55l.56-.72c-.07-1.02.51-4.16,1.07-8.28.54-4.09.91-9.34-.54-13.95.08.08.21.24.45.97-.87-3.29-2.25-6.88-4.53-10.02-1.14-1.56-2.51-2.98-4.08-4.1l-.72-.46c-.29-.19-.57-.35-.85-.5-.58-.26-1.15-.51-1.71-.75-1.14-.39-2.24-.67-3.35-.93-.22.12-.44.23-.65.36-.21.21-.42.41-.63.61-.4.4-.77.8-1.04,1.27-.56.91-.87,1.9-.95,2.84-.17,1.9.51,3.46,1.12,4.23l.26.55c.07.15.15.29.24.43.17.28.34.56.55.82.38.53.85,1,1.36,1.43,1.06.87,2.16,1.34,3.32,1.73-2.16-.9-2.96-1.84-3.17-2.16-.2-.34.11-.13.57.12.95.52,2.43,1.02,1,0,1.4.94,3.47,1.65,4.69,1.97,1.21.31,1.52.57-.6.3l-.64-.23c-.44.13,0,.41.95.65.95.25,2.38.4,3.82.41,1.45.03,2.89-.06,3.97-.08,1.08-.02,1.8.02,1.75.18,16.76-1.24,32.98-5.05,47.41-11.57l-1.96.06c1.69-.69,3.34-1.5,5-2.26.68-.24,1.18-.34,1.06-.15-.11.19-.84.67-2.63,1.48,2.07-.47,5.75-3.24,5.76-3.44,6.89-3.41-2.23,2.19-.16,1.08l2.8-1.58-.68.27c1.07-.75,1.62-1.23,2.41-1.82.78-.61,1.83-1.27,3.83-2.61,2.57-1.65,1.54-.55,2.53-1.25.02.04.38-.17,1.47-1.17,1.85-1.55,3.59-3.33,5.03-5.4-.36.36-.73.71-1.12,1.03-.38.33-.76.65-1.16.95.96-1.3,1.96-2.7,2.37-3.5.43-.79.38-.87-.76.38.71-.75,1.78-2.19,2.58-4.34.81-2.16,1.12-4.96.62-7.73-.09-.7-.31-1.38-.48-2.07-.25-.67-.45-1.36-.78-1.99-.58-1.3-1.41-2.49-2.32-3.51-.92-1.03-2.03-1.81-3.1-2.4-.54-.28-1.1-.48-1.61-.69-.54-.13-1.04-.26-1.5-.38l-.61-.15-.55.41c-.75.56-1.33,1.21-1.62,1.81-.17.29-.29.56-.36.79-.08.23-.17.43-.2.59-.18,1.48.14,2.83.69,4.02.56,1.19,1.4,2.27,2.58,3.05,2.5,1.66,5.78,1.18,8.2-.53-.64.39-1.27.47-1.14.22.05-.14.31-.33.75-.71.45-.37,1.1-.91,1.88-1.81-.04.54.35.46.96-.15.59-.6,1.4-1.76,1.87-3.27.49-1.45.71-3.16.75-4.69.06-1.54-.01-2.93.06-3.92-.04,1.75-.56-1.63-1.45-4.47-.43-1.44-.83-2.82-1.13-3.51-.32-.68-.45-.69-.31.61-1.01-3.65.42-.36-.14-3.21-1.64-4.23-3.32-8.91-5.49-13.69-2.14-4.79-4.7-9.7-7.77-14.35-.24-.05.53,1.66-.97-.21-.78-1.82-1.68-3.57-2.53-5.37-1.36-1.73-1.97-1.08-3.87-4.65.22.54.55,1.35-.38.21-12.3-17.96-29.67-32.81-41.68-51,1.52,2.54.3,1.01-1.08-.77.82,1.21-.36.24-.38.61-.85-1.26-1.66-2.55-2.47-3.84-.82-1.28-1.6-2.58-2.37-3.88-.76-.48-2.13-2.49-3.42-4.44-1.27-1.97-2.45-3.88-2.98-4.12l1.62,2.38c-1.33-1.42-.98-.08-.42,1.66.58,1.72,1.41,3.79.86,3.82.77.8,1.52,1.8,2.27,2.97.73,1.19,1.52,2.49,2.36,3.86,1.68,2.75,3.71,5.71,6.41,8.1.83,1.35-1.08-.86-.73-.06,1.45,1.15,2.88,2.79,5.35,5.99l-.37-.28c7.4,8.58,10.41,12.4,18.54,22.11l-.26-1.02c1.74,2.09,2,2.62,2.74,3.66,2.59,1.88-4.98-5.79-2.52-4.16.83,1.67,3.97,5.29,6.94,8.86,2.98,3.56,5.71,7.12,6.01,8.41,2.54,3.29-.29-1.31,2.22,2l.42,1.06.94.61c1.57,2.23,2.04,3.58,1.9,3.8-.36-.55-1.15-1.48-1.57-2.04,1.83,3.02,5.71,8.1,6.23,9.19-.67-1.14-1.3-2.3-2-3.43,3.24,4.62,6.42,10.02,9.11,15.6,2.7,5.57,4.9,11.3,6.7,16.43,0-.29,0-.57-.02-.85,1.32,3.94,1.69,5.6,1.92,7.31.12.85.22,1.73.3,2.91.05,1.17.15,2.68-.3,4.64.01-.1.02-.2.02-.3-.08.82-.28,1.68-.77,2.57-.48.87-1.18,1.74-2.06,2.35.69-.72-.11-.18-.85.09-.76.26-1.38.33-.45-.22-1.4.81-2.47.68-2.96.61-.52-.12-.81-.26-1.03-.37-.24-.1-.42-.19-.79-.43-.32-.28-.89-.73-1.36-1.92.06-.4.17-.77.32-1.08-.02-.22-.05-.42-.02-.59,0-.09,0-.18.01-.26l.06-.24c.07-.34.26-.63.63-1.01l-.67.15c.32.05.74.11,1.27.24.26.09.54.2.85.31.32.11.63.33.99.52-.4-.19-.66-.3-.82-.35-.17-.04-.24-.02-.24.02,0,.07.25.28.46.5.44.45.76.78-.85.15,1.69,1,2.78,2.41,3.61,3.75.81,1.37,1.32,2.73,1.64,4,.63,2.53.4,4.78-.75,6.35-.28,2,.73.39,1.16-1.69.45-2.09,0-4.47.23-3.33.05-.48.13-.53.24-.26.1.27.26.84.3,1.58.15,1.48-.19,3.6-.84,4.92-.59,1.38-1.49,2.37-2.8,3.62-1.34,1.25-3.07,2.78-6,5.05.58-.45.58-.54,1.15-1-2.28,1.54-4.19,3.55-7.46,4.93-1.42,1.5-4.03,2.18-4.18,3.12,2.06-1.15,4.13-2.33,6.1-3.58-3.32,2.18-6.23,4.88-12.48,7.23.41-.35,2.1-1.39,3.28-2.07-1.85.61-3.3,1.75-5.25,2.31.11-.47,2.06-1.36,4.41-2.51,2.35-1.14,5.08-2.56,6.8-3.87-1.94.74-6.93,4.24-5.39,2.51-2.31,2.35-6.87,3.15-11.42,5.77l.15-.57c-.74.36-2.27,1.15-3.7,1.67l2.36-1.52c-3.76,1.99-7.79,2.22-11.58,3.57,8.09-2.37,1.98.02,5.51-.66-2.45.91-4.07,1.41-5.29,1.64-1.22.24-2.02.31-2.87.32-1.7.02-3.52.14-9.22,1.3,1.54-.3,5.85-.89,3.49-.16-1.09.2-2.38.35-3.55.47-1.17.13-2.25.2-2.94.17-7.61,1.21,1.24.32-1.96,1.08-2.69-.24-3.73.74-7.12,1.22l-.06-.48c-4.4.18-4.98.43-5.44.7-.23.13-.43.26-1.07.34-.62.06-1.71.14-3.54-.18,1.06-.09,2.12-.27,3.19-.5-1.32.07-2.6.06-3.81-.09.28-.14.55-.27.82-.43-1.97-.05-3.1-.45-4.05-1.04-.26-.15-.42-.31-.61-.46-.17-.18-.35-.37-.52-.6-.16-.23-.32-.49-.46-.79-.08-.15-.14-.34-.14-.35-.03-.08-.05-.19-.07-.29-.11.21-.34.26-.63-.13-.14-.19-.28-.5-.34-.93-.05-.42-.01-.98.28-1.51.48-.44.56-.22.58-.13.02.05.03.1.09.07.03-.01.08-.04.14-.09.06-.06.19.03.33.05.2.03.51.12.96.27-.29.06-.51.15-.76.2-.07.02-.15,0-.22.02-.06.08-.13.14-.2.2-.14.14-.32.26-.52.44.11.24.21.71.39.84.09-.19.18-.38.3-.56.06-.09.13-.18.21-.26l.12-.12.16.03c.25.04.5.1.72.18.11.04.22.08.31.13.03.02.07.04.1.05.1.06.2.11.28.16-.37-.23-.3-.21-.44-.31-.1-.07-.2-.14-.27-.22.11.02.22.04.34.07l.16.05.07.02.18.08c.26.11.49.29.74.43.25.14.49.3.72.48.96.66,1.83,1.52,2.63,2.45.51,1.06-.13.36-.77-.25.89,1.13,1.66,1.87,2.61,3.87-.3-.18-.51-.21-.85-.51-.35-.29-.77-.89-1.65-2.06,1.34,1.75,2.39,3.83,3.08,6.03-.03.25.06,1.13.05,1.84,0,.72-.07,1.3-.18.85.13,1.93.38,4.34.39,7.04.02,2.7-.16,5.66-.62,8.51.05.31.05.91-.01,2.15-.58,5.45-1.09,10.59.43,17.07-.08,1.28-.03,2.55,0,3.84.61,2.54.57,1.23.62.36.03-.44.09-.77.26-.46.17.3.44,1.24,1.07,3.29.42,1.46.7,2.31.82,2.83.12.52.08.7,0,.76-.17.13-.54-.19-.31.86,1.31,2.8,3.87,7.37,6.19,12.46-1.08-1.52-1.59-2.89-2.45-4.4Zm49.18,36.58c-1.22-.16-3.71-.28-4.51-.83,1.48-.16,2.48.24,4.51.83Zm-15.2,42.52c-.14-.89-.06-2.28.17-3.84,0,1.13-.02,2.41-.17,3.84Zm-14.25,159.53s.06-.07.08-.1c2.13-1.62,1.38-1.05-.08.1Zm-4.39,3.4c-.38.41-.31.44-.09.34.22-.34,1.17-1.15,2.28-2.03-.38.16-.99.55-2.19,1.69Zm49.61-322.83c-.32.2-.64.41-.96.59,1.9-1.68,1.42-1.15.96-.59Z"/>
          <path class="cls-3" d="m379.82,304.32c.12-.33.22-.41.32-.48-.03-.48-.12-.5-.32.48Z"/>
          <path class="cls-3" d="m339.26,197.4l.03-.19c-.02-.11-.04-.17-.07-.2l.04.39Z"/>
          <path class="cls-3" d="m395.7,437.02c.67-1.03,1.09-1.57,1.43-1.89-.06-.12-.48.26-1.43,1.89Z"/>
          <path class="cls-3" d="m338.55,496.7l2.78-2.21c-1.37,1.04-1.92,1.32-2.66,1.77.13.04.77-.23-.12.44Z"/>
          <path class="cls-3" d="m311.87,512.19c-.39.35-.89.64-1.27.98l.24.1c1.79-1.28,2.94-2.32,1.03-1.08Z"/>
          <path class="cls-3" d="m334.96,497.35c-.46-.16-2.17,1.27-4.14,2.77.12-.09.24-.17.36-.26-.26.88,1.78-.79,3.78-2.52Z"/>
          <path class="cls-3" d="m330.37,500.47c-.61.46-1.23.93-1.85,1.35-.1.35.78-.5,1.85-1.35Z"/>
          <path class="cls-3" d="m355.94,482.66c-.99.65-.26.87-.88,1.15-.71,1.22,5.77-5.38.88-1.15Z"/>
          <polygon class="cls-3" points="332.56 497.46 333.57 497.34 334.45 496.19 332.56 497.46"/>
          <path class="cls-3" d="m348.43,486.04l-3.23,2.29c.1.03-.27.37-.74.78,1.95-1.46,4.14-3.01,3.97-3.07Z"/>
          <path class="cls-3" d="m344.45,489.1c-1.02.76-1.97,1.5-2.48,2,.54-.42,1.71-1.33,2.48-2Z"/>
          <polygon class="cls-3" points="336.82 494.13 337.83 493.52 340.09 491.9 336.82 494.13"/>
          <path class="cls-3" d="m380.6,458.21l2.91-3.2c.18-.43-.71.34-1.79,1.54-.64.82-1.71,2.02-1.13,1.66Z"/>
          <path class="cls-3" d="m370.21,466.21c.94-.7,1.08-.66,1.67-.99l-.33-.55c-.43.53-.89,1.03-1.34,1.54Z"/>
          <path class="cls-3" d="m379.2,457.47c.18-.43,3.99-4.81.23-.89-.17.45-3.11,3.59-.23.89Z"/>
          <path class="cls-3" d="m401.15,432.4c-.26.26-.49.55-.73.83l.87.55c-.06-.46-.11-.92-.14-1.38Z"/>
          <path class="cls-3" d="m421.15,392.76c1.81,1.31,1.98,1.41,2.27,1.42.23.03.55-.02,1.65,1.53.41.31-.02-.33-.51-.96-.5-.62-1.11-1.18-.63-.91-1.08-.81-2.03-1.32-2.53-1.56-.52-.22-.62-.13-.25.49Z"/>
          <path class="cls-3" d="m423.94,393.84c.35.25.7.55,1.08.85-.59-.51-.87-.75-1.08-.85Z"/>
          <polygon class="cls-3" points="347.95 7.72 346.41 4.86 347.23 6.82 347.95 7.72"/>
          <path class="cls-3" d="m344.05,2.81l.18-.99-1.49-1.39c.4.62,1.16,1.82,1.31,2.38Z"/>
          <path class="cls-3" d="m404.4,274.83l.27-.15c-.53-.21-1.34-.17-2.95-.36.88.22,1.78.36,2.68.51Z"/>
          <polygon class="cls-3" points="361.78 257.7 362.39 258.23 361.63 256.82 361.78 257.7"/>
          <path class="cls-3" d="m340.42,225.25c.21.78.52,1.6.81,2.43.29.83.59,1.66.88,2.41-1.29-3.28-1.11-5.47-1.69-4.84Z"/>
        </g>
      </g>
    </g>
  </g>
</svg>