<?xml version="1.0" encoding="UTF-8"?>
<svg xmlns="http://www.w3.org/2000/svg" viewBox="0 0 841.89 595.28">
  <defs>
    <style>
      .cls-1 {
        isolation: isolate;
      }

      .cls-1, .cls-2 {
        fill: none;
      }

      .cls-3 {
        fill: #f671b7;
      }

      .cls-2 {
        mix-blend-mode: color-burn;
      }
    </style>
  </defs>
  <g class="cls-1">
    <g id="Layer_1" data-name="Layer 1">
      <g class="cls-2">
        <g>
          <path class="cls-3" d="m267.52,595.06c-1.59,2.04-.69,1.55-.87,1.9,2.53-3.5.71-1.88.87-1.9Z"/>
          <polygon class="cls-3" points="293.11 560.92 292.76 561.61 296.44 556.48 293.11 560.92"/>
          <path class="cls-3" d="m319.18,530.69c-3.03,2.36-9.61,10.82-14.36,16.1l-.89.78-1.65,2.81c2.79-3.3,5.88-7.19,8.92-10.71,3.03-3.52,5.88-6.78,7.98-8.99Z"/>
          <path class="cls-3" d="m334.74,516.12c-.56.38.2-.49.28-.58-.08.09-.53.59-3.72,4.15.35-.33.46-.42.66-.61.58-.63,1.38-1.5,2.78-2.96Z"/>
          <path class="cls-3" d="m331.97,519.08c-2.84,3.09,2.04-1.85,0,0h0Z"/>
          <path class="cls-3" d="m345.27,504.98l-3.66,4.15c.92-.72,4.37-4.23,3.18-2.83,1.92-2.09,2.66-2.94,2.61-3.01-.06-.08-.91.62-2.12,1.69Z"/>
          <path class="cls-3" d="m348.59,500.89l-1.96,2.09c.41-.31.96-.82,1.96-2.09Z"/>
          <path class="cls-3" d="m342.56,507.51l4.07-4.52c-.65.48-.87.39-1.89,2.06.19-.51-.5.5-2.18,2.46Z"/>
          <path class="cls-3" d="m340.09,509.9c-2.27,2.12-5.13,4.94-1.44.77-7.29,7.68-5.84,6.9,1.44-.77Z"/>
          <path class="cls-3" d="m319.99,528.68l-2.92,2.96-2.22,2.84c1.11-1.42,5.48-5.85,5.14-5.8Z"/>
          <path class="cls-3" d="m370.14,481.17c.15-.35-1.62.99-2.05,1.13l-2.83,2.95c1.59-1.37,4.53-4.05,4.89-4.08Z"/>
          <path class="cls-3" d="m368.08,482.3c1.42-1.46,2.81-2.96,4.26-4.39-4.01,3.71-4.62,4.52-4.26,4.39Z"/>
          <path class="cls-3" d="m348.73,499.64c-2.27,2.47-4.47,5.01-6.66,7.55l3.97-4.5,4.06-4.42-1.37,1.37Z"/>
          <polygon class="cls-3" points="387.35 465.43 384.99 467.98 389.26 463.5 387.35 465.43"/>
          <path class="cls-3" d="m398.94,455.17c-1.77,1.87,3-1.89,1.05,0,3.17-2.75,5.75-5.26,8.07-7.52-2.54,2.31-5.35,4.65-9.12,7.52Z"/>
          <path class="cls-3" d="m412,443.9c-1.29,1.14-2.55,2.4-3.94,3.74,1.35-1.22,2.65-2.47,3.94-3.74Z"/>
          <path class="cls-3" d="m380.07,470.92c.41-.25,1.24-.69,3.84-2.93l-2.06,1.31c-.54.49-1.16,1.05-1.78,1.62Z"/>
          <path class="cls-3" d="m381.78,469.35l.07-.05c1.92-1.76,3.27-2.97,3.87-3.47-.51.43-1.7,1.48-3.94,3.51Z"/>
          <path class="cls-3" d="m379.62,471.33c.16-.15.29-.26.45-.41-.2.13-.31.21-.45.41Z"/>
          <path class="cls-3" d="m360.42,488.65c2.43-2.65,7.68-8.02,2.18-3.27-1.66,1.99,1.48-.72-2.18,3.27Z"/>
          <path class="cls-3" d="m377.06,472.96l-4.86,4.32c.17,0,1.15-.67-.08.61l4.94-4.93Z"/>
          <polygon class="cls-3" points="379.31 470.71 377.06 472.96 378.86 471.36 379.31 470.71"/>
          <path class="cls-3" d="m403.25,450.76c2.02-1.95,4.35-3.95,6.98-6.21-2.89,2.33-5.85,4.78-8.64,7.14-.31.43-1.37,1.65,1.66-.93Z"/>
          <path class="cls-3" d="m392.72,459.68c.14-.13.32-.31.45-.43-.31.23-.55.42-.45.43Z"/>
          <path class="cls-3" d="m436.91,423.29c-.17.1-.31.18-.48.27-.02.05-.03.08-.06.14l.54-.41Z"/>
          <path class="cls-3" d="m401.06,452.03c-2.18,1.75-3.41,2.88-4.5,4.04,1.53-1.42,3.23-2.84,5.03-4.39.14-.2.14-.25-.53.34Z"/>
          <path class="cls-3" d="m419.27,437.75c-1.18.85-2.51,1.83-3.9,2.86,1.19-.79,3.57-2.45,3.9-2.86Z"/>
          <path class="cls-3" d="m393.95,458.72c-.1.1-.19.18-.3.29.75-.54.63-.49.3-.29Z"/>
          <path class="cls-3" d="m393.95,458.72c1.04-1,1.82-1.82,2.61-2.64-1.25,1.15-2.41,2.23-3.39,3.18.28-.21.57-.4.78-.53Z"/>
          <path class="cls-3" d="m443.53,414.88c-.15.63-5.88,5.25-11.11,8.86-4.75,4.08-.72,2.59,4.02-.18.06-.23-.09-.44,4.93-4.45-1.98,1.11-11.6,8.3-7.55,4.68,1.65-1.35,2.82-2.28,3.71-2.96.9-.67,1.51-1.08,2.01-1.4,1.01-.65,1.62-.93,3.34-2.08-3.12,1.71,8.25-7.05,6.34-6.53l-5.84,4.68c-.18,0,1.88-1.77.16-.61Z"/>
          <path class="cls-3" d="m426.76,431.04l-2.05,1.66c2.42-1.79,4.22-2.99,7.54-5.19,3.35-2.85,3.98-3.53,4.13-3.82l-10.29,7.94.68-.6Z"/>
          <path class="cls-3" d="m415.5,440.17c1.33-1.63,6.14-5.78,2.83-3.69-6.01,4.91-3.99,3.7-7.47,6.77,9.65-7.97-2.64,2.45,4.54-3.06-1.88,1.59-3.57,3.01-5.16,4.36,1.76-1.41,3.5-2.7,5.13-3.94-.1.06-.16.11-.24.16l-.04.04h0c-.45.29-.61.37-.12.01.03-.03.15-.13.2-.17.03-.1.17-.29.34-.48,2.87-2.21.51-.27-.34.48-.02.04-.08.12-.08.15.01,0,.02-.02.04-.03l9.58-8.07c-2.1,1.62-4.67,3.72-9.21,7.47Z"/>
          <path class="cls-3" d="m366.8,480.09c.31-.24.32-.21.36-.2.55-.6.75-.84-.36.2Z"/>
          <path class="cls-3" d="m370.73,476.73c-.64.66-1.06,1.31-3.24,3.33-1.95,1.68-.13-.16-.33-.17-1.22,1.32-4.31,4.55-.11.83l.6-.66c.94-.84,1.96-1.74,2.96-2.58,1.02-.82,2-1.61,2.84-2.28,1.69-1.33,2.82-2.17,2.52-1.85-1.35.71-2.49,1.39-5.23,3.38Z"/>
          <path class="cls-3" d="m393.03,457.76l3.85-3.53,3.92-3.45-4.31,3.15h.35c-4.53,3.85-3.38,3.21-3.82,3.83Z"/>
          <path class="cls-3" d="m437.98,422.73l-.81,1.21c1.44-1.42,2.93-2.78,4.41-4.15-1.2.98-2.41,1.94-3.6,2.94Z"/>
          <polygon class="cls-3" points="448.8 414.56 448.63 415.18 451.36 412.85 448.8 414.56"/>
          <path class="cls-3" d="m260.54,300.35c.33.94.71,1.85,1.07,2.78-.5-1.31-.83-2.16-1.07-2.78Z"/>
          <path class="cls-3" d="m257.12,279.05l-.21-.53c.14,1,.23,1.41.21.53Z"/>
          <path class="cls-3" d="m560.26,151.65c-2.94-3.5-6.43-7.29-6.31-6.59l.76,1.26c2.46,2.03,4.11,3.84,5.55,5.33Z"/>
          <path class="cls-3" d="m346.27,130.85c.39-.17.8-.36,1.2-.54.87-.67,1.69-1.3,2.43-1.86-1.09.72-2.33,1.54-3.63,2.39Z"/>
          <path class="cls-3" d="m344.45,133.97l-1.3.67-1.27.73-2.54,1.46c.57-.32,1.27-.71,2.12-1.18.84-.48,1.81-1.06,2.99-1.66Z"/>
          <path class="cls-3" d="m354.22,363.65l3.57.29c-5.44-1.13-3.1-.41-3.57-.29Z"/>
          <path class="cls-3" d="m559.06,329.3c2.77-2.76,4.79-5.15,6.57-7.22-1.62,1.71-3.09,3.26-4.26,4.5-1.19,1.21-2.03,2.14-2.32,2.73Z"/>
          <path class="cls-3" d="m254.01,292.96c.47,1.88.72,2.66.8,2.59-.47-1.92-.78-3.01-.8-2.59Z"/>
          <path class="cls-3" d="m572.5,313.08c-.43.54-.86,1.07-1.3,1.62-.41.59-.82,1.18-1.23,1.78-.44.58-.88,1.17-1.34,1.78-.92,1.2-1.88,2.48-3,3.83,2.32-2.6,4.89-5.68,6.87-9Z"/>
          <path class="cls-3" d="m608.39,148.17c-.07-.31-.16-.68-.23-.97-.08-.08.04.35.23.97Z"/>
          <path class="cls-3" d="m560.21,29.64c.71,1.06,1.8,2.82,2.83,4.47-.48-.82-1.31-2.19-2.83-4.47Z"/>
          <path class="cls-3" d="m493.62,383.39c-2.37,1.65-.35.3,0,0h0Z"/>
          <path class="cls-3" d="m481.07,389.89c.48-.39.83-.7.83-.82-.14.22-.43.5-.83.82Z"/>
          <path class="cls-3" d="m584.79,286.79c.03-.08.06-.14.1-.23-.42.75-.35.62-.1.23Z"/>
          <path class="cls-3" d="m489.92,385.68c.92-.57,1.98-1.23,3.12-1.98-.51.31-1.46.91-3.12,1.98Z"/>
          <path class="cls-3" d="m490.52,385.52c-.83.55-1.48.98-2.11,1.39-.26.27.03.12,2.11-1.39Z"/>
          <path class="cls-3" d="m496.92,381.09c-1.36.94-2.64,1.8-3.88,2.61.48-.3.69-.41.58-.31.69-.48,1.68-1.17,3.3-2.3Z"/>
          <path class="cls-3" d="m554.13,350.18c.18-.07.38-.14.58-.22,2.55-1.36,1.41-.81-.58.22Z"/>
          <path class="cls-3" d="m494.08,117.19c.13.03.2.05.32.08-.13-.05-.28-.1-.4-.15l.08.06Z"/>
          <path class="cls-3" d="m484.17,114.67c1.09.14,2.06.26,2.94.44.88.19,1.68.38,2.44.59,1.52.42,2.91.84,4.45,1.43-.94-.77-1.9-1.49-2.87-2.2-2.33-.13-4.64-.26-6.96-.25Z"/>
          <path class="cls-3" d="m291.6,340.24l-2.82-2.16-2.68-2.31c7.12,4.69,12.39,7.81,7.07,3.9-.39.14-2.01-.73-4.23-2.15-1.07-.76-2.28-1.66-3.57-2.63-1.29-.96-2.52-2.14-3.83-3.23l-.96-.83c-.3-.3-.6-.59-.9-.89-.6-.59-1.18-1.17-1.75-1.73-1.18-1.09-2.15-2.23-3.04-3.18-.88-.96-1.69-1.73-2.25-2.32-.56-.59-.97-.93-1.18-.93l-1.26-1.95-.63-.97c-.2-.33-.37-.68-.56-1.02.67,1.14.91,1.24,1.66,2.3-.61-.94-1.13-1.73-1.52-2.45-.41-.7-.79-1.28-1.13-1.79-.68-1.02-1.34-1.69-1.9-2.52-.59-.81-1.23-1.7-2.06-3.03-.43-.66-.77-1.5-1.23-2.47-.22-.49-.45-1.02-.7-1.59-.12-.29-.25-.59-.38-.9-.11-.32-.22-.66-.33-1-1.32-3.87-1.77-6.68-.9-4.05l-1.36-4.32-1.09-4.41c-.24-1.3-.2-1.82-.13-1.66.09.15.22.96.5,2.24-.87-4.53-1.45-9.13-1.58-13.77l.04.1c-.14-.99-.36-2.61-.42-4.26-.09-1.66-.22-3.35-.19-4.46.42-3.54.03,1.79.26.89.05-2.58.08-5.18.29-7.76.72-3.1.22,3.32,0,8.64.4-1.79.67-3.07.77-4.24.1-1.17.16-2.23.23-3.55.07-1.32.11-2.91.44-5.11.28-2.21.82-5.04,1.81-8.81-.27,1.19-.42,2.4-.63,3.59-.19,1.2-.42,2.39-.55,3.6,1.54-4.49,2.32-10.12,5.13-17.87-.44.89-1.82,4.76-2.8,7.44-.94,2.68-1.6,4.13-.83,0,.29-1.15.73-2.46,1.13-4.05.39-1.6.91-3.44,1.44-5.66.42.09,1.78-4.14,3.59-9.39l.47.58c2.06-5.62,1.59-5.31,2.66-8.7,2.9-6.05,3.86-7.13,4.99-8.32,5.05-9.43-4.14,6.2,1.64-5.1,4.52-7.7,7.46-13.24,13.47-22.11,3.83-4.95-.32,1.12,1.13-.59.91-1.62,1.97-3.14,2.98-4.7.85-1.06.7-.62.63-.39,1.37-1.89,1.31-2.07,1.46-2.51.07-.22.2-.5.58-1.1.4-.58,1.09-1.46,2.27-2.88.41-.96,3-3.74,6.47-6.89,1.7-1.6,3.53-3.39,5.44-5.08.93-.86,1.85-1.74,2.73-2.61.87-.88,1.71-1.74,2.51-2.56,1.82-1.33-.56,1,.13.74,2.27-2.14,3.9-3.67,5.17-4.86,1.29-1.18,2.28-1.97,3.18-2.77,1.83-1.56,3.34-3.07,7.36-6.29l3.69-2.36,3.8-2.18c-2.84,1.53-2.61,1.08-.93-.31.84-.69,2.04-1.61,3.4-2.63,1.37-1.01,2.96-2,4.47-3.02-2.1.96-3.95,1.71-5.1,2.36,1.6-1.09,3.29-2.04,4.93-3.07,1.66-1,3.28-2.07,5.01-2.96,1.3-.54.36.18-1.21,1.28.68-.41,1.32-.8,1.82-1.1,3.81-1.67,2.05-.36-.42,1.29-1.33.5-2.58,1.12-3.83,1.67-2.29,1.76-4.38,3.45-3.67,3.48.61-.43,1.83-1.2,3.18-2.02-.59.46-.96.78-.63.66.37-.14,1.34-.85,2.89-1.93.87-.24,1.74-.45,2.63-.62l.43-.54c2.27-1.06,4.51-2.16,6.8-3.17l6.93-2.86c2.4-1.2,4.76-2.29,7.16-3.46,1.19-.6,2.43-1.11,3.7-1.65,1.27-.53,2.58-1.08,3.92-1.64.68-.28,1.36-.57,2.07-.84.72-.25,1.44-.5,2.19-.77,1.5-.51,3.06-1.04,4.7-1.6,1.64-.59,3.41-.99,5.27-1.51.93-.24,1.89-.5,2.87-.75.98-.26,2-.52,3.05-.71-2.05.63-2.21.96-1.9,1.1.31.15,1.12.22,1.07.55-2.34.2-5.56,1.01-9.24,2.05-3.64,1.21-7.8,2.46-11.98,3.9,4.39-1.41,3.52-.8,2.44-.33l1.84-.69,1.87-.61,3.74-1.22c2.48-.87,5.03-1.51,7.57-2.21-.23.6,3.32-.48,7.42-.95-1.62-.2,1.23-.93,5.29-1.71,2.05-.31,4.39-.66,6.61-.99.56-.08,1.11-.16,1.64-.24.54-.06,1.06-.12,1.57-.17,1.01-.11,1.94-.23,2.74-.34.21.15-.06.34-1.35.58-.65.12-1.55.25-2.78.38-1.23.17-2.77.41-4.71.65,2.17-.09,3.92-.37,5.49-.56,1.57-.21,2.94-.48,4.3-.76,1.37-.26,2.73-.6,4.29-.74,1.56-.15,3.31-.22,5.44-.15-1.91.09-2.95.08-3.7.29,2.23-.22,6.08-.51,9.05-.36,2.97.07,5.06.21,3.77.35h-1.91c1.59.05,3.38-.02,5.31.11,1.92.1,3.98.21,6.1.32,1.06.03,2.13.13,3.21.24,1.08.1,2.16.2,3.24.3,1.08.1,2.16.19,3.23.29,1.07.1,2.11.27,3.14.4,2.06.26,4.04.52,5.86.75,1.81.29,3.47.56,4.91.79,1.44.22,2.65.38,3.57.48.92.1,1.53.18,1.79.13.1.14-1.84.58-2.63.63,1.9.12,3.77.42,5.67.62,1.89.25,3.81.4,5.68.74,3.78.57,7.55,1.29,11.32,2.11-1.07,0,.07,1.07.2,1.74.13.69-.71.85-5.76-.57,2.83,1.03,6.33,2.31,12.3,4.48-1.85-.88-4.37-2.91-1.73-1.92,3.44,1.82,4.63,2.45,6.02,3.19,1.38.75,3.03,1.48,7.11,3.93-1.34-.75-1.13-1.01-.02-.8.55.11,1.33.33,2.24.66.9.36,1.93.85,3,1.44-.75-.21-.18,1.19-1.8.45,1.86.8,3.75,1.56,5.57,2.46,1.84.87,3.7,1.71,5.49,2.68-2.67-1.47-.95.52,1.15,2.25-.23-.22.2.03,1.02.55.82.52,1.99,1.37,3.29,2.28.65.46,1.32.94,2,1.41.65.5,1.3.99,1.91,1.46,1.23.92,2.3,1.72,2.94,2.2l-3.93-3.31c1.35,1.05,2.55,1.94,3.63,2.72,1.06.8,1.99,1.52,2.86,2.13.86.62,1.66,1.15,2.4,1.67.74.52,1.43,1.01,2.13,1.5,1.4.97,2.81,1.93,4.42,3.33.81.69,1.7,1.46,2.68,2.36.94.94,1.99,2.02,3.16,3.27-.66-.53-1.62-1.03-1.83-.75-.11.14-.03.47.36,1.09.38.62,1.13,1.49,2.21,2.84.63.5,1.64,1.32,2.94,2.37,1.3,1.07,2.79,2.49,4.51,4.11,3.3,3.33,7.23,7.74,10.4,13.01l.88,2.2c1.55,2.72,3.14,5.44,4.51,8.27-.81-1.24-1.91-3.08-3.36-5.14-.72-1.03-1.44-2.17-2.27-3.31-.83-1.13-1.7-2.3-2.59-3.5-3.62-4.71-7.65-9.49-10.72-12.64,2.93,4.18.63,1.3,5.08,7.49,1.27,2.38-2.75-3.14-4.12-4.89,3.46,4.76,6.67,9.71,9.46,14.89.14-.53,1.85,2.39,3.55,5.35,1.57,3.02,3.14,6.07,3.22,5.67-2.77-5.83-5.96-11.43-9.53-16.76.03-.25.55.13,1.35,1.06.78.94,1.88,2.41,3.17,4.26,2.42,3.78,5.54,9.2,7.7,15.19.95,3.09-2.02-1.81-2.12-1.47.21.36.61,1.22,1.11,2.33.5,1.11.98,2.51,1.51,3.88.25.69.5,1.37.74,2.02.22.65.39,1.28.56,1.84.32,1.11.55,1.94.59,2.23l-.92-2.51-.46-1.25-.52-1.23c.55,1.66.93,3.2,1.45,4.65.25.72.5,1.43.75,2.14.22.72.43,1.43.66,2.16.92,2.9,1.67,6.05,2.02,10.26.16,1.45.27,3.62.29,5.48-.02,1.87,0,3.43.22,3.67.4-4.74,2.68-6.01,3.51-2.82,0,.53.21,4.45,0,8.66-.17,4.21-.69,8.68-1.08,10.34-.52,2.4-.71.53-.89-1.38-.07-.96-.18-1.94-.34-2.42-.14-.48-.29-.47-.46.54.21.19.17,2.84.15,3.95-.21,1.52-.33,1.19-.45,1.31-.06.06-.13.23-.21.8-.09.57-.26,1.53-.48,3.17.71,1.24-2.67,13.26.1,3.2-1.15,6.43-1.47,6.79-3.66,14.12.59-1.09.41.65-.15,3.49-.28,1.42-.8,3.06-1.3,4.77-.48,1.72-1.14,3.43-1.78,4.96,0-.43-.81.84-1.19,1.45-2.9,6.1-5.47,10.63-8.22,14.89-2.68,4.31-5.59,8.32-9.33,13.38-.85.82-4.74,5.46-3.38,3.24-.99,1.51-1.93,2.89-4.4,5.88-2.72,2.6-1.27,1,.24-.84,1.5-1.85,3.13-3.87,1.03-1.91.04.66-6.09,7.94-9.83,12.02.79-.42,3.08-2.65,5.47-5.43,1.19-1.4,2.48-2.87,3.6-4.33,1.12-1.46,2.18-2.83,3.02-3.92.33.25-.86,2.37-3.22,5.72-2.42,3.28-6.01,7.78-10.65,12.52-1.83,1.9-3.03,2.96-3.74,3.58-.72.62-.99.77-1.06.73-.14-.07.51-.89-.12-.23-3.64,3.33-6.24,5.7-8.28,7.56-2.02,1.89-3.44,3.3-4.82,4.6-1.37,1.32-2.66,2.57-4.47,4.05-.9.75-1.92,1.57-3.14,2.5-1.23.91-2.64,1.94-4.32,3.12-5.54,3.45-.87-.68-2.26-.13,6.7-5.29,10.61-7.71,15.08-11.4-1.9,1.43-3.77,2.9-5.7,4.28,2.03-1.82,6.36-5.52,8.8-7.43-2.2,1.61-8.62,6.88-16.23,12.61-7.6,5.74-16.4,11.91-22.77,16.03-2.12,1.68-5.85,4.47-3.91,3.4l3.91-2.78c3.88-2.15-7.11,5.62-1.98,2.34-5.14,3.91-10.85,8.35-18.46,13.27l-1.75.46c.26.03,5.09-3.05,7.09-4.64-2.97,2.35-11.94,7.17-14.87,10.21l5.46-3.27c-5.16,3.9-11.23,9.12-17.87,13.62,3.32-1.63,1.46-1.13,6.51-3.87-2.26,1.08,1.91-1.9,5.78-4.66,3.89-2.73,7.5-5.22,3.97-3.34,5.27-2.66,8.54-5.46,15.26-9.19-.31-.03-2.46,1.21,3.17-2.51.22-.22.77-.69,1.12-.98.17-.11.24-.15.38-.24-.12.07-.2.12-.32.19.22-.19.24-.21-.12.07-1.38.84-2.51,1.48-3.01,1.68,2.51-2.27,11.38-8.31,14.21-10.61,3.35-2.21-1.24,1.15.68.07l4.24-3.42c.7.07,9.12-5.59,1.57.13,2.33-1.62,4.62-3.3,6.93-4.96,4.19-2.77,9.8-6.83,13.02-9.66,3.25-2.4,7.6-6.8,5.11-4.29,3.41-2.9,6.75-5.88,10.02-8.94h.17c4.94-4.42,9.75-9.29,14.5-14.52,4.73-5.26,9.44-10.84,14.28-16.74,1.28-1.85,2.58-3.72,4-5.96.71-1.12,1.54-2.28,2.35-3.61.83-1.32,1.73-2.76,2.73-4.35.37-.35.71-.72,1.07-1.08.67-1.28,1.56-2.86,2.52-4.54.9-1.72,1.86-3.56,2.77-5.3,1.7-3.56,3.17-6.77,3.39-8.03,1.65-2.7,4.19-9.35,5.92-16.74,1.75-7.4,2.47-15.49,2.77-20.62l-.49-.41c.29-7.04-.09-13.83-1.66-22.4-.11.2-.23.4-.36.6-.4-1.83-.84-3.92-1.25-6.22-.26-1.14-.53-2.33-.8-3.56-.27-1.23-.53-2.51-.9-3.79-.35-1.29-.7-2.62-1.06-3.97-.38-1.34-.85-2.69-1.29-4.06-.23-.69-.45-1.37-.68-2.07-.26-.68-.52-1.36-.79-2.05-.54-1.36-1.06-2.75-1.66-4.11.49.66,1.55,3.48,2.25,5.49-2.01-6.82-5.47-13.53-9.37-19.7-3.9-6.19-8.25-11.81-12.04-16.99-2.22-2.31-3.64-4.13-5.12-5.8.2.22.39.4.56.56-.22-.24-.56-.59-.9-.96-.93-1.06-1.81-2.23-2.91-3.36.9.99,1.68,2.02,2.42,2.85-.85-.89-1.91-2.02-3.16-3.17-1.25-1.15-2.56-2.46-3.97-3.62l-.84-1.4c-.23-.2-.41-.35-.64-.55-2.57-2.53-2.3-1.75-1.11-.2-1.4-1.19-2.8-2.14-3.87-2.89-.44-.61-1.13-1.29-1.96-2-.86-.68-1.86-1.4-2.88-2.14-2.02-1.52-4.26-2.93-5.65-4.43-.55-.28-1.8-1.03-3.41-1.97-.8-.48-1.69-1.01-2.62-1.57-.93-.55-1.94-1.08-2.92-1.63-.99-.54-1.97-1.09-2.92-1.58-.96-.47-1.87-.91-2.69-1.28-1.63-.75-2.89-1.26-3.43-1.27-.06-.15-1-.67.76.19-1.79-.94-3.58-1.88-5.35-2.76-1.79-.82-3.56-1.57-5.26-2.21-.44-.43-.9-.81-1.35-1.23l-4.25-1.29-4.28-1.15c-1.22-.56-2.27-1.02-3.09-1.36-.81-.35-1.37-.62-1.61-.78-.48-.33.31-.25,2.92.37-12.49-3.31-10.08-2.91-20.87-4.84l.61-.28c-1.92-.37-4.44-.73-6.76-1.09-.58-.09-1.15-.18-1.69-.27-.55-.07-1.07-.14-1.55-.21-.97-.14-1.79-.29-2.36-.45-1.07-.25-2.54-.54-4.34-.86-1.8-.3-3.95-.5-6.35-.78-1.2-.12-2.46-.3-3.78-.38-1.32-.07-2.7-.15-4.12-.23-1.42-.07-2.89-.15-4.4-.23-1.51,0-3.05-.02-4.62-.03-1.57,0-3.17-.05-4.78,0-1.61.07-3.24.13-4.88.2-3.28.07-6.58.42-9.84.68-.82.07-1.63.13-2.44.2-.81.1-1.61.2-2.4.3-1.59.2-3.17.39-4.72.58-1.55.16-3.06.42-4.53.66-1.48.23-2.91.46-4.3.68,1.13.09,1.04.22.27.38-.77.16-2.24.34-3.84.66-3.22.6-7.11,1.27-7.41,1.86-1.33.09-4.4.8-.94-.43-2.75.85-5.17,1.54-7.38,2.16-2.18.7-4.13,1.33-5.98,1.93-.92.3-1.82.58-2.7.9-.87.34-1.72.68-2.57,1.04-1.7.71-3.39,1.48-5.16,2.38-1.33.22,2.14-1.27.99-1-.86.35-3.28,1.65-4.44,1.99-1.14.33,1.44-.91,3.08-1.75-10.81,4.78-11.36,6.33-11.78,7.37-1.36.59-2.55,1.12-3.62,1.62-1.06.52-1.97,1.06-2.84,1.57-1.74,1.03-3.24,2.06-4.96,3.34-.94.44-2.17,1.07-2.4,1.09-.12,0,.01-.14.55-.53.54-.4,1.48-1.07,3.06-1.97-.44.26-1.14.61-1.96,1.12-.82.51-1.8,1.12-2.88,1.8-2.16,1.35-4.74,2.92-7.07,4.65-4.8,3.27-8.87,6.74-8.85,7.1-.55.34-1.7,1.2-2.77,2.1-1.05.93-2.06,1.87-2.45,2.25-1.74,1.5-3.08,2.65-4.23,3.63-1.1,1.03-2,1.88-2.91,2.73-.9.85-1.79,1.7-2.87,2.72-1.07,1.03-2.24,2.33-3.8,3.95l1.8-1.73c-.95,1.55-2.21,2.93-3.85,4.59-1.61,1.69-3.51,3.74-5.86,6.5l.08-.21c-5.45,6.29-6.5,7.76-7.47,9.24-.49.73-.98,1.46-1.98,2.82-.51.67-1.13,1.51-1.94,2.58-.78,1.1-1.73,2.45-2.91,4.13l.89-.49c.05.95-2.18,3.82-4.65,7.74-2.61,3.83-5.47,8.71-7.42,13.07.54-1.01,1.18-1.98,1.79-2.95-.26.6-.58,1.23-.95,1.9-.34.68-.71,1.4-1.12,2.14-.82,1.48-1.75,3.05-2.71,4.62-.49.78-.94,1.58-1.37,2.37-.43.79-.85,1.57-1.26,2.33-.8,1.51-1.52,2.92-2.05,4.13-.52,1.03.55-1.73,1.09-3.24-.71,1.57-1.28,2.77-1.65,3.72-.36.95-.59,1.61-.74,2.08-.29.93-.23,1.07-.12,1.12.23.09.7-.2-.92,4.66-.47.84-.48.2-.65.16-.19-.04-.52.53-1.55,3.84-.65,1.61-1.73,6.55-2.71,12.25-.99,5.71-1.62,12.2-2.28,16.91.19-1.04.4-2.06.55-2.23.14-.17.16.52.12,2.91-.05.91-.12,1.91-.2,2.96-.05,1.05-.1,2.17-.15,3.32-.17,2.3-.09,4.77-.11,7.21.07,1.22.15,2.44.22,3.63.04.59.08,1.18.14,1.76.08.57.16,1.14.24,1.69.17,1.1.35,2.16.54,3.13.22.97.5,1.86.76,2.66.12.93.12,1.29.07,1.35.29,1.38.9,3.14,1.46,5.1.27.98.65,1.98,1.03,2.99.38,1.01.77,2.03,1.14,3.04.92,1.95,1.73,3.87,2.59,5.4.88,1.52,1.61,2.75,2.1,3.44.1.69.56,1.61,1.16,2.79.31.58.66,1.22,1.05,1.9.2.34.41.69.62,1.05.24.34.5.69.75,1.05.53.71,1.08,1.46,1.65,2.23.57.77,1.16,1.56,1.85,2.28.67.74,1.35,1.5,2.03,2.26l1.03,1.13,1.1,1.05c2.87,2.85,5.88,5.27,8.06,7.09,2.24,1.74,3.61,2.96,3.36,3.25,4.71,3.32,9.62,6.33,14.73,8.95l-.47-.08c2.42,1.31,4.52,2.26,6.3,3.11,1.81.77,3.33,1.38,4.65,1.89,2.65.98,4.53,1.48,6.37,2.03,2.34.96.56.46.33.47,1.87.71,3.53,1.34,5.02,1.91,1.51.52,2.86.98,4.1,1.4,2.46.85,4.51,1.39,6.47,1.95,1.96.54,3.87.95,6.09,1.45,2.23.45,4.8.91,8.08,1.51l1.24.81c.45.07,1.13.22,2.01.43.89.2,1.97.44,3.23.72,2.51.56,5.67,1.35,9.22,2.1,3.56.68,7.49,1.5,11.52,2.13,4.04.56,8.14,1.18,12.04,1.47-.16.04-.49.1-1.74.03,8.77.71,19.21,2.1,28.34,2.61,2.28.14,4.47.31,6.54.38,2.06.04,3.99.07,5.73.05,1.74-.02,3.3-.07,4.62-.17,1.32-.12,2.41-.32,3.21-.56l5.79-.33,2.89-.16,2.89-.25c-3.74.18-5.48.07-6.07.01-.59-.07-.04-.19.79-.31,1.65-.23,4.4-.55,1.32-.63,5.86-.33,15.2-.19,7.99.27l-1.13-.03c-.65.27.18.36,1.8.37,1.62,0,4.02-.06,6.48-.26,4.92-.36,10.13-.76,9.96-.47,14.68-1.49,29.1-3.72,43.12-6.78,3.51-.76,6.97-1.63,10.44-2.43,1.74-.39,3.45-.87,5.16-1.33,1.71-.46,3.43-.9,5.12-1.42,6.8-1.92,13.43-4.25,19.9-6.77-1.07.19-2.16.35-3.24.48,1.52-.53,3-1.16,4.5-1.76,1.49-.62,3-1.18,4.47-1.85,1.19-.45,2.03-.67,1.77-.43-.26.22-1.57,1.01-4.78,2.29.88-.26,1.99-.65,3.14-1.19,1.14-.54,2.34-1.15,3.43-1.73,2.2-1.14,3.9-2.29,3.96-2.41,12.23-5.84-4.34,3.15-.63,1.29l5.03-2.6-1.18.5c1.99-1.14,2.97-1.95,4.42-2.87.72-.47,1.55-.98,2.65-1.64,1.08-.68,2.43-1.53,4.19-2.63,1.14-.67,1.87-1.06,2.34-1.31.46-.26.69-.36.83-.4.28-.08.23.06,1.09-.52,0,.02.16-.06.56-.33.4-.27,1.06-.74,2.07-1.48l1.26-.88,1.22-.94,2.43-1.89c.8-.64,1.64-1.23,2.41-1.92l2.32-2.04-2.03,1.42-1.01.71-1.05.65c1.05-.87,2.03-1.87,2.96-2.7.92-.84,1.72-1.58,2.28-2.09,1.09-1.02,1.11-1.15-1.22.48.43-.3.94-.67,1.52-1.12.58-.45,1.17-1.03,1.85-1.64.67-.63,1.39-1.31,2.17-2.04.38-.37.78-.75,1.19-1.15.4-.4.77-.85,1.17-1.29.79-.89,1.62-1.82,2.47-2.78.42-.49.87-.96,1.27-1.48.4-.53.8-1.06,1.21-1.6.81-1.08,1.63-2.18,2.46-3.28.81-1.12,1.5-2.33,2.26-3.49,3.07-4.62,5.31-9.6,7.09-13.58.79-2.04,1.48-3.82,2.03-5.25.52-1.44.86-2.53,1.1-3.13,1.89-7.39,3.49-14.72,4.57-23.92-.19,1.14-.48,2.03-.61,1.64-.06-.19-.08-.7-.03-1.65.04-.95.22-2.35.36-4.33.28.75.52.23.75-1.1.23-1.32.46-3.43.57-5.85.34-4.82.27-10.82.65-14.06-.12,1.45-.23.75-.33-.96-.12-1.71-.32-4.44-.5-7.06-.44-5.24-1.06-10.04-1.06-5.51-.54-6.61.46-.45.28-5.5-2.3-15.63-4.4-34.57-9.24-53.53-.24-.25.27,2.98-.98-1.02l-.79-5.11-.91-5.09c-.54-1.85-1.02-2.64-1.52-3.84-.48-1.2-1.02-2.8-1.74-6.25.14,1,.35,2.48-.44.02-2.42-9.24-5.5-18.41-8.77-27.56-1.75-4.54-3.39-9.13-5.31-13.62-.94-2.26-1.87-4.52-2.81-6.78l-2.96-6.72c-.97-2.25-2.01-4.47-3.05-6.69l-3.12-6.66c-2.19-4.39-4.27-8.83-6.55-13.16l-3.35-6.53c-1.15-2.16-2.29-4.32-3.44-6.47-2.26-4.33-4.62-8.59-6.97-12.85,2.42,4.69.6,1.69-1.51-1.73,1.29,2.27-.4.18-.34.74-2.64-4.73-5.37-9.41-8.19-14.05-1.09-1.06-3.53-4.66-5.94-8.1-2.4-3.44-4.79-6.7-5.54-7.2l3.1,4.11c-2.29-2.57-1.23-.38.21,2.42,1.44,2.8,3.21,6.23,2.53,6.09,5.02,5.83,10.03,17.4,17.31,27.57,1.21,2.48-1.44-1.88-.9-.49,1.96,2.52,3.87,5.83,7.16,12.11l-.48-.65c2.36,4.37,4.35,8.15,6.11,11.68,1.71,3.56,3.33,6.81,4.84,10.19,3.02,6.77,6.13,13.83,10.16,24.24l-.18-1.71c1.74,4.47,2.02,5.45,2.69,7.6,1.29,2.45.18-.73-1.12-3.91-1.28-3.19-2.57-6.44-1.25-4.26.36,1.57,1.39,4.3,2.6,7.63,1.17,3.34,2.72,7.21,4.05,11.09,2.77,7.72,5.11,15.33,5.26,17.53,2.14,7.06-.08-2.24,2.03,4.83l.27,1.96.9,1.68c.68,2.33,1.05,4.11,1.24,5.34.2,1.23.22,1.9.12,2.02-.28-1.14-.94-3.2-1.29-4.41.64,3.07,1.84,7.32,2.89,11.08.98,3.78,1.87,7.05,2.07,8.11l-1.5-6.93c2.62,9.72,4.9,20.67,6.86,31.59.46,2.74.92,5.47,1.37,8.17.44,2.71.79,5.41,1.2,8.05.84,5.29,1.43,10.43,2.06,15.25l.08-1.49c.88,7.38.91,10.36.99,13.51-.03,3.15.09,6.48-.07,14.6l-.03-.59c.13,3.25,0,7.61-.51,12.02.2-4.09-1.37,7.58-1.05,2.22-.84,7.93-1.35,9.85-1.44,11.15-.07.65-.06,1.14-.19,2.11-.13.97-.36,2.43-.82,5.06-.33.75-.72,1.48-1.08,2.22-.8,3.52-.55,3.94-3.66,11.44,2.46-6.17-2.65,4.46.03-2.46-.94,1.88-1.83,3.64-2.66,5.3-.9,1.61-1.72,3.13-2.48,4.57-.84,1.39-1.63,2.69-2.37,3.92-.37.62-.72,1.22-1.07,1.8-.35.58-.75,1.1-1.11,1.63-2.84,4.25-5.42,7.35-8.47,9.77-1.17,1.55-1.1,1.71-.36,1.11.37-.3.9-.78,1.52-1.37.61-.61,1.25-1.37,1.93-2.13,2.8-2.99,5.32-6.75,4.14-4.92,1.22-1.37.43.05-1.12,2.32-1.71,2.14-4.07,5.23-6.07,7.02-.96.97-1.91,1.8-2.93,2.66-1.08.81-2.25,1.62-3.6,2.61-.67.49-1.4,1.03-2.19,1.61-.82.55-1.7,1.16-2.66,1.84-.97.67-1.98,1.46-3.15,2.26-1.18.78-2.46,1.66-3.85,2.63,1.11-.77,1.14-.89,2.25-1.66-1.08.68-2.11,1.39-3.15,2.13-1.04.73-2.13,1.41-3.22,2.15-1.11.72-2.22,1.5-3.45,2.19-1.24.69-2.55,1.38-3.96,2.05-1.36,1.16-3.21,2.04-4.73,2.83-1.54.78-2.77,1.47-3.06,2.03,1.87-.94,3.71-1.93,5.57-2.9,1.85-.97,3.63-2.08,5.45-3.11-1.52.91-3,1.86-4.53,2.83-1.57.91-3.19,1.85-4.94,2.86-3.54,1.94-7.72,3.96-13.27,5.94.79-.5,3.95-2.01,6.11-3.06-1.62.58-3.14,1.22-4.67,1.89-.77.33-1.53.68-2.32.99-.8.3-1.62.58-2.48.83.17-.28,1.15-.75,2.61-1.38,1.45-.67,3.4-1.48,5.54-2.37,2.13-.92,4.41-2,6.59-3.03,2.16-1.09,4.18-2.22,5.8-3.21-.86.34-2.07.94-3.36,1.62-.64.34-1.31.7-1.96,1.05-.66.33-1.31.65-1.9.95-2.39,1.17-3.95,1.9-2.39.72-2.25,1.68-5.42,2.87-8.99,4.26-1.81.64-3.73,1.31-5.73,2.07-2.01.73-4.11,1.5-6.24,2.44l.43-.65c-1.35.57-4.21,1.62-6.79,2.42l4.49-2.02c-6.99,2.8-14.01,3.55-20.93,5.52,14.64-3.63,3.44-.23,9.71-1.48-4.47,1.33-7.4,2-9.56,2.46-2.16.47-3.57.6-5.06.72-1.49.13-3.04.26-5.49.65-2.44.43-5.81.94-10.93,1.91,2.76-.56,10.47-1.58,6.17-.59-1.96.3-4.24.64-6.33.92-2.09.29-4,.51-5.22.55-13.64,2.09,2.17.18-3.6,1.31-2.37.05-4.04.36-5.87.77-1.83.36-3.83.84-6.83,1.27l-.1-.47c-3.92.4-6.14.58-7.48.76-1.34.18-1.8.34-2.21.5-.41.16-.78.31-1.93.46-1.15.14-3.08.38-6.63.43l2.98-.49,2.96-.58c-1.23.12-2.45.28-3.68.37l-3.69.27,1.49-.62c-4,.39-6.63.63-9.24.72-2.61.05-5.21.03-9.15.03,1.83.3-1.02.96-8.01.83-2.38-.18-1.71-.28-1.68-.35.01-.03-.13-.06-.9-.08-.77-.03-2.16-.01-4.63-.13,2.24-.17,4.69-.55,8.99-.04.44-.15,2.2-.27,2.66-.42-2.56-.2-5.77-.26-8.79-.28-3.02-.1-5.85-.18-7.63-.24,1.37.08,3.02.18,3.86.29h-7.17c-2.39,0-4.78-.12-7.17-.18-2.24-.35-.44-.36,1.34-.37-1.45-.09-2.68-.11-4.08-.15-.7-.02-1.44-.05-2.28-.08-.83-.06-1.75-.14-2.82-.25,1.14-.3.91-.61,6.94-.36-4.55-.14-9.07-.6-13.61-.92-.9-.21-6.87-1.4-5.1-1.28-1.86-.32-3.94-.6-6.18-.86-2.24-.23-4.6-.62-7.05-.93-2.44-.36-4.99-.63-7.49-1.13-2.51-.47-5.03-.99-7.46-1.58-.52-.04-1.57-.14-3.65-.61-9.16-2.28-17.12-4.68-27.74-7.88-1.9-.93-3.79-1.84-5.64-2.85-4.05-1.52-2.16-.53-.94.2.61.37,1.05.67.5.57-.54-.13-2.15-.55-5.47-1.98-1.18-.49-2.12-.89-2.87-1.22-.73-.35-1.26-.63-1.66-.85-.78-.44-.99-.63-1-.75-.02-.24.72-.16-.84-1.03-1.19-.45-2.55-1.08-4.08-1.79-.76-.36-1.57-.74-2.41-1.13-.81-.44-1.66-.91-2.54-1.39-.87-.49-1.78-.98-2.68-1.54-.88-.59-1.78-1.2-2.7-1.81-1.86-1.21-3.59-2.74-5.35-4.25,1.26.89,2.35,1.72,3.42,2.54,1.07.81,2.19,1.53,3.38,2.33Zm-31.22-93.43c-.18,1.02-.45,2.55-.7,4.01-.22,1.46-.48,2.85-.76,3.57-.05-1.21.07-2.25.31-3.42.26-1.17.68-2.45,1.15-4.15Zm100.5-122.42c-.68.39-1.57.81-2.62,1.26-1.02.49-2.19,1.02-3.45,1.55.87-.46,1.81-.95,2.81-1.44,1-.49,2.11-.91,3.26-1.37Zm158.35,240.31c.07-.06.11-.11.17-.16,3.87-2.71,2.49-1.75-.17.16Zm-8.02,5.63c-.76.63-.66.64-.29.46.48-.51,2.27-1.77,4.3-3.25-.63.31-1.7,1-4.01,2.79Zm71.46-32.22l-1.65,1c3.48-2.61,2.56-1.81,1.65-1Z"/>
          <path class="cls-3" d="m344.71,133.58c-.55.22-.74.23-.91.22-.67.48-.64.57.91-.22Z"/>
          <path class="cls-3" d="m353.56,363.6l.32.07c.18,0,.28,0,.34-.02l-.66-.05Z"/>
          <path class="cls-3" d="m593.19,249.32c.24-1.95.45-3.04.57-3.77-.1-.11-.26.78-.57,3.77Z"/>
          <path class="cls-3" d="m469.15,400.43l5.05-3.65c-2.47,1.73-3.41,2.26-4.71,3.06.18.01,1.25-.53-.35.59Z"/>
          <path class="cls-3" d="m423.93,430.33c-.69.6-1.51,1.21-2.17,1.82l.33.02c3.02-2.45,5.08-4.23,1.84-1.84Z"/>
          <path class="cls-3" d="m463.51,402.45c-.64-.04-3.74,2.35-7.25,4.95.21-.15.42-.3.63-.45-.72,1.21,2.96-1.65,6.62-4.5Z"/>
          <path class="cls-3" d="m455.45,408c-1.08.8-2.2,1.61-3.28,2.36-.28.48,1.36-.91,3.28-2.36Z"/>
          <path class="cls-3" d="m501.24,377.72c-1.77,1.1-.78,1.17-1.84,1.71-1.6,1.76,11.02-8.46,1.84-1.71Z"/>
          <polygon class="cls-3" points="459.86 403.42 461.43 402.91 463.19 401.16 459.86 403.42"/>
          <path class="cls-3" d="m488.48,384.06l-5.85,3.83c.13.01-.57.55-1.45,1.2,3.57-2.41,7.53-4.99,7.31-5.02Z"/>
          <path class="cls-3" d="m481.17,389.08c-1.86,1.26-3.62,2.47-4.6,3.24,1-.69,3.15-2.18,4.6-3.24Z"/>
          <polygon class="cls-3" points="467.57 397.76 469.33 396.67 473.41 393.89 467.57 397.76"/>
          <path class="cls-3" d="m547.93,338.09c1.78-1.83,3.59-3.62,5.29-5.52.4-.69-1.07.78-3.05,2.82-1.22,1.37-3.19,3.4-2.24,2.7Z"/>
          <path class="cls-3" d="m529.76,352.35c1.66-1.22,1.85-1.21,2.84-1.84l-.22-.63c-.85.84-1.74,1.64-2.62,2.46Z"/>
          <path class="cls-3" d="m546.29,337.58c.42-.66,7.49-8.07.68-1.31-.39.7-5.87,5.98-.68,1.31Z"/>
          <polygon class="cls-3" points="595.34 237.73 595.39 239.67 596.4 239.39 595.34 237.73"/>
          <path class="cls-3" d="m551.65,150.64c1.63,1.5,2.49,2.39,3.06,2.87.56.48.78.59.98.69.2.09.39.17.86.59.24.21.55.5.98.92.42.43.93,1.02,1.59,1.77.8.68-.28-.56-1.36-1.79-1.13-1.18-2.26-2.36-1.42-1.69-1-.9-1.88-1.7-2.61-2.35-.74-.64-1.35-1.13-1.77-1.46-.85-.65-1-.61-.31.46Z"/>
          <path class="cls-3" d="m556.34,154c.64.58,1.35,1.16,2.06,1.83-1.13-1.08-1.71-1.53-2.06-1.83Z"/>
          <polygon class="cls-3" points="548.81 11.51 545.6 6.62 547.51 9.89 548.81 11.51"/>
          <path class="cls-3" d="m541.65,2.85l-.3-1.49-2.58-2.45c.81,1.04,2.4,3.05,2.87,3.95Z"/>
          <path class="cls-3" d="m266.17,231.99v-.46c-.45.78-.91,2.04-1.82,4.56l1.82-4.1Z"/>
          <polygon class="cls-3" points="263.55 306.76 263.05 305.56 263.47 308.03 263.55 306.76"/>
          <path class="cls-3" d="m309.45,348.69c-1.21-.53-2.48-1.17-3.79-1.76-.65-.3-1.3-.61-1.93-.9-.63-.32-1.23-.65-1.8-.97,5.1,2.57,7.87,4.59,7.52,3.63Z"/>
        </g>
      </g>
    </g>
  </g>
</svg>