<?xml version="1.0" encoding="UTF-8"?>
<svg xmlns="http://www.w3.org/2000/svg" viewBox="0 0 841.89 595.28">
  <defs>
    <style>
      .cls-1 {
        isolation: isolate;
      }

      .cls-1, .cls-2 {
        fill: none;
      }

      .cls-3 {
        fill: #f671b7;
      }

      .cls-2 {
        mix-blend-mode: color-burn;
      }
    </style>
  </defs>
  <g class="cls-1">
    <g id="Layer_1" data-name="Layer 1">
      <g class="cls-2">
        <g>
          <path class="cls-3" d="m380.85,579.07l.17.43c-.14-1.18-.3-2.37-.42-3.56.06,1.04.16,2.09.24,3.13Z"/>
          <path class="cls-3" d="m381.86,556.54c-.92,2.06-.58,8.15-.94,12.16l-.19.66.5,1.83c.07-4.87.05-11.24.63-14.64Z"/>
          <path class="cls-3" d="m384.83,544.85c-.38.69.13-2.59-.48,2.74.08-.26.1-.34.14-.49.07-.48.17-1.13.34-2.25Z"/>
          <path class="cls-3" d="m384.49,547.1c-.32,2.33.45-1.49,0,0h0Z"/>
          <path class="cls-3" d="m386.13,536.35c-.13,1.03-.25,2.06-.33,3.09.25-.61.83-3.31.75-2.28.5-3.13.21-2.53-.41-.81Z"/>
          <path class="cls-3" d="m386.21,533.36l-.22,1.6c.12-.26.23-.67.22-1.6Z"/>
          <path class="cls-3" d="m385.54,538.35c.13-1.13.3-2.26.45-3.39-.2.42-.44.42-.23,1.55-.15-.31-.1.38-.22,1.84Z"/>
          <path class="cls-3" d="m385.1,540.23c-.45,1.69-.93,3.9-.64.78-.48,2.94-.46,4.23-.32,4.03.15-.2.48-1.87.96-4.81Z"/>
          <path class="cls-3" d="m381.23,555.32l-.42,2.33.05,2.05c-.03-1.02.6-4.5.37-4.37Z"/>
          <path class="cls-3" d="m391.21,517.75c-.09-.23-.69.88-.94,1.04l-.5,2.24c.44-1.1,1.18-3.2,1.44-3.28Z"/>
          <path class="cls-3" d="m390.27,518.79c.26-1.12.47-2.25.78-3.35-.99,2.9-.98,3.49-.78,3.35Z"/>
          <path class="cls-3" d="m385.54,532.65c-.19,1.89-.41,3.77-.58,5.66.25-2.24.5-4.49.81-6.73-.08.36-.17.71-.23,1.07Z"/>
          <polygon class="cls-3" points="395.64 505.51 395.26 507.44 396.03 504.04 395.64 505.51"/>
          <path class="cls-3" d="m399.04,497.58c-.37,1.4,1.31-1.54.81-.11,1-2.11,1.67-4.01,2.28-5.72-.75,1.77-1.68,3.57-3.08,5.83Z"/>
          <path class="cls-3" d="m403.31,488.95c-.41.87-.78,1.8-1.19,2.8.44-.92.84-1.84,1.19-2.8Z"/>
          <path class="cls-3" d="m393.03,509.95c.18-.21.6-.61,1.39-2.35l-.89,1.1c-.15.38-.33.81-.5,1.25Z"/>
          <path class="cls-3" d="m393.5,508.74l.03-.04c.55-1.36.93-2.3,1.09-2.7-.14.35-.48,1.17-1.12,2.74Z"/>
          <path class="cls-3" d="m392.91,510.27c.04-.12.07-.2.11-.32-.08.11-.12.18-.11.32Z"/>
          <path class="cls-3" d="m388.07,523.96c.25-2.02,1.25-6.14-.27-2.32-.09,1.48.71-.72.27,2.32Z"/>
          <path class="cls-3" d="m391.86,511.68l-1.28,3.42c.13-.03.5-.6.29.38l.99-3.8Z"/>
          <polygon class="cls-3" points="392.32 509.94 391.86 511.68 392.34 510.41 392.32 509.94"/>
          <path class="cls-3" d="m400.06,494.26c.54-1.49,1.27-3.05,2.22-4.74-1.13,1.76-2.08,3.69-3.01,5.51,0,.32-.19,1.23.79-.77Z"/>
          <path class="cls-3" d="m396.65,501.19c.04-.1.09-.23.12-.33-.12.18-.2.33-.12.33Z"/>
          <path class="cls-3" d="m412.5,473.39c-.09.07-.16.13-.25.2,0,.03.01.06.02.1l.23-.3Z"/>
          <path class="cls-3" d="m399.04,495.31c-.78,1.36-1.11,2.25-1.34,3.12.42-1.1.98-2.2,1.56-3.4,0-.14-.02-.18-.23.28Z"/>
          <path class="cls-3" d="m405.8,484.25c-.51.64-1.07,1.38-1.58,2.2.48-.64,1.53-1.9,1.58-2.2Z"/>
          <path class="cls-3" d="m397.1,500.43c-.03.07-.05.14-.08.22.29-.43.23-.39.08-.22Z"/>
          <path class="cls-3" d="m397.1,500.43c.27-.76.43-1.38.61-2-.36.88-.68,1.71-.93,2.44.11-.16.23-.32.32-.43Z"/>
          <path class="cls-3" d="m413.86,467.08c.07.24-.46,1.24-1.31,2.51-.43.63-.94,1.34-1.5,2.04-.28.35-.58.71-.88,1.06-.28.36-.58.72-.88,1.06-1.76,3.1.61,1.89,2.96-.16-.07-.19-.21-.28,1.8-3.29-.47.44-1.78,1.95-2.79,3.03-.95,1.12-1.61,1.8-.89.43,2.69-3.99,2.49-3.06,4.05-4.8-.78.65-.04-.71.86-2.11.9-1.39,1.87-2.9,1.25-2.73-.84,1.14-1.72,2.26-2.52,3.42-.15-.01.68-1.33-.14-.47Z"/>
          <path class="cls-3" d="m408.31,479.19c-.28.41-.5.85-.76,1.27.93-1.41,1.81-2.27,3.3-3.93,1.23-2.13,1.4-2.64,1.41-2.84-1.42,1.97-2.79,3.97-4.18,5.96.07-.16.16-.3.23-.45Z"/>
          <path class="cls-3" d="m404.09,486.13c.16-1.24,1.94-4.34.38-2.73-1.16,1.85-1.4,2.6-1.59,3.12-.17.53-.22.88-.77,2.06,3.34-6.19-.77,1.88,1.91-2.43-.61,1.24-1.19,2.33-1.75,3.36.66-1.08,1.31-2.11,1.94-3.06-.04.05-.07.09-.1.13v.03s-.02,0-.02,0c-.19.24-.27.31-.08.03,0-.02.05-.1.06-.13-.03-.07-.01-.21.01-.36,1.07-1.73.25-.22-.01.36,0,.03,0,.09.01.11l.02-.02c1.06-2.09,2.3-4.07,3.45-6.11-.82,1.24-1.84,2.8-3.47,5.67Z"/>
          <path class="cls-3" d="m387.99,517.75c.1-.2.13-.18.16-.19.08-.46.1-.63-.16.19Z"/>
          <path class="cls-3" d="m389.12,515.04c-.12.51-.09.97-.61,2.56-.55,1.36-.2-.07-.35-.04-.18,1.01-.73,3.48.39.5l.09-.5c.46-1.35,1.16-2.84,1.71-3.93.55-1.09.94-1.79.89-1.54-.64.66-1.14,1.26-2.12,2.94Z"/>
          <path class="cls-3" d="m395.87,499.92l1.1-2.73c.38-.91.81-1.79,1.21-2.69-.55.84-1.14,1.67-1.67,2.53l.26-.04c-1.45,3.03-.9,2.48-.91,2.93Z"/>
          <polygon class="cls-3" points="413.07 472.99 412.97 473.87 414.5 470.81 413.07 472.99"/>
          <polygon class="cls-3" points="417.71 467 417.83 467.47 418.94 465.79 417.71 467"/>
          <path class="cls-3" d="m779.02,283.46l.39-1.68c-.2.79-.32,1.3-.39,1.68Z"/>
          <path class="cls-3" d="m774.85,295.19l.06.35c.12-.57.14-.82-.06-.35Z"/>
          <path class="cls-3" d="m591.96,419.84c2.59.17,5.5.34,5.14-.04l-.83-.34c-1.77.28-3.14.41-4.31.38Z"/>
          <path class="cls-3" d="m712.96,375.33c-.22.1-.45.21-.68.32-.42.48-.81.93-1.16,1.34.56-.5,1.18-1.06,1.85-1.66Z"/>
          <path class="cls-3" d="m713.38,372.82l2.87-1.69c-.67.35-1.59.9-2.87,1.69Z"/>
          <path class="cls-3" d="m784.27,216.45l-.74-1.9c.47,3.07.49,1.69.74,1.9Z"/>
          <path class="cls-3" d="m482.23,426.88c2.15-.3,3.82-.66,5.31-.91-2.59.27-4.72.42-5.31.91Z"/>
          <path class="cls-3" d="m781.84,289.62c.27-1.05.34-1.52.23-1.52-.29,1.08-.41,1.7-.23,1.52Z"/>
          <path class="cls-3" d="m493.68,424.88c-.38.03-.75.07-1.14.1-1.54.35-3.1.68-5,.99,1.93-.15,4.11-.42,6.14-1.09Z"/>
          <path class="cls-3" d="m616.74,44.28c-.15-.11-.33-.23-.46-.33-.08.02.14.15.46.33Z"/>
          <path class="cls-3" d="m554.11,6.87c.67.27,1.73.76,2.74,1.22-.48-.25-1.3-.62-2.74-1.22Z"/>
          <path class="cls-3" d="m439.84,446.27c-1.25,1-.17.19,0,0h0Z"/>
          <path class="cls-3" d="m432.63,449.77c.23-.26.39-.48.36-.58-.03.17-.16.37-.36.58Z"/>
          <path class="cls-3" d="m509.43,420.27s.09,0,.14-.01c-.49-.04-.41-.03-.14.01Z"/>
          <path class="cls-3" d="m437.81,447.58c.51-.32,1.09-.71,1.7-1.14-.28.17-.8.52-1.7,1.14Z"/>
          <path class="cls-3" d="m438.19,447.55c-.45.32-.8.58-1.14.82-.12.18.05.11,1.14-.82Z"/>
          <path class="cls-3" d="m441.64,444.97c-.38.25-.75.5-1.11.74-.35.25-.69.5-1.02.74.27-.17.39-.23.33-.16.18-.15.41-.32.69-.54.3-.21.66-.45,1.11-.77Z"/>
          <path class="cls-3" d="m726.33,120.51c-.07-.08-.16-.17-.24-.26-1.35-.95-.79-.5.24.26Z"/>
          <path class="cls-3" d="m633.22,408.41c-.07.03-.11.04-.18.06.08-.01.17-.03.24-.04l-.06-.02Z"/>
          <path class="cls-3" d="m638.79,406.67c-.56.3-1.07.54-1.54.75-.48.18-.93.33-1.36.45-.87.24-1.68.39-2.61.56l2.18.76c1.12-.81,2.24-1.63,3.33-2.52Z"/>
          <path class="cls-3" d="m785.12,254.35c-.3,1.33-.54,2.66-.9,3.97.02-4.93.59-8.39-.38-4.7.32.18.37,1.24.3,2.76-.08,1.51-.4,3.45-.67,5.4-.63,3.88-1.4,7.73-.83,8.15l-.87,2.55c.18-.75.13-.88.31-1.62-.88,2.47-.89,3.45-.9,4.65,0,.6,0,1.24-.12,2.15-.11.91-.36,2.06-.91,3.66-.78,2.22-1.43,3.73-1.13,2.15-.39,1.7-.88,3.37-1.32,5.07-.51,1.43-.61,1-.11-.42-.39,1.27-.84,2.52-1.3,3.77-.46,1.25-.88,2.51-1.37,3.74v-.07c-.25,1.13-.94,3.64-1.29,4.87-1,1.78.28-.99-.1-.59-.47,1.4-1.01,2.78-1.51,4.17-1.08,1.49.17-1.97,1.41-4.75-1.41,1.64-1.75,2.47-2.22,3.92-.46,1.45-1.18,3.45-3.52,7.24l1.69-3.8c-.95,1.03-1.68,2.31-2.56,3.8-.91,1.47-1.84,3.22-3.22,5.12.8-.8,5.52-7.69,3.57-3.31-.74,1.13-1.57,2.7-2.66,5.06-.22-.11-.61.4-1.15,1.27-.27.44-.57.97-.91,1.56-.35.58-.74,1.22-1.15,1.89l-.43-.52c-1.65,2.97-1.21,2.94-2.1,4.76-2.17,3.13-3.03,3.49-3.9,3.96-3.64,4.85,3.11-2.94-1.01,2.96-1.59,1.97-2.95,3.64-4.27,5.5-.7.9-1.4,1.84-2.15,2.86-.74,1.03-1.57,2.11-2.52,3.3-2.53,2.5.12-.72-.86.1-.58.88-1.13,1.8-1.74,2.67-.55.54-.49.26-.46.11-1.72,2.02.31.59-2.5,3.69-.14.65-1.84,2-3.87,3.71-2.1,1.65-4.63,3.54-6.28,5.58-1.07.72.2-.71-.25-.63-1.24,1.27-2.09,2.22-2.83,2.89-.73.68-1.26,1.17-1.76,1.63-.99.94-1.84,1.8-3.91,3.9l-2.07,1.39c-.7.45-1.43.85-2.14,1.28,3.27-1.73-.2,1.43-3.29,4.2,1.2-.57,2.23-1.05,2.9-1.4l-5.18,4.1c-.71.37-.29-.19.44-1.04-.33.31-.65.6-.9.83-2.12,1.06-1.27.14-.09-1.12.73-.35,1.45-.7,2.15-1.04,1.1-1.26,2.08-2.48,1.59-2.59-.3.31-.93.83-1.65,1.38.28-.33.45-.56.25-.5-.22.07-.69.58-1.47,1.34l-1.61.27-.13.44c-2.46,1.43-4.97,2.79-7.44,4.19-2.35,1.99-4.67,3.69-7.36,5.67-1.36.97-2.8,2.02-4.47,3.08-1.69,1.01-3.58,2.08-5.73,3.23,1.94-1.54.09-1-.07-1.61,1.33-.29,2.99-1.19,4.88-2.28,1.88-1.1,3.91-2.54,6.14-3.7-2.32,1.22-1.96.68-1.43.27l-3.76,2.45c-1.27.79-2.58,1.51-3.87,2.27-.05-.54-1.88.51-4.06,1.36,1.01.05-.41.96-2.49,2.06-2.12,1.01-4.9,2.22-6.51,3.09-.34-.22.33-.88,4.44-2.59-2.4.64-3.73,1.54-5.06,2.45-1.33.91-2.62,1.88-5.01,2.41,1.01-.4,1.58-.56,1.92-.87-2.26,1.19-8.16,3.19-6.9,2.39l1.01-.39c-.85.31-1.8.67-2.83,1.05-1.02.4-2.12.8-3.27,1.17-2.29.77-4.71,1.6-6.93,2.4-2.21.84-4.29,1.47-5.84,2.05-1.55.57-2.59,1.04-2.79,1.32-.1-.09.64-1.25,1.01-1.53-1.94,1.03-3.87,2.12-5.84,3.12l-5.97,2.9c.94-.97-3.69-1.66,2.03-3.45-1.7.29-3.78.69-7.26,1.75,1.17-.13,3.08.36,1.53.81-4.48.12-3.1.18-8.55.56,1.75-.18.05,1.32-2.69,1.82.4-.25-.42-1.07.55-1.38-2.19.84-4.42,1.48-6.65,2.23,1.68-.46.15-.99-1.42-1.07.74.11-5.9.92-7.73,1.16l2.95-.08c-3.89.36-5.76.97-7.63,1.6-.93.31-1.87.63-3.05.92-1.19.26-2.63.46-4.57.59.92-.3,2.19-1.6-1.74-1.44-.88.35-2.82,1.21-5.42,2.07-2.6.78-5.86,1.64-9.31,1.96l-1.34-.29-5.29.52c1.64-.47,4.76-1.24,8.09-1.99,3.32-.82,6.85-1.56,9.33-2.11-2.93-.05-.83-.33-5.2-.08-1.56-.24,2.36-.58,3.64-.65-3.4.07-6.78.22-10.18.23.48.66-7.78.9-7.39,1.42,3.7-.3,7.39-.64,11.07-1.01.48.67-6.34,2.16-13.61,2.15-1.85-.24,1.36-1.22,1.2-1.44-.93.25-6.87.56-7.55.39l3.07-.4c-4.04-.21-6.58.97-11.45.38-1.68-.02-5.02-.81-5.31-.41,2.75.73,3.31,3.1,1.5,3.7-.59-.04-8.81-.61-10.73-.92-2.78-.53,4.11-1.54,1.75-2-.1.18-1.62.46-2.26.55-1.77-.11.72-.59-3.12-.4-.62.67-7.81.23-1.79.63-3.74.33-3.99.03-8.4.26,1.42.34-3.86,1.75-7.58,2.21.21-.18-.65-.36-1.07-.42-1.91.16-3.6.3-5.18.43-.79.06-1.55.11-2.29.16-.74.08-1.46.15-2.18.22-2.87.31-5.69.54-9.22,1.22-.68-.05-4.13.36-2.73-.18-.49.16-.97.31-1.59.51-.62.21-1.37.45-2.45.7-4.32.38,4.81-1.19,1.47-1.15-.1.23-1.47.68-3.2,1.19-1.73.52-3.81,1.06-5.29,1.66.27.08.85,0,1.61-.18.76-.17,1.72-.38,2.73-.65,2.03-.53,4.29-1.29,5.82-1.69.05.21-.25.47-.83.8-.57.34-1.43.74-2.51,1.18-1.08.44-2.39.91-3.87,1.41-1.48.49-3.1,1.15-4.85,1.74-2.8.91-3.46.95-3.52.84-.07-.13.43-.47-.04-.25-5.25,1.78-7.38,2.86-9.17,4.05-.91.56-1.77,1.08-2.94,1.65-.58.29-1.26.57-2.03.92-.76.37-1.65.78-2.7,1.23-3.48,1.17-.64-.88-1.53-.85,4.18-2.47,6.86-2.83,9.83-4.17l-3.8,1.35c.67-.38,1.73-.93,2.84-1.44,1.11-.52,2.25-1.02,3.12-1.21-.78.11-2.24.68-4.14,1.45-1.89.79-4.26,1.69-6.65,2.98-1.21.61-2.46,1.24-3.71,1.87-1.21.7-2.43,1.41-3.62,2.1-2.42,1.31-4.56,2.8-6.42,3.9-1.2.97-3.18,2.74-2.05,2.16.69-.59,1.45-1.09,2.18-1.63,1.16-.52.18.32-.71,1.07-.89.75-1.64,1.48-.22.53-1.36,1.21-2.76,2.55-4.35,3.92-.81.67-1.59,1.44-2.46,2.2-.86.76-1.79,1.54-2.79,2.32l-1.14.17c.2.05,2.77-1.9,3.74-2.98-.71.8-2.35,1.9-3.93,3.12-1.53,1.27-3.04,2.62-3.6,3.71l2.87-2.17c-1.19,1.39-2.54,2.9-3.87,4.58-1.31,1.69-2.81,3.35-4.34,4.99,1.77-1.15.64-.82,3.32-2.68-1.25.72.67-1.4,2.54-3.29,1.92-1.83,3.68-3.53,1.76-2.33,2.88-1.71,4.43-3.55,8.09-5.8-.21-.05-1.44.61,1.6-1.58.1-.15.37-.45.54-.64.1-.06.13-.09.21-.14-.06.04-.11.07-.18.11.11-.12.12-.14-.07.04-.76.47-1.4.83-1.71.92.6-.75,2.09-2.03,3.62-3.31,1.55-1.24,3.22-2.37,3.98-3.05,1.91-1.18-.65.72.48.21.77-.66,1.52-1.36,2.35-1.95.5.22,5.48-2.37,1.11.52l4.06-2.38c1.27-.56,2.79-1.19,4.22-1.9.71-.35,1.41-.7,2.05-1.04.66-.31,1.27-.6,1.79-.87,2.07-.78,4.96-2.67,3.32-1.58l1.67-.79c.56-.27,1.14-.46,1.71-.7l3.45-1.36.1.08c6.92-2.25,14.3-5.04,22.77-5.54.6-.14,1.21-.27,1.85-.42.65-.11,1.32-.22,2.04-.34,1.45-.23,3.12-.46,5.18-.67.28.09.56.18.85.29,1.58-.22,3.97-.36,6.13-.51,2.16-.17,4.1-.21,4.77-.48,3.48.69,15.5-.57,21.16-.49l.2-.51c3.89-.04,7.62-.25,12.46-.5l-.3-.44c4.17-.42,10.74.22,17.36.04-.45.18-2.13.16-3.32.08,7.93.9,16.68-1.11,23.89-.91,1.78-.3,3.08-.34,4.35-.33-.17.01-.32.03-.44.06.18-.01.46-.03.74-.05.8.02,1.62.03,2.51.05-.76-.05-1.49-.09-2.12-.08,1.38-.12,3.47-.3,5.51-.68l.92.38c.17-.02.3-.04.47-.07,2.03-.05,1.59-.41.48-.65,1.02-.2,1.95-.4,2.67-.6,1.73.59,5.33-.85,7.65-.43,1.31-.61,10.19-1.85,11.09-3.01.09.1.69.03-.39.25,2.26-.34,4.53-.69,6.5-1.32l1.08.41c1.59-.56,3.14-1.28,4.7-1.91,3.04-.34,4.32-.43,1.49.74,3.47-1.2,4.89-1.61,6.17-1.99,1.27-.43,2.42-.83,5.3-2.02l-.18.46c2.12-.64,5.39-2.05,6.75-2.19,1.23-.21,3.31-.79,5.92-1.6,1.3-.41,2.75-.85,4.28-1.37,1.51-.57,3.12-1.18,4.78-1.8,1.66-.63,3.38-1.28,5.12-1.94,1.73-.68,3.44-1.46,5.15-2.16,1.71-.71,3.41-1.41,5.04-2.08,1.64-.65,3.17-1.41,4.65-2.02-2.73.05,5.55-2.17,5.59-3.2.8-.07,2.43-.8.72.39,2.8-1.68,4.98-2.8,6.92-3.83,1.94-1.03,3.65-1.97,5.34-3.54.78-.16-.97,1.09-.32.88.41-.33,1.63-1.31,2.29-1.53.65-.22-.69.71-1.5,1.36,5.63-3.61,5.74-4.68,5.7-5.6,3.01-1.54,4.32-2.63,6-4.44,1.1-.46,2.86-1.38-.45,1.09.48-.33,1.46-.99,2.65-1.8.6-.41,1.25-.85,1.92-1.31.66-.47,1.31-1.01,1.96-1.51,2.58-2.04,4.9-3.99,4.79-4.31.67-.33,2.58-1.98,2.95-2.48,3.89-3.46,4.31-3.69,8.02-7.21-.35.32-.72.61-1.1.9.95-1.93,2.88-3.13,5.73-6.11l-.03.14c3.55-3.14,4.11-4.02,4.75-4.79.62-.8,1.29-1.51,4.51-4.91l-.69.08c-.2-1.27,5.68-6.03,8.48-10.73l-1.37,1.42c.74-1.28,2.18-2.79,3.68-4.28,1.52-1.47,3.01-3,3.86-4.23.42-.51-.42.95-.85,1.76,2.34-3.16,2.34-3.46,2.13-3.6-.21-.13-.62-.1.77-2.65.83-.76.05,1.64,2.08-1.74.62-.78,1.72-3.43,3.04-6.43.62-1.52,1.3-3.12,2.01-4.63.67-1.53,1.35-2.96,2.05-4.12-.73.97-1.45,1.92-.51-.61.42-.94.91-2.06,1.48-3.23.55-1.18,1.22-2.41,1.76-3.67,1.12-2.52,2.14-5.03,2.32-6.94.24-.48.36-.64.43-.64.89-3.05,2.68-9.94,2.69-11.9.29-.3.58-.83.86-1.52.26-.69.5-1.56.73-2.52.23-.96.45-2.03.67-3.13.16-1.11.33-2.26.5-3.38.35-2.25.53-4.42.79-6,.27-1.58.53-2.59.9-2.52l.53-4.85.36-4.86.14.26c.28-3.11.24-5.23.2-6.83-.11-1.61-.29-2.71-.47-3.8.11-1.44.25-.39.33-.27.13-2.27.04-4.04.04-5.53,0-1.49-.09-2.69-.22-3.84-.12-1.15-.27-2.26-.47-3.55-.27-1.27-.57-2.74-.97-4.61l.4-.85c-.14-.5-.3-1.57-.47-3.03-.08-.73-.18-1.56-.28-2.46-.12-.9-.28-1.87-.44-2.9-.17-1.03-.33-2.11-.54-3.22-.25-1.1-.5-2.23-.75-3.37-.49-2.29-1.27-4.54-2.01-6.65.08.07.22.22.49.88-.4-1.2-.85-2.44-1.29-3.72-.45-1.28-.83-2.62-1.3-3.93-.46-1.32-.92-2.65-1.38-3.95-.44-1.31-.98-2.56-1.45-3.79-.92-2.47-2.02-4.63-2.96-6.39-.93-1.77-1.93-3.02-2.76-3.61l-1.8-2.78c-.61-.92-1.27-1.81-1.9-2.71,2.19,3.67,1.77,3.54,1.15,2.81-.67-.7-1.7-1.91-.91-.35-1.82-2.79-4.09-7.63-1.83-4.2l.26.6c1.7.72-5.53-9.05-4.99-9.15-9.9-13.62-21.08-25.73-32.73-36.28l.85,1.76c-1.33-1.25-2.7-2.46-4.05-3.67-.96-1.08-1.07-1.71,1.84.9-1.26-1.68-5.15-4.07-5.35-4-5.62-5.19,2.83,1.29,1.06-.24l-2.46-2.03.49.53c-2.16-1.45-2.53-1.36-6.12-4.37-2.19-2.01-.89-1.32-1.77-2.08.04-.04-.25-.3-1.38-1.14-1.77-1.47-3.55-2.92-5.34-4.35l1.8,2.15c-2.57-1.66-5.06-4.03-2.98-1.55-2.97-3.76-20.08-15.97-22.27-17.82-1.85-1.09-3.62-2.27-5.45-3.55-1.86-1.26-3.77-2.63-5.89-4.16.99.85,1.25,1.82-2.38-.84,1.05-.07-.53-1.4-2.72-3.02-2.19-1.61-4.96-3.56-6.2-4.99,1.16,1.18-1.5-.6-4-2.19-2.52-1.57-4.87-2.98-2.99-1.2-3.08-2.15.09-.54-2.13-2.37-1.95-1.11-3.92-2.38-5.98-3.7-2.06-1.31-4.17-2.7-6.33-4.15-4.3-2.92-8.92-5.84-13.68-8.66-.24.06,1.21,1.25-.95.25l-4.59-3.71c-1.93-1.03-2.25-.14-5.39-2.68.41.41,1.03,1.03-.27.34-18.36-11.59-39.14-20.61-58.37-31.39,2.55,1.59.75.74-1.33-.18,1.31.69-.21.38-.05.72l-8.1-4.43c-1.78-.14-9.06-3.93-10.19-3.75l2.72,1.06c-3.85-.87,4.3,3.69,3.39,4.33,2.15.49,4.61,1.98,7.41,3.54,1.4.79,2.88,1.6,4.45,2.33,1.56.75,3.2,1.43,4.93,1.92,1.33.85-1.34-.3-.68.27,1.8.4,3.8,1.26,7.35,3.16l-.46-.1c5.1,2.45,8.67,4.33,12.39,6.32,3.68,2.06,7.51,4.2,13.05,7.3l-.6-.87c2.37,1.35,2.81,1.76,3.87,2.47,3.1.86-6.72-3.68-3.84-3.02,1.37,1.29,5.6,3.58,9.69,5.82,4.06,2.29,7.98,4.55,8.77,5.62,3.65,2.06-.8-1.08,2.85.99l.81.82,1.11.21c2.34,1.45,3.36,2.47,3.32,2.73-.56-.36-1.67-.9-2.3-1.24,2.9,2.11,8.75,4.96,9.72,5.73-1.12-.75-2.23-1.5-3.36-2.23,9.97,5.64,21.66,13.33,31.18,18.99l-.58-.65c3.66,2.14,5.02,3.14,6.45,4.23,1.44,1.09,2.94,2.25,6.83,4.79l-.31-.15c1.67.85,3.75,2.21,5.81,3.69-2.06-1.14,3.31,2.96.63,1.42,7.74,4.93,3.91,2.32,9.29,5.21l.91,1.12c1.86.95,2.11.91,5.91,3.58-3.26-1.99,2.05,2.2-1.64.02,7.28,6.49,12.03,8.05,14.8,11.77,4.15,1.95-6.27-5.65-4.18-4.27-.73-.77.12-.36,1.45.48,1.32.86,3.1,2.17,4.27,3.15,2.42,1.96,3.38,4.26,9.44,9.18-.6-.49-.69-.47-1.29-.96,2.11,2.03,4.65,3.36,7.13,5.98,1.93.83,3.51,3.04,4.47,2.82-1.86-1.5-3.7-3.02-5.58-4.5,3.24,2.45,6.76,4.22,11.46,9.01-.49-.24-2.13-1.39-3.23-2.21,1.31,1.46,2.93,2.37,4.26,3.93-.94.18-6.58-5.69-10.31-8.02.69.81,2.35,2.03,3.55,2.96,1.19.95,1.94,1.59.84,1.19,3.08,1.25,5.66,5.18,10.05,8.19l-.58.1c.65.52,2.06,1.55,3.16,2.62l-2.44-1.47c1.73,1.27,3.13,2.78,4.45,4.33,1.34,1.53,2.63,3.07,4.12,4.46-2.93-3.1-3.23-3.48-2.98-3.53.23-.04.93.33-.23-1.07,2,1.74,3.16,2.98,3.96,3.95.8.96,1.23,1.66,1.67,2.39.45.72.88,1.52,1.72,2.64.82,1.14,2.1,2.58,4.02,4.81-1.04-1.2-3.72-4.68-1.89-2.97,1.42,1.73,3.16,4.14,3.86,5.34,4.93,6.01-.35-1.25,1.94,1.16.6,1.22,1.23,1.94,2.01,2.67.79.72,1.67,1.49,2.75,2.83l-.37.31c2.52,3.66,3,4.03,3.48,4.29.46.26.88.43,2.94,3.87-.8-.83-1.63-1.63-2.44-2.44.81,1.13,1.68,2.22,2.43,3.38l-.91-.44c1.35,1.81,2.19,3.04,2.97,4.29.78,1.25,1.39,2.58,2.41,4.54-.1-.53.16-.51.69.07.26.29.6.72.97,1.3.36.59.76,1.33,1.2,2.21.93,2.53-1.06-1.15,1.44,3.83-.79-1.02-1.77-2.06-2.44-4.43-.25-.15-.82-.97-1.07-1.12.49,1.36,1.27,2.98,2.05,4.49.79,1.5,1.42,2.95,1.85,3.85-.29-.71-.64-1.57-.77-2.03l1.92,3.54c.63,1.19,1.18,2.41,1.78,3.62.29,1.25-.21.36-.7-.52.64,1.5,1.27,2.46,2.05,4.73-.28-.23-.51-.28-.82-.66-.32-.38-.68-1.11-1.39-2.64.55,1.15,1.01,2.33,1.48,3.52.46,1.19.98,2.36,1.39,3.56-.02.54.63,3.89.22,2.98.25,1.03.58,2.15.91,3.36.37,1.2.76,2.49,1.16,3.81.71,2.67,1.48,5.53,1.71,8.34.12.28.28.85.52,2.02.54,5.27.51,9.94,1.16,16.2-.21,1.19-.48,2.37-.71,3.55.11,4.91.95-4.81,1.09,3.38-.03,5.82-.69,2.14-.98,4.16.08,1.44.17,3.43.15,5.72-.05,1.14-.15,2.36-.31,3.62-.08.63-.17,1.27-.28,1.91-.13.64-.28,1.29-.46,1.94.16-1.76.41-3.12.55-4.77Zm-17.87,57.76c.49-1.08,1.26-3.32,1.89-3.97-.1,1.45-.78,2.28-1.89,3.97Zm-62.35,67.44c.66-.61,1.86-1.27,3.27-1.94-.93.63-2.01,1.29-3.27,1.94Zm-250.36,57.21s.07-.05.1-.08c2.41-1.02,1.55-.66-.1.08Zm-4.87,2.4c-.44.34-.37.37-.14.32.27-.28,1.29-.96,2.54-1.57-.41.05-1.06.33-2.4,1.26ZM715.07,106.74l.76.78c-1.98-1.43-1.37-1.1-.76-.78Z"/>
          <path class="cls-3" d="m713.3,373.13c.32-.13.45-.11.57-.08.33-.34.29-.42-.57.08Z"/>
          <path class="cls-3" d="m784.41,216.81l-.02-.18c-.04-.1-.08-.14-.11-.17l.14.35Z"/>
          <path class="cls-3" d="m531.44,417.27c1.14.04,1.78.11,2.21.19.06-.12-.46-.21-2.21-.19Z"/>
          <path class="cls-3" d="m427.38,457.14l2.41-2.49c-1.19,1.18-1.7,1.52-2.36,2.05.13.03.72-.31-.05.44Z"/>
          <path class="cls-3" d="m405.84,478.78c-.22.47-.57.94-.79,1.4h.26c1.14-1.89,1.86-3.26.53-1.4Z"/>
          <path class="cls-3" d="m423.94,458.26c-.48-.08-1.89,1.63-3.52,3.48.1-.11.2-.21.3-.32-.07.91,1.57-1.12,3.22-3.16Z"/>
          <path class="cls-3" d="m420.04,462.16c-.52.55-.99,1.17-1.49,1.72,0,.38.6-.7,1.49-1.72Z"/>
          <path class="cls-3" d="m443.97,443.01c-1.01.56-.31.84-.94,1.06-.78,1.15,6.02-4.82.94-1.06Z"/>
          <polygon class="cls-3" points="421.61 458.79 422.58 458.49 423.24 457.19 421.61 458.79"/>
          <path class="cls-3" d="m436.37,445.96c-1.06.78-2.18,1.5-3.21,2.33.1.03-.25.39-.7.82.47-.39.95-.79,1.4-1.17.47-.35.92-.69,1.31-.97.77-.58,1.27-.98,1.19-1.01Z"/>
          <path class="cls-3" d="m432.47,449.11c-.97.82-1.88,1.62-2.36,2.14.52-.45,1.63-1.43,2.36-2.14Z"/>
          <polygon class="cls-3" points="425.32 454.83 426.24 454.09 428.28 452.18 425.32 454.83"/>
          <path class="cls-3" d="m474.15,427.04l4.11-1.33c.38-.29-.78-.06-2.31.44-.96.4-2.49.9-1.8.88Z"/>
          <path class="cls-3" d="m461.32,430.09c1.12-.37,1.24-.3,1.91-.4l-.11-.63-1.8,1.03Z"/>
          <path class="cls-3" d="m473.27,425.71c.36-.28,5.97-2.22.64-.66-.38.29-4.54,1.63-.64.66Z"/>
          <polygon class="cls-3" points="538.18 418.83 537.08 418.86 537.25 419.88 538.18 418.83"/>
          <path class="cls-3" d="m595.37,414.27c-5.08.33-1.14.79-5.75.87-1.17.33,3.77-.04,2.57.26,3.04-.56,4.65-.63,3.18-1.13Z"/>
          <path class="cls-3" d="m592.19,415.4c-.49.08-1,.17-1.55.27.88-.13,1.3-.21,1.55-.27Z"/>
          <polygon class="cls-3" points="543.27 1.39 540.32 -.13 542.14 1.04 543.27 1.39"/>
          <path class="cls-3" d="m761.69,319.33v.29c.41-.35.8-1,1.58-2.3l-1.58,2Z"/>
          <polygon class="cls-3" points="779.59 279.36 779.36 280.08 780.33 278.89 779.59 279.36"/>
          <path class="cls-3" d="m784.76,243.04c-.09,1.49-.01,3.26-.19,4.75.1-1.63.3-2.91.42-3.74.12-.83.14-1.2-.23-1.02Z"/>
        </g>
      </g>
    </g>
  </g>
</svg>