<?xml version="1.0" encoding="UTF-8"?>
<svg id="Layer_3" data-name="Layer 3" xmlns="http://www.w3.org/2000/svg" viewBox="0 0 50 50">
  <defs>
    <style>
      .cls-1 {
        fill: #1e1e24;
        stroke: #e7e0da;
        stroke-linecap: round;
        stroke-linejoin: round;
        stroke-width: .5px;
      }
    </style>
  </defs>
  <path class="cls-1" d="m21.18,16.06c2.08.59.04,6.51,3.54,10.07,3.44,3.51,9.13,1.57,9.65,3.54.44,1.65-3.18,4.61-6.97,5.25-3.34.57-7.38-.58-9.86-3.86-2.56-3.39-2.32-7.57-1.07-10.4.97-2.19,3.19-5.04,4.72-4.61Z"/>
  <path class="cls-1" d="m26.3,17.16c.93-.59.84-2.24,1.07-2.22.22.01-.08,1.55.71,2.22.88.75,2.6.03,2.67.27.07.23-1.66.51-2.05,1.6-.38,1.07.72,2.37.53,2.49-.18.12-.85-1.28-1.87-1.33-1.07-.06-1.9,1.41-2.14,1.25-.22-.16.78-1.3.44-2.4-.31-1.04-1.62-1.42-1.51-1.69.11-.27,1.3.35,2.14-.18Z"/>
  <path class="cls-1" d="m31.39,23.64c.64-.41.58-1.54.73-1.53.15,0-.05,1.06.49,1.53.6.52,1.79.02,1.84.18.05.16-1.14.35-1.41,1.1-.26.74.5,1.63.37,1.71-.12.08-.58-.88-1.29-.92-.74-.04-1.31.97-1.47.86-.15-.11.53-.89.31-1.65-.22-.71-1.12-.97-1.04-1.16.08-.19.89.24,1.47-.12Z"/>
</svg>