<?xml version="1.0" encoding="UTF-8"?>
<svg id="Layer_3" data-name="Layer 3" xmlns="http://www.w3.org/2000/svg" viewBox="0 0 50 50">
  <defs>
    <style>
      .cls-1 {
        fill: #1e1e24;
        stroke: #e7e0da;
        stroke-linecap: round;
        stroke-linejoin: round;
        stroke-width: .5px;
      }
    </style>
  </defs>
  <path class="cls-1" d="m17.35,7.12c4.16,1.18.08,13.01,7.07,20.15,6.88,7.02,18.26,3.14,19.29,7.07.87,3.31-6.37,9.22-13.93,10.5-6.69,1.14-14.77-1.15-19.72-7.72-5.12-6.79-4.64-15.14-2.14-20.79,1.93-4.37,6.38-10.08,9.43-9.22Z"/>
  <path class="cls-1" d="m27.59,9.32c1.87-1.18,1.69-4.48,2.14-4.45.44.03-.16,3.09,1.42,4.45,1.75,1.5,5.2.06,5.34.53.13.45-3.31,1.03-4.09,3.2-.77,2.14,1.44,4.74,1.07,4.98-.36.23-1.7-2.56-3.74-2.67-2.15-.11-3.8,2.82-4.27,2.49-.45-.31,1.55-2.6.89-4.8-.63-2.08-3.25-2.83-3.02-3.38.22-.54,2.59.71,4.27-.36Z"/>
  <path class="cls-1" d="m37.78,22.29c1.29-.81,1.16-3.08,1.47-3.06.3.02-.11,2.13.98,3.06,1.21,1.03,3.58.04,3.67.37.09.31-2.28.71-2.81,2.2-.53,1.47.99,3.26.73,3.43-.25.16-1.17-1.76-2.57-1.84-1.48-.08-2.61,1.94-2.94,1.71-.31-.21,1.07-1.79.61-3.3-.43-1.43-2.23-1.95-2.08-2.33.15-.37,1.78.49,2.94-.24Z"/>
</svg>