<?xml version="1.0" encoding="UTF-8"?>
<svg id="Layer_3" data-name="Layer 3" xmlns="http://www.w3.org/2000/svg" viewBox="0 0 50 50">
  <defs>
    <style>
      .cls-1 {
        fill: #1e1e24;
        stroke: #e7e0da;
        stroke-linecap: round;
        stroke-linejoin: round;
        stroke-width: .5px;
      }
    </style>
  </defs>
  <path class="cls-1" d="m8.53,6.05c2.86.81.06,8.92,4.85,13.81,4.72,4.81,12.52,2.16,13.23,4.85.6,2.27-4.37,6.32-9.55,7.2-4.59.78-10.12-.79-13.52-5.29C.02,21.98.35,16.25,2.07,12.37c1.32-3,4.37-6.91,6.47-6.32Z"/>
  <path class="cls-1" d="m43.7,44.01H13.36c-2.39-.41-4.22-2.36-4.46-4.75-.25-2.45,1.24-4.79,3.6-5.61-.04-.48-.29-4.17,2.59-6.9,2.52-2.39,5.61-2.32,6.18-2.3,1.81-4.82,6.43-7.89,11.22-7.62,5.59.31,10.36,5.11,10.64,11.22,3.7,1.17,6.16,4.62,6.05,8.34-.1,3.34-2.26,6.36-5.47,7.62Z"/>
  <path class="cls-1" d="m18.93,10.37c1.28-.81,1.16-3.07,1.46-3.05.3.02-.11,2.12.98,3.05,1.2,1.03,3.57.04,3.66.37.09.31-2.27.7-2.81,2.2-.53,1.47.99,3.25.73,3.42-.25.16-1.16-1.76-2.56-1.83-1.47-.08-2.61,1.93-2.93,1.71-.31-.21,1.07-1.78.61-3.29-.43-1.42-2.23-1.94-2.07-2.32.15-.37,1.78.48,2.93-.24Z"/>
  <path class="cls-1" d="m31.95,9.42c.88-.56.8-2.11,1.01-2.1.21.01-.08,1.46.67,2.1.83.71,2.45.03,2.52.25.06.21-1.56.48-1.93,1.51-.36,1.01.68,2.24.5,2.35-.17.11-.8-1.21-1.76-1.26-1.01-.05-1.79,1.33-2.01,1.17-.21-.15.73-1.23.42-2.27-.3-.98-1.53-1.34-1.43-1.59.1-.26,1.22.33,2.01-.17Z"/>
</svg>