<?xml version="1.0" encoding="UTF-8"?>
<svg id="Layer_3" data-name="Layer 3" xmlns="http://www.w3.org/2000/svg" viewBox="0 0 50 50">
  <defs>
    <style>
      .cls-1 {
        fill: #1e1e24;
        stroke: #e7e0da;
        stroke-linecap: round;
        stroke-linejoin: round;
        stroke-width: .5px;
      }
    </style>
  </defs>
  <path class="cls-1" d="m19.18,5.9c1.2-.76,1.08-2.87,1.37-2.85.28.02-.1,1.99.91,2.85,1.12.96,3.34.04,3.43.34.09.29-2.12.66-2.63,2.06-.49,1.38.93,3.04.69,3.2-.23.15-1.09-1.64-2.4-1.71-1.38-.07-2.44,1.81-2.74,1.6-.29-.2,1-1.67.57-3.08-.4-1.33-2.08-1.82-1.94-2.17.14-.35,1.66.45,2.74-.23Z"/>
  <path class="cls-1" d="m31.36,5.01c.82-.52.74-1.98.94-1.96.19.01-.07,1.37.63,1.96.77.66,2.3.03,2.36.24.06.2-1.46.45-1.81,1.41-.34.95.64,2.09.47,2.2-.16.1-.75-1.13-1.65-1.18-.95-.05-1.68,1.24-1.88,1.1-.2-.14.69-1.15.39-2.12-.28-.92-1.43-1.25-1.34-1.49.1-.24,1.14.31,1.88-.16Z"/>
  <path class="cls-1" d="m9.44,1.86c2.67.76.05,8.35,4.54,12.93,4.41,4.51,11.72,2.02,12.38,4.54.56,2.12-4.09,5.92-8.94,6.74-4.29.73-9.48-.74-12.65-4.95-3.29-4.36-2.98-9.72-1.38-13.34,1.24-2.81,4.09-6.47,6.05-5.91Z"/>
  <path class="cls-1" d="m42.37,37.38H13.96c-2.23-.38-3.95-2.21-4.17-4.44-.23-2.29,1.16-4.48,3.37-5.25-.04-.45-.27-3.9,2.42-6.46,2.36-2.24,5.25-2.18,5.79-2.15,1.7-4.51,6.02-7.38,10.5-7.13,5.23.29,9.7,4.79,9.96,10.5,3.46,1.1,5.77,4.32,5.66,7.81-.09,3.13-2.12,5.95-5.12,7.13Z"/>
  <line class="cls-1" x1="31.3" y1="40.13" x2="27.62" y2="48.2"/>
  <line class="cls-1" x1="25.31" y1="39.4" x2="21.62" y2="47.47"/>
  <g>
    <line class="cls-1" x1="38.22" y1="40.13" x2="38.22" y2="47.94"/>
    <line class="cls-1" x1="34.93" y1="42.06" x2="41.51" y2="46.27"/>
    <line class="cls-1" x1="41.47" y1="42.01" x2="34.96" y2="46.32"/>
  </g>
</svg>