<?xml version="1.0" encoding="UTF-8"?>
<svg id="Layer_3" data-name="Layer 3" xmlns="http://www.w3.org/2000/svg" viewBox="0 0 50 50">
  <defs>
    <style>
      .cls-1 {
        fill: #1e1e24;
        stroke: #e7e0da;
        stroke-linecap: round;
        stroke-linejoin: round;
        stroke-width: .5px;
      }
    </style>
  </defs>
  <path class="cls-1" d="m41.39,34.02H7.51c-2.67-.46-4.71-2.64-4.98-5.3-.28-2.74,1.39-5.34,4.01-6.26-.05-.53-.33-4.65,2.89-7.71,2.81-2.67,6.27-2.59,6.9-2.57,2.02-5.38,7.18-8.81,12.52-8.51,6.24.35,11.57,5.71,11.88,12.52,4.13,1.31,6.88,5.15,6.75,9.31-.11,3.73-2.52,7.1-6.11,8.51Z"/>
  <line class="cls-1" x1="44.1" y1="39.01" x2="29.32" y2="39.01"/>
  <line class="cls-1" x1="41.73" y1="44.06" x2="29.32" y2="44.06"/>
  <g>
    <line class="cls-1" x1="22.77" y1="36.88" x2="22.77" y2="46.19"/>
    <line class="cls-1" x1="18.85" y1="39.19" x2="26.69" y2="44.2"/>
    <line class="cls-1" x1="26.65" y1="39.12" x2="18.89" y2="44.26"/>
  </g>
  <g>
    <line class="cls-1" x1="11.44" y1="37.04" x2="11.44" y2="46.35"/>
    <line class="cls-1" x1="7.52" y1="39.34" x2="15.36" y2="44.35"/>
    <line class="cls-1" x1="15.32" y1="39.28" x2="7.56" y2="44.42"/>
  </g>
</svg>