<?xml version="1.0" encoding="UTF-8"?>
<svg id="Layer_3" data-name="Layer 3" xmlns="http://www.w3.org/2000/svg" viewBox="0 0 50 50">
  <defs>
    <style>
      .cls-1 {
        fill: #1e1e24;
        stroke: #e7e0da;
        stroke-linecap: round;
        stroke-linejoin: round;
        stroke-width: .5px;
      }
    </style>
  </defs>
  <path class="cls-1" d="m41.59,34.36H7.29c-2.7-.46-4.77-2.67-5.04-5.36-.28-2.77,1.4-5.41,4.06-6.34-.05-.54-.33-4.71,2.93-7.8,2.85-2.7,6.34-2.63,6.99-2.6,2.05-5.44,7.27-8.91,12.68-8.61,6.32.35,11.71,5.78,12.03,12.68,4.18,1.32,6.96,5.22,6.84,9.43-.11,3.78-2.56,7.19-6.19,8.61Z"/>
  <line class="cls-1" x1="34.28" y1="38.43" x2="30.91" y2="46.37"/>
  <line class="cls-1" x1="27.99" y1="38.43" x2="24.62" y2="46.37"/>
  <line class="cls-1" x1="21.59" y1="38.43" x2="18.22" y2="46.37"/>
  <line class="cls-1" x1="14.88" y1="38.43" x2="11.51" y2="46.37"/>
</svg>