<?xml version="1.0" encoding="UTF-8"?>
<svg id="Layer_3" data-name="Layer 3" xmlns="http://www.w3.org/2000/svg" viewBox="0 0 50 50">
  <defs>
    <style>
      .cls-1 {
        fill: #1e1e24;
        stroke: #e7e0da;
        stroke-linecap: round;
        stroke-linejoin: round;
        stroke-width: .5px;
      }
    </style>
  </defs>
  <path class="cls-1" d="m41.59,35.55H7.29c-2.7-.46-4.77-2.67-5.04-5.36-.28-2.77,1.4-5.41,4.06-6.34-.05-.54-.33-4.71,2.93-7.8,2.85-2.7,6.34-2.63,6.99-2.6,2.05-5.44,7.27-8.91,12.68-8.61,6.32.35,11.71,5.78,12.03,12.68,4.18,1.32,6.96,5.22,6.84,9.43-.11,3.78-2.56,7.19-6.19,8.61Z"/>
  <line class="cls-1" x1="32.97" y1="39.62" x2="30.66" y2="45.07"/>
  <line class="cls-1" x1="28.65" y1="39.62" x2="26.34" y2="45.07"/>
  <line class="cls-1" x1="24.26" y1="39.62" x2="21.95" y2="45.07"/>
  <path class="cls-1" d="m14.03,38.87c.76,3.66,1.93,6.36,2.96,6.31,1.14-.05,2.44-3.5,2.61-6.4,0-.03,0-.06,0-.08-1.86.06-3.72.11-5.57.17Z"/>
</svg>