<?xml version="1.0" encoding="UTF-8"?>
<svg id="Layer_3" data-name="Layer 3" xmlns="http://www.w3.org/2000/svg" viewBox="0 0 50 50">
  <defs>
    <style>
      .cls-1 {
        fill: #1e1e24;
        stroke: #e7e0da;
        stroke-linecap: round;
        stroke-linejoin: round;
        stroke-width: .5px;
      }
    </style>
  </defs>
  <path class="cls-1" d="m19.42,7.05c1.22-.77,1.1-2.91,1.39-2.89.28.02-.1,2.01.93,2.89,1.14.98,3.38.04,3.47.35.09.3-2.15.67-2.66,2.08-.5,1.4.94,3.08.69,3.24-.23.15-1.11-1.67-2.43-1.74-1.4-.07-2.47,1.83-2.78,1.62-.29-.2,1.01-1.69.58-3.13-.41-1.35-2.11-1.84-1.97-2.2.14-.35,1.69.46,2.78-.23Z"/>
  <path class="cls-1" d="m31.76,6.15c.84-.53.76-2,.96-1.99.19.01-.07,1.38.64,1.99.78.67,2.33.03,2.39.24.06.2-1.48.46-1.83,1.43-.34.96.65,2.12.48,2.23-.16.1-.76-1.15-1.67-1.19-.96-.05-1.7,1.26-1.91,1.11-.2-.14.7-1.16.4-2.15-.28-.93-1.45-1.27-1.35-1.51.1-.24,1.16.32,1.91-.16Z"/>
  <path class="cls-1" d="m9.54,2.95c2.71.77.05,8.47,4.6,13.11,4.48,4.57,11.88,2.05,12.55,4.6.57,2.15-4.14,6-9.07,6.83-4.35.74-9.61-.75-12.83-5.02-3.33-4.42-3.02-9.85-1.39-13.53,1.26-2.84,4.15-6.56,6.14-6Z"/>
  <path class="cls-1" d="m42.58,36.79H13.78c-2.27-.39-4-2.24-4.23-4.5-.24-2.33,1.18-4.54,3.41-5.32-.04-.45-.28-3.96,2.46-6.55,2.39-2.27,5.33-2.21,5.87-2.18,1.72-4.57,6.1-7.49,10.65-7.23,5.3.29,9.83,4.85,10.1,10.65,3.51,1.11,5.85,4.38,5.74,7.92-.1,3.17-2.15,6.04-5.19,7.23Z"/>
  <g>
    <line class="cls-1" x1="23.89" y1="39.19" x2="23.89" y2="47.1"/>
    <line class="cls-1" x1="20.55" y1="41.15" x2="27.22" y2="45.41"/>
    <line class="cls-1" x1="27.19" y1="41.09" x2="20.59" y2="45.47"/>
  </g>
  <g>
    <line class="cls-1" x1="34.27" y1="39.19" x2="34.27" y2="47.1"/>
    <line class="cls-1" x1="30.94" y1="41.15" x2="37.61" y2="45.41"/>
    <line class="cls-1" x1="37.57" y1="41.09" x2="30.97" y2="45.47"/>
  </g>
</svg>