<?xml version="1.0" encoding="UTF-8"?>
<svg id="Layer_3" data-name="Layer 3" xmlns="http://www.w3.org/2000/svg" viewBox="0 0 50 50">
  <defs>
    <style>
      .cls-1 {
        fill: #1e1e24;
        stroke: #e7e0da;
        stroke-linecap: round;
        stroke-linejoin: round;
        stroke-width: .5px;
      }
    </style>
  </defs>
  <path class="cls-1" d="m41.59,34.22H7.29c-2.7-.46-4.77-2.67-5.04-5.36-.28-2.77,1.4-5.41,4.06-6.34-.05-.54-.33-4.71,2.93-7.8,2.85-2.7,6.34-2.63,6.99-2.6,2.05-5.44,7.27-8.91,12.68-8.61,6.32.35,11.71,5.78,12.03,12.68,4.18,1.32,6.96,5.22,6.84,9.43-.11,3.78-2.56,7.19-6.19,8.61Z"/>
  <g>
    <line class="cls-1" x1="19.33" y1="37.09" x2="19.33" y2="46.51"/>
    <line class="cls-1" x1="15.36" y1="39.42" x2="23.3" y2="44.49"/>
    <line class="cls-1" x1="23.26" y1="39.35" x2="15.4" y2="44.56"/>
  </g>
  <g>
    <line class="cls-1" x1="31.69" y1="37.09" x2="31.69" y2="46.51"/>
    <line class="cls-1" x1="27.72" y1="39.42" x2="35.67" y2="44.49"/>
    <line class="cls-1" x1="35.62" y1="39.35" x2="27.77" y2="44.56"/>
  </g>
</svg>