<?xml version="1.0" encoding="UTF-8"?>
<svg id="Layer_3" data-name="Layer 3" xmlns="http://www.w3.org/2000/svg" viewBox="0 0 50 50">
  <defs>
    <style>
      .cls-1 {
        fill: #1e1e24;
        stroke: #e7e0da;
        stroke-linecap: round;
        stroke-linejoin: round;
        stroke-width: .5px;
      }
    </style>
  </defs>
  <path class="cls-1" d="m42.73,37.4H14.78c-2.2-.38-3.88-2.18-4.11-4.37-.23-2.26,1.14-4.41,3.31-5.17-.04-.44-.27-3.84,2.38-6.36,2.32-2.2,5.17-2.14,5.7-2.12,1.67-4.44,5.92-7.27,10.33-7.02,5.15.29,9.54,4.71,9.8,10.33,3.4,1.08,5.68,4.25,5.57,7.68-.09,3.08-2.08,5.86-5.04,7.02Z"/>
  <line class="cls-1" x1="36.77" y1="40.71" x2="34.03" y2="47.19"/>
  <line class="cls-1" x1="31.64" y1="40.71" x2="28.9" y2="47.19"/>
  <line class="cls-1" x1="26.43" y1="40.71" x2="23.68" y2="47.19"/>
  <line class="cls-1" x1="20.96" y1="40.71" x2="18.21" y2="47.19"/>
  <path class="cls-1" d="m18.91,6.85c1.18-.75,1.07-2.83,1.35-2.81.27.02-.1,1.95.9,2.81,1.11.95,3.28.04,3.37.34.08.29-2.09.65-2.58,2.02-.49,1.35.91,2.99.67,3.15-.23.15-1.07-1.62-2.36-1.69-1.35-.07-2.4,1.78-2.7,1.57-.28-.2.98-1.64.56-3.03-.4-1.31-2.05-1.79-1.91-2.14.14-.34,1.64.45,2.7-.22Z"/>
  <path class="cls-1" d="m30.9,5.97c.81-.51.73-1.94.93-1.93.19.01-.07,1.34.62,1.93.76.65,2.26.03,2.32.23.06.2-1.44.45-1.78,1.39-.33.93.63,2.06.46,2.16-.16.1-.74-1.11-1.62-1.16-.93-.05-1.65,1.22-1.86,1.08-.19-.13.68-1.13.39-2.09-.27-.9-1.41-1.23-1.31-1.47.1-.24,1.13.31,1.86-.15Z"/>
  <path class="cls-1" d="m9.33,2.87c2.63.75.05,8.22,4.47,12.73,4.34,4.43,11.53,1.99,12.18,4.47.55,2.09-4.02,5.82-8.8,6.63-4.22.72-9.33-.73-12.45-4.87-3.23-4.29-2.93-9.56-1.35-13.13,1.22-2.76,4.03-6.37,5.96-5.82Z"/>
</svg>