<?xml version="1.0" encoding="UTF-8"?>
<svg id="Layer_3" data-name="Layer 3" xmlns="http://www.w3.org/2000/svg" viewBox="0 0 50 50">
  <defs>
    <style>
      .cls-1 {
        fill: #1e1e24;
        stroke: #e7e0da;
        stroke-linecap: round;
        stroke-linejoin: round;
        stroke-width: .5px;
      }
    </style>
  </defs>
  <path class="cls-1" d="m42.71,36.17H14.66c-2.21-.38-3.9-2.18-4.12-4.39-.23-2.27,1.15-4.43,3.32-5.18-.04-.44-.27-3.85,2.39-6.38,2.33-2.21,5.19-2.15,5.72-2.13,1.68-4.45,5.94-7.29,10.37-7.05,5.17.29,9.58,4.73,9.84,10.37,3.42,1.08,5.7,4.27,5.59,7.71-.09,3.09-2.09,5.88-5.06,7.05Z"/>
  <path class="cls-1" d="m18.97,5.78c1.18-.75,1.07-2.84,1.35-2.82.28.02-.1,1.96.9,2.82,1.11.95,3.3.04,3.38.34.08.29-2.1.65-2.59,2.03-.49,1.36.91,3,.68,3.16-.23.15-1.08-1.62-2.37-1.69-1.36-.07-2.41,1.79-2.71,1.58-.28-.2.98-1.65.56-3.04-.4-1.32-2.06-1.8-1.92-2.14.14-.34,1.64.45,2.71-.23Z"/>
  <path class="cls-1" d="m31,4.9c.81-.52.74-1.95.93-1.94.19.01-.07,1.35.62,1.94.76.65,2.27.03,2.33.23.06.2-1.44.45-1.78,1.4-.34.93.63,2.07.47,2.17-.16.1-.74-1.12-1.63-1.16-.94-.05-1.66,1.23-1.86,1.09-.19-.14.68-1.13.39-2.09-.27-.91-1.42-1.24-1.32-1.47.1-.24,1.13.31,1.86-.16Z"/>
  <path class="cls-1" d="m9.35,1.79c2.64.75.05,8.25,4.48,12.77,4.36,4.45,11.57,1.99,12.23,4.48.55,2.1-4.04,5.84-8.83,6.66-4.24.72-9.36-.73-12.5-4.89-3.25-4.3-2.94-9.6-1.36-13.18,1.22-2.77,4.04-6.39,5.98-5.84Z"/>
  <line class="cls-1" x1="29.6" y1="40.3" x2="25.96" y2="48.27"/>
  <line class="cls-1" x1="23.68" y1="39.58" x2="20.04" y2="47.55"/>
  <g>
    <line class="cls-1" x1="36.21" y1="39.71" x2="36.21" y2="47.42"/>
    <line class="cls-1" x1="32.96" y1="41.62" x2="39.46" y2="45.77"/>
    <line class="cls-1" x1="39.42" y1="41.56" x2="33" y2="45.82"/>
  </g>
</svg>