<?xml version="1.0" encoding="UTF-8"?>
<svg id="Layer_3" data-name="Layer 3" xmlns="http://www.w3.org/2000/svg" viewBox="0 0 50 50">
  <defs>
    <style>
      .cls-1 {
        fill: #1e1e24;
        stroke: #e7e0da;
        stroke-linecap: round;
        stroke-linejoin: round;
        stroke-width: .5px;
      }
    </style>
  </defs>
  <path class="cls-1" d="m34.58,31.6h-15.17c-1.19-.2-2.11-1.18-2.23-2.37-.12-1.23.62-2.39,1.8-2.8-.02-.24-.15-2.08,1.29-3.45,1.26-1.2,2.81-1.16,3.09-1.15.91-2.41,3.21-3.94,5.61-3.81,2.79.16,5.18,2.56,5.32,5.61,1.85.59,3.08,2.31,3.02,4.17-.05,1.67-1.13,3.18-2.74,3.81Z"/>
  <g>
    <line class="cls-1" x1="27.24" y1="32.86" x2="27.24" y2="37.03"/>
    <line class="cls-1" x1="25.49" y1="33.89" x2="29" y2="36.13"/>
    <line class="cls-1" x1="28.98" y1="33.86" x2="25.5" y2="36.16"/>
  </g>
  <path class="cls-1" d="m21.74,15.16c.64-.41.58-1.53.73-1.52.15,0-.05,1.06.49,1.52.6.51,1.78.02,1.83.18.05.16-1.14.35-1.4,1.1-.26.74.49,1.62.37,1.71-.12.08-.58-.88-1.28-.91-.74-.04-1.3.97-1.46.85-.15-.11.53-.89.3-1.65-.21-.71-1.11-.97-1.04-1.16.08-.19.89.24,1.46-.12Z"/>
  <path class="cls-1" d="m28.24,14.69c.44-.28.4-1.06.5-1.05.1,0-.04.73.34,1.05.41.35,1.23.01,1.26.13.03.11-.78.24-.96.76-.18.51.34,1.12.25,1.17-.08.05-.4-.6-.88-.63-.51-.03-.9.66-1.01.59-.11-.07.37-.61.21-1.13-.15-.49-.77-.67-.71-.8.05-.13.61.17,1.01-.08Z"/>
  <path class="cls-1" d="m16.54,13c1.43.41.03,4.46,2.42,6.91,2.36,2.41,6.26,1.08,6.61,2.42.3,1.13-2.18,3.16-4.78,3.6-2.29.39-5.06-.39-6.76-2.65-1.76-2.33-1.59-5.19-.73-7.13.66-1.5,2.19-3.46,3.23-3.16Z"/>
</svg>