<?xml version="1.0" encoding="UTF-8"?>
<svg id="Layer_3" data-name="Layer 3" xmlns="http://www.w3.org/2000/svg" viewBox="0 0 50 50">
  <defs>
    <style>
      .cls-1 {
        fill: #1e1e24;
        stroke: #e7e0da;
        stroke-linecap: round;
        stroke-linejoin: round;
        stroke-width: .5px;
      }
    </style>
  </defs>
  <path class="cls-1" d="m19.58,6.3c1.23-.78,1.11-2.94,1.4-2.92.29.02-.1,2.03.93,2.92,1.15.98,3.42.04,3.51.35.09.3-2.17.67-2.69,2.1-.51,1.41.95,3.11.7,3.27-.24.15-1.12-1.68-2.45-1.75-1.41-.07-2.5,1.85-2.8,1.64-.29-.2,1.02-1.71.58-3.16-.41-1.36-2.13-1.86-1.99-2.22.15-.36,1.7.46,2.8-.23Z"/>
  <path class="cls-1" d="m32.04,5.39c.84-.53.76-2.02.96-2.01.2.01-.07,1.4.64,2.01.79.68,2.35.03,2.41.24.06.21-1.5.46-1.85,1.45-.35.97.65,2.14.48,2.25-.16.1-.77-1.16-1.69-1.21-.97-.05-1.72,1.27-1.93,1.13-.2-.14.7-1.18.4-2.17-.28-.94-1.47-1.28-1.37-1.53.1-.24,1.17.32,1.93-.16Z"/>
  <path class="cls-1" d="m9.61,2.16c2.74.78.05,8.55,4.65,13.23,4.52,4.61,11.99,2.07,12.67,4.65.57,2.17-4.18,6.05-9.15,6.9-4.39.75-9.7-.76-12.95-5.07-3.36-4.46-3.05-9.95-1.41-13.66,1.27-2.87,4.19-6.62,6.19-6.05Z"/>
  <path class="cls-1" d="m42.53,37.33H13.46c-2.29-.39-4.04-2.26-4.27-4.55-.24-2.35,1.19-4.59,3.44-5.37-.04-.46-.28-3.99,2.48-6.61,2.41-2.29,5.38-2.23,5.92-2.2,1.74-4.61,6.16-7.56,10.75-7.3,5.36.3,9.92,4.9,10.2,10.75,3.54,1.12,5.9,4.42,5.8,7.99-.1,3.2-2.17,6.09-5.24,7.3Z"/>
  <circle class="cls-1" cx="23.95" cy="44.87" r="3.03"/>
  <circle class="cls-1" cx="33.09" cy="44.87" r="3.03"/>
</svg>