<?xml version="1.0" encoding="UTF-8"?>
<svg id="Layer_3" data-name="Layer 3" xmlns="http://www.w3.org/2000/svg" viewBox="0 0 50 50">
  <defs>
    <style>
      .cls-1 {
        fill: #1e1e24;
        stroke: #e7e0da;
        stroke-linecap: round;
        stroke-linejoin: round;
        stroke-width: .5px;
      }
    </style>
  </defs>
  <path class="cls-1" d="m41.59,33.84H7.29c-2.7-.46-4.77-2.67-5.04-5.36-.28-2.77,1.4-5.41,4.06-6.34-.05-.54-.33-4.71,2.93-7.8,2.85-2.7,6.34-2.63,6.99-2.6,2.05-5.44,7.27-8.91,12.68-8.61,6.32.35,11.71,5.78,12.03,12.68,4.18,1.32,6.96,5.22,6.84,9.43-.11,3.78-2.56,7.19-6.19,8.61Z"/>
  <path class="cls-1" d="m26.84,46.9c-.09-.43,10.72-18,10.72-18h-5.36v-12.86l-11.64,17.8h6.29v13.06Z"/>
  <g>
    <line class="cls-1" x1="18.35" y1="36.59" x2="18.35" y2="46.01"/>
    <line class="cls-1" x1="14.38" y1="38.92" x2="22.32" y2="43.99"/>
    <line class="cls-1" x1="22.28" y1="38.85" x2="14.42" y2="44.06"/>
  </g>
</svg>