<?xml version="1.0" encoding="UTF-8"?>
<svg id="Layer_3" data-name="Layer 3" xmlns="http://www.w3.org/2000/svg" viewBox="0 0 50 50">
  <defs>
    <style>
      .cls-1 {
        fill: #1e1e24;
        stroke: #e7e0da;
        stroke-linecap: round;
        stroke-linejoin: round;
        stroke-width: .5px;
      }
    </style>
  </defs>
  <path class="cls-1" d="m32.34,28.91h-15.17c-1.19-.2-2.11-1.18-2.23-2.37-.12-1.23.62-2.39,1.8-2.8-.02-.24-.15-2.08,1.29-3.45,1.26-1.2,2.81-1.16,3.09-1.15.91-2.41,3.21-3.94,5.61-3.81,2.79.16,5.18,2.56,5.32,5.61,1.85.59,3.08,2.31,3.02,4.17-.05,1.67-1.13,3.18-2.74,3.81Z"/>
  <path class="cls-1" d="m25.81,34.69c-.04-.19,4.74-7.96,4.74-7.96h-2.37v-5.69l-5.15,7.88h2.78v5.78Z"/>
  <g>
    <line class="cls-1" x1="22.06" y1="30.13" x2="22.06" y2="34.3"/>
    <line class="cls-1" x1="20.3" y1="31.16" x2="23.81" y2="33.4"/>
    <line class="cls-1" x1="23.8" y1="31.13" x2="20.32" y2="33.43"/>
  </g>
</svg>