<?xml version="1.0" encoding="UTF-8"?>
<svg id="Layer_3" data-name="Layer 3" xmlns="http://www.w3.org/2000/svg" viewBox="0 0 50 50">
  <defs>
    <style>
      .cls-1 {
        fill: #1e1e24;
        stroke: #e7e0da;
        stroke-linecap: round;
        stroke-linejoin: round;
        stroke-width: .5px;
      }
    </style>
  </defs>
  <path class="cls-1" d="m31.08,29.01h-15.17c-1.19-.2-2.11-1.18-2.23-2.37-.12-1.23.62-2.39,1.8-2.8-.02-.24-.15-2.08,1.29-3.45,1.26-1.2,2.81-1.16,3.09-1.15.91-2.41,3.21-3.94,5.61-3.81,2.79.16,5.18,2.56,5.32,5.61,1.85.59,3.08,2.31,3.02,4.17-.05,1.67-1.13,3.18-2.74,3.81Z"/>
  <line class="cls-1" x1="23.18" y1="30.48" x2="21.21" y2="34.79"/>
  <line class="cls-1" x1="19.97" y1="30.09" x2="18" y2="34.4"/>
  <g>
    <line class="cls-1" x1="26.75" y1="30.16" x2="26.75" y2="34.33"/>
    <line class="cls-1" x1="24.99" y1="31.2" x2="28.51" y2="33.44"/>
    <line class="cls-1" x1="28.49" y1="31.17" x2="25.01" y2="33.47"/>
  </g>
</svg>