<?xml version="1.0" encoding="UTF-8"?>
<svg id="Layer_3" data-name="Layer 3" xmlns="http://www.w3.org/2000/svg" viewBox="0 0 50 50">
  <defs>
    <style>
      .cls-1 {
        fill: #e7e0da;
        stroke: #1e1e24;
        stroke-linecap: round;
        stroke-linejoin: round;
        stroke-width: .5px;
      }
    </style>
  </defs>
  <g>
    <circle class="cls-1" cx="14.39" cy="21.77" r="7.52"/>
    <g>
      <g id="_Radial_Repeat_" data-name="&amp;lt;Radial Repeat&amp;gt;">
        <line class="cls-1" x1="5.89" y1="21.44" x2="2.81" y2="21.42"/>
      </g>
      <g id="_Radial_Repeat_-2" data-name="&amp;lt;Radial Repeat&amp;gt;">
        <line class="cls-1" x1="8.65" y1="15.54" x2="6.49" y2="13.35"/>
      </g>
      <g id="_Radial_Repeat_-3" data-name="&amp;lt;Radial Repeat&amp;gt;">
        <line class="cls-1" x1="14.76" y1="13.32" x2="14.79" y2="10.24"/>
      </g>
      <g id="_Radial_Repeat_-4" data-name="&amp;lt;Radial Repeat&amp;gt;">
        <line class="cls-1" x1="20.66" y1="16.08" x2="22.86" y2="13.92"/>
      </g>
      <g id="_Radial_Repeat_-5" data-name="&amp;lt;Radial Repeat&amp;gt;">
        <line class="cls-1" x1="22.89" y1="22.2" x2="25.96" y2="22.22"/>
      </g>
      <g id="_Radial_Repeat_-6" data-name="&amp;lt;Radial Repeat&amp;gt;">
        <line class="cls-1" x1="20.13" y1="28.1" x2="22.29" y2="30.29"/>
      </g>
      <g id="_Radial_Repeat_-7" data-name="&amp;lt;Radial Repeat&amp;gt;">
        <line class="cls-1" x1="14.01" y1="30.32" x2="13.99" y2="33.4"/>
      </g>
      <g id="_Radial_Repeat_-8" data-name="&amp;lt;Radial Repeat&amp;gt;">
        <line class="cls-1" x1="8.11" y1="27.56" x2="5.92" y2="29.72"/>
      </g>
    </g>
  </g>
  <path class="cls-1" d="m42.27,40.11H13.07c-2.3-.39-4.06-2.27-4.29-4.57-.24-2.36,1.2-4.61,3.46-5.4-.04-.46-.28-4.01,2.49-6.64,2.42-2.3,5.4-2.24,5.95-2.21,1.74-4.63,6.19-7.59,10.8-7.34,5.38.3,9.97,4.92,10.24,10.8,3.56,1.13,5.93,4.44,5.82,8.03-.1,3.22-2.18,6.12-5.27,7.34Z"/>
</svg>