<?xml version="1.0" encoding="utf-8"?>
<!-- Generator: Adobe Illustrator 27.6.1, SVG Export Plug-In . SVG Version: 6.00 Build 0)  -->
<svg version="1.1" id="Layer_3" xmlns="http://www.w3.org/2000/svg" xmlns:xlink="http://www.w3.org/1999/xlink" x="0px" y="0px"
	 viewBox="0 0 50 50" style="enable-background:new 0 0 50 50;" xml:space="preserve">
<style type="text/css">
	.st0{fill:none;stroke:#1E1E24;stroke-width:0.5;stroke-linecap:round;stroke-linejoin:round;}
	.st1{fill:#E7E0DA;stroke:#1E1E24;stroke-width:0.5;stroke-linecap:round;stroke-linejoin:round;}
</style>
<line class="st0" x1="28.4" y1="34" x2="26.4" y2="38.3"/>
<line class="st0" x1="25.1" y1="33.6" x2="23.2" y2="37.9"/>
<g>
	<circle class="st1" cx="19.8" cy="23" r="3.9"/>
	<g>
		<g id="_Radial_Repeat_">
			<line class="st0" x1="15.4" y1="22.8" x2="13.8" y2="22.8"/>
		</g>
		<g id="_Radial_Repeat_-2">
			<line class="st0" x1="16.8" y1="19.7" x2="15.7" y2="18.6"/>
		</g>
		<g id="_Radial_Repeat_-3">
			<line class="st0" x1="20" y1="18.6" x2="20" y2="17"/>
		</g>
		<g id="_Radial_Repeat_-4">
			<line class="st0" x1="23" y1="20" x2="24.2" y2="18.9"/>
		</g>
		<g id="_Radial_Repeat_-5">
			<line class="st0" x1="24.2" y1="23.2" x2="25.8" y2="23.2"/>
		</g>
		<g id="_Radial_Repeat_-6">
			<line class="st0" x1="22.8" y1="26.2" x2="23.9" y2="27.4"/>
		</g>
		<g id="_Radial_Repeat_-7">
			<line class="st0" x1="19.6" y1="27.4" x2="19.6" y2="29"/>
		</g>
		<g id="_Radial_Repeat_-8">
			<line class="st0" x1="16.5" y1="26" x2="15.4" y2="27.1"/>
		</g>
	</g>
</g>
<path class="st1" d="M34.3,32.5H19.1c-1.2-0.2-2.1-1.2-2.2-2.4c-0.1-1.2,0.6-2.4,1.8-2.8c0-0.2-0.1-2.1,1.3-3.5
	c1.3-1.2,2.8-1.2,3.1-1.1c0.9-2.4,3.2-3.9,5.6-3.8c2.8,0.2,5.2,2.6,5.3,5.6c1.8,0.6,3.1,2.3,3,4.2C36.9,30.4,35.9,31.9,34.3,32.5
	L34.3,32.5z"/>
</svg>
