<?xml version="1.0" encoding="UTF-8"?>
<svg id="Layer_3" data-name="Layer 3" xmlns="http://www.w3.org/2000/svg" viewBox="0 0 50 50">
  <defs>
    <style>
      .cls-1 {
        fill: #e7e0da;
        stroke: #1e1e24;
        stroke-linecap: round;
        stroke-linejoin: round;
        stroke-width: .5px;
      }
    </style>
  </defs>
  <line class="cls-1" x1="31.32" y1="41.88" x2="27.6" y2="50"/>
  <line class="cls-1" x1="25.29" y1="41.15" x2="21.58" y2="49.27"/>
  <g>
    <circle class="cls-1" cx="15.16" cy="21.16" r="7.36"/>
    <g>
      <g id="_Radial_Repeat_" data-name="&amp;lt;Radial Repeat&amp;gt;">
        <line class="cls-1" x1="6.84" y1="20.85" x2="3.83" y2="20.82"/>
      </g>
      <g id="_Radial_Repeat_-2" data-name="&amp;lt;Radial Repeat&amp;gt;">
        <line class="cls-1" x1="9.54" y1="15.07" x2="7.42" y2="12.93"/>
      </g>
      <g id="_Radial_Repeat_-3" data-name="&amp;lt;Radial Repeat&amp;gt;">
        <line class="cls-1" x1="15.53" y1="12.9" x2="15.55" y2="9.89"/>
      </g>
      <g id="_Radial_Repeat_-4" data-name="&amp;lt;Radial Repeat&amp;gt;">
        <line class="cls-1" x1="21.3" y1="15.59" x2="23.45" y2="13.48"/>
      </g>
      <g id="_Radial_Repeat_-5" data-name="&amp;lt;Radial Repeat&amp;gt;">
        <line class="cls-1" x1="23.47" y1="21.58" x2="26.49" y2="21.6"/>
      </g>
      <g id="_Radial_Repeat_-6" data-name="&amp;lt;Radial Repeat&amp;gt;">
        <line class="cls-1" x1="20.78" y1="27.35" x2="22.89" y2="29.5"/>
      </g>
      <g id="_Radial_Repeat_-7" data-name="&amp;lt;Radial Repeat&amp;gt;">
        <line class="cls-1" x1="14.79" y1="29.53" x2="14.77" y2="32.54"/>
      </g>
      <g id="_Radial_Repeat_-8" data-name="&amp;lt;Radial Repeat&amp;gt;">
        <line class="cls-1" x1="9.02" y1="26.83" x2="6.87" y2="28.95"/>
      </g>
    </g>
  </g>
  <path class="cls-1" d="m42.45,39.11H13.87c-2.25-.38-3.97-2.23-4.2-4.47-.23-2.31,1.17-4.51,3.39-5.28-.04-.45-.28-3.93,2.44-6.5,2.37-2.25,5.29-2.19,5.82-2.17,1.71-4.54,6.06-7.43,10.57-7.18,5.26.29,9.76,4.82,10.02,10.57,3.48,1.1,5.8,4.35,5.7,7.86-.09,3.15-2.13,5.99-5.16,7.18Z"/>
</svg>