<?xml version="1.0" encoding="UTF-8"?>
<svg id="Layer_3" data-name="Layer 3" xmlns="http://www.w3.org/2000/svg" viewBox="0 0 50 50">
  <defs>
    <style>
      .cls-1 {
        fill: #e7e0da;
        stroke: #1e1e24;
        stroke-linecap: round;
        stroke-linejoin: round;
        stroke-width: .5px;
      }
    </style>
  </defs>
  <g>
    <g>
      <circle class="cls-1" cx="14.39" cy="16.77" r="7.52"/>
      <g>
        <g id="_Radial_Repeat_" data-name="&amp;lt;Radial Repeat&amp;gt;">
          <line class="cls-1" x1="5.89" y1="16.45" x2="2.81" y2="16.42"/>
        </g>
        <g id="_Radial_Repeat_-2" data-name="&amp;lt;Radial Repeat&amp;gt;">
          <line class="cls-1" x1="8.65" y1="10.55" x2="6.49" y2="8.36"/>
        </g>
        <g id="_Radial_Repeat_-3" data-name="&amp;lt;Radial Repeat&amp;gt;">
          <line class="cls-1" x1="14.76" y1="8.33" x2="14.79" y2="5.25"/>
        </g>
        <g id="_Radial_Repeat_-4" data-name="&amp;lt;Radial Repeat&amp;gt;">
          <line class="cls-1" x1="20.66" y1="11.08" x2="22.86" y2="8.92"/>
        </g>
        <g id="_Radial_Repeat_-5" data-name="&amp;lt;Radial Repeat&amp;gt;">
          <line class="cls-1" x1="22.89" y1="17.2" x2="25.96" y2="17.22"/>
        </g>
        <g id="_Radial_Repeat_-6" data-name="&amp;lt;Radial Repeat&amp;gt;">
          <line class="cls-1" x1="20.13" y1="23.1" x2="22.29" y2="25.29"/>
        </g>
        <g id="_Radial_Repeat_-7" data-name="&amp;lt;Radial Repeat&amp;gt;">
          <line class="cls-1" x1="14.01" y1="25.32" x2="13.99" y2="28.4"/>
        </g>
        <g id="_Radial_Repeat_-8" data-name="&amp;lt;Radial Repeat&amp;gt;">
          <line class="cls-1" x1="8.11" y1="22.57" x2="5.92" y2="24.73"/>
        </g>
      </g>
    </g>
    <path class="cls-1" d="m42.27,35.12H13.07c-2.3-.39-4.06-2.27-4.29-4.57-.24-2.36,1.2-4.61,3.46-5.4-.04-.46-.28-4.01,2.49-6.64,2.42-2.3,5.4-2.24,5.95-2.21,1.74-4.63,6.19-7.59,10.8-7.34,5.38.3,9.97,4.92,10.24,10.8,3.56,1.13,5.93,4.44,5.82,8.03-.1,3.22-2.18,6.12-5.27,7.34Z"/>
  </g>
  <line class="cls-1" x1="35.24" y1="37.39" x2="32.69" y2="42.97"/>
  <line class="cls-1" x1="31.71" y1="36.64" x2="27.92" y2="44.93"/>
  <path class="cls-1" d="m19.06,37.1c.86,1.16,1.79,2.83,1.88,4.88.07,1.7-.48,2.63,0,3,.84.65,3.78-1.24,5.54-3.66,1.15-1.57,1.64-3.15,1.88-4.23h-9.3Z"/>
</svg>