<?xml version="1.0" encoding="UTF-8"?>
<svg id="Layer_3" data-name="Layer 3" xmlns="http://www.w3.org/2000/svg" viewBox="0 0 50 50">
  <defs>
    <style>
      .cls-1 {
        fill: #e7e0da;
        stroke: #1e1e24;
        stroke-linecap: round;
        stroke-linejoin: round;
        stroke-width: .5px;
      }
    </style>
  </defs>
  <path class="cls-1" d="m41.46,34.22H7.42c-2.68-.46-4.73-2.65-5-5.32-.28-2.75,1.39-5.37,4.03-6.29-.05-.53-.33-4.68,2.9-7.74,2.83-2.68,6.3-2.61,6.94-2.58,2.03-5.4,7.21-8.85,12.58-8.55,6.27.35,11.62,5.74,11.94,12.58,4.14,1.31,6.91,5.18,6.78,9.36-.11,3.75-2.54,7.13-6.14,8.55Z"/>
  <line class="cls-1" x1="37.33" y1="39.29" x2="22.48" y2="39.29"/>
  <line class="cls-1" x1="34.94" y1="44.36" x2="22.48" y2="44.36"/>
  <g>
    <line class="cls-1" x1="16" y1="36.94" x2="16" y2="46.29"/>
    <line class="cls-1" x1="12.06" y1="39.25" x2="19.94" y2="44.29"/>
    <line class="cls-1" x1="19.9" y1="39.19" x2="12.1" y2="44.35"/>
  </g>
</svg>