<?xml version="1.0" encoding="UTF-8"?>
<svg id="Layer_3" data-name="Layer 3" xmlns="http://www.w3.org/2000/svg" viewBox="0 0 50 50">
  <defs>
    <style>
      .cls-1 {
        fill: #e7e0da;
        stroke: #1e1e24;
        stroke-linecap: round;
        stroke-linejoin: round;
        stroke-width: .5px;
      }
    </style>
  </defs>
  <path class="cls-1" d="m41.46,35.47H7.42c-2.68-.46-4.73-2.65-5-5.32-.28-2.75,1.39-5.37,4.03-6.29-.05-.53-.33-4.68,2.9-7.74,2.83-2.68,6.3-2.61,6.94-2.58,2.03-5.4,7.21-8.85,12.58-8.55,6.27.35,11.62,5.74,11.94,12.58,4.14,1.31,6.91,5.18,6.78,9.36-.11,3.75-2.54,7.13-6.14,8.55Z"/>
  <line class="cls-1" x1="38.75" y1="39.51" x2="36.46" y2="44.92"/>
  <line class="cls-1" x1="33.88" y1="39.51" x2="31.59" y2="44.92"/>
  <line class="cls-1" x1="29.29" y1="39.51" x2="26.99" y2="44.92"/>
  <line class="cls-1" x1="25" y1="39.51" x2="22.7" y2="44.92"/>
  <line class="cls-1" x1="20.64" y1="39.51" x2="18.34" y2="44.92"/>
  <path class="cls-1" d="m10.89,38.77c.75,3.63,1.92,6.31,2.93,6.26,1.13-.05,2.42-3.47,2.59-6.35,0-.03,0-.06,0-.08-1.84.06-3.69.11-5.53.17Z"/>
</svg>