<?xml version="1.0" encoding="UTF-8"?>
<svg id="Layer_3" data-name="Layer 3" xmlns="http://www.w3.org/2000/svg" viewBox="0 0 50 50">
  <defs>
    <style>
      .cls-1 {
        fill: #e7e0da;
        stroke: #1e1e24;
        stroke-linecap: round;
        stroke-linejoin: round;
        stroke-width: .5px;
      }
    </style>
  </defs>
  <path class="cls-1" d="m41.46,34.29H7.42c-2.68-.46-4.73-2.65-5-5.32-.28-2.75,1.39-5.37,4.03-6.29-.05-.53-.33-4.68,2.9-7.74,2.83-2.68,6.3-2.61,6.94-2.58,2.03-5.4,7.21-8.85,12.58-8.55,6.27.35,11.62,5.74,11.94,12.58,4.14,1.31,6.91,5.18,6.78,9.36-.11,3.75-2.54,7.13-6.14,8.55Z"/>
  <line class="cls-1" x1="34.21" y1="38.33" x2="30.87" y2="46.21"/>
  <line class="cls-1" x1="27.96" y1="38.33" x2="24.62" y2="46.21"/>
  <line class="cls-1" x1="21.62" y1="38.33" x2="18.27" y2="46.21"/>
  <line class="cls-1" x1="14.96" y1="38.33" x2="11.61" y2="46.21"/>
</svg>