<?xml version="1.0" encoding="UTF-8"?>
<svg id="Layer_3" data-name="Layer 3" xmlns="http://www.w3.org/2000/svg" viewBox="0 0 50 50">
  <defs>
    <style>
      .cls-1 {
        fill: #e7e0da;
        stroke: #1e1e24;
        stroke-linecap: round;
        stroke-linejoin: round;
        stroke-width: .5px;
      }
    </style>
  </defs>
  <path class="cls-1" d="m40.21,33.87H6.17c-2.68-.46-4.73-2.65-5-5.32-.28-2.75,1.39-5.37,4.03-6.29-.05-.53-.33-4.68,2.9-7.74,2.83-2.68,6.3-2.61,6.94-2.58,2.03-5.4,7.21-8.85,12.58-8.55,6.27.35,11.62,5.74,11.94,12.58,4.14,1.31,6.91,5.18,6.78,9.36-.11,3.75-2.54,7.13-6.14,8.55Z"/>
  <line class="cls-1" x1="22.47" y1="37.17" x2="18.05" y2="46.84"/>
  <line class="cls-1" x1="15.29" y1="36.3" x2="10.87" y2="45.97"/>
  <g>
    <line class="cls-1" x1="30.48" y1="36.45" x2="30.48" y2="45.81"/>
    <line class="cls-1" x1="26.54" y1="38.77" x2="34.43" y2="43.81"/>
    <line class="cls-1" x1="34.38" y1="38.7" x2="26.59" y2="43.87"/>
  </g>
</svg>