<?xml version="1.0" encoding="UTF-8"?>
<svg id="Layer_3" data-name="Layer 3" xmlns="http://www.w3.org/2000/svg" viewBox="0 0 50 50">
  <defs>
    <style>
      .cls-1 {
        fill: #e7e0da;
        stroke: #1e1e24;
        stroke-linecap: round;
        stroke-linejoin: round;
        stroke-width: .5px;
      }
    </style>
  </defs>
  <path class="cls-1" d="m40.61,34.31H6.57c-2.68-.46-4.73-2.65-5-5.32-.28-2.75,1.39-5.37,4.03-6.29-.05-.53-.33-4.68,2.9-7.74,2.83-2.68,6.3-2.61,6.94-2.58,2.03-5.4,7.21-8.85,12.58-8.55,6.27.35,11.62,5.74,11.94,12.58,4.14,1.31,6.91,5.18,6.78,9.36-.11,3.75-2.54,7.13-6.14,8.55Z"/>
  <g>
    <line class="cls-1" x1="24.14" y1="36.84" x2="24.14" y2="46.19"/>
    <line class="cls-1" x1="20.2" y1="39.15" x2="28.09" y2="44.19"/>
    <line class="cls-1" x1="28.04" y1="39.09" x2="20.25" y2="44.25"/>
  </g>
</svg>