<?xml version="1.0" encoding="UTF-8"?>
<svg id="Layer_3" data-name="Layer 3" xmlns="http://www.w3.org/2000/svg" viewBox="0 0 50 50">
  <defs>
    <style>
      .cls-1 {
        fill: #e7e0da;
        stroke: #1e1e24;
        stroke-linecap: round;
        stroke-linejoin: round;
        stroke-width: .5px;
      }
    </style>
  </defs>
  <g>
    <g>
      <circle class="cls-1" cx="14.39" cy="16.54" r="7.52"/>
      <g>
        <g id="_Radial_Repeat_" data-name="&amp;lt;Radial Repeat&amp;gt;">
          <line class="cls-1" x1="5.89" y1="16.21" x2="2.81" y2="16.19"/>
        </g>
        <g id="_Radial_Repeat_-2" data-name="&amp;lt;Radial Repeat&amp;gt;">
          <line class="cls-1" x1="8.65" y1="10.31" x2="6.49" y2="8.12"/>
        </g>
        <g id="_Radial_Repeat_-3" data-name="&amp;lt;Radial Repeat&amp;gt;">
          <line class="cls-1" x1="14.76" y1="8.09" x2="14.79" y2="5.01"/>
        </g>
        <g id="_Radial_Repeat_-4" data-name="&amp;lt;Radial Repeat&amp;gt;">
          <line class="cls-1" x1="20.66" y1="10.84" x2="22.86" y2="8.69"/>
        </g>
        <g id="_Radial_Repeat_-5" data-name="&amp;lt;Radial Repeat&amp;gt;">
          <line class="cls-1" x1="22.89" y1="16.96" x2="25.96" y2="16.99"/>
        </g>
        <g id="_Radial_Repeat_-6" data-name="&amp;lt;Radial Repeat&amp;gt;">
          <line class="cls-1" x1="20.13" y1="22.86" x2="22.29" y2="25.06"/>
        </g>
        <g id="_Radial_Repeat_-7" data-name="&amp;lt;Radial Repeat&amp;gt;">
          <line class="cls-1" x1="14.01" y1="25.09" x2="13.99" y2="28.16"/>
        </g>
        <g id="_Radial_Repeat_-8" data-name="&amp;lt;Radial Repeat&amp;gt;">
          <line class="cls-1" x1="8.11" y1="22.33" x2="5.92" y2="24.49"/>
        </g>
      </g>
    </g>
    <path class="cls-1" d="m42.27,34.88H13.07c-2.3-.39-4.06-2.27-4.29-4.57-.24-2.36,1.2-4.61,3.46-5.4-.04-.46-.28-4.01,2.49-6.64,2.42-2.3,5.4-2.24,5.95-2.21,1.74-4.63,6.19-7.59,10.8-7.34,5.38.3,9.97,4.92,10.24,10.8,3.56,1.13,5.93,4.44,5.82,8.03-.1,3.22-2.18,6.12-5.27,7.34Z"/>
  </g>
  <g>
    <line class="cls-1" x1="23.36" y1="37.32" x2="23.36" y2="45.34"/>
    <line class="cls-1" x1="19.97" y1="39.3" x2="26.74" y2="43.63"/>
    <line class="cls-1" x1="26.7" y1="39.25" x2="20.01" y2="43.68"/>
  </g>
  <g>
    <line class="cls-1" x1="33.88" y1="37.32" x2="33.88" y2="45.34"/>
    <line class="cls-1" x1="30.5" y1="39.3" x2="37.27" y2="43.63"/>
    <line class="cls-1" x1="37.23" y1="39.25" x2="30.54" y2="43.68"/>
  </g>
</svg>