<?xml version="1.0" encoding="UTF-8"?>
<svg id="Layer_3" data-name="Layer 3" xmlns="http://www.w3.org/2000/svg" viewBox="0 0 50 50">
  <defs>
    <style>
      .cls-1 {
        fill: #e7e0da;
        stroke: #1e1e24;
        stroke-linecap: round;
        stroke-linejoin: round;
        stroke-width: .5px;
      }
    </style>
  </defs>
  <g>
    <g>
      <circle class="cls-1" cx="15.53" cy="20.98" r="7.27"/>
      <g>
        <g id="_Radial_Repeat_" data-name="&amp;lt;Radial Repeat&amp;gt;">
          <line class="cls-1" x1="7.31" y1="20.67" x2="4.34" y2="20.65"/>
        </g>
        <g id="_Radial_Repeat_-2" data-name="&amp;lt;Radial Repeat&amp;gt;">
          <line class="cls-1" x1="9.98" y1="14.96" x2="7.89" y2="12.84"/>
        </g>
        <g id="_Radial_Repeat_-3" data-name="&amp;lt;Radial Repeat&amp;gt;">
          <line class="cls-1" x1="15.9" y1="12.81" x2="15.92" y2="9.83"/>
        </g>
        <g id="_Radial_Repeat_-4" data-name="&amp;lt;Radial Repeat&amp;gt;">
          <line class="cls-1" x1="21.6" y1="15.48" x2="23.72" y2="13.39"/>
        </g>
        <g id="_Radial_Repeat_-5" data-name="&amp;lt;Radial Repeat&amp;gt;">
          <line class="cls-1" x1="23.75" y1="21.4" x2="26.73" y2="21.42"/>
        </g>
        <g id="_Radial_Repeat_-6" data-name="&amp;lt;Radial Repeat&amp;gt;">
          <line class="cls-1" x1="21.09" y1="27.1" x2="23.18" y2="29.22"/>
        </g>
        <g id="_Radial_Repeat_-7" data-name="&amp;lt;Radial Repeat&amp;gt;">
          <line class="cls-1" x1="15.17" y1="29.25" x2="15.15" y2="32.23"/>
        </g>
        <g id="_Radial_Repeat_-8" data-name="&amp;lt;Radial Repeat&amp;gt;">
          <line class="cls-1" x1="9.46" y1="26.59" x2="7.34" y2="28.68"/>
        </g>
      </g>
    </g>
    <path class="cls-1" d="m42.51,38.73H14.25c-2.22-.38-3.93-2.2-4.15-4.42-.23-2.28,1.16-4.46,3.35-5.22-.04-.44-.27-3.88,2.41-6.43,2.35-2.23,5.23-2.16,5.76-2.14,1.69-4.48,5.99-7.34,10.44-7.1,5.2.29,9.64,4.76,9.91,10.44,3.44,1.09,5.74,4.3,5.63,7.77-.09,3.11-2.11,5.92-5.1,7.1Z"/>
  </g>
  <line class="cls-1" x1="31.78" y1="41.42" x2="28.11" y2="49.45"/>
  <line class="cls-1" x1="25.82" y1="40.7" x2="22.15" y2="48.73"/>
</svg>