<?xml version="1.0" encoding="UTF-8"?>
<svg id="Layer_3" data-name="Layer 3" xmlns="http://www.w3.org/2000/svg" viewBox="0 0 50 50">
  <defs>
    <style>
      .cls-1 {
        fill: #e7e0da;
        stroke: #1e1e24;
        stroke-linecap: round;
        stroke-linejoin: round;
        stroke-width: .5px;
      }
    </style>
  </defs>
  <path class="cls-1" d="m41.46,33.77H7.42c-2.68-.46-4.73-2.65-5-5.32-.28-2.75,1.39-5.37,4.03-6.29-.05-.53-.33-4.68,2.9-7.74,2.83-2.68,6.3-2.61,6.94-2.58,2.03-5.4,7.21-8.85,12.58-8.55,6.27.35,11.62,5.74,11.94,12.58,4.14,1.31,6.91,5.18,6.78,9.36-.11,3.75-2.54,7.13-6.14,8.55Z"/>
  <path class="cls-1" d="m26.83,46.73c-.09-.43,10.64-17.87,10.64-17.87h-5.32v-12.76l-11.56,17.67h6.24v12.96Z"/>
  <g>
    <line class="cls-1" x1="18.4" y1="36.5" x2="18.4" y2="45.85"/>
    <line class="cls-1" x1="14.46" y1="38.82" x2="22.34" y2="43.85"/>
    <line class="cls-1" x1="22.3" y1="38.75" x2="14.5" y2="43.92"/>
  </g>
</svg>