<?xml version="1.0" encoding="UTF-8"?>
<svg xmlns="http://www.w3.org/2000/svg" viewBox="0 0 841.89 595.28">
  <defs>
    <style>
      .cls-1 {
        isolation: isolate;
      }

      .cls-1, .cls-2 {
        fill: none;
      }

      .cls-3 {
        fill: #f671b7;
      }

      .cls-2 {
        mix-blend-mode: color-burn;
      }
    </style>
  </defs>
  <g class="cls-1">
    <g id="Layer_1" data-name="Layer 1">
      <g class="cls-2">
        <path class="cls-3" d="m541.65,598.12l-.3-1.49-2.58-2.45c.81,1.04,2.4,3.05,2.87,3.95Z"/>
      </g>
      <g class="cls-2">
        <g>
          <path class="cls-3" d="m537.48,591.36c2.29,3.06,1.79,1.72,2.2,2.13-3.96-5.04-2.19-1.93-2.2-2.13Z"/>
          <path class="cls-3" d="m490.3,549.82c.37.08.74.19,1.1.3-1.46-.59-2.95-1.08-4.42-1.62-1.48-.5-2.99-.94-4.48-1.4l3.92,1.28,3.87,1.45Z"/>
          <path class="cls-3" d="m432.63,537.92c1.36.34,3.36.65,5.76.97,2.4.34,5.19.67,8.14,1.01,2.95.34,6.05.7,9.06,1.05,1.51.22,3,.43,4.43.63,1.43.25,2.81.5,4.1.75.56.14,1.12.33,1.67.49,1.59.14,3.19.22,4.78.42-6.27-1.4-13.62-2.41-20.39-3.14-6.79-.79-13.11-1.59-17.55-2.18Z"/>
          <path class="cls-3" d="m401.65,532.97c.95.23-.74.13-.92.12-.18,0,1.17.04,8.18.72-.7-.11-.9-.14-1.31-.21-1.26-.13-3-.32-5.95-.63Z"/>
          <path class="cls-3" d="m407.6,533.6c6.16.63-4.01-.66,0,0h0Z"/>
          <path class="cls-3" d="m379.11,531.12c2.72.15,5.44.25,8.15.44-1.68-.35-8.92-.94-6.22-.85-8.35-.54-6.65-.24-1.93.41Z"/>
          <path class="cls-3" d="m371.36,531.01l4.22.24c-.73-.13-1.84-.24-4.22-.24Z"/>
          <path class="cls-3" d="m384.53,531.76l-8.95-.51c1.17.21,1.27.45,4.11.25-.75.15,1.03.09,4.84.25Z"/>
          <path class="cls-3" d="m389.58,532.33c4.54.58,10.41,1.22,2.24.71,15.54,1.35,13.3.64-2.24-.71Z"/>
          <path class="cls-3" d="m429.56,538.3l6.04.92c1.76.12,3.52.27,5.27.42-2.63-.26-11.66-1.59-11.31-1.33Z"/>
          <path class="cls-3" d="m328.44,527.41c-.52.13,2.72.53,3.32.75l6.02.16c-3.08-.3-8.94-.68-9.34-.91Z"/>
          <path class="cls-3" d="m331.75,528.16l-9.01-.15c8.04.4,9.51.34,9.01.15Z"/>
          <polygon class="cls-3" points="369.86 531.69 384.65 532.34 367.01 531.47 369.86 531.69"/>
          <path class="cls-3" d="m294.03,526.11c1.71-.08,3.41-.17,5.12-.22-3.04.07-6.08.21-9.12.31l4-.09Z"/>
          <path class="cls-3" d="m271.19,525.78c3.79-.25-5.18-.54-1.18-.68-3.1,0-5.98.03-8.68.12-2.7.12-5.21.23-7.6.34,2.53-.07,5.15-.1,8.01-.08,2.86.04,5.96.15,9.45.3Z"/>
          <path class="cls-3" d="m245.72,525.9c2.53-.07,5.15-.2,8.01-.34-2.69.07-5.34.17-8.01.34Z"/>
          <path class="cls-3" d="m307.41,527.33c-.69-.12-2.03-.4-7.07-.67l3.53.55c1.08.04,2.3.08,3.55.13Z"/>
          <path class="cls-3" d="m303.98,527.22l-.12-.02c-3.84-.13-6.51-.25-7.65-.27.98.01,3.32.11,7.78.29Z"/>
          <path class="cls-3" d="m308.3,527.36c-.33-.01-.57-.02-.89-.03.34.05.55.07.89.03Z"/>
          <path class="cls-3" d="m346.33,529.69c-5.3-.07-16.32-.44-5.69.53,3.81-.07-2.28-.63,5.69-.53Z"/>
          <path class="cls-3" d="m312.68,528.04c3.19.12,6.37.34,9.55.51-.18-.12-1.9-.36.72-.36-3.43-.04-6.85-.14-10.28-.14Z"/>
          <polygon class="cls-3" points="307.99 528.02 312.68 528.04 309.13 527.89 307.99 528.02"/>
          <path class="cls-3" d="m262.12,526.27c-4.14.19-8.66.22-13.77.26,5.48.04,11.14.09,16.51.13.76-.13,3.12-.34-2.74-.39Z"/>
          <path class="cls-3" d="m282.47,526.62c-.29,0-.65,0-.92,0,.56.05,1.02.07.92,0Z"/>
          <path class="cls-3" d="m198.08,527.64c.28.02.52.03.81.05.06-.03.1-.05.19-.08l-.99.03Z"/>
          <path class="cls-3" d="m265.79,526.74c4.11.12,6.57.04,8.92-.06-3.08.01-6.34,0-9.84-.02-.34.06-.41.1.92.09Z"/>
          <path class="cls-3" d="m231.69,526.28c2.15.04,4.58.09,7.13.14-2.1-.11-6.37-.26-7.13-.14Z"/>
          <path class="cls-3" d="m280.16,526.48c.21,0,.39,0,.62,0-1.35-.12-1.18-.07-.62,0Z"/>
          <path class="cls-3" d="m280.16,526.48c-2.12.03-3.79.13-5.46.2,2.5-.02,4.83-.04,6.84-.05-.51-.04-1.02-.1-1.39-.15Z"/>
          <path class="cls-3" d="m183,531.06c.35-.22,3.22-.55,7.17-.83,3.95-.28,8.98-.42,13.65-.39,9.16-.64,3.13-1.72-4.92-2.15-.28.2-.27.31-9.71.96,3.32.03,20.98-.3,13.02.35-12.5.66-10.25.24-16.34.33,5.19.24-15.87,1.49-13.1,2.1l10.94-.81c.21.1-3.75.48-.7.43Z"/>
          <path class="cls-3" d="m216.9,527.15l3.89-.15c-4.44.05-7.62-.06-13.47-.17-6.47.44-7.8.63-8.24.78l9.58-.33,9.58-.23-1.33.09Z"/>
          <path class="cls-3" d="m238.26,526.68c-3.03.47-12.37.78-6.64,1.17,11.41-.18,7.99-.49,14.81-.73-18.42.32,5.29-.32-8.03-.4,3.62-.12,6.88-.2,9.95-.21-3.32-.04-6.52-.08-9.53-.11.17,0,.29.01.42.02h.09s-.02,0-.02,0c.79.04,1.06.07.16.05-.06,0-.29.01-.38.01-.12.06-.46.12-.83.17-5.34-.02-.84-.1.83-.17.06-.02.21-.04.22-.07-.02,0-.04,0-.07,0-6.15.17-12.31.29-18.46.56,3.91-.07,8.8-.16,17.47-.31Z"/>
          <path class="cls-3" d="m330.77,530.6c-.57-.06-.54-.09-.58-.13-1.19,0-1.65.01.58.13Z"/>
          <path class="cls-3" d="m323.2,530c1.34,0,2.47-.12,6.82.12,3.77.3-.03.21.16.36,2.63-.01,9.2.19.98-.47h-1.31c-7.41-.48-16.92-1.47-15.62-1.45,2.15.47,4.05.84,8.97,1.45Z"/>
          <path class="cls-3" d="m280.24,527.81l-15.36.05,7.82.45-.39-.23c8.73.18,6.85-.12,7.94-.28Z"/>
          <path class="cls-3" d="m196.31,527.49l2.02-.53c-2.95.33-5.9.63-8.85,1,2.27-.19,4.55-.32,6.83-.47Z"/>
          <polygon class="cls-3" points="176.36 528.48 177.07 528.05 171.82 528.56 176.36 528.48"/>
          <path class="cls-3" d="m784,132.73c-.26-1.45-.64-2.87-.98-4.31.48,2.03.8,3.34.98,4.31Z"/>
          <path class="cls-3" d="m786.51,164.84l.2.79c-.12-1.5-.21-2.12-.2-.79Z"/>
          <path class="cls-3" d="m269.39,296.71c6.53.6,13.81,1.52,13.04,1.05l-1.99-.53c-4.58-.11-8.08-.34-11.05-.52Z"/>
          <path class="cls-3" d="m604.62,296.65c-.63,0-1.28.01-1.93.02-1.58.27-3.07.53-4.39.76,1.9-.24,4.05-.5,6.32-.78Z"/>
          <path class="cls-3" d="m609.1,294.49l8.65-.41c-1.95.08-4.73.19-8.65.41Z"/>
          <path class="cls-3" d="m643.02,56.6l-5.24.16c8.16.44,4.58.02,5.24-.16Z"/>
          <path class="cls-3" d="m46.05,422.14c.14-1.38.42-2.67.59-3.91.19-1.24.38-2.42.63-3.53.22-1.12.43-2.18.63-3.21.24-1.02.47-1.99.69-2.93-1.77,6.43-2.73,11.79-2.55,13.58Z"/>
          <path class="cls-3" d="m790.26,144.84c-.35-2.78-.56-3.95-.65-3.86.36,2.85.6,4.46.65,3.86Z"/>
          <path class="cls-3" d="m53.4,393.36c-.38.9-.76,1.77-1.15,2.69-.37.94-.66,1.91-.97,2.89-.31.98-.62,1.97-.95,2.99-.53,2.07-1.23,4.22-1.74,6.63,1.31-4.75,2.99-10.1,4.8-15.2Z"/>
          <path class="cls-3" d="m91,202.73c-.07-.48-.16-1.06-.22-1.49-.08-.13.03.53.22,1.49Z"/>
          <path class="cls-3" d="m175.4,40.83c-1.23,1.38-3.24,3.64-5.13,5.77.94-1.02,2.5-2.75,5.13-5.77Z"/>
          <path class="cls-3" d="m98.22,522.12c3.83,1.46.62.19,0,0h0Z"/>
          <path class="cls-3" d="m117.13,529.22c-.89-.1-1.57-.16-1.69-.07.36-.04.95-.01,1.69.07Z"/>
          <path class="cls-3" d="m73.32,356.86c.08-.09.15-.17.25-.27-.9.88-.75.73-.25.27Z"/>
          <path class="cls-3" d="m103.96,524.42c-.73-.26-1.51-.54-2.33-.84-.81-.33-1.67-.69-2.56-1.06.79.32,2.22,1.02,4.89,1.9Z"/>
          <path class="cls-3" d="m103.23,523.96c1.34.45,2.39.83,3.4,1.13.52.06.08-.05-3.4-1.13Z"/>
          <path class="cls-3" d="m93.03,519.81c2.14.95,4.06,1.97,6.03,2.71-.74-.32-1.04-.46-.84-.4-.28-.11-.59-.23-.94-.36-.34-.15-.71-.32-1.13-.52-.84-.38-1.86-.85-3.13-1.43Z"/>
          <path class="cls-3" d="m381.88,177.07c-.21.18-.46.39-.7.58-3.03,3.02-1.66,1.73.7-.58Z"/>
          <path class="cls-3" d="m379.49,298.59c-.2,0-.3,0-.48,0,.2.01.45.03.62.04l-.14-.04Z"/>
          <path class="cls-3" d="m394.66,298.86c-6.48.3-10.15.14-15.04-.23l4.96,1.48,10.07-1.25Z"/>
          <path class="cls-3" d="m739.9,75.06c1.54.8,3.04,1.68,4.56,2.52.77.4,1.49.87,2.22,1.34l2.18,1.4c-1.39-.71-2.7-1.45-3.98-2.08-1.29-.6-2.51-1.17-3.62-1.69-1.1-.55-2.14-.95-3.03-1.32-.9-.37-1.66-.68-2.27-.93-2.43-.97-2.29-.82,2.03,1.39.23-.08.99.1,2.13.52,1.11.46,2.6,1.14,4.34,1.97,1.73.86,3.62,2.01,5.67,3.17.98.66,1.98,1.33,3,2.02.51.34,1.03.69,1.54,1.04l1.47,1.15c.98.77,1.96,1.53,2.93,2.29.91.82,1.8,1.63,2.66,2.42.87.78,1.72,1.53,2.44,2.34.75.78,1.46,1.52,2.11,2.2.33.35.66.66.95.99.28.34.55.66.8.96.51.6.97,1.13,1.38,1.57.81.88,1.38,1.4,1.63,1.44l1.74,2.92c.28.49.59.96.86,1.46l.76,1.52c-.91-1.72-1.17-1.92-2.21-3.53.42.71.81,1.35,1.17,1.96.33.62.62,1.19.9,1.73.56,1.06,1.08,1.93,1.52,2.71.81,1.6,1.51,2.76,2.27,4.03,1.3,2.63,3.22,5.62,5.18,14.07.29,1.48.55,2.85.77,4.01.22,1.16.3,2.13.38,2.77.14,1.29.05,1.33-.37-.68l.65,3.3.53,3.33c.39,2.21.6,4.46.9,6.69.25,3.93-.02,2.98-.33-.92.66,6.84.91,13.74.99,20.66l-.04-.15c.25,2.96.53,9.69.61,12.99-.27,5.29-.11-2.66-.29-1.31.05,3.85.11,7.69.09,11.53-.51,4.67-.48-4.85-.39-12.83-.74,5.38-.7,7.76-.66,11.7.03,1.97.03,4.32-.11,7.62-.19,3.29-.45,7.55-1.37,13.2.37-3.56.66-7.13.82-10.73-.59,3.45-1.08,7.23-1.7,11.64-.69,4.39-1.58,9.41-3.36,15.07.58-1.29,2.18-7.05,3.14-11.1.92-4.05,1.57-6.28.84-.14-.7,3.4-1.45,7.92-3.11,14.32-.56-.12-2.02,6.22-5.8,13.28l-.31-.77c-1.89,3.84-2.99,5.48-3.66,6.88-.79,1.31-1.24,2.34-2.74,4.4-3.07,3.71-5.31,5.61-6.88,6.82-1.58,1.2-2.55,1.7-3.54,2.26-1.5,1.18-2.5,1.96-3.14,2.42-.63.48-.87.69-.86.72.03.06,1.09-.58,2.1-1.16.97-.62,1.88-1.19,1.66-.89-.23.29-1.53,1.55-5.33,4.13-2.72,1.73-5.32,3.21-7.91,4.54-2.58,1.36-5.15,2.56-7.83,3.73-5.37,2.33-11.19,4.51-18.74,6.68-8.97,2.01,1.47-.76-1.78-.14-2.59.82-5.19,1.59-7.82,2.31-1.96.39-1.36.11-1.05-.04-3.35.78-3.47.93-4.06,1.22-.6.26-1.67.65-7.01,1.61-1.39.57-6.94,1.19-13.82,1.79-6.88.58-15.09,1.25-21.75,2.42-3.32.19,1.55-.57.52-.7-9.17,1.22-13.1,1.74-16.63,2.21-3.52.49-6.63.93-14.16,1.98l-12.93.75c9.52-.37-2.54,1.31-13.12,2.57,3.38-.03,6.28-.06,8.22-.12l-16.93,1.68c-2.06.03-.36-.29,2.39-.78-1.15.15-2.24.28-3.1.39-6.08.17-2.96-.4,1.35-1.07,2.07-.03,4.13-.06,6.13-.09,4.16-.72,8.03-1.46,7.13-1.76-1.1.16-3.21.39-5.54.61,1.09-.19,1.78-.34,1.27-.36-.58-.02-2.34.26-5.09.64l-3.9-.41-.91.36-22.2,1.04c-15.82,1.6-29.59,3.51-54.83,4.59,6.25-.73,1.32-.9,1.64-1.53,3.45.2,8.34,0,13.99-.36,5.65-.39,12.07-.87,18.6-1.1-6.82.24-5.34-.13-3.61-.31-7.76.52-15.51,1.15-23.28,1.56.51-.52-4.96-.22-11.06-.22,2.32.4-2.02.78-8.13.97-6.11.2-13.98.4-18.72.61-.59-.32,1.68-.68,13.25-.86-12.78-.44-16.49,1.47-29.04.96,2.83-.04,4.35,0,5.47-.18-6.6.43-22.75.13-18.95-.15h2.82c-9.39-.07-23.67-.16-35.96-.25-12.29-.18-22.59-.17-24,.17-.18-.12,2.49-.94,3.63-1.07-11.18.56-22.39,1.16-33.6,1.53,2.98-.59-8.25-2.86,7.32-2.54-4.46-.33-9.98-.66-19.4-.92,3.04.3,7.53,1.45,3.37,1.32-11.38-1.48-7.91-.89-21.94-2.42,4.55.44-.59,1.28-7.8.75,1.14-.1-.52-1.17,2.12-1.11l-18.02-.11c4.49.11.86-.9-3.14-1.49,1.85.34-15.53-1.07-20.33-1.23l7.61.73c-10.14-.73-15.19-.58-20.2-.44-5.02.19-10.01.37-20.08.07,1.22-.08,2.74-.39,2.67-.74-.07-.34-1.73-.77-6.87-.89-2.35.26-7.57.85-14.42,1.61-3.42.36-7.24.84-11.31,1.21-2.03.23-4.13.46-6.27.67-2.14.21-4.33.39-6.54.64l-3.42-.07c-4.53.41-9.02,1.12-13.53,1.69,2.08-.44,5.11-1.04,8.7-1.72,3.59-.62,7.75-1.28,12.06-1.87,4.32-.53,8.78-1.13,13-1.47,2.11-.19,4.15-.37,6.07-.54,1.93-.12,3.73-.24,5.37-.34-7.63-.21-2.13-.45-13.57-.13-4.05-.19,6.23-.66,9.6-.7-8.89.06-17.78.28-26.67.93.62.32-4.47.76-9.54,1.51-2.54.36-5.09.65-6.92,1.01-1.83.34-2.97.61-2.7.71l3.57-.58c1.19-.18,2.39-.32,3.59-.48l7.18-.92c4.8-.47,9.61-1.02,14.42-1.32,1.19.62-16.62,2.51-35.21,5.31-2.38.28-1.55-.17-.17-.71,1.38-.53,3.33-1.06,3.12-1.15-1.21.23-5.61,1.09-9.93,1.92-4.32.79-8.53,1.76-9.39,1.87,1.29-.36,2.59-.7,3.89-1.02,1.3-.31,2.6-.68,3.91-.95-5.21.86-9.38,1.99-13.76,3.28-4.39,1.28-9,2.67-15.12,4.33-4.17,1.27-12.63,3.53-13.17,4.24,6.96-1.87,9.02-.04,4.84,2.12-.72.22-6.07,2.07-11.74,4.33-5.68,2.23-11.58,5.05-13.86,6.04-3.26,1.48-1.12-.18,1.23-1.78,2.33-1.62,4.84-3.26,1.99-2.1-.14.3-3.59,2.29-4.98,3.18-2.04,1.04-1.7.69-1.93.69-.23,0-1.05.32-5.32,2.91-1.15,1.33-17.02,11.05-3.7,2.98-2.02,1.36-3.56,2.41-4.89,3.31-1.32.91-2.43,1.68-3.58,2.47-2.29,1.61-4.77,3.34-9.18,7,1.53-1.01-.21.93-3.16,3.97-2.94,3.06-6.91,7.39-10.11,11.02.25-.54-1.36.93-2.14,1.64-3.29,3.72-6.05,7.14-8.45,10.44-.6.82-1.19,1.63-1.77,2.43-.55.82-1.1,1.62-1.63,2.42-1.1,1.57-2.06,3.19-3.06,4.77-3.86,6.38-7.3,12.91-10.22,21.74-.17.39-.49,1.22-.86,2.17-.32.97-.69,2.08-1,3.02-.65,1.88-1.07,3.11-.73,1.21-.52,2.64-.92,5.08-1.87,10.74-1.02,5.47-.68,2.29-.15-1.22.55-3.5,1.35-7.3.13-3.2.15.4-.48,4.09-.92,8.73-.39,4.64-.67,10.23-.44,14.32.3-1.26.29-5.97.75-11.38.41-5.4,1.23-11.51,2.13-15.51.21.04.22.95.06,2.58-.15,1.63-.36,4-.63,6.97-.52,5.92-.86,14.26-.12,23.81.17,1.89.31,3.41.42,4.63.13,1.22.23,2.13.31,2.81.14,1.37.12,1.8.05,1.85-.14.1-.48-1.37-.26-.06.98,7.1,2.4,12.04,3.58,15.85.67,1.88,1.22,3.52,1.82,4.96.62,1.44,1.17,2.73,1.72,3.99.59,1.23,1.17,2.43,1.79,3.69.6,1.27,1.33,2.56,2.07,4.07.74,1.51,1.71,3.12,2.72,5.07,1.14,1.87,2.33,4.08,3.98,6.52,1.18,2.03,1.85,3.02,2.04,3.51.21.49,0,.43-.35.18-.69-.49-1.93-1.74-1.45-.79-3.75-5-6.01-9.27-7.91-13.1-1.78-3.91-3.23-7.39-4.65-11.37l.83,2.46.95,2.42c.32.81.62,1.62.96,2.42l1.07,2.38c-.45-.88-1.09-1.98-1.66-3.28-.57-1.29-1.23-2.71-1.82-4.17-.56-1.47-1.12-2.97-1.62-4.37-.44-1.42-.83-2.74-1.14-3.83.25.96.64,2.42,1.21,4.26.65,1.81,1.34,4.05,2.4,6.48,2,4.9,4.91,10.81,8.8,16.64,3.86,5.84,8.71,11.57,13.96,16.34,5.23,4.8,10.86,8.61,15.77,11.29.45.22.93.46,1.44.7.52.22,1.06.44,1.59.66,1.06.44,2.11.86,2.94,1.2,1.71.58,2.59.8,1.12.12-1.11-.38-2.15-.92-3.23-1.38-1.06-.49-2.16-.92-3.18-1.5-1.37-.87-1.31-.94-.57-.63.37.15.91.4,1.52.7.62.28,1.34.55,2.03.84,1.39.56,2.68,1.14,3.16,1.25.48.12.07-.02-1.9-1.01,8.65,3.58,18.92,5.88,31.99,7.38l2.42.84c-.13-.11-2.28-.39-4.85-.69-2.56-.35-5.54-.77-7.38-1.02,2.72.39,7.71,1.24,12.83,1.78,5.12.52,10.35.68,13.37.29-3.1-.15-6.18-.37-9.26-.65,4.71.06,9.98-.11,15.53-.4,5.55-.29,11.4-.69,17.28-.91-5.38-.33-2.71.24-11.08-.11,3.63.28-3.88.66-10.8.67-3.46,0-6.78-.06-8.51-.08-1.73,0-1.89.11.99.44-4.23-.48-7.87-.89-11.84-1.34-3.93-.53-8.22-1.1-13.46-2.68.14.13,1.07.43.78.43-.28,0-1.8-.24-6.42-1.58-.44-.04-1.43-.31-2.06-.46-.28-.1-.38-.13-.61-.22.18.07.31.12.5.19-.41-.1-.44-.11.19.07.54.2,1.05.39,1.53.57.48.16.93.31,1.34.44.81.27,1.42.49,1.78.65-2.39-.36-7.29-1.67-12.04-3.55-2.33-1.02-4.71-1.99-6.68-3.09-.99-.53-1.94-.98-2.75-1.45-.8-.47-1.5-.88-2.07-1.21-4.81-3.16,2.16,1.09-.38-.77-1.15-.61-2.2-1.36-3.29-2.06l-1.63-1.06c-.53-.37-1.04-.77-1.57-1.16-.08-.21-.83-.96-1.73-1.82-.9-.88-1.88-1.97-2.57-2.7-.68-.74-1.04-1.18-.61-.87.22.15.64.49,1.31,1.07.34.29.74.64,1.21,1.06.46.43,1.03.89,1.69,1.4-.79-.62-1.52-1.31-2.26-2l-2.21-2.06-2.09-2.18-1.04-1.09-.98-1.15c-.56-.69-1.14-1.42-1.74-2.17-.6-.74-1.15-1.57-1.76-2.37-1.23-1.59-2.34-3.35-3.48-5.04-.59-.83-1.07-1.73-1.6-2.57-.51-.85-1.04-1.67-1.5-2.48-.89-1.65-1.79-3.15-2.49-4.49-.58-1.3-1.33-2.74-1.99-4.14-.65-1.41-1.26-2.74-1.74-3.78-.89-2.1-1.25-2.97-.23-.68-2.38-5.89-4.23-12.01-5.55-18.25l.08-.2c-.85-4.64-1.52-9.38-1.91-14.23-.33-4.85-.44-9.81-.17-14.84.31-5.02.95-10.12,2.01-15.22,1.12-5.09,2.67-10.17,4.72-15.14,1.06-2.99,2.25-5.97,3.88-9.36.42-.85.85-1.72,1.3-2.63.45-.91.99-1.82,1.52-2.8,1.04-1.96,2.34-3.99,3.75-6.25l1.47-1.52c1.06-1.74,2.56-3.8,4.18-6.01.85-1.07,1.72-2.18,2.6-3.29.88-1.11,1.83-2.17,2.72-3.23,3.64-4.19,7.13-7.72,8.25-9.08,3.46-2.76,10.77-9.44,19.41-15.62,8.56-6.27,18.41-11.96,24.93-15.04l.27-.69c4.46-2.21,8.91-4.2,13.69-6.21,4.77-2.01,9.9-3.97,15.78-5.94l-.86-.19c5.04-1.81,11.69-3.64,19.19-5.21,3.74-.81,7.71-1.5,11.79-2.13,2.04-.31,4.1-.69,6.18-.98,2.08-.28,4.18-.57,6.28-.85-1.12.35-5.39.82-8.4,1.23,10.07-1.07,20.65-2.39,31.08-3.29,10.43-.83,20.68-1.27,29.89-.89,4.59-.09,7.92-.02,11.14.18-.43-.01-.81-.01-1.14-.01.47.02,1.17.04,1.89.06,2.03.14,4.11.28,6.37.43-1.92-.17-3.76-.31-5.36-.4,3.54.08,8.92.21,14.19.34l2.22.58c.43.02.77.03,1.22.04,5.16.45,4.17,0,1.43-.51,2.66.06,5.09.1,6.99.08,4.15,1.01,13.84.58,19.52,1.8,3.58-.17,26.53,1.53,29.4.85.17.12,1.72.28-1.12.1,5.88.5,11.76.9,17.05.98l2.46.76c4.3,0,8.6-.08,12.9-.16,7.79.74,11.03,1.11,3.24,1.21,9.39.12,13.19.17,16.65.21,3.45.06,6.56.1,14.54.02l-.79.37c5.7.15,14.83-.18,18.25.24,3.18.29,8.72.44,15.75.59,3.51.06,7.4.16,11.55.18,4.15.01,8.56.02,13.13.04,4.57.03,9.3,0,14.07-.06,4.77-.04,9.6-.07,14.36-.11,9.53-.12,18.81-.24,27-.35-6.39-.97,15.23.04,16.5-.95,1.92.19,6.48.14,1.19.62,8.34-.52,14.62-.65,20.25-.91,5.63-.27,10.6-.56,16.34-1.26,1.93.17-3.55.6-1.84.67,1.34-.13,5.29-.53,7.03-.5,1.71.04-2.43.42-5.06.67,17.04-1.14,18.7-2.15,19.89-3.01,8.65-.22,12.95-.68,19.14-1.67,3.02.02,8.05-.1-2.51.83,1.49-.11,4.5-.32,8.2-.58,3.69-.32,8.07-.69,12.27-1.05,8.41-.71,16.14-1.61,16.41-1.96,1.88-.03,8.3-.8,9.86-1.03,6.66-.66,10.28-1.1,13.87-1.48,3.59-.41,7.15-.78,13.68-1.6l-3.64.33c2.53-.69,5.24-1.06,8.63-1.48,3.39-.42,7.46-.87,12.68-1.82l-.29.13c6.03-.91,9.67-1.65,12.12-2.19,2.45-.55,3.72-.88,4.97-1.24,1.25-.34,2.49-.69,4.88-1.34,2.38-.68,5.92-1.58,11.65-3.56l-1.4.02c.87-.9,5.94-2.52,12.15-5.36,3.1-1.43,6.46-3.19,9.69-5.23,3.23-2.04,6.32-4.38,8.88-6.81-1.34,1.05-2.69,2.09-4.09,3.04,2.93-2.48,7.15-5.79,10.99-9.67.96-.97,1.88-1.97,2.78-2.97.85-1.04,1.76-2.01,2.5-3.05.75-1.04,1.47-2.03,2.15-2.97.64-.96,1.17-1.91,1.66-2.77.45-.73.16-.12-.38.95-.27.53-.6,1.18-.95,1.82-.38.63-.75,1.25-1.06,1.77,2.88-4.32,4.03-6.86,4.61-8.19.58-1.34.56-1.54.45-1.59-.27-.12-.62.39,1.88-6.78.6-1.28.52-.35.7-.32.09.02.24-.19.58-1.02.37-.82.82-2.28,1.51-4.76.22-.61.45-1.52.7-2.69.23-1.17.59-2.57.82-4.17.25-1.6.57-3.38.76-5.3.11-.96.23-1.95.35-2.96.09-1.01.18-2.05.27-3.11.76-8.44.84-17.93,1.3-24.78-.33,3.02-.65,6.01-.7-.92.03-5.31.38-12.47.42-19.54.06-7.07-.3-14.06-1.23-18.83-.06-1.36-.05-1.88.01-1.94-.59-4.06-1.63-10.66-3.32-16.71-.45-1.5-.83-3-1.32-4.39-.49-1.39-.96-2.71-1.39-3.91-1.01-2.36-1.82-4.28-2.44-5.36-.21-.94-.73-2.38-1.46-4.17-.42-.87-.91-1.82-1.44-2.84-.27-.51-.55-1.03-.84-1.58-.3-.54-.66-1.06-1.01-1.61-2.68-4.46-6.79-9.2-11.14-13.22-1.11-.98-2.2-1.97-3.29-2.9-1.14-.87-2.25-1.71-3.32-2.53-1.04-.84-2.13-1.54-3.14-2.21-1-.68-1.95-1.31-2.81-1.89-3.57-2.15-5.82-3.62-5.63-3.89-7.46-3.99-15.36-7.03-23.38-9.47l.68.04c-7.68-2.45-13.03-3.48-17.08-4.3-4.07-.71-6.87-1.08-9.67-1.37-3.62-.76-.94-.42-.62-.44-2.87-.56-5.43-.96-7.73-1.37-2.31-.35-4.37-.66-6.25-.95-3.76-.59-6.83-.93-9.79-1.26-1.48-.15-2.93-.31-4.42-.46-1.5-.11-3.04-.22-4.71-.34-1.66-.11-3.45-.23-5.43-.36-1.98-.08-4.16-.17-6.6-.27l-1.99-.65c-1.33-.06-4.09-.21-7.86-.46-3.76-.3-8.53-.5-13.85-.72-10.64-.33-23.54-.1-34.95,1.21.22-.08.68-.22,2.49-.46-3.21.38-6.58.74-10.04,1.09-3.45.44-6.99.9-10.54,1.35-3.54.57-7.09,1.14-10.59,1.7-3.48.7-6.91,1.34-10.2,2.05-13.17,2.85-23.93,6.89-28.06,9.32-2.63,1.07-5.2,2.31-7.8,3.46-2.58,1.19-5.21,2.26-7.7,3.64,2.46-1.24,4.36-1.93,5.68-2.47,1.33-.53,2.14-.82,2.55-.95.83-.26.12.15-.96.72-2.16,1.14-5.79,2.92-1.57,1.31-.99.42-2.05.88-3.14,1.34-1.07.5-2.15,1.01-3.2,1.51-2.11.98-4.11,1.87-5.57,2.5-2.92,1.25-3.71,1.43,1.05-.95l1.53-.65c.77-.64-.38-.23-2.55.74-1.08.49-2.43,1.08-3.89,1.82-1.43.78-3,1.63-4.6,2.5-6.44,3.36-12.88,7.52-12.81,7.07-9.26,5.64-18.01,11.93-26.61,18.24-2.13,1.61-4.22,3.26-6.32,4.88-2.09,1.65-4.23,3.22-6.26,4.92-4.08,3.37-8.23,6.63-12.2,10.07-16.03,13.57-31.2,27.57-46.06,41.23l3.91-2.62-10.39,9.5c-2.84,2.37-4.04,2.93,3.38-3.83-2.09,1.63-5.13,4.54-7.67,7.08-2.55,2.52-4.6,4.67-4.65,4.82-14.8,12.92,5.14-5.77.64-1.75l-6.04,5.52,1.43-1.17c-2.36,2.34-3.64,3.61-5.42,5.34-1.81,1.7-4.09,3.91-8.7,7.77-5.92,4.8-3.29,2.16-5.6,4.06,0-.03-.21.12-.76.56-.54.45-1.43,1.18-2.82,2.33-4.59,3.69-9.28,7.25-14.01,10.75,1.99-1.26,4.01-2.5,5.99-3.79-6.05,5-13.42,9.82-6.4,5.58-5.11,3.16-18.61,12.66-32.43,20.53-6.88,3.97-13.8,7.58-19.45,10.29-2.85,1.31-5.34,2.49-7.36,3.34-2.03.85-3.55,1.47-4.4,1.8-2.49,1.13-5,2.21-7.56,3.24-2.58.97-5.18,2.02-7.92,2.89-5.43,1.88-11.28,3.46-17.8,4.95,1.64-.27,2.97-.45,2.5-.14-.47.31-2.77.99-8.46,2.09.98-.51.16-.57-1.77-.37-.96.1-2.2.27-3.62.48-1.43.17-3.06.36-4.78.56-1.72.24-3.57.34-5.42.51-.93.07-1.86.16-2.78.21-.93.03-1.85.06-2.75.09-3.61.17-6.93-.03-9.24-.23,4.14.27-4.02.54-11.57-.16-1.89-.1-3.73-.36-5.34-.54-1.61-.19-2.98-.3-3.91-.44-1.86-.25-2.01-.11,1.17.66-4.73-.87-4.85-1.04-4.68-1.16.17-.15.61-.17-2.9-1.06-11.18-2.07-23.18-6.3-34.47-13.1-11.26-6.77-21.76-16.19-29.16-27.94-.39-.28,1.89,3.82-1.54-1.11-2.2-4.42-3.99-9-5.3-13.7-.82-2.61-1.53-3.71-2.08-5.47-.29-.87-.63-1.89-.94-3.32-.13-.72-.27-1.54-.41-2.5-.15-.95-.3-2.04-.35-3.3.02.72.02,1.61,0,1.87-.03.26-.2-.12-.45-1.96-1.58-13.66-.12-27.75,3.73-41.21,3.87-13.47,10.11-26.33,17.57-38.43,7.49-12.1,16.19-23.49,25.22-34.56,9.05-11.07,18.41-21.84,28.09-32.17-5.32,5.53-1.99,1.66,1.9-2.72-2.59,2.8-.27-.35-.94.05,5.42-5.76,10.92-11.46,16.48-17.08,1.23-1.8,5.58-6.45,9.84-10.85,4.24-4.42,8.4-8.61,9.05-9.71l-5.19,5.43c3.24-3.82.48-1.63-3.02,1.34-3.5,2.96-7.73,6.73-7.57,5.87-7.13,8.68-21.14,20.78-32.22,35.57-2.8,2.95,2.03-2.83.44-1.33-2.74,3.8-6.34,8.14-13.13,16.08l.67-.98c-9.29,11.36-15.86,19.54-22.39,28.36-3.26,4.41-6.5,9-9.92,14.32-3.4,5.33-7.03,11.36-10.65,18.89.49-.68.98-1.36,1.5-2.02-1.58,3.21-2.55,5.15-3.25,6.68-.71,1.54-1.29,2.61-1.93,4.16-1.13,3.98.6-.75,2.69-5.42,2.11-4.66,4.55-9.25,3.21-5.74-1.29,2-3.24,5.87-5.3,10.73-2.06,4.85-4.04,10.78-5.51,16.74-1.49,5.95-2.42,11.93-2.95,16.82-.12,1.22-.24,2.38-.34,3.45-.1,1.07-.14,2.06-.21,2.94-.07.88-.14,1.66-.21,2.32-.04.66-.09,1.2-.15,1.61.04,1.39.06,2.39.08,3.08.04.69.11,1.09.14,1.28.08.39.12-.03.16-.44.08-.82.16-1.64.55,3.89-.01.99.04,1.97.05,2.96.26.91.46,1.83.76,2.73.32,1.79.54,3.37.79,4.72.28,1.35.49,2.48.65,3.41.32,1.85.54,2.83.43,3-.57-1.69-1.37-4.88-1.86-6.73.24,1.17.52,2.45.83,3.81.27,1.37.78,2.76,1.2,4.22.4,1.46,1,2.9,1.55,4.34.29.72.53,1.45.86,2.14.32.69.64,1.38.96,2.06.32.67.63,1.34.93,1.99.35.63.68,1.24,1.01,1.83.67,1.17,1.24,2.3,1.84,3.24,1.22,1.88,2.13,3.32,2.56,4.02l-2.81-4.61c-.82-1.6-1.68-3.19-2.47-4.8,6.85,13.74,18.97,26.44,33.35,34.95,7.15,4.32,14.74,7.81,22.38,10.3,1.92.6,3.8,1.25,5.72,1.73.95.25,1.9.51,2.84.76.95.24,1.9.42,2.84.63,3.75.88,7.47,1.45,11.06,1.98-.72-.17-1.43-.4-2.14-.59,5.48.8,9.34,1.15,12.41,1.37,3.07.31,5.35.32,7.7.48,4.69.1,9.72.51,21.79-.97l-.87.17c4.79-.85,11.2-1.84,17.67-3.33-2.97.76-.12.31,2.49-.16,2.59-.52,4.97-.98,1.1.15,11.59-3.16,14.29-4.45,16.12-5.12.91-.36,1.56-.66,2.9-1.27.67-.3,1.51-.67,2.64-1.16.56-.24,1.2-.52,1.92-.83.71-.33,1.51-.69,2.41-1.11l3.52-.99c4.8-2.44,5.23-2.59,16.04-7.93-8.74,4.65,7.17-2.89-2.61,2.38,11.6-5.16,19.68-10.1,26.17-14.22,6.5-4.13,11.39-7.54,16.52-10.34,2.24-1.87,2.22-2.05,1-1.34-1.21.73-3.62,2.33-6.18,4-5.1,3.37-10.83,6.96-8.12,5.15-2.41,1.28-.45-.11,2.89-2.44,3.35-2.3,8.08-5.55,11.34-7.8,1.67-1.14,3.24-2.15,4.91-3.22,1.68-1.06,3.49-2.15,5.56-3.52,4.18-2.69,9.54-6.4,17.4-12.87-1.57,1.28-1.62,1.44-3.19,2.71,6.09-4.59,11.23-9.83,18.49-15.67,3.53-3.9,9.03-8.05,9.63-9.63l-6.85,6.29-6.93,6.21c1.95-1.78,3.84-3.56,5.78-5.41,1.92-1.87,3.91-3.8,6.04-5.88,4.31-4.12,9.23-8.83,15.77-14.54-.88,1.04-4.55,4.68-7.08,7.17,3.91-3.26,7.1-6.72,11.12-10.12-.56,1.61-16.47,15.45-24.52,23.42,2.14-1.7,6.02-5.39,8.9-8.09,2.87-2.72,4.74-4.46,2.94-2.23,5.29-6.3,14.79-13.43,24.31-23.33l-.34.96c1.54-1.53,4.7-4.73,7.66-7.4l-4.92,5.32c3.92-3.94,7.94-7.45,11.96-10.89,4.06-3.39,8.02-6.79,11.97-10.34-16.67,14.71-4.13,2.87-11.4,8.85,10.01-9.41,13.29-11.65,16.8-14.24,1.75-1.3,3.65-2.58,6.54-4.81,1.45-1.11,3.15-2.45,5.23-4.13,2.1-1.65,4.59-3.6,7.6-5.97-1.61,1.3-4.72,3.65-6.8,5.14-2.06,1.53-3.09,2.22-.66.06,2.32-1.77,5.03-3.79,7.53-5.64,1.25-.92,2.44-1.8,3.52-2.55,1.09-.73,2.05-1.37,2.81-1.85,16.28-12.07-2.8,1.45,3.99-3.89,1.48-.9,2.7-1.76,3.85-2.54,1.16-.78,2.21-1.56,3.3-2.39,1.09-.84,2.22-1.71,3.53-2.72,1.32-.98,2.77-2.17,4.66-3.35l.31.37c4.95-2.97,7.71-4.71,9.36-5.82,1.68-1.06,2.23-1.48,2.71-1.89.48-.41.9-.78,2.36-1.66.73-.44,1.71-1.01,3.08-1.77,1.38-.75,3.12-1.78,5.5-2.83l-1.9,1.11c-.62.39-1.23.81-1.85,1.21l-3.68,2.43,4.69-2.7c1.56-.91,3.2-1.66,4.8-2.5l-1.76,1.47c10.34-5.6,13.79-6.93,24.55-10.98-1.32.29-1.04-.04.77-.88,1.82-.8,5.12-2.3,10.04-3.73,3.38-.89,2.47-.49,2.46-.41,0,.04.21,0,1.29-.32.54-.15,1.29-.41,2.35-.7,1.07-.28,2.43-.64,4.18-1.1-1.54.57-3.17,1.12-5.15,1.78-1.97.69-4.33,1.39-7.41,2.1-.28.17-1.03.47-1.77.79-.74.34-1.47.69-1.76.87,1.77-.59,3.81-1.14,5.91-1.76,2.1-.63,4.28-1.29,6.39-1.93,2.13-.57,4.2-1.12,6.04-1.62,1.85-.5,3.47-.96,4.76-1.2-.49.1-1.01.21-1.53.31-.51.13-1.03.25-1.51.37-.98.24-1.87.44-2.47.56,1.68-.47,3.34-1.03,5.04-1.43l5.09-1.26c3.38-.9,6.82-1.55,10.25-2.26,3.29-.38.72.21-1.81.79,2.09-.41,3.85-.76,5.86-1.15,2.02-.34,4.29-.71,7.39-1.14-.78.3-1.06.54-2.24.87-.59.17-1.4.36-2.61.59-1.21.24-2.82.47-4.98.92,6.54-1.18,13.13-2.15,19.76-2.87,1.34-.06,10.26-.23,7.68.05,1.38-.06,2.84-.14,4.36-.24,1.53-.07,3.12-.14,4.76-.22,1.65-.09,3.35-.17,5.09-.26,1.74-.1,3.53-.11,5.34-.17,1.81-.04,3.65-.09,5.51-.13,1.86-.01,3.73.02,5.61.05,1.88.03,3.76.05,5.63.13,1.87.1,3.73.22,5.56.36.77-.02,2.31-.05,5.43.12,13.81,1.08,25.95,2.9,42.26,4.89,3.03.7,6.03,1.49,9.02,2.27,6.27,1.18,3.25.35,1.26-.3-2-.6-2.92-1.16,7.53.96,3.7.76,5.85,1.38,7.11,1.75,1.26.38,1.62.56,1.68.69.12.26-.93.18,1.56,1.03,1.8.47,3.98.91,6.34,1.64,1.19.35,2.44.72,3.75,1.11,1.29.45,2.63.92,4.02,1.41,5.51,2.05,11.6,4.88,17.21,8.77-1.96-1.12-3.7-2.13-5.42-3.11-1.77-.89-3.48-1.82-5.4-2.71Zm44.49,137.94c.41-3.02.76-9.08,1.2-11.28.12,1.75.07,3.31-.16,5.05-.11.87-.25,1.79-.41,2.82-.19,1.02-.4,2.14-.63,3.42Zm-203.24,84.4c2.28-.31,5.83-.47,9.84-.56-2.9.24-6.19.44-9.84.56ZM63.63,494.47c-.08-.1-.14-.17-.2-.25-1.84-2.81-2.34-3.78-2.17-3.48.15.31,1.09,1.79,2.37,3.74Zm8.72,10.86c1.02.96,1,.85.64.37-.38-.31-1.11-1.02-2.06-1.99-.97-.94-1.99-2.27-3.16-3.62.27.42.69.98,1.38,1.83.36.42.75.94,1.29,1.49.54.55,1.17,1.18,1.91,1.92ZM345.83,204.42l2.22-1.67c-4.75,4.09-3.47,2.88-2.22,1.67Z"/>
          <path class="cls-3" d="m608.49,294.75c.88.01,1.12.08,1.34.16,1.2-.18,1.22-.27-1.34-.16Z"/>
          <path class="cls-3" d="m643.99,56.57l-.48-.03c-.27.01-.41.04-.49.06l.97-.03Z"/>
          <path class="cls-3" d="m117.12,320.15c2.64-1.38,4.18-2.02,5.19-2.46.1-.17-1.17.32-5.19,2.46Z"/>
          <path class="cls-3" d="m140.11,529.32c-3.01-.03-6.02-.09-9.02-.26,4.36.28,5.91.38,8.11.52-.2-.13-1.92-.33.91-.27Z"/>
          <path class="cls-3" d="m219.57,529.38c1.34-.09,2.84-.08,4.16-.17l-.37-.21c-5.71.16-9.69.44-3.79.39Z"/>
          <path class="cls-3" d="m148.52,530.91c.73.41,6.46.14,12.86-.25-.39.02-.75.04-1.13.06,1.86-.67-4.95-.11-11.73.2Z"/>
          <path class="cls-3" d="m162.86,530.58c1.97-.11,3.99-.22,5.92-.32.74-.27-2.4.09-5.92.32Z"/>
          <path class="cls-3" d="m86.16,516.23c2.45,1.64,1.81.58,3.18,1.53.8.26.06-.09-1.16-.83-.62-.36-1.37-.8-2.14-1.25-.39-.22-.79-.45-1.18-.67-.38-.23-.74-.48-1.09-.7-1.39-.89-2.47-1.54-2.37-1.39.05.07.4.35,1.14.89.75.53,1.87,1.4,3.62,2.41Z"/>
          <path class="cls-3" d="m153.74,532.12l-2.31-.44c-1.19.17-2.39.34-3.59.48,1.97.03,3.93-.03,5.9-.04Z"/>
          <path class="cls-3" d="m103.67,526.59c1.6.58,3.25,1.04,4.89,1.49,1.63.5,3.3.85,4.96,1.24-.13-.13,1.14.16,2.72.36-6.22-1.09-12.77-3.27-12.57-3.09Z"/>
          <path class="cls-3" d="m116.24,529.69c3.23.61,6.33.97,8.15,1.12-.88-.11-2.27-.28-3.76-.47-1.5-.18-3.08-.48-4.39-.66Z"/>
          <path class="cls-3" d="m139.71,532.41l-3.03-.2c-2.42-.06-4.82-.27-7.23-.42l5.13.39,5.14.23Z"/>
          <path class="cls-3" d="m43.86,442.33c-.21-1.85-.23-3.71-.35-5.57-.08-1.86-.06-3.72-.09-5.58-.15-1.14-.33,1.91-.17,6.07.12,1.34.22,3.04.35,4.19.15,1.15.26,1.75.27.89Z"/>
          <path class="cls-3" d="m49.93,475.62c-.95-2.91-.92-3.13-1.35-4.8l-.69-.13c.65,1.66,1.36,3.29,2.04,4.93Z"/>
          <path class="cls-3" d="m42.45,443.65c-.06-.28-.23-1.43-.37-2.8-.11-1.37-.24-2.93-.32-4.02-.13-2.17-.3-2.41.07,4.77.15.57.45,3.68.72,5.34.14.83.24,1.3.23.91-.02-.38-.16-1.62-.32-4.21Z"/>
          <path class="cls-3" d="m133.5,314.01c-.88.37-1.73.79-2.6,1.18l.79.76c.6-.65,1.19-1.31,1.81-1.94Z"/>
          <path class="cls-3" d="m279.78,291.94c-13.29-.79-3.18.44-15.19-.24-3.13.15,9.82.54,6.61.65,8.03.09,12.24.41,8.58-.41Z"/>
          <path class="cls-3" d="m271.2,292.35c-1.29.01-2.65.02-4.1.03,2.33,0,3.42-.01,4.1-.03Z"/>
          <polygon class="cls-3" points="197.13 18.44 203.23 12.49 199.13 16.18 197.13 18.44"/>
          <path class="cls-3" d="m208.06,6.26l1.88-.95,3.22-4.02c-1.35,1.38-3.96,4.04-5.1,4.97Z"/>
          <path class="cls-3" d="m777.13,234.81c-.03.21-.05.43-.1.63.33-.54.65-1.28,1.09-2.31.21-.52.46-1.11.74-1.79.25-.7.51-1.5.82-2.41-.74,2.02-1.67,3.95-2.55,5.88Z"/>
          <path class="cls-3" d="m781.04,122.66l.49,1.87c-.14-1.21-.2-2.45-.42-3.64,0,.59-.02,1.18-.07,1.77Z"/>
          <path class="cls-3" d="m712.01,66.84c1.88.48,3.93,1,5.98,1.52,2.03.58,4.07,1.14,5.92,1.73-2.02-.6-3.84-1.15-5.39-1.66-1.56-.5-2.89-.88-3.92-1.2-2.07-.63-3.02-.87-2.59-.39Z"/>
        </g>
      </g>
      <g class="cls-2">
        <path class="cls-3" d="m214.46.96c-1.07,1-.4.93-.51,1.14,1.68-1.78.39-1.17.51-1.14Z"/>
      </g>
    </g>
  </g>
</svg>