<?xml version="1.0" encoding="UTF-8"?>
<svg xmlns="http://www.w3.org/2000/svg" viewBox="0 0 841.89 595.28">
  <defs>
    <style>
      .cls-1 {
        isolation: isolate;
      }

      .cls-1, .cls-2 {
        fill: none;
      }

      .cls-3 {
        fill: #f671b7;
      }

      .cls-2 {
        mix-blend-mode: color-burn;
      }
    </style>
  </defs>
  <g class="cls-1">
    <g id="Layer_1" data-name="Layer 1">
      <g class="cls-2">
        <g>
          <path class="cls-3" d="m325.27,591.04c-1.18.68-.54.78-.68.95,1.89-1.27.57-1.02.68-.95Z"/>
          <polygon class="cls-3" points="343.89 578.53 343.64 578.89 346.24 576.81 343.89 578.53"/>
          <path class="cls-3" d="m361.42,566.74c-1,.38-2.5,1.58-4.18,2.91-1.68,1.33-3.57,2.76-5.22,3.67l-.61.2-1.12,1.39c3.84-2.48,8.53-6.21,11.13-8.18Z"/>
          <path class="cls-3" d="m370.7,559.52c-.34.21.01-.34.05-.4.02-.07-.19.42-1.89,2.49.2-.18.26-.23.38-.34.3-.38.76-.86,1.46-1.76Z"/>
          <path class="cls-3" d="m369.24,561.28c-1.52,1.81,1.18-1.02,0,0h0Z"/>
          <path class="cls-3" d="m375.14,552.09c-.39.98-.85,1.92-1.28,2.88.46-.49,1.86-2.95,1.46-1.98,1.27-3.04.79-2.49-.18-.91Z"/>
          <path class="cls-3" d="m375.85,549.15l-.54,1.52c.18-.23.37-.62.54-1.52Z"/>
          <path class="cls-3" d="m373.98,553.85l.73-1.55c.22-.53.4-1.08.6-1.62-.29.37-.51.31-.56,1.48-.06-.34-.19.34-.77,1.69Z"/>
          <path class="cls-3" d="m372.93,555.48c-1.1,1.36-2.42,3.13-.91.45-1.55,2.47-2.26,3.51-2.02,3.42.11-.05.45-.39.98-1.02.49-.66,1.15-1.61,1.95-2.85Z"/>
          <path class="cls-3" d="m361.78,565.48l-1.83,1.23-1.35,1.35c.7-.65,3.44-2.49,3.19-2.59Z"/>
          <path class="cls-3" d="m378.21,532.65c-.2-.16-.16,1.12-.36,1.39l.42,2.32c-.02-.61-.04-1.49-.07-2.24,0-.76-.1-1.37,0-1.47Z"/>
          <path class="cls-3" d="m377.85,534.04c-.27-1.14-.6-2.26-.94-3.36.65,3.02.8,3.58.94,3.36Z"/>
          <path class="cls-3" d="m375.29,548.36c-.51,1.77-1.05,3.58-1.84,5.27l.68-1.52c.22-.51.37-1.05.56-1.58l.53-1.58c.16-.53.26-1.08.39-1.62l-.32,1.02Z"/>
          <path class="cls-3" d="m373.37,520.22l1.29,1.53c-.75-.92-1.45-1.87-2.24-2.73.34.38.64.79.95,1.2Z"/>
          <path class="cls-3" d="m368.26,513.25c1.15.9-.9-1.81.22-.78-.77-.9-1.58-1.63-2.34-2.3-.76-.68-1.51-1.26-2.23-1.79.36.31.72.62,1.09.96.35.35.7.73,1.06,1.12.36.4.73.82,1.1,1.27.36.47.73.97,1.11,1.51Z"/>
          <path class="cls-3" d="m361.51,506.59c.76.56,1.54,1.15,2.4,1.79-.77-.65-1.54-1.27-2.4-1.79Z"/>
          <path class="cls-3" d="m375.04,525.12c-.03-.27-.03-.83-.8-2.62l.21,1.41c.18.37.38.79.58,1.21Z"/>
          <path class="cls-3" d="m374.47,523.96v-.05c-.62-1.33-1.13-2.2-1.34-2.57.18.32.64,1.07,1.34,2.62Z"/>
          <path class="cls-3" d="m375.17,525.44c-.05-.12-.07-.21-.13-.31.02.13.03.21.13.31Z"/>
          <path class="cls-3" d="m377.45,539.71c-.14-1.02-.21-2.57-.44-3.34-.11-.39-.2-.58-.27-.43-.08.15-.05.64-.16,1.63.3,1.42.5-.9.86,2.13Z"/>
          <path class="cls-3" d="m375.29,527.19c.45,1.11.7,2.3,1.03,3.45.09-.09.06-.77.46.16-.49-1.22-.88-2.47-1.49-3.61Z"/>
          <polygon class="cls-3" points="374.52 525.6 375.29 527.19 374.83 525.93 374.52 525.6"/>
          <path class="cls-3" d="m365.58,511.11c-1.17-1.01-2.39-2.14-3.77-3.42.7.72,1.42,1.45,2.13,2.18.7.75,1.39,1.49,2.07,2.21.29.11,1.07.59-.43-.98Z"/>
          <path class="cls-3" d="m370.34,517c-.07-.08-.16-.18-.23-.26.1.19.19.33.23.26Z"/>
          <path class="cls-3" d="m347.06,496.76c.07.08.14.14.21.22.03,0,.06-.02.1-.03l-.31-.19Z"/>
          <path class="cls-3" d="m366.18,512.4c.94,1.2,1.6,1.83,2.27,2.4-.76-.85-1.57-1.74-2.44-2.7-.13-.05-.18-.04.17.3Z"/>
          <path class="cls-3" d="m357.43,503.39c.56.57,1.2,1.19,1.88,1.84-.51-.59-1.59-1.75-1.88-1.84Z"/>
          <path class="cls-3" d="m369.89,516.26c.05.06.1.11.15.17-.23-.46-.23-.38-.15-.17Z"/>
          <path class="cls-3" d="m369.89,516.26c-.53-.59-.99-1.02-1.44-1.46.6.71,1.15,1.38,1.66,1.94-.09-.17-.17-.35-.22-.48Z"/>
          <path class="cls-3" d="m340.93,496.44c.41-.25,4,1.29,6.59,3.43,1.45.76,1.91.59,1.75-.06-.15-.66-.95-1.77-2.01-2.83-.19.11-.24.18-3.34-1.3.97.73,6.24,4.34,3.6,3.13-1.97-1.1-2.75-1.59-3.26-1.97-.51-.39-.74-.68-1.64-1.31.7.66-.65.13-2.11-.4-1.45-.54-3.04-1.02-2.76-.49,1.21.49,2.41,1.01,3.6,1.56.01.13-1.32-.37-.41.23Z"/>
          <path class="cls-3" d="m352.75,500.6l1.19.78c-1.28-.99-2.13-1.8-3.76-3.22-2.09-1.14-2.61-1.22-2.81-1.21.99.61,1.98,1.23,2.94,1.89.98.64,1.93,1.31,2.87,1.99l-.43-.23Z"/>
          <path class="cls-3" d="m358.98,505.3c-.57-.19-1.54-.78-2.2-1.12-.67-.33-1.03-.39-.36.42,3.22,2.59,2.47,1.56,4.46,3.06-5.12-4.35,1.63,1.08-1.89-2.29,1.07.79,1.96,1.59,2.82,2.32-.87-.86-1.71-1.68-2.5-2.46.04.05.07.08.1.12l.03.02h0c.19.23.24.31,0,.08-.02-.01-.09-.06-.11-.08-.07.02-.2-.02-.34-.07-1.46-1.31-.17-.28.34.07.03,0,.09.02.1,0l-.02-.02c-.9-.68-1.79-1.38-2.7-2.04-.93-.64-1.83-1.31-2.77-1.93,1.11.9,2.57,1.93,5.04,3.92Z"/>
          <path class="cls-3" d="m375.36,534.09c0-.21.03-.2.06-.22-.14-.41-.21-.56-.06.22Z"/>
          <path class="cls-3" d="m375.07,531.36c.15.46.41.82.68,2.39.08,1.38-.19.02-.33.12.26.9.67,3.28.57.26-.03-.16-.1-.31-.14-.46-.1-.67-.18-1.4-.25-2.1-.07-.71-.23-1.37-.31-1.95-.16-1.17-.32-1.93-.2-1.72-.06.87-.17,1.66-.01,3.46Z"/>
          <path class="cls-3" d="m368.85,517.08c-1.17-1.47-2.43-2.83-3.73-4.17.56.77,1.05,1.59,1.57,2.38l.08-.25c1.93,2.51,1.68,1.84,2.07,2.04Z"/>
          <path class="cls-3" d="m346.62,496.24h.87c-1.03-.4-2.09-.74-3.13-1.08.75.36,1.51.7,2.26,1.08Z"/>
          <polygon class="cls-3" points="340.2 492.78 340.62 492.54 338.78 491.9 340.2 492.78"/>
          <path class="cls-3" d="m218.46,259.87l-.76-1.52c.34.73.58,1.18.76,1.52Z"/>
          <path class="cls-3" d="m225.01,270.32l.35.09c-.47-.35-.68-.48-.35-.09Z"/>
          <path class="cls-3" d="m210,423.31c-.43-.33-.88-.67-1.3-.99-.41-.33-.76-.69-1.08-.96-.63-.55-1.05-.85-1.07-.6.1.24.21.47.31.71.66.36,1.21.72,1.73,1.02.53.28.98.56,1.4.82Z"/>
          <path class="cls-3" d="m205.87,314.82c-.13.19-.26.39-.38.58-.08.58-.16,1.13-.22,1.62.18-.66.39-1.41.61-2.2Z"/>
          <path class="cls-3" d="m204.85,312.58c.48-.93,1.02-1.82,1.52-2.73-.37.6-.89,1.47-1.52,2.73Z"/>
          <path class="cls-3" d="m212.76,195.74l-.26-1.94c-.28,2.97.07,1.68.26,1.94Z"/>
          <path class="cls-3" d="m268.88,476.88c-1.86-.68-3.33-1.22-4.63-1.67,1.08.49,2.07.94,2.86,1.28.8.31,1.42.48,1.77.39Z"/>
          <path class="cls-3" d="m224.63,261.88c-.54-.75-.78-1.09-.86-1.01.51.83.88,1.23.86,1.01Z"/>
          <path class="cls-3" d="m258.97,473.24c.3.17.6.34.91.49.68.23,1.36.46,2.07.7.72.24,1.48.48,2.3.79-1.6-.73-3.41-1.51-5.28-1.98Z"/>
          <path class="cls-3" d="m330.3,57.97c.15-.07.33-.15.47-.22.01-.08-.18.04-.47.22Z"/>
          <path class="cls-3" d="m380.67,14.52c-.32.59-.94,1.49-1.51,2.35.29-.41.81-1.08,1.51-2.35Z"/>
          <path class="cls-3" d="m312.41,483.52c1.52.24.25,0,0,0h0Z"/>
          <path class="cls-3" d="m319.35,486.7c-.33-.03-.58-.03-.64.06.15-.07.37-.09.64-.06Z"/>
          <path class="cls-3" d="m244.89,468.28s-.06-.05-.1-.08c.31.34.26.28.1.08Z"/>
          <path class="cls-3" d="m314.65,484.14c-.56-.16-1.2-.34-1.91-.49.31.08.89.23,1.91.49Z"/>
          <path class="cls-3" d="m314.38,483.88c.52.12.92.21,1.31.3.21-.03.04-.11-1.31-.3Z"/>
          <path class="cls-3" d="m310.3,483.18c.87.14,1.67.3,2.44.47-.29-.08-.41-.13-.33-.13-.44-.07-1.07-.17-2.11-.34Z"/>
          <path class="cls-3" d="m227.39,115.76c.03-.1.06-.22.08-.33.15-1.57-.01-.9-.08.33Z"/>
          <path class="cls-3" d="m188.26,393.28c.01.07.02.11.03.18,0-.07,0-.16,0-.23l-.03.05Z"/>
          <path class="cls-3" d="m187.7,387.73c.57,2.36.56,3.69.59,5.5.37-.65.74-1.28,1.12-1.9-.58-1.17-1.18-2.37-1.71-3.59Z"/>
          <path class="cls-3" d="m212.6,231.88c-.05,1.29-.09,2.58-.1,3.88-1.01-4.6-.98-8-1.29-4.33.7.23.94,3.96,1.41,7.73.43,3.76,1.18,7.54,1.9,7.68.06.86.16,1.73.25,2.6-.15-.73-.25-.83-.39-1.56.2,2.55.71,3.42,1.29,4.42.6,1.01,1.26,2.16,2.32,5.24.73,2.16,1.26,3.69.46,2.33.81,1.52,1.66,3,2.64,4.42.74,1.3.36,1.12-.39-.19,1.35,2.27,2.93,4.39,4.72,6.33l-.07-.02c.9.72,2.93,2.27,3.98,2.93,1.39,1.44-.85-.54-.57-.08.57.45,1.17.86,1.79,1.25.6.41,1.23.77,1.86,1.13,1.31,1.27-2-.36-4.23-2.46.54.93,1.02,1.54,1.55,1.98.51.46,1.04.78,1.73,1.14.67.38,1.5.78,2.63,1.4,1.16.57,2.6,1.4,4.72,2.3-.69-.19-1.38-.41-2.04-.68l-1.01-.38-.98-.44c.26.24.55.47.85.7.31.21.64.41.99.6.69.41,1.48.73,2.34,1.06.43.18.89.3,1.37.45.28.08.76.23,1.15.32.42.1.84.16,1.27.23.85.12,1.79.32,2.71.42.78-.13,1.58-.26,2.42-.4-.21.02-.58.07-1.06.12-.24.03-.5.06-.78.09-.14.01-.28.03-.43.05-.15,0-.28.05-.49-.01-1.52-.36-3.17-.61-4.44-1.15-.18-.07-.25-.11-.35-.15-.09-.04-.18-.09-.26-.13-.16-.09-.31-.17-.44-.24-.25-.15-.41-.29-.45-.38-.07-.18.32-.14,1.53.07.94.35,2.08.5,3.41.68.72.17,1.27-.02,1.93-.12.32-.06.65-.12,1-.19.1.02.13-.12.18-.19l.15-.27c.1-.18.2-.36.3-.55.09.08.28-.04.49-.35.21-.31.55-.76.71-1.44.43-1.31.42-3.43-.67-5.55.25.03.5.06.75.11-.33-.64-.55-1.15-.95-1.61-.09-.11-.17-.22-.26-.33-.07-.08-.13-.15-.19-.23-.11-.14-.23-.24-.35-.35-.45-.41-.77-.69-1.11-.87-.64-.39-1.13-.61-2.19-1.11-.95-.58-1.78-.96-2.49-1.22-.36-.13-.69-.25-.98-.35-.31-.08-.58-.16-.83-.23-.49-.16-.9-.23-1.26-.33-.34-.08-.7-.19-.97-.24-.92.12-1.52.29-1.88.41-.36.12-.5.19-.49.22.02.06.62,0,1.16-.02.55-.02,1.06.04.91.16-.14.15-.97.26-2.84,1.04-2.65,1.03-4.48,2.57-6.03,4.29-1.57,1.73-2.88,3.73-4.34,6.23-2.03,2.67,0-.71-.81.19l-1.21,2.76c-.41.6-.41.32-.41.18-1.19,2.21.37.49-1.54,3.92.03.64-1.26,2.2-2.75,4.21-1.43,2.04-3.17,4.48-3.94,6.82-.72.97-.07-.7-.46-.49-2.68,6.14-2.32,5.25-4.11,10.46-.8,1.34-1.54,2.7-2.32,4.06.92-1.46,1.06-1.13.83.01-.24,1.15-.85,3.1-1.34,4.96.67-1.02,1.25-1.9,1.63-2.48-.71,1.89-1.35,3.81-2.02,5.71-.38.64-.35,0-.21-1.03-.11.4-.21.78-.28,1.08-1.04,1.92-.97.74-.7-.83.41-.63.81-1.26,1.2-1.87.22-1.53.36-3.01-.1-2.87-.08.4-.32,1.13-.61,1.92.05-.4.06-.67-.07-.53-.14.17-.26.81-.49,1.79l-1.19,1.01.13.42c-1.14,2.41-2.2,4.87-3.28,7.32-.57,2.84-1.11,5.49-1.6,8.57-.26,1.54-.6,3.15-.95,4.95-.33,1.8-.76,3.76-1.27,5.96.07-2.3-.7-.68-1.28-.95.65-1.11,1.04-2.82,1.45-4.82.39-2,.94-4.26,1.68-6.5-.79,2.33-.91,1.73-.83,1.1l-.95,4.11-.83,4.13c-.42-.31-.88,1.61-1.58,3.7,1.36-1.37-.86,6.24-1.17,9.66-.37.14-.54-.73.39-4.8-1.67,4.36-.11,6.04-1.49,10.36.17-1,.31-1.53.21-1.96-.06,1.2-.4,3.21-.72,4.76-.28,1.55-.57,2.63-.62,1.93l.14-1.01c-.26,1.67-.6,3.77-.88,6.02-.23,2.25-.49,4.63-.63,6.84-.28,4.43-.12,8.17.31,8.67-.11.07-1.01-.91-1.17-1.33.84,4.09,1.9,8.1,3.31,11.9-.42-.48-.95.33-1.5.59-.54.26-1.16-.05-1.62-2.88.03,1.64.09,3.7.99,7.09-.15-1.13.59-2.92.87-1.44,0,2.11.01,2.86.15,3.7.12.85.24,1.81.73,4.42-.36-1.67,1.25-.21,2.19,2.22-.31-.32-.97.65-1.43-.23.56.98,1.25,1.9,1.85,2.84.71.89,1.34,1.8,2.09,2.62-1.04-1.29-.99.23-.44,1.69-.05-.18.12.04.42.5.31.45.83,1.1,1.36,1.84,1.11,1.43,2.58,2.98,3.32,3.52-.33-.36-.67-.7-.98-1.08l-.89-1.15c.63.73,1.21,1.34,1.81,1.8.58.47,1.09.89,1.59,1.2,1.04.59,1.88,1.03,2.77,1.35.91.3,1.75.67,2.84,1.03.54.19,1.12.42,1.77.7.67.24,1.41.51,2.25.86-.44-.05-1.08.07-1.19.4-.05.17.03.38.36.66.16.14.38.29.67.46.3.14.68.29,1.14.45.93,0,3.01-.1,5.53-.52,1.26-.15,2.62-.51,4.01-.81.69-.22,1.39-.42,2.1-.6.36-.11.66-.25,1.07-.38.49-.14,1.01-.33,1.55-.53.26,0,.56-.12.83-.21.28-.09.54-.17.79-.23l1.78-1.05c.29-.16.63-.4.98-.66l1.06-.76,2.22-1.6.58-.42.49-.39.99-.78c-1.6,1.49-4.24,3.59-6.26,5.23-1.01.79-1.9,1.34-2.72,1.88-.8.57-1.52.78-2.2,1.14-2.93,1.33-6.53,1.81-9.05,1.74,1.42.35,1.63.42,2,.54.19.05.43.1.89.16.47.05,1.17.03,2.29.03,1.61.27-2.46.57-3.78.31.87.11,1.73.24,2.62.23.88,0,1.77.08,2.66-.04l1.34-.12.67-.07.66-.14.46-.1.16-.03c.09-.01.18-.02.26-.05.02-.28.36-.55.95-.93.3-.21.63-.45.94-.67.32-.26.64-.54.93-.8.33-.29.62-.56.81-.77l-.4.33c-.85.73-1.68,1.26-2.4,1.67-.37.18-.7.4-1.02.52l-.24.1c-.1.04-.1.06-.38.13-.43.12-.86.27-1.29.33-.12-.14.1-.3.55-.57.22-.14.54-.3.83-.46.18-.13.41-.28.68-.43.53-.34,1.3-.76,2.21-1.3.44-.29.92-.6,1.43-.92.51-.32.98-.74,1.48-1.11.18-.14.36-.28.55-.42.16-.14,0,.06-.01.12l-.15.27c-.21.38-.43.76-.65,1.14-.56.82-.85.93-1.15,1.09-.29.13-.62.33-.83.56.05-.01.03.1-.06.32-.08.22-.16.56-.29.91-.25.72-.44,1.58-.59,1.73.03-.47.02-.87,0-1.17-.22.43-.28.75-.32,1.09-.03.16,0,.37,0,.53-.04.41-.07.81-.11,1.23-.11,1.74-.16,3.52-.47,5.9-.03.82-.11,2.05-.21,3.13-.03,1.07.03,1.98.24,2.09.17-1.4.83-2.26,1.59-2.57.76-.31,1.46-.07,1.88.69.03.26.07,2.22.41,4.34.13,1.07.41,2.14.57,3.1.22.93.43,1.71.5,2.16.2,1.3-.48.57-1.19-.26-.71-.82-1.42-1.73-1.25-.59.21.03.96,1.3,1.26,1.83.55,1.59-.84-.4.84,2.89.43.12,1.36,1.73,1.88,2.66.29.45.47.73.41.59-.06-.14-.38-.71-.94-2.03.94,1.51,1.52,2.26,2.03,3.15.25.45.57.87.96,1.41.41.52.84,1.2,1.58,1.95-.29-.64.64-.19,1.91.69.65.42,1.44.91,2.2,1.45.77.53,1.58,1.04,2.27,1.56-.27,0,.19.68.44.98,2.79,2.19,5.09,3.67,7.41,5,2.31,1.34,4.66,2.52,7.77,3.7.5.41,3.48,1.62,2.09,1.46.95.21,1.86.26,3.82.85,1.83.82.72.56-.5.22-1.22-.34-2.57-.7-1.22.09.36-.27,5.27,1.02,8.18,1.38-.37-.39-2-.81-3.89-1.23-1.89-.42-4.04-.89-5.47-1.24.27-.8,5.31.03,12.07,1.02,5.37.84,2.22.98,3.16,1.04,5.04.96,7.27.86,9.26.82,1.99-.04,3.76-.07,7.96.75,3.3.95.02,1.08.72,1.56-4.46-.35-6.77-1.18-9.76-1.57l3.66.74c-1.43,0-4.41-.26-5.99-.66,1.37.46,5.68,1.07,10.63,1.69,4.95.62,10.53,1.35,14.41,2.22,1.42.04,3.85.3,2.75-.12-.83-.12-1.66-.25-2.49-.35-2.22-.82,4.78.2,1.67-.53,3.39.28,7.26.54,11.86,2.04l.71.83c-.05-.2-2.93-1.19-4.29-1.3,1.01.09,2.74.75,4.49,1.39.87.34,1.75.66,2.56.91.8.26,1.53.43,2.11.42-1.02-.49-2.03-1.02-3.07-1.47,3.38.72,7.64,1.65,11.47,3.65-1.54-1.35-.9-.39-3.46-2.22,1.06.92-1.47-.18-3.88-1.07-2.41-.88-4.68-1.57-2.78-.48-2.77-1.75-5.12-1.91-8.96-3.49.08.23,1.34.68-2.17-.17-.17.03-.56.03-.81.02-.11-.03-.14-.04-.24-.06.07.02.12.04.19.06-.16,0-.17,0,.07.02.82.25,1.48.49,1.73.67-1.84.05-7.43-.94-9.36-.97-2.07-.4.91-.1-.2-.48l-2.88-.05c-.22-.49-5.46-1.49-.49-1.09l-4.43-.6c-2.58-.58-6.13-1.11-8.35-1.21-2.06-.36-5.28-.2-3.44-.31-2.3-.21-4.58-.47-6.86-.75l-.04-.12c-3.33-.59-6.77-1.09-10.27-1.89-3.49-.8-7.05-1.91-10.43-3.7-2.09-.76-4.32-1.51-7.5-3.44l-.42-.71c-1.26-.65-3.01-1.86-4.49-3.06-1.52-1.16-2.73-2.33-3.34-2.55-.77-1.43-3.12-3.7-5.16-6.58-2.09-2.84-3.82-6.25-4.53-8.54h-.53c-1.04-3.17-1.89-6.3-2.11-10.42l-.45.26c-.08-.9-.13-1.95.04-3.06.08-.56.1-1.15.27-1.74.07-.29.14-.59.22-.9l.15-.66c.06-.26.15-.5.22-.76.4-1.05.99-2.22,1.51-3.39.45-1.11,1.32-2.57,2.09-3.97.4-.71.79-1.43,1.19-2.15.37-.64.74-1.28,1.11-1.93.36-.63.73-1.26,1.09-1.9l.53-.94c.07-.19.12-.34.17-.51.1-.06.14.01.11.17-.08.22-.37.71-.63,1.18-.55.97-1.28,2.18-1.91,3.19.7-1.08,1.39-2.17,2.06-3.27l.98-1.62.52-1.07c-1.56,1.11-3.13,2.23-4.7,3.35l-2.89,2.06-1.44,1.03-1.19.76-2.34,1.51-1.15.74c-.36.2-.65.26-.98.4-.32.13-.64.24-.93.31-.3.08-.64.17-.75.21-.34.1-.67.22-1.03.26-2.76.61-5.7.52-8.13-.4-.77-.04-1.39-.27-1.96-.44-.57-.18-1.08-.37-1.55-.65.13.05.25.09.36.12-.14-.06-.36-.15-.58-.24-.59-.34-1.22-.62-1.83-1.06.51.41,1.05.69,1.52.93-.55-.21-1.24-.47-1.97-.83-.37-.17-.76-.35-1.15-.53-.4-.18-.77-.42-1.16-.62l-.37-.8c-.12-.07-.22-.13-.35-.2-1.27-1.13-1.24-.64-.71.22-.75-.47-1.47-.88-2.04-1.19-.14-.39-.43-.76-.81-1.13-.38-.37-.85-.74-1.26-1.18-.43-.43-.89-.86-1.25-1.33-.33-.49-.6-.99-.71-1.49-.13-.09-.31-.25-.54-.49-.21-.26-.45-.58-.72-.95-.56-.72-1.14-1.68-1.71-2.64-.58-.95-1.07-1.95-1.55-2.72-.42-.79-.81-1.38-1.1-1.53.08-.1-.06-.62.3.3-.64-1.94-1.06-3.93-1.73-5.67l.43-.98c-.58-1.39-1.08-2.82-1.55-4.28.06-2.78.2-3.89.93-1.27-.7-3.19-.76-4.54-.88-5.74-.08-1.21-.2-2.29-.48-5.11l.39.29c.02-2-.3-5.25.13-6.44.27-1.11.56-3.05.9-5.51.29-2.47.75-5.45,1.21-8.65,1.02-6.38,2.53-13.59,4.3-19.1-.82.95-.41-.34.21-1.91.6-1.58,1.33-3.47.95-3.82.44-.58,1.02-2.08.75-.21.69-2.87,1.49-4.94,2.11-6.83.69-1.87,1.25-3.53,1.55-5.58.48-.54-.03,1.33.32.82.09-.47.38-1.85.77-2.36.38-.5-.11.88-.28,1.8,2.04-5.64,1.5-6.51.9-7.22,1.52-2.7,2.05-4.12,2.43-6.37.69-.87,1.64-2.39.22,1.09.41-.97,1.86-3.86,3.09-6.58,1.33-2.67,2.47-5.18,2.23-5.42.42-.53,1.42-2.59,1.61-3.12,2.23-4.19,2.57-4.48,4.81-8.56l-.73,1.07c.22-2.01,1.86-3.41,3.73-6.67v.13c2.59-3.46,3.07-4.26,3.52-5.06.23-.4.46-.79.97-1.49.52-.68,1.3-1.7,2.74-3.16l-.65.03c-.15-.62,1.17-2.02,3.11-3.29.97-.63,2.1-1.2,3.25-1.59,1.13-.38,2.39-.64,3.35-.71l-.75-.1c-.26-.03-.54,0-.82,0,1.2-.46,2.94,0,4.15,1.14.62.52,1.08,1.21,1.47,1.79.16.32.34.59.46.87.06.14.04.14.06.21.02.07.05.13.07.19,0,.11-.07.04-.17-.07-.07-.07-.09-.07-.16-.13-.1-.14-.25-.25-.35-.35.09.13.19.24.24.37.08.14.04.1.06.15.04.09.05.18.08.25.05.14.07.23.11.3.07.13.19.17.33.19.14.02.31,0,.48.15.09.07.17.19.23.38.07.19.09.46.02.81-.28.1-.45-.23-.66-.36-.1-.07-.2-.11-.31-.07-.05.02-.11.05-.18.09-.03.02-.07.05-.1.09-.05,0-.12-.02-.18-.03-.18-.09-.36-.06-.68-.04-.08,0-.17.02-.27.02-.11,0-.14.01-.51-.05-.6-.07-1.23-.26-1.89-.42-2.62-.67-5.44-2.22-7.01-3.88.62.81,1.29,1.65-.69.38-1.44-1.08-3.05-2.94-4.43-4.88-1.4-1.93-2.57-3.9-3.73-5.11-.15-.44-.17-.63-.13-.67-.76-1.15-1.79-3.16-2.64-5.12-.85-1.96-1.57-3.84-1.99-4.61.43-1.47-.77-5.65-1.51-9.69-.77-4.02-1.27-7.79-.51-7.81-.22-2.93-.47-5.85-.58-8.79l.17.22c-.09-2.81-.14-4.72-.29-6.16-.15-1.45-.34-2.44-.5-3.44.12-1.3.25-.35.33-.24.18-4.12.36-6.37.37-8.47,0-2.1-.04-4.03-.18-7.52l.56-.67c-.04-.94.36-3.9,1-7.6.3-1.85.64-3.89.98-5.97.3-2.08.65-4.19.85-6.2.04.09.11.27.07.91.47-4.53,1.97-9.78,3.27-14.3,1.32-4.52,2.5-8.32,2.09-10.18l1.39-5.86c-2.49,7.38-.4-1.35-1.65,1.61.81-2.98,3.09-7.33,1.92-3.75l-.28.53c.22.81,1.09-1.46,1.97-3.85.87-2.35,2.22-4.51,2.45-4.22.8-1.25,1.78-2.33,2.87-2.93.51-.31,1.21-.47,1.59-.51.47-.07.96.03,1.33.31.37.28.62.7.76,1.13.15.46.25,1.14.2,1.69-.02.56-.26,1.07-.37,1.14,0,.02-.02.02-.02.01l.06.09s0,.02,0,0c0,.02-.02-.08-.02-.13,0,0-.12-.02-.3-.09l.53.34c-2.88-2.75-4.93-6.23-6.07-9.96-1.16-3.73-1.47-7.68-1.17-11.53l-.79,1.54c.06-.8.03-1.61.15-2.41l.33-2.4c.17-.61.44-1,.51-.82.04.09.04.32,0,.74-.02.42-.07,1.03-.19,1.87.16-.43.26-1,.32-1.61.06-.62.18-1.26.22-1.88.05-.61.07-1.18.08-1.6.03-.42.04-.69,0-.73,1.13-3.19,1.13-2.47.95-1.24-.21,1.23-.55,2.98-.27,2.01l.76-2.65-.26.57c.15-1.13.31-1.73.5-2.56.11-.41.24-.88.46-1.48.26-.58.6-1.29,1.07-2.21.31-.58.57-.9.76-1.09.18-.2.29-.27.37-.31.16-.07.2.03.47-.4.04.03.24-.25.83-1.31l1.8-2.38,2-2.19-2.03,1.39c1.49-2.25,4.1-4.02,1.51-2.58.48-.27,1.1-.7,1.83-1.26.75-.54,1.52-1.31,2.54-1.95.97-.69,2.03-1.44,3.13-2.22,1.15-.7,2.34-1.43,3.53-2.16,4.84-2.73,9.9-4.66,11.17-4.93,3.49-1.73,7.21-2.76,11.85-3.88-1.18.16-2.04-.31,2-1.18-1.17,1.62,7.5-1.12,10.99-.81-3.07,0,11.53-2.57,6.73-2.49,3.42-.63.31.45,2.96.2,3.99-1.16,8.46-2.09,13.15-3.39,4.68-1.27,9.56-2.94,14.25-5.17.07-.22-1.62.22.3-.9,1.76-.51,3.5-1.12,5.27-1.68,1.8-1,1.18-1.75,4.7-3.12-.53.14-1.32.35-.17-.4,8.9-4.81,17.03-11.38,24.31-18.71,7.3-7.35,13.85-15.37,20.27-23.4-1.85,2.1-.83.55.35-1.2-.84,1.09-.34-.27-.69-.18l1.34-1.68,1.27-1.72,2.55-3.46c.24-1.67,4.55-7.98,4.34-9.11l-1.16,2.45c.49-1.78-.41-.83-1.62.36-1.2,1.2-2.6,2.71-2.88,2.24-.59,1.96-2.27,4.01-4.05,6.35-.87,1.19-1.86,2.38-2.76,3.68-.92,1.29-1.7,2.72-2.44,4.19-1.01,1.04.48-1.16-.16-.68-.66,1.55-1.73,3.24-4.15,6.03l.18-.39c-1.62,2.01-2.99,3.77-4.36,5.3-1.38,1.52-2.67,2.89-4,4.29-1.39,1.33-2.8,2.69-4.4,4.22-1.62,1.5-3.49,3.08-5.64,5,.33-.06.63-.15.95-.22-1.9,1.61-2.43,1.8-3.39,2.47-.86,1.2.48.08,1.86-1.06,1.4-1.1,2.69-2.38,2.02-1.18-.75.41-2.01,1.26-3.45,2.41-.72.57-1.5,1.2-2.3,1.86-.81.65-1.68,1.27-2.53,1.91-3.35,2.63-6.88,4.77-8.07,4.96-3.22,2.04,1.28-.08-2,1.88l-1.02.26-.64.82c-1.1.61-1.96,1-2.57,1.21-.63.19-1.01.2-1.11.11.56-.23,1.47-.88,2.02-1.24-1.45.72-3.5,1.7-5.24,2.69-1.74,1.01-3.32,1.75-3.85,1.92,1.14-.42,2.29-.85,3.38-1.38-1.12.66-2.35,1.19-3.58,1.75-1.24.55-2.51,1.11-3.79,1.68-1.32.48-2.65.96-3.99,1.45l-2.01.73-2.06.63c-5.48,1.68-11.06,3.02-15.99,4.36l.8.06c-7.55,2.03-6.17,1-14.55,3.01l.29-.12c-1.64.57-3.86,1.21-6.17,1.74,1.03-.38,0-.27-.95-.17-.95.11-1.81.21-.46-.3-2.05.66-3.32,1.08-4.16,1.38-.84.31-1.24.5-1.56.67-.63.34-.9.6-3.47,1.85l-1.35.09c-1.7,1-1.83,1.1-5.76,2.93,3.15-1.7-2.79.58.73-1.39-1.09.37-2.12.71-3.05,1.12-.92.43-1.77.86-2.57,1.28-1.61.79-2.86,1.77-4.02,2.56-.57.41-1.13.77-1.63,1.16-.5.4-.97.77-1.45,1.11-.94.7-1.91,1.2-2.91,1.69-.63.92-.54,1.06-.09.79.23-.13.54-.38.91-.66.39-.26.84-.58,1.29-.9.9-.66,1.84-1.36,2.44-1.81.61-.42.91-.56.43-.21,1.82-.82-2.45,2.56-4.61,4.42-.54.49-1.09.88-1.71,1.27-.61.4-1.32.76-2.03,1.36-1.46,1.13-3.38,2.74-5.33,6.02.4-.64.36-.73.76-1.37-.83,1.16-1.58,2.35-2.13,3.72-.3.67-.61,1.36-.97,2.06-.3.73-.64,1.48-1.07,2.25-.11,1-.4,2.09-.68,3-.28.91-.46,1.67-.11,2.04.21-1.12.58-2.21.87-3.32.31-1.1.77-2.16,1.15-3.24-.31.93-.59,1.85-.84,2.81-.19.97-.38,1.97-.59,3.05-.18,1.08-.31,2.24-.57,3.49-.09.64-.18,1.3-.27,2.01-.1.7-.26,1.44-.32,2.23-.2-.51-.13-2.4-.09-3.72-.24.91-.31,1.82-.39,2.73-.03.91,0,1.83-.16,2.81-.35-.27-.46-2.41-.07-4.96.1-1.29.48-2.64.7-3.96.26-1.32.63-2.55.78-3.62-.44.93-.98,2.88-1.16,4.36-.24,1.47-.43,2.41-.62,1.29.07.8.14,1.67.06,2.6-.03.46-.09.94-.15,1.44-.05.5-.07,1.02-.11,1.55-.08,1.07-.18,2.21-.05,3.41.04.6.1,1.21.19,1.83.1.62.3,1.24.5,1.86l-.52-.27c.11.4.27,1.02.45,1.72.19.7.49,1.46.67,2.2-.41-.84-.94-1.67-1.24-2.56.07.26.14.52.21.77l.25.76c.16.5.3,1.01.43,1.51.21,1.02.59,1.99.9,2.98.17.49.29,1,.5,1.48l.67,1.41c.23.47.47.93.73,1.39.28.44.62.85.95,1.26-.32-.45-.61-.85-.86-1.21-.2-.38-.38-.72-.54-1.01-.31-.59-.51-1.01-.64-1.32-.26-.6-.22-.71-.11-.69.12.02.32.17.4.11.09-.07.02-.33-.22-1.2.36.87.86,1.53,1.2,2.17.37.62.64,1.18.94,1.64.62.9,1.03,1.59,1.35,2.21.3.64.63,1.09.95,1.65.33.54.72,1.14,1.29,1.9l.17.22.6.27c.54.24,1.2.53,2.24.52,1.03.02,2.39-.56,3.18-1.49.81-.91,1.17-1.91,1.37-2.91.17-1,.18-2.03-.05-3.15.27,1.06.25,3.1-.56,4.62-.38.75-.94,1.3-1.12,1.38-.2.09.18-.25.64-1.21.87-1.66.93-3.33.72-4.89-.09-.73-.38-1.68-.73-2.38-.35-.72-.77-1.3-1.13-1.72-1.17-1.05-2.33-1.35-3.12-1.44-.2-.01-.38-.03-.54-.04-.16.01-.31.03-.43.04-.25.02-.43.04-.55.06-.48.08-.01.12.64.17.66.02,1.48.29,1.8.5.16.1.21.16.08.15-.13,0-.44-.09-1.03-.15-.45-.15-.9-.17-1.33-.18-.21,0-.43-.02-.63,0-.21.03-.42.07-.62.11-.35.06-.66.17-.96.31-.31.13-.6.28-.87.47-1.11.73-2.03,1.75-3.12,3.2l-.39-.29c-1.55,1.87-2.04,3.07-2.33,3.79-.28.73-.25,1.03-.24,1.29.05.52.04.99-1.33,4.46.15-1.09.25-2.13.44-3.26-.42,1.31-.76,2.53-1.15,3.8l-.25-.95c-1.04,4.18-1.49,5.42-2.88,9.39.59-.84.69.78-.32,4.34-.95,2.36-.1-1.5-1.36,3.61.02-1.22-.07-2.6,1.01-4.68-.09-.27.03-1.21-.05-1.49-1.11,2.53-1.86,6.61-2.34,8.46.2-.71.45-1.55.63-1.97-.45,2.51-.75,5.06-1.12,7.58-.43,1.13-.38.17-.3-.78-.31,1.52-.27,2.62-.69,4.85-.27-.65-.69-.59-.23-3.8-.32,2.42-.72,4.82-.97,7.24-.25.45-1.1,3.61-1.08,2.65-.48,1.97-.6,4.47-.83,7.11-.12,2.65-.35,5.45-.71,8.1.05.28.07.85.02,1.98-.29,2.5-.54,4.86-.78,7.34-.14,2.49-.31,5.09-.04,8.08l-.75,3.38c.22,4.67.83-4.58,1.19,3.19.14,2.74.02,3.26-.18,3.33-.2.07-.47-.3-.53.67.44,2.74,1.39,7.42,1.27,12.51-.29-1.66-.28-2.98-.43-4.53Zm28.04,48.22c-1.2-.14-3.58-.73-4.26-1.36,1.47.03,2.31.68,4.26,1.36Zm-38.74,42.17c.14-.83.67-1.99,1.35-3.27-.33.99-.77,2.09-1.35,3.27Zm93.93,159.27s-.08,0-.12,0c-2.42-.49-1.56-.31.12,0Zm5.05.85c.52,0,.49-.07.29-.17-.37.08-1.52-.07-2.81-.26.35.17.99.34,2.52.43ZM236.01,102.04l-.6.74c1-1.9.79-1.32.6-.74Z"/>
          <path class="cls-3" d="m204.96,312.87c.2-.26.31-.3.42-.34.09-.44.01-.48-.42.34Z"/>
          <path class="cls-3" d="m212.81,196.1l.02-.17c-.02-.1-.04-.15-.07-.18l.05.36Z"/>
          <path class="cls-3" d="m230.62,453.23c-.35-1.05-.49-1.65-.56-2.06-.13-.02-.04.48.56,2.06Z"/>
          <path class="cls-3" d="m328.03,487.18c-1.07-.34-2.18-.62-3.27-.91,1.58.46,2.11.72,2.86,1.07-.03-.13-.6-.5.41-.16Z"/>
          <path class="cls-3" d="m352.19,503.02c.43.23.83.58,1.24.82l.03-.26c-1.66-1.19-2.94-1.84-1.27-.56Z"/>
          <path class="cls-3" d="m330.41,489.74c.05.24.57.51,1.36.82.77.33,1.81.7,2.89,1.13-.13-.06-.25-.11-.38-.17.85-.24-1.49-1.09-3.87-1.78Z"/>
          <path class="cls-3" d="m335.15,491.9c.66.28,1.33.57,1.95.88.34-.09-.77-.4-1.95-.88Z"/>
          <path class="cls-3" d="m307.39,483.03c1.07.27.76-.41,1.35-.15,1.29-.35-7.34-.46-1.35.15Z"/>
          <path class="cls-3" d="m331.66,491.66c-.19-.26-.38-.52-.58-.77l-1.35-.08c.64.29,1.29.55,1.93.86Z"/>
          <path class="cls-3" d="m314.37,486.28c1.19.27,2.38.59,3.56.89-.04-.09.43-.04,1,.06-2.2-.54-4.62-1.11-4.56-.94Z"/>
          <path class="cls-3" d="m318.94,487.23c1.14.29,2.24.54,2.89.64-.61-.18-1.96-.48-2.89-.64Z"/>
          <path class="cls-3" d="m326.92,490.06l-.99-.45-2.46-.79c1.15.41,2.32.78,3.45,1.24Z"/>
          <path class="cls-3" d="m275.46,480.4c-1.31-.21-2.62-.46-3.92-.72-.44.07.6.44,2.07.68.96.1,2.42.31,1.86.03Z"/>
          <path class="cls-3" d="m287.18,483.72c-1.06-.25-1.12-.37-1.7-.62l-.21.6,1.91.02Z"/>
          <path class="cls-3" d="m275.59,481.98c-.43.12-5.84-.76-.82.3.44-.09,4.43.56.82-.3Z"/>
          <polygon class="cls-3" points="230.2 446.66 230.44 447.66 231.39 447.24 230.2 446.66"/>
          <path class="cls-3" d="m204.29,426.05c1.06.74,1.68,1.11,2.09,1.25.4.16.56.15.7.14.14-.01.27-.03.61.1.34.14.88.43,1.93.92.6.11-.25-.29-1.09-.71-.81-.47-1.6-.94-1.02-.76-1.43-.54-2.41-1.18-2.97-1.43-.56-.25-.68-.18-.26.48Z"/>
          <path class="cls-3" d="m207.52,427c.46.18.92.39,1.45.55-.82-.31-1.2-.47-1.45-.55Z"/>
          <path class="cls-3" d="m386.95,5.11c.58-.85,1.14-1.72,1.67-2.61-.42.53-.8,1.08-1.24,1.59l-.43,1.01Z"/>
          <path class="cls-3" d="m250.27,275.82l-.19-.43c-.04.19-.02.42-.07.67-.05.25-.1.53-.15.86-.03.16-.04.35-.09.53-.06.18-.12.37-.19.58-.07.21-.14.43-.21.66-.1.22-.24.44-.37.69.74-.98,1.1-2.24,1.27-3.56Z"/>
          <path class="cls-3" d="m216.38,256.34c.08.24.15.48.24.71.02-.51.06-1.01.09-1.51l-.33.8Z"/>
          <path class="cls-3" d="m210.85,221.19c-.02,1.44.2,3.13.23,4.57-.25-3.13.5-4.98-.23-4.57Z"/>
        </g>
      </g>
    </g>
  </g>
</svg>