<?xml version="1.0" encoding="UTF-8"?>
<svg xmlns="http://www.w3.org/2000/svg" viewBox="0 0 841.89 595.28">
  <defs>
    <style>
      .cls-1 {
        isolation: isolate;
      }

      .cls-1, .cls-2 {
        fill: none;
      }

      .cls-3 {
        fill: #f671b7;
      }

      .cls-2 {
        mix-blend-mode: color-burn;
      }
    </style>
  </defs>
  <g class="cls-1">
    <g id="Layer_1" data-name="Layer 1">
      <g class="cls-2">
        <path class="cls-3" d="m408.99,597.41l-.02-1.21-1.92-1.83c.56.8,1.65,2.34,1.94,3.04Z"/>
      </g>
      <g class="cls-2">
        <g>
          <path class="cls-3" d="m406.54,592.25c1.33,2.24,1.19,1.22,1.46,1.51-2.35-3.65-1.5-1.36-1.46-1.51Z"/>
          <path class="cls-3" d="m388,553.39l.4.68c-.8-1.98-1.51-3.99-2.27-5.99l1.87,5.31Z"/>
          <path class="cls-3" d="m378.95,513.86c-.17,3.92,2.55,14.51,4,21.58.03.4.07.8.11,1.2l1.34,3.03c-2.27-8.47-4.76-19.65-5.46-25.81Z"/>
          <path class="cls-3" d="m377.85,492.21c-.14,1.35-.71-4.63.42,5.02-.01-.49-.02-.63-.03-.91-.1-.87-.23-2.06-.39-4.11Z"/>
          <path class="cls-3" d="m378.24,496.31c.48,4.24-.07-2.8,0,0h0Z"/>
          <path class="cls-3" d="m376.5,476.68l.61,5.6c.09-1.18-.19-6.18.05-4.33-.46-5.75-.54-4.56-.65-1.27Z"/>
          <path class="cls-3" d="m375.7,471.37l.25,2.91c.04-.51.03-1.29-.25-2.91Z"/>
          <path class="cls-3" d="m376.54,480.45c-.2-2.05-.42-4.11-.59-6.17-.07.82-.31.92.23,2.83-.24-.49.04.72.35,3.33Z"/>
          <path class="cls-3" d="m376.67,483.95c.09,3.16.31,7.24-.38,1.62.45,5.37.88,7.64.95,7.23.1-.41-.13-3.49-.57-8.85Z"/>
          <path class="cls-3" d="m377.91,511.92c.13,1.41.3,2.81.45,4.22.28,1.19.53,2.39.84,3.58-.44-1.78-1.13-8.09-1.29-7.79Z"/>
          <path class="cls-3" d="m376.03,441.6c-.15-.35-.41,1.89-.6,2.31l.18,4.17c.09-2.14.21-6.2.43-6.48Z"/>
          <path class="cls-3" d="m375.43,443.91l-.22-6.24c-.1,5.57.06,6.59.22,6.24Z"/>
          <path class="cls-3" d="m374.86,470.4c.35,3.4.7,6.8,1.12,10.19-.45-4.05-.85-8.1-1.2-12.17l.08,1.97Z"/>
          <polygon class="cls-3" points="376.56 417.8 376.79 421.35 376.48 415.03 376.56 417.8"/>
          <path class="cls-3" d="m377.23,402.03c.15,2.62.69-3.55.71-.78.23-4.28.23-7.94.23-11.25-.1,3.5-.41,7.22-.94,12.02Z"/>
          <path class="cls-3" d="m378.3,384.46c-.07,1.75-.12,3.57-.13,5.54.06-1.86.14-3.69.13-5.54Z"/>
          <path class="cls-3" d="m375.48,427.05c.11-.48.36-1.4.57-4.9l-.5,2.44c-.02.75-.04,1.6-.07,2.46Z"/>
          <path class="cls-3" d="m375.53,424.68l.02-.09c.1-2.66.16-4.51.19-5.3-.03.68-.09,2.3-.21,5.39Z"/>
          <path class="cls-3" d="m375.46,427.67c0-.23.01-.39.02-.62-.05.24-.07.38-.02.62Z"/>
          <path class="cls-3" d="m374.78,454.04c-.29-3.66-.58-11.31-.9-3.91.32,2.63.48-1.61.9,3.91Z"/>
          <path class="cls-3" d="m374.85,430.71l-.2,6.63c.11-.13.29-1.32.39.49l-.19-7.12Z"/>
          <polygon class="cls-3" points="374.79 427.46 374.85 430.71 374.95 428.25 374.79 427.46"/>
          <path class="cls-3" d="m377.05,395.74c.02-2.87.17-5.99.46-9.52-.44,3.77-.68,7.68-.95,11.39.1.53.23,2.18.49-1.87Z"/>
          <path class="cls-3" d="m376.14,409.79c0-.2,0-.45,0-.64-.06.39-.08.7,0,.64Z"/>
          <path class="cls-3" d="m381.08,351.59c-.05.19-.1.35-.15.54.02.05.04.08.06.14l.09-.68Z"/>
          <path class="cls-3" d="m376.44,398.25c-.29,2.84-.25,4.54-.2,6.17.05-2.13.15-4.38.33-6.8-.04-.24-.08-.29-.12.63Z"/>
          <path class="cls-3" d="m378.96,374.78c-.24,1.47-.48,3.13-.69,4.89.24-1.43.74-4.36.69-4.89Z"/>
          <path class="cls-3" d="m376.31,408.2c0,.14,0,.27,0,.43.14-.93.09-.81,0-.43Z"/>
          <path class="cls-3" d="m376.31,408.2c.01-1.47-.04-2.62-.07-3.78-.05,1.73-.09,3.34-.09,4.74.05-.35.11-.7.17-.95Z"/>
          <path class="cls-3" d="m379.71,340.75c.32.55-.29,8.05-1.49,14.43-.43,6.38,1.32,2.37,2.71-3.05-.15-.22-.3-.24.3-6.77-.25,1.12-.84,4.72-1.32,7.34-.47,2.62-.81,4.28-.67,1.5.88-8.65,1.04-7.05,1.78-11.21-.99,3.49.8-11.05-.17-9.28l-.81,7.59c-.13.13.07-2.64-.32-.55Z"/>
          <path class="cls-3" d="m379.45,364.53l-.23,2.69c.37-3.05.81-5.22,1.57-9.2.31-4.48.29-5.42.2-5.74l-1.59,13.18.05-.92Z"/>
          <path class="cls-3" d="m378.04,379.26c-.28-2.14.23-8.6-.65-4.7-.72,7.89-.13,5.56-.36,10.29.97-12.73-.07,3.67.95-5.5-.14,2.51-.31,4.75-.47,6.88.26-2.28.51-4.48.75-6.56-.02.11-.03.19-.05.29v.06s0-.01,0-.01c-.1.54-.15.72-.06.11,0-.04.01-.2.01-.27-.05-.09-.08-.33-.11-.59.4-3.67.16-.57.11.59.02.04.03.15.05.16,0-.01,0-.03,0-.05.27-4.25.67-8.5,1-12.75-.32,2.69-.69,6.06-1.18,12.04Z"/>
          <path class="cls-3" d="m372.94,443.31c.04-.4.07-.38.1-.41-.05-.83-.09-1.14-.1.41Z"/>
          <path class="cls-3" d="m373.24,438.04c.06.93.2,1.71.15,4.74-.13,2.63-.21-.01-.35.12.11,1.83.3,6.39.52.67l-.06-.91c.16-5.16.83-11.77.87-10.87-.41,1.5-.73,2.82-1.14,6.25Z"/>
          <path class="cls-3" d="m374.98,408.2c.12-3.55.18-7.11.38-10.65-.25,1.8-.5,3.6-.7,5.4l.24-.26c-.39,6.05-.05,4.76.09,5.52Z"/>
          <polygon class="cls-3" points="381.45 350.4 381.72 351.86 381.87 345.68 381.45 350.4"/>
          <polygon class="cls-3" points="383.22 336.68 383.54 337.24 383.81 333.59 383.22 336.68"/>
          <path class="cls-3" d="m565.78,78.55c-1.03.17-2.05.4-3.07.6,1.45-.29,2.39-.47,3.07-.6Z"/>
          <path class="cls-3" d="m588.22,75.63l.53-.26c-1.03.22-1.45.35-.53.26Z"/>
          <path class="cls-3" d="m581.08,158.58c4.54.8,9.62,1.68,9.1,1.2l-1.38-.53c-3.21-.12-5.65-.41-7.72-.67Z"/>
          <path class="cls-3" d="m767.41,95.67c.21.38.43.78.65,1.17.78.8,1.42,1.63,2.01,2.37-.39-.54-.77-1.15-1.23-1.73-.46-.58-.94-1.19-1.44-1.81Z"/>
          <path class="cls-3" d="m764.04,94.34c-.62-.73-1.21-1.49-1.87-2.2-.67-.69-1.31-1.43-2.02-2.08.92.93,2.22,2.27,3.89,4.28Z"/>
          <path class="cls-3" d="m446.03,108.58l-3.32,1.58c5.41-1.82,2.96-1.23,3.32-1.58Z"/>
          <path class="cls-3" d="m409.29,197.46c1.3-3.65,2.5-6.46,3.52-8.94-2.03,4.15-3.48,7.67-3.52,8.94Z"/>
          <path class="cls-3" d="m573.97,72.75c-1.9.35-2.7.55-2.63.63,1.95-.35,3.05-.59,2.63-.63Z"/>
          <path class="cls-3" d="m417.75,178.69c-.36.57-.71,1.12-1.08,1.69-1.33,2.44-2.48,5.01-3.86,8.13,1.52-3.03,3.26-6.48,4.94-9.82Z"/>
          <path class="cls-3" d="m175.02,81.75c.3-.14.65-.31.92-.44.06-.1-.34.11-.92.44Z"/>
          <path class="cls-3" d="m291.35,21.24c-1.11.66-2.92,1.74-4.62,2.76.85-.46,2.25-1.29,4.62-2.76Z"/>
          <path class="cls-3" d="m392.33,281.71c-.5,2.9-.04.47,0,0h0Z"/>
          <path class="cls-3" d="m388.15,295.49c.06-.62.07-1.1-.01-1.19.06.26.06.67.01,1.19Z"/>
          <path class="cls-3" d="m435.96,156.73c.07-.05.13-.08.22-.13-.79.39-.65.33-.22.13Z"/>
          <path class="cls-3" d="m391.36,286.03c.25-1.08.51-2.32.79-3.68-.15.59-.38,1.71-.79,3.68Z"/>
          <path class="cls-3" d="m391.66,285.48c-.19.99-.34,1.78-.49,2.52,0,.38.11.06.49-2.52Z"/>
          <path class="cls-3" d="m393.04,277.68c-.3,1.65-.6,3.19-.9,4.67.13-.56.2-.8.19-.64.15-.85.36-2.05.72-4.03Z"/>
          <path class="cls-3" d="m245.22,166.07c-.19.02-.42.05-.63.07-2.89.71-1.62.45.63-.07Z"/>
          <path class="cls-3" d="m657.74,155.91c-.14.01-.21.02-.33.04.14,0,.31,0,.43,0l-.1-.03Z"/>
          <path class="cls-3" d="m668.25,155.11c-4.45.74-7.01.79-10.41.82l3.54,1.09,6.87-1.92Z"/>
          <path class="cls-3" d="m512.65,89.1l3.64-.69,3.65-.6c-4.29,1.25-7.98,2.32-9.77,2.84-1.79.53-1.65.58,1.78.03.66-1.79,27.98-6.37,28.76-7.75l4.84-.65c-1.37.25-1.58.37-2.94.62,4.71-.59,6.39-1.17,8.41-1.8,2.02-.65,4.37-1.4,10.42-2.32,4.21-.64,7.2-.78,4.34-.23l9.35-1.65c2.74-.36,2.1-.03-.62.33l7.16-1.05,7.18-.86-.1.05c2.03-.44,6.64-1.29,8.9-1.68,3.68-.13-1.82.31-.87.41,2.65-.39,5.3-.68,7.96-1.02,3.29.1-3.31.92-8.82,1.43,3.78.26,5.43.11,8.15-.29,1.36-.19,2.99-.42,5.29-.64,2.3-.22,5.26-.45,9.31-.43l-3.77.29c-1.26.1-2.51.26-3.76.38,1.23.1,2.51.09,3.89.11,1.37.02,2.83,0,4.41-.05,3.15-.08,6.75-.22,11.02-.21-2.02-.14-17.13-.3-8.47-1.1,2.45,0,5.67-.19,10.35-.63.06.48,4.63.26,10.36.1l-.38.65c6.18-.35,5.69-.63,9.33-.89,6.9.12,8.33.62,9.94,1.05,11.03.28-7.61-.97,5.46-.79,4.59.3,8.49.45,12.63.53,4.14.11,8.49.33,14,.51,6.4.67-1.15.31,1.13.66,1.91-.04,3.82-.08,5.73-.03,1.39.15.93.26.69.32,4.8.29.45-.6,8,0,1.05-.23,4.9.35,9.62,1.22,4.72.84,10.25,1.98,14.84,2.63,2.17.71-1.16.13-.54.54,6.2,1.18,8.75,2.07,11.07,2.75,1.13.41,2.24.71,3.61,1.25.69.26,1.48.53,2.36.92.89.37,1.91.8,3.07,1.38,2.47,1.6,4.83,3.32,6.89,5.35-2.29-2.22-1.82-2.17.02-.98,1.84,1.17,4.86,3.73,7.24,6.59-.63-.99-1.22-1.92-1.78-2.72-.6-.77-1.11-1.44-1.53-1.98,2.85,2.78,5.35,5.95,7.33,9.45.28.67.24.76-.02.48-.25-.28-.71-.94-1.34-1.69.48.66.88,1.32,1.19,1.83.89,1.94.87,2.5.58,2.2-.27-.32-1.06-1.38-1.88-2.63-.62-1.28-1.19-2.59-1.9-3.78-1.96-2.19-4.11-3.84-3.99-3.15.29.24.67.63,1.09,1.13.42.49.94,1.05,1.41,1.68-.51-.54-.91-.83-.74-.53.21.33.99,1.22,2.19,2.68l.71,2.58.53.42c1.13,2.2,1.91,4.54,2.55,6.88.54,2.37.88,4.77.85,7.15.18,2.54.13,5.07-.43,7.59-.09.64-.34,1.25-.51,1.88-.2.63-.35,1.28-.6,1.91-.28.62-.55,1.25-.84,1.88-.14.32-.28.65-.44.96-.18.3-.37.61-.56.92-2.89,5.01-8.03,9.88-16,13.58,3.73-2.27.47-1.15.44-1.82,4.49-1.34,11.85-6.6,16.09-14.02-.5,1-1.02,1.59-1.35,1.99-.33.4-.52.59-.6.63-.17.08.05-.41.33-.89-2.67,4.23-6.56,7.8-11.04,10.52.05-.62-3.06,1.35-6.97,2.67.82-.05.56.23-.39.72-.48.24-1.12.55-1.89.88-.79.29-1.7.62-2.68.98-3.96,1.37-9.25,2.57-12.44,3.31-.23-.13.03-.34,1.31-.71,1.28-.4,3.6-.91,7.44-1.9-2.16.37-3.9.8-5.46,1.18-.78.2-1.5.41-2.2.63-.7.21-1.39.4-2.07.6-2.71.83-5.46,1.54-9.83,1.82,1.95-.28,3-.37,3.75-.65-2.25.46-6.16,1.02-9.19,1.39-3.03.35-5.18.44-3.88.15l1.94-.24c-3.24.37-7.32.85-11.65,1.35-4.34.46-8.93.94-13.17,1.39-4.25.4-8.15.85-11.11,1.16-2.96.32-4.98.61-5.45.85-.14-.1,1.64-1.13,2.42-1.35-3.84.72-7.68,1.46-11.54,2.08-3.86.65-7.72,1.32-11.6,1.87,2.03-.79-5.88-2.3,4.91-3.02-3.1,0-6.94-.02-13.47.38,2.12.09,5.3.93,2.4,1.08-3.98-.33-5.36-.46-6.97-.53-1.61-.1-3.45-.11-8.34-.5,3.17.19-.36,1.3-5.38,1.21.79-.16-.4-1.14,1.43-1.23l-6.25.48-6.26.38c3.12-.11.58-.94-2.2-1.34,1.28.32-10.77-.48-14.1-.54l5.27.52c-7.04-.39-10.52-.32-14.02-.12-3.49.21-6.97.29-13.95-.33,1.72-.1,4.29-1.03-2.77-1.85-1.65.12-5.31.43-10.11.6-4.79.06-10.76.09-16.94-.63l-2.31-.66c-3.17-.31-6.33-.67-9.48-1.05,5.98.16,22.69.61,31.79.85-5.21-.81-1.42-.53-9.25-1.45-2.73-.65,4.32.07,6.63.33-6.06-.82-12.13-1.59-18.17-2.57.36.38-3.14.08-6.66-.3-3.51-.38-7.04-.82-6.74-.48,6.62.86,13.24,1.54,19.85,2.25.72.75-11.7.36-24.59-1.9-3.24-.79,2.65-.79,2.41-1.05-1.7-.05-12.33-1.5-13.51-1.81l5.55.47c-7.18-1.34-11.9-.91-20.58-2.43-3.01-.36-9.02-1.54-9.58-1.14,4.96,1.01,5.69,3.51,2.42,3.84-.52-.06-4.43-.47-8.67-.71-4.23-.29-8.77-.24-10.5-.3-2.49-.06-.68-.63,1.26-1.09,1.94-.5,4.01-.9,1.85-1.07-.18.2-2.94.59-4.08.77-1.6.09-1.29-.09-1.44-.19-.07-.05-.27-.08-.87-.04-.61.02-1.63.13-3.36.41-.54.39-4.03.96-6.04,1.34-1,.21-1.63.34-1.34.31.29-.03,1.5-.26,4.21-.56-1.67.34-2.95.6-4.04.86-1.09.25-2.03.39-2.98.64-.95.23-1.94.47-3.18.76-1.22.38-2.7.76-4.59,1.45,1.28-.22-.31.72-2.93,2.09-2.61,1.42-6.18,3.4-9.02,5.18.26-.35-1.18.19-1.84.51-5.89,3.61-10,7.07-13.57,10.85-3.55,3.81-6.63,7.96-9.59,13.71-.76.95-3.5,6.59-2.67,4.04-.34.88-.62,1.73-.97,2.85-.38,1.1-.84,2.45-1.49,4.34-1.55,3.56-.86,1.44-.06-.89.78-2.34,1.81-4.85.36-2.23.08.3-.72,2.78-1.61,5.9-.92,3.11-1.83,6.88-2.43,9.66.52-.77,1.35-3.93,2.38-7.56,1.02-3.63,2.35-7.7,3.33-10.38.2.08.16.73-.06,1.86-.25,1.12-.63,2.74-1.14,4.75-1,4.03-2.35,9.66-3.64,16.23-2.08,10.44-1.51,4.4-1.8,6.23-4.07,19.65-1.87,17.06-5.65,33.3-1.77,6.39-1.11.09-1.76,1.46,1.45-8.59,2.88-13.06,3.99-18.86l-1.64,7.08c.35-2.75,1.34-8.49,2.1-11.56-1.55,5.35-6.61,33.28-9.82,48.44-.32,2.74-.99,7.45-.37,5.27l.81-4.83c1.24-4.35-1.07,9.18.24,3.11-.87,6.52-1.7,13.85-3.48,22.93l-.9,1.61c.21-.17,1.37-5.9,1.62-8.5-.39,3.84-3.19,13.85-3.04,18.16l1.45-6.33c-.35,3.28-.75,6.95-1.17,10.82-.41,3.87-.91,7.92-1.61,11.96,1.15-3.6.21-1.88,1.78-7.52-.8,2.43-.05-2.75.74-7.54.78-4.79,1.49-9.21.38-5.28,1.76-5.76,2.04-10.14,4.06-17.72-.24.2-.86,2.66.43-4.1,0-.32.05-1.05.09-1.52.04-.21.06-.28.1-.45-.03.13-.06.23-.09.37.02-.3.02-.33-.03.14-.37,1.6-.71,2.89-.91,3.4.12-3.45,2.09-14.21,2.53-17.89.83-4-.08,1.72.53-.43l.67-5.5c.54-.46,2.74-10.52,1.22-1.02l1.63-8.5c1.2-4.96,2.63-11.83,3.28-16.11.87-3.99,1.49-10.23,1.15-6.66l2.34-13.38.13-.1c1.35-6.54,2.57-13.28,4.46-20.05.92-3.39,2.04-6.79,3.4-10.13,1.34-3.36,3-6.64,4.99-9.76.52-.96,1.01-1.94,1.63-2.9.6-.97,1.2-2.02,1.97-3.04.37-.52.76-1.06,1.17-1.63.41-.56.89-1.1,1.37-1.68.93-1.19,2.1-2.34,3.36-3.63.4-.26.86-.47,1.28-.7,1.92-1.99,5.24-4.51,8.42-6.52.8-.49,1.59-.96,2.33-1.41.75-.44,1.47-.81,2.11-1.17,1.27-.74,2.29-1.25,2.78-1.61,1.46-.44,3.74-1.31,6.54-2.28,2.79-1.01,6.15-2,9.66-2.93,3.53-.85,7.22-1.59,10.66-2.06,3.45-.45,6.62-.71,9.1-.75l.36-.52c6.87-.22,13.49-.12,22.09.52l-.48-.5c3.72.18,8.48.83,13.76,1.72,5.28.88,11.08,1.98,16.95,2.9-.83.04-3.79-.48-5.88-.92,3.46.81,7.05,1.47,10.69,2.03,3.64.57,7.34.96,10.99,1.38,3.65.44,7.27.72,10.77,1.12,3.5.41,6.88.79,10.07,1.31,3.22.16,5.53.5,7.77.78-.3-.02-.57-.04-.8-.04.33.03.82.07,1.32.12,1.41.2,2.86.4,4.43.62-1.33-.22-2.61-.42-3.73-.56,2.47.19,6.23.49,9.92.65l1.53.59c.3.02.54.03.85.04,3.6.42,2.92-.03,1.02-.52,1.86.05,3.56.06,4.89.04,2.89,1,9.67.23,13.64,1.27,1.25-.15,5.89-.1,10.46-.09,4.57-.02,9.08-.2,10.06-.6.12.11,1.21.18-.78.16,4.11.18,8.21.21,11.9-.05l1.75.6c2.99-.27,5.97-.68,8.95-1.01,5.45.23,7.73.39,2.33,1,6.53-.54,9.17-.81,11.57-.96,2.4-.16,4.56-.36,10.08-1.07l-.52.43c3.97-.22,10.25-1.28,12.66-1.16,1.11,0,2.64-.05,4.49-.15,1.85-.13,4.03-.31,6.47-.53,4.88-.39,10.77-1.13,17.09-1.88,6.3-.91,13.06-1.64,19.66-2.97,6.58-1.31,12.95-3.04,18.39-5.29-1.15.21-1.09.05-.35-.31.37-.18.91-.41,1.55-.68.32-.13.67-.27,1.04-.42.36-.17.74-.35,1.12-.53,3.15-1.34,6.65-3.69,6.73-4.35.63-.31,1.65-.92,2.09-1.23.23-.14.33-.17.21.02-.13.17-.45.61-1.21,1.23.62-.45,1.15-.99,1.68-1.49.53-.5,1.05-.98,1.55-1.45.91-1.03,1.8-1.99,2.59-2.94.72-1.01,1.43-1.96,2.06-2.9.55-1,1.08-1.95,1.59-2.88,1.76-3.83,2.73-7.65,2.42-11.97.34-1.44.29,2.7.51,1.43-.03-.51.02-1.52-.06-2.56-.1-1.04-.12-2.11-.13-2.77-.02-.64.14-.2.26.67.08.87.27,2.16.28,3.18-.02-3.27-.45-5.77-1.01-7.63-.5-1.89-1.13-3.13-1.58-4.04-1.01-1.77-1.64-2.08-2.16-2.33-1.15-2.88-2.27-4.96-3.52-6.65-.31-.42-.62-.84-.93-1.25l-1.02-1.13c-.35-.37-.69-.75-1.07-1.11-.39-.35-.8-.7-1.22-1.07-.6-.9-1.57-1.96-1.65-2.2-.1-.21.78.32,3.36,3.14-.36-.4-.9-1.01-1.57-1.76-.66-.77-1.57-1.57-2.52-2.52-1.99-1.79-4.54-3.72-7.13-5.28-2.6-1.55-5.23-2.79-7.24-3.6-2.02-.78-3.39-1.2-3.55-1.07-1.18-.64-5.58-1.92-6.68-2.09-4.55-1.24-7.07-1.7-9.56-2.2-2.49-.45-4.97-.86-9.53-1.43l2.51.44c-1.85.13-3.74-.07-6.09-.39-2.35-.31-5.17-.7-8.85-1.03l.22-.06c-4.2-.56-6.75-.88-8.48-1.06-1.73-.13-2.64-.17-3.54-.2-1.8-.07-3.56-.15-11.88-1.06l.88.54c-.4.24-1.52.22-3.13.15-1.61-.07-3.7-.24-6.05-.45-4.7-.4-10.42-1.02-15.27-.78l3.49.3c-2.65.16-6.34-.22-10.04-.66-1.85-.22-3.71-.46-5.43-.64-1.72-.14-3.32-.23-4.65-.24-1.16-.06,1.83-.19,3.45-.29-13.96-.28-1.8.67-12.18,1.06-1.93-.28,2.44-.96-4.56-.78-1.75-.04-6.81.5-12.61,1.04-2.91.23-5.99.64-8.95.91-2.96.28-5.79.48-8.18.51,2.12.09,4.22.17-.57.77-7.33.83-19.99,1.13-26.48,2.98-.94.06-1.3.04-1.35-.02-5.59.87-18.08,3.21-21.36,4.19-1.36-.22-4.18.17-7.66.82-3.47.66-7.6,1.54-11.55,2.45-7.87,1.95-15.08,3.78-15.19,3.02l-16.85,4.2.4-.26c-10.75,2.79-14.45,4.12-18.1,5.56-2.49.62-.73-.04-.55-.18-7.82,2.15-12.13,3.28-16.05,4.6-3.92,1.31-7.48,2.65-13.84,5.06l-1.49-.02c-1.7.72-7.31,2.41-14.37,4.62-7.02,2.25-15.46,5.08-22.87,7.92.13-.1.41-.3,1.58-.78-8.34,3.2-18.56,6.32-27.4,9.11-8.85,2.75-16.31,5.19-19.14,7.05l-11.07,4.03c14.55-4.53-1.92,1.44,4.14-.19-5.67,1.97-14.94,4.15-7.93,1.88l1.12-.27c2.31-1.67-18.18,5.27-17.98,4.54-28.68,8.65-57.09,15.49-84.57,20.84l3.3.07c-3.19.69-6.41,1.19-9.62,1.77-2.56.29-3.49.05,3.37-1.16-3.68.24-11.44,2.42-11.61,2.61-3.37.56-4.75.59-4.97.55-.22-.06.72-.3,1.95-.58,2.45-.58,6.06-1.41,4-1.04-1.86.36-3.72.72-5.59,1l1.28-.11c-4.5.98-4.86,1.36-13.15,2.57-2.63.33-3.32.31-3.61.24-.29-.06-.18-.16-1.21-.05,0-.03-.17-.02-.66.03-.49.05-1.28.15-2.52.33l-12.22,1.39h4.95c-5.38,1-11.53,1.08-5.79,1.28-2.1-.07-6.02.11-10.78.43-2.38.13-4.97.42-7.67.49-2.7.13-5.49.26-8.25.39-2.76.12-5.51.31-8.09.38-2.58.07-5.01.05-7.17-.02-4.33-.14-7.57-.55-8.81-.77-3.75-.26-7.47-.85-11.24-1.93-3.77-1.08-7.64-2.66-11.36-5.19.89.68,1.58,1.29,1.18,1.25-.2-.01-.67-.21-1.49-.7-.82-.48-1.98-1.28-3.44-2.61,1.56.41-1.3-1.84-3.73-5.77-1.23-1.95-2.27-4.34-2.84-6.64-.62-2.29-.65-4.51-.51-6.02-.05.68-.07.86-.15.66-.08-.19-.14-.76-.16-1.57-.12-1.63.09-4.25.61-6.73.22-1.25.6-2.44.88-3.49.36-1.03.6-1.93.83-2.53.43-1.2.31-1.35-.75.62,1.29-3.02,1.53-3.01,1.61-2.87.1.16.11.48,1.37-1.62,3.41-6.91,9.79-13.03,17.41-18.02,7.62-5.04,16.48-9.17,25.2-13.96.19-.3-2.87,1.02.77-1.21l9.67-4.15c3.42-1.93,2.71-2.59,9.3-5.45-.96.35-2.4.87-.11-.43,34.67-17.69,69.27-38.94,104.15-57.55-4.78,2.42-1.73.58,1.79-1.5-2.33,1.28-.17-.4-.74-.35l14.57-7.85c2.26-2.1,15.2-9.13,16.35-10.58l-4.43,2.8c5.59-4.22-9.21,3.58-8.83,2.23-6.26,4.73-18.29,9.42-28.73,16.9-2.54,1.25,1.92-1.48.51-.91-2.59,1.99-5.93,4.04-12.3,7.5l.66-.5c-17.6,10.26-25.39,14.23-45.5,25.15l1.71-.41c-4.32,2.35-5.31,2.71-7.38,3.72-4.58,3.37,12.09-6.67,7.98-3.48-6.15,2.37-30.37,16.75-34.79,17.86-6.66,3.59,2.21-.57-4.44,3.02l-1.91.69-1.5,1.24c-4.39,2.3-6.78,3.14-7.06,3.01,1.07-.54,2.99-1.67,4.11-2.3-5.83,2.74-15.94,8.64-17.95,9.57l6.51-3.24c-4.53,2.48-9.32,5.04-14.26,7.67-4.94,2.64-10.02,5.42-14.85,8.66-4.83,3.23-9.43,6.93-13.2,11.23-1.9,2.15-3.58,4.45-5,6.81-1.39,2.39-2.53,4.84-3.4,7.3.23-.48.54-.92.81-1.37-1.46,3.68-2.03,6.41-2.46,8.58-.35,2.18-.54,3.82-.59,5.52-.02.85-.06,1.72.03,2.67.03.48.07.98.11,1.51.08.53.17,1.09.27,1.7.47,2.38,1.29,5.51,3.64,9.28-.13-.17-.27-.34-.38-.52,1.01,1.47,2.26,3.12,3.81,4.72,1.54,1.6,3.35,3.14,5.31,4.5-1.86-1.19-.29.17,1.27,1.3.79.55,1.54,1.07,1.79,1.26.25.19-.06.17-1.36-.53,3.84,2.11,6.43,2.88,8.12,3.44,1.7.52,2.56.69,3.24.83,1.37.19,2.05.35,7.57.93.82.25,1.64.52,2.47.74,1.89.09,2.92.06,4.53.1,1.61.03,3.79.15,7.99.17-6.92.17,5.38.69-2.39.93,4.44.35,8.34.28,11.72.06,3.4-.19,6.36-.43,9.02-.64,5.33-.35,9.45-.92,13.52-.65,3.98-.86.18-.67-4.06-.35-4.23.38-8.92.61-6.67.4-1.9-.08-.25-.33,2.56-.64,2.81-.38,6.77-.8,9.52-.98,2.79-.24,5.21-.07,8.67-.12,3.46-.09,7.98-.31,15.01-1.16-1.4.16-1.48.25-2.88.41,1.32-.09,2.62-.24,3.94-.41,1.31-.2,2.62-.45,3.97-.68,2.7-.48,5.55-.96,8.79-1.23,1.75-.59,3.84-.86,5.59-1.19,1.75-.33,3.18-.62,3.63-1.1-4.23.88-8.5,1.54-12.76,2.25,7.25-1.22,13.85-3.4,25.82-5.14-.89.36-4.4,1.18-6.81,1.74,3.53-.4,6.68-1.34,10.31-1.88-.85,1.09-15.43,3.12-23.1,5.01,3.82-.23,14.57-3.18,10.83-1.61,2.7-1.06,6.14-1.58,10.04-2.31,3.9-.74,8.28-1.55,12.87-2.93l-.52.59c.73-.19,1.86-.49,3.14-.83,1.27-.36,2.7-.75,4.06-1.06-1.59.57-3.18,1.18-4.78,1.73,3.73-1.1,7.38-1.86,11.02-2.55,3.63-.7,7.24-1.34,10.8-2.42-3.76.99-5.88,1.44-7.03,1.64-1.14.21-1.31.16-1.22.04.2-.24,1.48-.78-1.76-.2,2.32-.62,4.23-1.1,5.83-1.49,1.6-.42,2.9-.73,4.01-.97,2.22-.48,3.66-.68,5.18-.88,3.03-.42,6.4-.76,16.71-3.77-2.79.84-10.6,2.63-6.27,1.21,3.97-.99,9.22-2.25,11.71-2.68,13.65-4.02-2.22.17,3.51-1.8,4.81-.81,6.64-2.19,12.56-4.12l.18.45c15.6-4.4,3.82-2.21,17.87-6.13l-5.69,2.46,7.21-2.41-1.33.99c7.77-2.88,10.24-3.6,18-5.92-1.9.26.74-1.16,7.53-3.44,4.73-1.27-2.46,1.3,7.17-1.97-2.08,1.01-4.35,2.16-8.69,3.13-.38.29-2.05,1-2.45,1.29,5.1-1.35,12.6-4.08,16.08-5.28-1.35.44-2.96.96-3.81,1.17l13.74-5.36c2.25-.57.56.16-1.12.88,2.81-1.01,4.69-1.88,8.83-3.35-.95.74-.55,1.05-6.37,3.22l13.13-4.97c.94-.14,6.96-1.9,5.29-1.17,7.43-2.33,17.78-7.01,27.62-9.96.48-.24,1.47-.65,3.53-1.41,9.23-2.87,17.51-5.04,28.36-8.71,2.14-.38,4.28-.78,6.43-1.13,8.61-2.48-8.73,1.43,5.62-2.7,10.15-2.97,3.96-.45,7.59-1.22,2.48-.89,5.93-1.94,9.92-3.1,4-1.13,8.56-2.34,13.38-3.05-3.11.81-5.59,1.25-8.49,2.04Zm109.12-16.53c-2.13.22-6.37.74-7.95.57,2.4-.71,4.3-.53,7.95-.57Zm151.47,37.97c-.5-1.47-.96-3.81-1.9-6.37.2.45.4.92.61,1.4.16.5.33,1.01.5,1.54.38,1.05.56,2.22.79,3.42Zm-375.35,139.42c0-.09.01-.16.02-.23,1.09-4.67.7-3.01-.02.23Zm-2.08,9.73c-.12,1-.04.94.1.54,0-.71.42-2.9.93-5.39-.26.67-.59,1.92-1.04,4.86Zm-182.12-91.92l1.93-.1c-4.31.65-3.12.39-1.93.1Z"/>
          <path class="cls-3" d="m764.47,94.52c-.31-.5-.37-.67-.39-.83-.62-.54-.68-.5.39.83Z"/>
          <path class="cls-3" d="m446.64,108.29l-.32.1c-.17.09-.25.15-.29.19l.61-.29Z"/>
          <path class="cls-3" d="m473.44,143.24c2.09-.09,3.25-.06,4.03-.03.11-.12-.84-.17-4.03.03Z"/>
          <path class="cls-3" d="m387.4,311.71l.9-6.3c-.48,3.04-.75,4.11-1.08,5.63.13-.12.49-1.29.18.67Z"/>
          <path class="cls-3" d="m376.97,366.08c-.03.93-.19,1.97-.22,2.89l.25-.23c.37-3.95.52-6.73-.03-2.66Z"/>
          <path class="cls-3" d="m384.88,317.28c-.49.43-.94,4.41-1.54,8.83.04-.27.08-.52.12-.78.37,1.38.88-3.34,1.42-8.05Z"/>
          <path class="cls-3" d="m383.2,327.14c-.2,1.36-.4,2.75-.59,4.08.15.55.27-1.65.59-4.08Z"/>
          <path class="cls-3" d="m393.74,272.14c-.48,2.06.27,1.4-.11,2.55.07,2.42,1.96-13.99.11-2.55Z"/>
          <polygon class="cls-3" points="383.01 320.65 383.74 319.14 383.73 316.61 383.01 320.65"/>
          <path class="cls-3" d="m389.18,285.92l-1.38,7c.1-.09-.01.81-.16,1.91.78-4.33,1.72-9.06,1.54-8.92Z"/>
          <path class="cls-3" d="m387.64,294.84c-.39,2.26-.75,4.41-.88,5.68.2-1.22.63-3.85.88-5.68Z"/>
          <polygon class="cls-3" points="384.39 310.99 384.83 308.92 385.68 303.95 384.39 310.99"/>
          <path class="cls-3" d="m403.82,210.62c.52-2.54,1.09-5.07,1.72-7.58.05-.81-.65,1.2-1.25,4.04-.34,1.84-.89,4.67-.47,3.54Z"/>
          <path class="cls-3" d="m397.8,233.43c.51-2.05.64-2.17,1.03-3.3l-.56-.35-.47,3.65Z"/>
          <path class="cls-3" d="m402.16,211.11c-.04-.8,2.15-11.18-.13-1.5-.03.81-1.54,8.5.13,1.5Z"/>
          <polygon class="cls-3" points="485.64 144.5 483.66 144.52 483.95 145.54 485.64 144.5"/>
          <path class="cls-3" d="m588.55,153.97c-9.14-.95-2.23.46-10.48-.54-2.17.05,6.75.83,4.52.85,2.78.12,4.89.26,6,.24,1.11,0,1.21-.13-.04-.55Z"/>
          <path class="cls-3" d="m582.59,154.28c-.89-.03-1.83-.06-2.84-.09,1.61.07,2.37.09,2.84.09Z"/>
          <polygon class="cls-3" points="310.33 10.58 315.54 7.71 312.08 9.39 310.33 10.58"/>
          <path class="cls-3" d="m319.72,4.05l1.53-.17,2.75-2.35c-1.13.72-3.33,2.11-4.28,2.51Z"/>
          <path class="cls-3" d="m638.21,73.22l.45-.17c-.92-.15-2.3-.13-5.07-.09l4.62.26Z"/>
          <polygon class="cls-3" points="558.54 80.38 559.9 80.17 557.26 80.01 558.54 80.38"/>
          <path class="cls-3" d="m493.02,95.38c2.66-.68,5.73-1.68,8.41-2.32-5.76,1.6-9.32,1.82-8.41,2.32Z"/>
        </g>
      </g>
    </g>
  </g>
</svg>