<?xml version="1.0" encoding="UTF-8"?>
<svg xmlns="http://www.w3.org/2000/svg" viewBox="0 0 841.89 595.28">
  <defs>
    <style>
      .cls-1 {
        isolation: isolate;
      }

      .cls-1, .cls-2 {
        fill: none;
      }

      .cls-3 {
        fill: #f671b7;
      }

      .cls-2 {
        mix-blend-mode: color-burn;
      }
    </style>
  </defs>
  <g class="cls-1">
    <g id="Layer_1" data-name="Layer 1">
      <g class="cls-2">
        <path class="cls-3" d="m125.38,601.4c.38-.84.76-1.67,1.12-2.52.2-2.28.34-4.55.48-6.83-.33,2.54-1.05,7.46-1.59,9.34Z"/>
      </g>
      <g class="cls-2">
        <g>
          <path class="cls-3" d="m127.75,591.38c-.16.96.3.67.35.83.12-1.64-.47-.8-.35-.83Z"/>
          <polygon class="cls-3" points="128.46 575.3 128.61 575.59 128.37 573.21 128.46 575.3"/>
          <path class="cls-3" d="m129.32,560.35c-.77,1.38-.12,5.42-.52,8.07l-.19.43.5,1.24c.12-3.25-.08-7.47.21-9.74Z"/>
          <path class="cls-3" d="m131.13,552.42c-.29.49-.19-1.73-.14,1.86.04-.18.06-.23.08-.33,0-.32.02-.77.06-1.52Z"/>
          <path class="cls-3" d="m131.06,553.95c-.03,1.58.27-1.03,0,0h0Z"/>
          <path class="cls-3" d="m131.09,546.67l.2,2.08c.17-.43.25-2.27.36-1.59-.09-2.13-.26-1.7-.56-.49Z"/>
          <path class="cls-3" d="m130.61,544.69l.08,1.08c.07-.19.1-.47-.08-1.08Z"/>
          <path class="cls-3" d="m130.87,548.05l-.17-2.28c-.12.3-.35.32.06,1.05-.21-.19-.01.26.11,1.24Z"/>
          <path class="cls-3" d="m130.73,549.34c-.19,1.16-.32,2.66-.52.57,0,3.97.51,3.4.52-.57Z"/>
          <path class="cls-3" d="m128.61,559.56l-.27,1.54.18,1.35c-.08-.68.32-2.99.09-2.9Z"/>
          <path class="cls-3" d="m131.72,533.77c-.15-.13-.42.69-.62.84l.15,1.53c.12-.78.24-2.27.47-2.37Z"/>
          <path class="cls-3" d="m131.1,534.61l-.22-2.29c-.07,2.04.05,2.42.22,2.29Z"/>
          <polygon class="cls-3" points="129.83 544.3 130.29 548.08 129.84 543.58 129.83 544.3"/>
          <polygon class="cls-3" points="131.96 525.06 132.27 526.36 131.81 524.05 131.96 525.06"/>
          <path class="cls-3" d="m132.07,519.28c.26.96.53-1.3.68-.28,0-1.57-.21-2.92-.4-4.13.09,1.29.01,2.65-.28,4.41Z"/>
          <path class="cls-3" d="m132.08,512.84c.05.64.16,1.31.27,2.04-.05-.68-.12-1.36-.27-2.04Z"/>
          <path class="cls-3" d="m131.05,528.43c.1-.17.35-.51.49-1.78l-.45.89c-.01.27-.02.58-.03.9Z"/>
          <path class="cls-3" d="m131.07,527.57v-.03c.06-.97.08-1.65.1-1.94-.01.25-.04.84-.1,1.97Z"/>
          <path class="cls-3" d="m131.04,528.66c0-.08,0-.14,0-.23-.04.09-.06.14,0,.23Z"/>
          <path class="cls-3" d="m130.33,538.31c-.21-1.35-.42-4.15-.83-1.45.27.97.51-.58.83,1.45Z"/>
          <path class="cls-3" d="m130.48,529.76l-.15,2.43c.11-.05.29-.48.39.19l-.25-2.61Z"/>
          <polygon class="cls-3" points="130.37 528.57 130.48 529.76 130.54 528.86 130.37 528.57"/>
          <path class="cls-3" d="m131.56,516.97c-.15-1.05-.14-2.2-.13-3.49-.13,1.38-.21,2.81-.25,4.18.13.2.35.8.38-.68Z"/>
          <path class="cls-3" d="m131.28,522.12c0-.07-.01-.17-.02-.23-.04.14-.06.26.02.23Z"/>
          <path class="cls-3" d="m132,500.76c-.03.07-.06.13-.09.2.02.02.05.03.07.05l.02-.25Z"/>
          <path class="cls-3" d="m131.09,517.89c-.11,1.04-.03,1.67.09,2.26-.02-.78-.02-1.61,0-2.49-.06-.09-.1-.11-.09.23Z"/>
          <path class="cls-3" d="m132.02,509.28c-.12.54-.22,1.15-.32,1.79.16-.52.42-1.6.32-1.79Z"/>
          <path class="cls-3" d="m131.39,521.54c0,.05,0,.1.01.16.1-.34.06-.3-.01-.16Z"/>
          <path class="cls-3" d="m131.39,521.54c-.05-.54-.14-.96-.22-1.39.01.64.04,1.22.09,1.74.03-.13.08-.26.13-.35Z"/>
          <path class="cls-3" d="m129.44,496.76c.39.21.62,2.97.08,5.31.19,2.34,1.56.88,2.38-1.11-.17-.08-.33-.09-.45-2.49-.26.83-.76,5.29-1.02,3.25-.05-3.18.26-2.59.55-4.13-.56,1.29-.52-4.08-1.28-3.43l.12,2.8c-.12.05-.25-.97-.39-.2Z"/>
          <path class="cls-3" d="m131.65,505.51v.99c.12-1.12.32-1.92.7-3.38-.11-1.65-.25-1.99-.37-2.11l-.29,4.85-.04-.34Z"/>
          <path class="cls-3" d="m131.45,510.92c-.39-.79-.46-3.16-1-1.73-.11,2.89.27,2.04.4,3.78.04-4.67.2,1.35.55-2.01.04.92.04,1.75.03,2.52.08-.84.16-1.65.27-2.41-.01.04-.02.07-.03.11v.02s0,0,0,0c-.06.2-.09.26-.06.04,0-.02,0-.07,0-.1-.06-.03-.11-.12-.15-.22.15-1.35.12-.21.15.22.02.02.04.05.06.06v-.02s0-4.68,0-4.68c-.11.99-.15,2.22-.21,4.42Z"/>
          <path class="cls-3" d="m128.62,534.35c.04-.14.07-.14.1-.15-.05-.3-.08-.42-.1.15Z"/>
          <path class="cls-3" d="m128.92,532.42c.05.34.22.63.15,1.74-.15.96-.21,0-.35.04.1.67.26,2.34.51.25l-.05-.33c.18-1.88.77-4.29.82-3.96-.4.54-.68,1.02-1.09,2.27Z"/>
          <path class="cls-3" d="m130.06,521.52l-.09-3.9-.43,1.97.23-.09c-.15,2.21.14,1.74.3,2.02Z"/>
          <polygon class="cls-3" points="132.23 500.32 132.66 500.86 132.13 498.58 132.23 500.32"/>
          <polygon class="cls-3" points="132.42 495.27 132.81 495.47 132.63 494.13 132.42 495.27"/>
          <path class="cls-3" d="m181.5,214.16l.26-1.12c-.14.53-.22.87-.26,1.12Z"/>
          <path class="cls-3" d="m178.82,222.04l.12.25c.02-.4,0-.57-.12-.25Z"/>
          <path class="cls-3" d="m146.44,371.86c.65-1.58,1.53-3.31,1.05-3.19l-.51.43c-.12,1.16-.32,2.03-.54,2.76Z"/>
          <path class="cls-3" d="m161.88,288.05c-.08.14-.17.29-.25.44.04.43.08.83.11,1.19.04-.49.09-1.05.14-1.63Z"/>
          <path class="cls-3" d="m160.44,286.45l.83-2.06c-.22.45-.49,1.12-.83,2.06Z"/>
          <path class="cls-3" d="m196.48,171.27l.06-1.41c-.74,1.96-.21,1.18-.06,1.41Z"/>
          <path class="cls-3" d="m136.36,443.6c.31-1.41.5-2.54.62-3.54-.42,1.7-.93,3.05-.62,3.54Z"/>
          <path class="cls-3" d="m184.81,218.73c.15-.69.16-1,.06-1.01-.16.71-.21,1.12-.06,1.01Z"/>
          <path class="cls-3" d="m137.43,435.92c-.06.25-.13.49-.19.74-.06,1.05-.1,2.11-.26,3.39.31-1.25.57-2.7.45-4.13Z"/>
          <path class="cls-3" d="m284.68,35.06c.11-.06.22-.15.32-.2,0-.07-.14.03-.32.2Z"/>
          <path class="cls-3" d="m326.15,10.66c-.38.27-1.03.68-1.64,1.07.31-.16.81-.48,1.64-1.07Z"/>
          <path class="cls-3" d="m133.89,474.96c-.04,1.07.04.17,0,0h0Z"/>
          <path class="cls-3" d="m131.84,480.05c-.03-.23-.08-.41-.18-.44.1.1.15.25.18.44Z"/>
          <path class="cls-3" d="m136.01,424.98s0-.06.01-.09c-.12.31-.1.25-.01.09Z"/>
          <path class="cls-3" d="m133.59,476.56c.08-.4.15-.86.22-1.36-.05.22-.12.63-.22,1.36Z"/>
          <path class="cls-3" d="m133.81,476.36c-.04.37-.07.66-.1.93.06.14.12.02.1-.93Z"/>
          <path class="cls-3" d="m133.99,473.47c-.05.61-.11,1.18-.18,1.73.04-.21.07-.29.08-.24.01-.31.04-.76.09-1.49Z"/>
          <path class="cls-3" d="m225.74,100.87c.05-.05.11-.11.16-.17.44-1.02.21-.6-.16.17Z"/>
          <path class="cls-3" d="m147.16,343.52c0,.05,0,.08,0,.12.01-.05.03-.11.05-.15l-.04.03Z"/>
          <path class="cls-3" d="m147.63,339.67c.19,1.72-.06,2.63-.43,3.83l1.49-1.01-1.06-2.82Z"/>
          <path class="cls-3" d="m187.96,195.31l-1.29,2.43c.5-3.31,1.52-5.47.14-3.25,1.14.82-3.42,10.01-2.25,10.82l-.86,1.6c.18-.48.13-.58.31-1.06-1.76,3.08.07,2.77-1.57,6.95-.6,1.45-1.14,2.42-.95,1.36l-.8,3.41c-.35.95-.49.64-.15-.31l-1.58,5.08-.03-.05c-.03.79-.27,2.52-.39,3.36-.6,1.22.07-.69-.2-.41l-.6,2.9c-.71,1.03-.28-1.39.4-3.31-2.13,2.2-.45,2.42-3,7.84l.68-2.7c-1.28,1.48-1.68,3.63-3.08,6.49.46-.64,3.05-5.65,2.41-2.5-.37.83-.77,1.95-1.02,3.68-.47-.13-.85,1.52-1.43,3.54l-.57-.33c-.48,2.24-.12,2.16-.23,3.53-.79,2.41-1.42,2.77-1.99,3.23-1.27,3.87,1.57-2.46.3,2.18-1.19,3.17-1.68,5.51-2.39,9.51-.85,2.22-.26-.51-.67.26l-.08,2.16c-.15.49-.26.29-.31.19-.29,1.76.58.32-.01,3.04.48.91-2.54,5.21-2.7,8.74-.41.77-.27-.5-.58-.31-.72,4.69-.67,4.01-.98,7.94l-1.25,3.08c1.08-2.22.84.92.61,3.65.44-.77.83-1.43,1.04-1.88l-.77,4.26c-.23.48-.34,0-.42-.75-.02.3-.04.58-.05.8-.62,1.44-.78.57-.84-.59.26-.47.52-.95.78-1.41-.1-1.13-.27-2.21-.69-2.08,0,.29-.08.83-.19,1.42-.03-.3-.08-.49-.17-.38-.1.12-.08.6-.1,1.32l-.94.77.21.3c-.64,1.79-1.23,3.58-1.82,5.38-.27,4.11-.08,7.79-1.32,14.09-.13-1.67-.75-.53-1.33-.76,1.05-1.55.91-4.9,1.83-8.11-.48,1.67-.68,1.23-.67.78l-.83,5.92c-.46-.25-.67,1.14-1.24,2.6,1.23-.92-.33,4.47-.56,6.9-.36.07-.57-.57.16-3.43-1.45,3.01.22,4.37-1.11,7.34.15-.7.29-1.07.18-1.39-.08,1.71-1.22,5.67-1.29,4.66l.15-.7c-1.23,4.63-3.04,14.25-2.37,15.11-.12.02-.88-.82-.99-1.14l1.07,8.92c-.56-.88-2.86,1.61-2.45-2.36-.34,1.09-.75,2.45-.93,4.86.25-.74,1.4-1.7,1.27-.64-1.34,2.71-.8,1.9-2.16,5.3.37-1.12,1.25.37.88,2.17-.11-.31-1.14-.06-1.13-.74l.25,4.71c.01-1.16-.9-.37-1.4.58.31-.43-.77,3.89-.86,5.11.19-.62.4-1.24.6-1.86-1.08,5.06.68,5.31-.25,10.35-.12-.65-1.15-1.76-1.73.79.38,1.28,1.81,5.67,1.53,10.21l-.46.81-.16,3.49c-.26-1.14-.61-3.28-.92-5.56-.29-2.28-.5-4.7-.57-6.4-.59,1.87-.47.47-.94,3.33-.48.96-.19-1.64-.07-2.48-.44,2.21-.91,4.42-1.31,6.63.71-.19-.12,5.21.47,5.04l.43-7.36c.7-.19,1.24,4.49.39,9.2-.45,1.16-1.04-1.08-1.28-1.02.13.65-.25,4.55-.48,4.96l-.05-2.06c-.66,2.6.22,4.43-.9,7.5-.19,1.09-1.3,3.15-.94,3.39,1-1.68,3.4-1.69,3.81-.42-.1.37-1.51,5.63-2.05,6.83-.84,1.72-1.05-2.9-1.77-1.43.17.09.26,1.12.28,1.54-.31,1.13-.5-.55-.76,1.96.62.51-.75,5.07.41,1.26-.14,2.47-.49,2.58-.85,5.45.55-.86,1.18,2.77,1.08,5.24-.15-.17-.44.36-.58.61-.65,5-1.28,7.66-1.84,12.33-.21.41-.64,2.65-.83,1.66.05.69.22,1.33.09,2.78-.87,2.73.23-3.23-.69-1.17.38.22.17,3.8.21,5.88.67-.57.6-4.74.56-6.83.84.08,1.36,3.76,1.25,8.68-.18,3.9-.71,1.63-.66,2.32-.9,7.28.87,6.35-.25,12.36-.74,2.36-1.08.02-1.51.52.06-3.19.74-4.84.9-6.99l-.47,2.62c-.09-1.02-.07-3.16.22-4.29-.69,1.97-1.13,12.35-2.05,17.96.09,1.02.16,2.76.43,1.96l.06-1.79c.56-1.61.33,3.4.71,1.16.14,2.42.45,5.14-.02,8.49l-.65.59c.18-.06.51-2.18.38-3.14.18,1.42-1.17,5.12-.47,6.71l.58-2.34c.15,2.43.6,5.44.22,8.41.69-1.32-.02-.69.82-2.77-1,1.79.54-7.63-.58-4.74.96-2.12.59-3.75,1.48-6.54-.21.07-.45.98-.19-1.52-.05-.12-.11-.39-.14-.56.01-.08.02-.1.03-.17-.01.05-.02.09-.03.14-.02-.11-.03-.12-.01.05-.13.59-.26,1.07-.39,1.26-.4-1.28-.1-5.26-.2-6.63.22-1.48.18.64.46-.16l-.19-2.04c.46-.16,1.07-3.89,1.04-.37l.28-3.15c.41-1.83.72-4.37.66-5.96.22-1.48-.18-3.8.06-2.47.03-1.66.14-3.31.2-4.96l.12-.03c.56-4.86.25-10.1,1.66-15.57.08-1.65.14-3.35.59-6.07l.45-.49c.11-2.11,1.13-6.25.84-7.21,1.26-2.14,1.56-10.14,2.24-13.79l-.48-.21c.38-2.53.55-4.98.8-8.16l-.47.13c.05-2.76,1.39-6.92,2-11.2.12.32-.09,1.4-.31,2.15.89-2.48,1.13-5.2,1.32-7.88.21-2.67.42-5.28,1.18-7.54.04-1.18.24-2.01.49-2.8-.02.11-.03.21-.03.29.02-.12.05-.29.09-.47.16-.5.33-1.01.51-1.56-.19.46-.36.91-.47,1.31.14-.89.32-2.25.44-3.59l.57-.48c.01-.11.02-.2.04-.31.4-1.27-.05-1.08-.52-.45.04-.68.05-1.31.01-1.8.93-.92.37-3.51,1.46-4.8-.23-.96.96-6.68.26-7.54.12-.02.24-.4.11.31.37-1.45.75-2.9.76-4.27l.72-.51-.19-3.37c.77-1.87,1.15-2.63,1.21-.61.26-4.8.52-3.83.64-7.94l.35.27c.28-1.42.23-3.79.73-4.58,1.32-3.02,3.55-15.62,6.08-23.56-1.52,1.3,1.43-3.63.62-4.16.38-.41.81-1.49.72-.13.74-4.18,1.94-6.08,1.89-9.1.38-.4.18.98.44.6.02-.34.09-1.37.35-1.75.26-.38.08.66.03,1.34.97-4.21.28-4.84-.41-5.34.92-2.03,1.15-3.1,1.05-4.77.45-.67,1.04-1.84.44.79.42-1.46,2.72-8.84,2.14-9.16.28-.42.58-2.03.61-2.44.93-3.27,1.09-3.53,1.93-6.76l-.35.86c-.39-1.47.59-2.72,1.23-5.33l.06.1c2.21-5.78.45-2.64,2.74-8.31l-.56.18c-.83-.83,2.14-4.99,2.77-8.48l-.63,1.14c.22-1.95,2.9-4.76,3.58-6.57.21-.38-.05.68-.16,1.26,2.04-4.67-.42-.81.54-4.47.53-.56.56,1.11,1.37-1.29.63-1.12,1.16-7.36,2.87-10.45-.48.65-.97,1.29-.61-.44.74-2.59,3.21-6.59,3.21-9.15.18-.3.28-.4.35-.39.46-2.01,1.82-6.44,1.81-7.75,2.17-1.25,3.47-12.33,4.91-11.77l2.07-5.98.09.21c1.48-3.76,1.63-5.23,1.78-6.69.42-.84.32-.15.37-.05,2.34-5.43,2.48-6,3.51-10.91l.65-.31c.1-.68,1.04-2.61,2.14-5.07.55-1.22,1.13-2.64,1.67-4.08.49-1.45.97-2.94,1.25-4.39.04.07.09.22.02.68,1.44-6.47,5.53-14.81,4.43-17.56l.7-4.26c-1.61,5.32-.54-1.01-1.43,1.12.48-2.14,2.07-5.29,1.42-2.68l-.2.38c.32.61.85-1.04,1.44-2.76.56-1.74,1.19-3.55,1.46-3.38,1.66-5.17,3.79-10.01,6.43-14.55,2.57-4.61,5.31-9.01,8.05-13.29l-1.26.6,1.97-2.97c.65-.69,1.16-.74-.24,1.37,1.07-.89,2.01-3.76,1.92-3.91,3.06-3.92-.39,2.07.5.83.35-.59.74-1.16,1.11-1.73l-.34.33c.71-1.54.54-1.84,2.31-4.32,1.22-1.5.93-.55,1.39-1.15.04.03.2-.17.71-.93l2.74-3.54-1.54,1.08c.97-1.76,2.56-3.36.79-2.1,1.28-.94,3.98-4.13,6.51-7.28,2.6-3.09,5.07-6.1,5.8-6.7,1.56-2.33,3.38-4.41,5.76-6.86-.67.53-1.5.46.6-1.62.25,1.72,4.11-3.54,6.52-4.49-1.96,1.04,5.81-6,2.82-4.3,1.84-1.63.45.25,2.02-.8,1.95-2.18,4.31-4.37,6.93-6.52,1.3-1.09,2.63-2.2,3.99-3.33,1.37-1.11,2.74-2.27,4.08-3.48-.03-.21-1.12.38-.12-.83,1.15-.61,2.31-1.21,3.48-1.78,1.04-.97.37-1.62,2.77-2.8-.38.12-.94.3-.24-.36,5.76-4.13,11.37-8.67,17.21-12.99,5.84-4.3,11.9-8.37,18.39-11.54-1.82.76-.75.03.5-.78-.86.45-.21-.38-.5-.48l5.46-2.62c.58-1.15,5.5-3.38,5.72-4.24l-1.58,1.07c1.8-1.95-3.9.41-4.08-.6-1.99,2.2-7.09,2.88-10.38,6.46-.98.4.57-.74-.01-.62-.78.99-1.93,1.84-4.25,3.16l.19-.25c-6.15,4.25-9.03,5.73-15.96,10.52h.78c-1.48,1.04-1.87,1.15-2.62,1.57-1.22,1.82,4.08-3.02,3.04-1.25-1.24.33-3.79,2.25-6.26,4.09-2.44,1.89-4.81,3.72-5.79,3.79-2.18,1.74.97-.1-1.19,1.66l-.76.24-.3.74c-1.45,1.11-2.39,1.41-2.61,1.26.36-.26.93-.85,1.28-1.17-1.03.62-2.3,1.7-3.4,2.68-1.08,1.01-1.99,1.91-2.34,2.13l2.15-1.61c-5.63,5.1-12.76,11.06-17.62,16.6l.55-.23c-1.84,2.12-2.68,2.87-3.59,3.64-.9.78-1.91,1.55-3.95,3.86l.12-.2c-.69,1.04-1.74,2.31-2.92,3.51.88-1.3-2.39,1.77-1.19.09-3.77,4.79-1.77,2.47-3.84,5.99l-.9.44c-.66,1.24-.58,1.46-2.5,3.84,1.39-2.12-1.7,1.12-.19-1.3-2.41,2.19-3.81,4.14-4.89,5.79-1.1,1.63-1.97,2.88-3.36,3.67-1.04,2.94,3.94-4,3.07-2.57,1.13-.87-.93,2.38-2.27,3.89-1.24,1.63-3.16,1.98-6.23,6.18.3-.42.25-.5.57-.91-1.35,1.42-1.9,3.32-3.62,5.03-.26,1.44-1.79,2.53-1.33,3.3.79-1.38,1.69-2.68,2.54-4.02-.68,1.17-1.22,2.38-1.89,3.77-.66,1.39-1.5,2.91-2.89,4.65.05-.38.59-1.6.99-2.42-.9.96-1.23,2.18-2.16,3.19-.45-.73,2.95-4.98,4.1-7.69-1.12.94-2.52,4.91-2.46,3.2-.21,2.36-2.95,4.21-3.99,7.7l-.29-.44c-.22.52-.62,1.63-1.15,2.5l.42-1.91c-.5,1.37-1.31,2.48-2.12,3.6-.77,1.13-1.57,2.24-2.1,3.52,2.72-5.07,1.11-.86,2.57-2.83-1.4,3.26-2.15,4-3,4.83-.84.81-1.85,1.72-3.4,5.48.34-1.05,2-3.61,1.45-1.97-.76,1.34-1.71,3.14-2.31,3.91-1.86,5,.75-.58.19,1.64-1.22,1.47-.7,2.52-1.3,4.75l-.46-.14c-2.15,5.62.44,1.81-1.48,6.84-.01-.79,0-1.58,0-2.37-.22.91-.44,1.83-.63,2.74l-.37-.71c-.45,3.05-.8,3.93-1.72,6.76.51-.58.74.6.09,3.14-.73,1.65-.19-1.08-1.07,2.52-.08-.88-.21-1.87.63-3.32-.11-.2-.08-.88-.19-1.08-.81,1.78-1.31,4.65-1.65,5.95.15-.49.33-1.08.48-1.37l-.76,5.34c-.4.76-.36.08-.32-.6-.23,1.06-.24,1.83-.64,3.37-.26-.5-.68-.53-.23-2.72-.33,1.66-.65,3.32-1.02,4.97-.25.28-1.23,2.32-1.17,1.65-.54,1.28-.9,2.95-1.37,4.71-.45,1.77-1.02,3.7-1.82,5.41,0,.21-.07.6-.3,1.38-1.33,3.29-2.89,6.06-3.84,10.19l-1.49,2c-.98,3.15,1.94-2.73.3,2.51-1.13,3.72-1.06,1.16-1.71,2.37-.33,1.94-.79,5.34-2.53,8.5.27-1.16.68-1.99,1.01-3.05Zm-12.76,38.58c.14-.78.32-2.37.77-2.83.25,1.02-.21,1.6-.77,2.83Zm-15.71,59.7c-.02-.61.27-1.47.71-2.41-.16.72-.38,1.53-.71,2.41Zm-25.02,169.61s-.01-.06-.02-.09c.33-1.73.21-1.11.02.09Zm-.51,3.6c.04.37.11.35.19.2-.1-.26-.04-1.08.07-2-.15.25-.27.71-.26,1.8ZM234.88,93.23l-.51.5c.8-1.38.67-.93.51-.5Z"/>
          <path class="cls-3" d="m160.6,286.66c.14-.19.24-.23.34-.26,0-.32-.09-.35-.34.26Z"/>
          <path class="cls-3" d="m196.47,171.53l.05-.11c0-.07-.02-.12-.04-.15v.26Z"/>
          <path class="cls-3" d="m135.98,410.34c.17-.73.31-1.14.44-1.4-.11-.06-.26.27-.44,1.4Z"/>
          <path class="cls-3" d="m133.39,486.06l.03-2.33c-.05,1.12-.18,1.52-.29,2.08.12-.04.31-.48.27.25Z"/>
          <path class="cls-3" d="m129.32,506.07c.04.34-.03.72.02,1.06l.23-.08c.05-1.45-.08-2.47-.24-.98Z"/>
          <path class="cls-3" d="m131.65,488.11c-.42.16-.38,1.63-.41,3.26,0-.1.01-.19.02-.29.54.51.46-1.23.39-2.97Z"/>
          <path class="cls-3" d="m131.23,491.74c-.01.5-.04,1.02-.08,1.51.22.2.07-.61.08-1.51Z"/>
          <path class="cls-3" d="m133.85,471.42c-.17.76.48.52.28.95.44.9-.2-5.18-.28-.95Z"/>
          <polygon class="cls-3" points="130.23 489.34 130.76 488.79 130.42 487.85 130.23 489.34"/>
          <path class="cls-3" d="m131.43,476.51l-.31,2.59c.09-.03.11.3.12.71.12-1.6.34-3.35.18-3.3Z"/>
          <path class="cls-3" d="m131.25,479.81c-.06.83-.11,1.63-.05,2.1.02-.45.07-1.43.05-2.1Z"/>
          <polygon class="cls-3" points="130.31 485.78 130.46 485.01 130.62 483.18 130.31 485.78"/>
          <path class="cls-3" d="m133.94,448.58l.14-2.85c-.14-.31-.32.46-.36,1.52.05.69.01,1.75.22,1.33Z"/>
          <path class="cls-3" d="m131.73,457.02c.17-.76.28-.8.48-1.22l-.61-.14.13,1.36Z"/>
          <path class="cls-3" d="m132.4,448.74c-.14-.3-.08-4.17-.4-.57.14.3,0,3.16.4.57Z"/>
          <polygon class="cls-3" points="138.26 406.2 138.17 406.92 139.19 406.96 138.26 406.2"/>
          <path class="cls-3" d="m141.77,368.42c-.81,3.29.48.9-.33,3.86.1.82.67-2.42.73-1.58.1-2.05.42-3.09-.4-2.28Z"/>
          <path class="cls-3" d="m142.17,370.69c-.02.33-.03.68-.02,1.05.04-.59.04-.88.02-1.05Z"/>
          <polygon class="cls-3" points="333.18 6.99 335.14 6.07 333.77 6.49 333.18 6.99"/>
          <path class="cls-3" d="m336.35,4.22l.77.3.82-1.16c-.41.27-1.2.8-1.59.86Z"/>
          <path class="cls-3" d="m172.16,239.28l.1.21c.26-.27.41-.76.74-1.73l-.84,1.52Z"/>
          <polygon class="cls-3" points="181.78 211.36 181.6 211.83 182.47 211.13 181.78 211.36"/>
          <path class="cls-3" d="m189.36,187.77c-.37.94-.65,2.1-1.02,3.05.65-2.11,1.8-3.05,1.02-3.05Z"/>
        </g>
      </g>
      <g class="cls-2">
        <path class="cls-3" d="m339.16,3.44c-1.13.6-.52.74-.65.9,1.81-1.14.55-.96.65-.9Z"/>
      </g>
    </g>
  </g>
</svg>