<?xml version="1.0" encoding="UTF-8"?>
<svg xmlns="http://www.w3.org/2000/svg" viewBox="0 0 841.89 595.28">
  <defs>
    <style>
      .cls-1 {
        isolation: isolate;
      }

      .cls-1, .cls-2 {
        fill: none;
      }

      .cls-3 {
        fill: #f671b7;
      }

      .cls-2 {
        mix-blend-mode: color-burn;
      }
    </style>
  </defs>
  <g class="cls-1">
    <g id="Layer_1" data-name="Layer 1">
      <g class="cls-2">
        <g>
          <path class="cls-3" d="m448.45,595.03c.91.54.78,0,.96,0-1.6-.77-.97.11-.96,0Z"/>
          <polygon class="cls-3" points="432.66 587.52 433.02 587.52 430.56 586.66 432.66 587.52"/>
          <path class="cls-3" d="m418.34,579.74c1.01,1.37,5.24,2.73,7.67,4.33l.34.37,1.43.12c-3.15-1.6-7.36-3.45-9.44-4.82Z"/>
          <path class="cls-3" d="m411.48,574.2c.33.5-1.76-.7,1.73,1.05-.16-.12-.2-.16-.29-.24-.31-.17-.73-.4-1.44-.82Z"/>
          <path class="cls-3" d="m412.92,575.02c1.51.81-.87-.75,0,0h0Z"/>
          <path class="cls-3" d="m405.94,571.3l2.09.89c-.33-.37-2.06-1.39-1.35-1.13-2.08-1.02-1.75-.64-.73.24Z"/>
          <path class="cls-3" d="m403.82,570.7l1.07.48c-.14-.16-.4-.33-1.07-.48Z"/>
          <path class="cls-3" d="m407.16,572.21l-2.27-1.02c.23.26.14.48,1.03.49-.28.08.25.15,1.24.53Z"/>
          <path class="cls-3" d="m408.33,572.99c1.03.76,2.4,1.64.31.75,3.82,2.02,3.5,1.28-.31-.75Z"/>
          <path class="cls-3" d="m417.25,579.99l1.39,1,1.4.49c-.7-.25-2.78-1.73-2.79-1.49Z"/>
          <path class="cls-3" d="m393.99,563.95c-.2.06.44.73.49.99l1.52.7c-.68-.53-2.03-1.43-2.01-1.69Z"/>
          <path class="cls-3" d="m394.48,564.93l-2.27-1.05c1.9,1.16,2.31,1.26,2.27,1.05Z"/>
          <polygon class="cls-3" points="403.08 571.19 406.92 572.73 402.39 570.8 403.08 571.19"/>
          <polygon class="cls-3" points="385.9 559.01 387.28 559.45 384.87 558.59 385.9 559.01"/>
          <path class="cls-3" d="m380.56,555.7c1.03.31-.93-1.18.09-.74-1.47-.86-2.81-1.47-4.03-2.01,1.23.67,2.44,1.52,3.94,2.75Z"/>
          <path class="cls-3" d="m374.61,552c.62.33,1.29.62,2.01.95-.65-.35-1.31-.68-2.01-.95Z"/>
          <path class="cls-3" d="m388.62,561.63c-.12-.18-.31-.58-1.44-1.39l.61.88c.25.16.54.34.83.52Z"/>
          <path class="cls-3" d="m387.82,561.14l-.02-.03c-.9-.57-1.52-.96-1.79-1.13.23.15.77.49,1.81,1.16Z"/>
          <path class="cls-3" d="m388.83,561.76c-.08-.05-.13-.08-.21-.13.06.09.1.13.21.13Z"/>
          <path class="cls-3" d="m397.61,567.59c-1.39-.52-4.14-1.87-1.78-.05,1.05.28-.3-.75,1.78.05Z"/>
          <path class="cls-3" d="m389.59,562.85c.73.49,1.47.97,2.22,1.45.01-.12-.31-.51.37-.24-.87-.4-1.73-.79-2.59-1.21Z"/>
          <polygon class="cls-3" points="388.42 562.29 389.59 562.85 388.78 562.31 388.42 562.29"/>
          <path class="cls-3" d="m378.14,554.84c-1.05-.48-2.1-1.15-3.28-1.91,1.21.9,2.48,1.82,3.72,2.63.25,0,.92.15-.44-.72Z"/>
          <path class="cls-3" d="m382.8,557.96c-.07-.04-.16-.08-.23-.12.11.11.21.19.23.12Z"/>
          <path class="cls-3" d="m363.52,544.98c.05.07.09.13.13.19.03,0,.05-.02.09-.03l-.22-.17Z"/>
          <path class="cls-3" d="m378.75,555.75c.91.68,1.54.96,2.16,1.19-.74-.42-1.51-.88-2.33-1.4-.11,0-.15.02.17.2Z"/>
          <path class="cls-3" d="m371.3,550c.44.41.93.87,1.48,1.31-.41-.42-1.24-1.28-1.48-1.31Z"/>
          <path class="cls-3" d="m382.32,557.54c.05.03.1.05.15.08-.26-.28-.25-.21-.15-.08Z"/>
          <path class="cls-3" d="m382.32,557.54c-.53-.26-.97-.42-1.41-.59.6.34,1.17.65,1.67.9-.1-.1-.2-.22-.26-.31Z"/>
          <path class="cls-3" d="m358.49,544.68c.4-.19,3.03,1.29,4.87,3.17,2.23,1.27,1.64-.78.29-2.67-.17.09-.26.22-2.5-1.14.6.71,4.37,3.84,2.38,2.83-2.91-1.89-2.2-1.8-3.43-2.96.83,1.28-3.93-2.11-3.77-1.09l2.56,1.67c-.02.13-1-.41-.4.19Z"/>
          <path class="cls-3" d="m367.65,548.11l.91.57c-.96-.76-1.6-1.37-2.71-2.58-1.55-.9-1.93-1-2.11-.97,1.4,1.06,2.81,2.12,4.25,3.13l-.33-.16Z"/>
          <path class="cls-3" d="m372.51,551.44c-.94-.11-3.15-1.45-2.12-.15,2.61,1.78,2.03.94,3.7,1.85-4.29-2.73,1.35.61-1.57-1.63.87.49,1.63.97,2.35,1.43-.73-.55-1.43-1.09-2.08-1.62.03.03.06.06.08.09h.02s0,.02,0,.02c.15.17.19.23,0,.07-.02,0-.07-.04-.09-.05-.06.03-.17.02-.28,0-1.16-.9-.13-.22.28,0,.03,0,.07,0,.09-.02v-.02c-1.46-.88-2.88-1.8-4.32-2.71.85.66,1.96,1.43,3.95,2.75Z"/>
          <path class="cls-3" d="m393.01,566.95c-.12-.11-.1-.14-.09-.17-.31-.12-.44-.16.09.17Z"/>
          <path class="cls-3" d="m391.33,565.65c.35.14.71.15,1.72.8.84.65-.11.18-.13.32.69.27,2.35,1.04.49-.31l-.34-.13c-1.7-1.17-3.69-2.99-3.35-2.86.31.65.62,1.16,1.61,2.18Z"/>
          <path class="cls-3" d="m381.62,558.68l-3.7-2.11,1.62,1.48.03-.25c1.99,1.38,1.7.86,2.05.88Z"/>
          <polygon class="cls-3" points="363.25 544.52 363.97 544.49 361.63 543.56 363.25 544.52"/>
          <polygon class="cls-3" points="358.83 541.27 359.23 541.08 357.94 540.38 358.83 541.27"/>
          <path class="cls-3" d="m194.22,280.64l-.35-1.22c.15.58.25.95.35,1.22Z"/>
          <path class="cls-3" d="m195.93,289.63l.24.18c-.2-.39-.32-.54-.24-.18Z"/>
          <path class="cls-3" d="m272.65,438.03c-.64-1.75-1.23-3.78-1.49-3.36l-.07.7c.74,1.04,1.21,1.9,1.56,2.65Z"/>
          <path class="cls-3" d="m223.49,358.87c.04.17.08.36.12.54.33.33.65.64.93.91-.32-.44-.67-.93-1.05-1.45Z"/>
          <path class="cls-3" d="m221.3,358.52l-.83-2.28c.15.53.42,1.26.83,2.28Z"/>
          <path class="cls-3" d="m189.13,230.98l-.47-1.47c.04,2.31.25,1.29.47,1.47Z"/>
          <path class="cls-3" d="m318.22,502.49c-.89-1.3-1.66-2.27-2.33-3.14,1.01,1.61,1.74,2.99,2.33,3.14Z"/>
          <path class="cls-3" d="m199.41,283.31c-.22-.73-.37-1.04-.46-1,.22.76.38,1.18.46,1Z"/>
          <path class="cls-3" d="m313.04,495.85c.15.24.29.47.44.71.78.84,1.55,1.7,2.41,2.8-.74-1.2-1.65-2.51-2.85-3.5Z"/>
          <path class="cls-3" d="m224.03,54.56c.08-.11.16-.25.24-.34-.03-.06-.12.1-.24.34Z"/>
          <path class="cls-3" d="m256.94,13.39c-.28.43-.77,1.11-1.23,1.76.25-.29.63-.82,1.23-1.76Z"/>
          <path class="cls-3" d="m342.05,526.94c.89.75.17.09,0,0h0Z"/>
          <path class="cls-3" d="m345.15,531.98c-.22-.13-.4-.21-.49-.15.14-.01.31.04.49.15Z"/>
          <path class="cls-3" d="m303.7,488.34s-.04-.05-.06-.08c.15.33.12.27.06.08Z"/>
          <path class="cls-3" d="m343.23,528.25c-.29-.33-.64-.7-1.03-1.08.16.18.47.51,1.03,1.08Z"/>
          <path class="cls-3" d="m343.19,527.94c.29.28.52.5.73.71.16.04.09-.08-.73-.71Z"/>
          <path class="cls-3" d="m340.86,525.84c.49.45.91.91,1.34,1.33-.15-.17-.21-.25-.15-.22-.25-.23-.6-.56-1.19-1.1Z"/>
          <path class="cls-3" d="m198.28,147.74c.03-.07.06-.16.09-.24.04-1.2-.03-.68-.09.24Z"/>
          <path class="cls-3" d="m252.86,414.28s.06.07.09.1c-.02-.05-.06-.11-.08-.16v.05Z"/>
          <path class="cls-3" d="m250.39,410.84c1.39,1.26,1.87,2.17,2.47,3.39l.35-1.84-2.82-1.55Z"/>
          <path class="cls-3" d="m191.06,258.96l-.04,3.01c-1.07-3.52-1.1-6.16-1.36-3.3,1.42.28,1.42,11.58,2.95,11.79v1.99c-.06-.56-.15-.64-.22-1.19-.06,3.89,1.38,2.68,1.96,7.57.22,1.71.25,2.92-.13,1.8l1.04,3.71c.18,1.1-.1.88-.28-.22.42,1.9.75,3.83,1.24,5.72l-.05-.03c.4.77,1.14,2.54,1.48,3.41.14,1.49-.31-.69-.39-.29l1.04,3.08c-.05,1.37-.98-1.17-1.43-3.36-.32,1.62-.09,2.26.31,3.31.41,1.05.92,2.51,1.43,5.76l-.96-2.92c-.24,2.1.67,4.34,1.11,7.83.02-.87-.65-7.02.6-3.71.16.98.46,2.26,1.22,4.01-.45.15.11,1.92.86,4.11l-.66.03c.93,2.34,1.18,2.06,1.9,3.38.78,2.68.49,3.39.29,4.16,1.35,4.28-.26-3.18,1.58,1.79.5,1.79,1.04,3.29,1.67,4.84.67,1.54,1.46,3.13,2.43,5.13.72,2.51-.53-.28-.36.66.43.66.88,1.31,1.33,1.95.2.53-.01.42-.12.36.92,1.72.65-.09,1.97,2.66.93.49,1.5,6.17,3.78,9.28.22.92-.54-.25-.65.11,2.66,4.48,2.18,3.89,4.67,7.4l1.2,3.44c-.73-2.6,1.25.21,3.02,2.63-.22-.94-.4-1.75-.55-2.27l2.43,4.06c.16.56-.25.23-.83-.34.2.26.38.51.53.7.55,1.61-.17,1-1.04.08-.14-.57-.28-1.14-.42-1.7-.87-.87-1.75-1.65-1.98-1.27.2.24.53.74.85,1.31-.23-.23-.4-.36-.4-.2.01.17.36.55.86,1.17l-.15,1.29.37.1c.8,1.91,1.65,3.8,2.47,5.71,2.72,3.59,5.48,6.47,9.17,12.45-1.3-1.26-.93.09-1.51.31-.35-2-2.92-4.61-4.53-7.89.85,1.71.39,1.48.07,1.1,1.2,1.82,2.45,3.6,3.67,5.41-.51.12.33,1.4,1,2.98.24-1.61,2.97,3.89,4.57,6.02-.2.31-.84-.06-2.36-2.9,1.11,3.47,3.32,3.39,4.52,6.74-.4-.68-.57-1.07-.88-1.25,1.17,1.44,3.27,5.43,2.47,4.67l-.41-.67c2.54,4.58,8.16,13.66,9.29,13.89-.07.1-1.23-.06-1.54-.24l7.27,6.49c-1.05-.32-.91,3.27-3.5-.22.55,1.12,1.25,2.5,2.83,4.6-.35-.78-.19-2.36.46-1.4.95,3.14.77,2.11,2.22,5.83-.52-1.17,1.18-.55,2.2,1.18-.31-.18-.88.73-1.36.17l3.57,3.68c-.82-.96-.93.31-.62,1.43-.08-.56,2.24,3.7,3.04,4.78l-.89-1.94c2.83,4.9,4.27,3.93,7.19,8.71-.56-.45-2.1-.66-.71,1.83,1.19.8,5.4,3.44,8.46,7.35l.24.98,2.37,2.99c-1.99-1.52-7.15-6.11-9.67-8.82.91,1.93-.02.71,1.7,3.37.34,1.11-1.32-1.21-1.83-1.99,1.24,2.13,2.53,4.23,3.81,6.34.39-.64,3.61,4.39,3.95,3.84l-4.93-6.36c.4-.64,4.08,2.89,6.86,7.31.51,1.26-1.55-.17-1.68.04.57.44,3.1,3.9,3.23,4.39l-1.52-1.65c1.39,2.58,3.35,3.48,4.8,6.72.64,1.02,1.32,3.47,1.77,3.42-.48-2.07,1.27-3.72,2.48-2.97.1.19.83,1.6,1.62,3.12.8,1.51,1.63,3.15,1.87,3.82.66,1.97-2.89-1.61-2.34.07.19-.05,1.01.72,1.34,1.05.6,1.13-.77-.1.89,2.1.8-.01,3.23,4.59,1.22.73,1.73,2.07,1.58,2.39,3.48,4.93-.23-1.08,2.87,1.41,4.66,3.42-.24-.02-.05.59.05.89,1.66,2.2,2.88,3.94,4.08,5.63,1.22,1.68,2.45,3.29,4.07,5.29.17.47,1.59,2.53.69,1.89.56.5,1.16.88,2.22,2.07,1.56,2.72-2.38-2.63-1.39-.4.43-.1,3.1,2.77,4.76,4.32.01-.93-3.33-4.03-4.97-5.61.61-.52,3.88,1.88,7.65,5.68,2.99,3.03.83,1.73,1.41,2.21,2.64,3,4.06,4.01,5.32,4.93,1.28.9,2.42,1.68,4.51,4.27,1.45,2.26-.68.84-.55,1.53-2.56-2.36-3.51-4.03-5.11-5.75.58.78,1.2,1.53,1.81,2.28-.92-.65-2.59-2.27-3.32-3.32.29.49.99,1.37,1.96,2.47,1,1.08,2.26,2.39,3.61,3.79,2.66,2.84,5.87,5.83,7.94,8.14.91.64,2.43,1.79,1.92,1.02l-1.47-1.3c-1-1.56,3.07,2.1,1.42.25,2.13,1.55,4.66,3.11,7.24,5.74l.12.92c.06-.19-1.56-1.87-2.46-2.42.66.41,1.58,1.5,2.56,2.56,1.01,1.02,2.08,2,2.99,2.23l-1.72-1.97c2.24,1.42,5.09,3.03,7.56,5.15-.79-1.39-.64-.4-2.01-2.38.99,1.96-6.37-5.31-4.49-2.56-1.32-2.11-2.88-2.95-4.74-5.51-.06.21.56,1.02-1.41-.86-.13-.04-.4-.17-.57-.26-.06-.06-.08-.08-.13-.13.03.04.06.07.1.12-.11-.06-.12-.06.04.04.43.5.75.92.83,1.15-.66-.28-1.81-1.13-2.93-2.03-1.1-.93-2.19-1.9-2.8-2.32-1.11-1.19.65.3.16-.47l-1.84-1.26c.15-.48-2.59-3.51.35-1.06-.81-.8-1.66-1.57-2.45-2.4-1.23-1.62-3.09-3.68-4.43-4.77-1.08-1.2-3.17-2.63-1.96-1.83l-3.84-3.79.05-.11c-1.82-1.94-3.69-3.94-5.63-6.01-.96-1.04-1.92-2.12-2.84-3.26-.9-1.16-1.76-2.39-2.56-3.69-1.2-1.33-2.53-2.64-4.26-5.1l-.05-.7c-1.51-1.74-3.92-5.69-4.83-6.25-.32-1.31-1.93-3.59-3.74-5.96-1.82-2.37-3.75-4.91-4.85-6.6l-.5.17c-1.6-2.28-3.21-4.42-5.33-7.17l-.25.43c-2.01-2.25-4.01-6.57-6.66-10.49.32.18.94,1.2,1.32,1.97-1.15-2.63-2.9-5.04-4.66-7.38-1.77-2.33-3.5-4.61-4.55-6.98-.82-1-1.26-1.81-1.65-2.63.06.1.13.19.19.26-.07-.11-.17-.28-.27-.45-.24-.52-.48-1.05-.74-1.63.19.51.39.99.59,1.39-.54-.83-1.37-2.07-2.23-3.26l.08-.79c-.07-.1-.12-.18-.19-.28-.61-1.32-.8-.86-.71-.02-.46-.59-.89-1.11-1.27-1.5.05-1.4-2.25-3.14-2.37-4.94-.86-.63-4.11-6.14-5.24-6.37.07-.1-.11-.5.31.18-.77-1.45-1.53-2.9-2.5-4.03l.16-.91-2.56-2.63c-.81-2.05-1.09-2.93.43-1.33-3.32-4.08-2.43-3.47-5.33-6.89l.45-.02c-.83-1.35-2.59-3.24-2.8-4.23-1.18-3.42-8.9-15.08-12.73-23.34-.16,2.11-1.6-3.93-2.56-3.81-.02-.6-.49-1.77.43-.61-2.48-3.91-2.95-6.3-5.12-8.75,0-.6.82.69.74.19-.22-.3-.89-1.19-.97-1.69-.07-.49.52.49.96,1.08-2.23-4.15-3.21-4.18-4.07-4.12-.75-2.31-1.33-3.35-2.58-4.66-.14-.86-.52-2.22.88.35-.35-.75-1.41-3.03-2.4-5.15-1.02-2.1-2-4.01-2.31-3.96-.07-.54-.92-2.11-1.17-2.48-1.53-3.37-1.57-3.71-3.09-7.02l.31.97c-1.28-1.01-1.38-2.7-2.56-5.38l.1.05c-2.03-6.42-1.35-2.59-3.15-9l-.32.5c-.6-.11-.98-1.54-1.38-3.39-.39-1.85-.92-4.07-1.65-5.86l.16,1.41c-.97-1.9-.43-6.03-.94-8.06-.05-.46.36.65.61,1.24-1.05-5.42-.86-.48-2.14-4.38.13-.82,1.08.7.42-1.97-.08-1.39-3.22-7.42-3.34-11.27-.07.87-.14,1.73-.76-.08-.37-1.42-.57-3.4-.85-5.32-.22-1.94-.5-3.82-1.15-5.04,0-.38.04-.53.1-.56-.31-1.08-.74-2.85-1.17-4.5-.38-1.67-.76-3.22-1.08-3.85.68-1.15-.1-4.54-.7-7.71-.58-3.16-1.15-6.08-.39-6.13-.32-2.27-.53-4.56-.73-6.84l.17.17c-.24-4.39-.78-5.91-1.2-7.44.05-1.02.23-.29.32-.21,0-3.22-.03-4.99-.18-6.62-.07-.82-.19-1.6-.33-2.51-.14-.91-.3-1.96-.5-3.31l.49-.57c-.16-.73,0-3.06.1-5.99.18-2.93.35-6.46.1-9.62.06.06.15.2.21.7-.24-3.55.34-7.79.66-11.46.42-3.67.68-6.77-.14-8.14-.05-1.57-.09-3.14-.08-4.71-.68,6.04-.71-.97-1.23,1.5.12-2.4,1.11-6.11.93-3.18l-.13.45c.84,1.16,1.02-7.49,1.66-7.26,1.21-11.89,3.51-23.31,5.5-34.31l-.95,1.14.74-3.83c.36-.98.82-1.25.27,1.48.68-1.36.52-4.65.38-4.76,1.34-5.29.43,2.25.77.61l.38-2.24-.18.49c.07-1.86-.23-2.09.48-5.36.57-2.04.66-.97.86-1.78.05.02.13-.26.28-1.25l1.1-4.79-.98,1.8c.18-2.19,1.02-4.51-.11-2.44.85-1.52,1.95-5.97,2.98-10.28,1.04-4.3,2.01-8.46,2.41-9.41.36-3.06,1.13-5.98,2.16-9.57-.36.87-1.14,1.23-.21-1.86.97,1.49,2.14-5.54,3.8-7.77-1.28,2.05,2.43-8.83.53-5.59.88-2.55.53-.01,1.42-1.87.69-3.12,1.77-6.52,3.07-9.94,1.24-3.44,2.9-6.9,4.41-10.49-.11-.19-.92.88-.43-.74.87-1.11,1.7-2.24,2.6-3.32.64-1.4-.26-1.74,1.63-3.94-.33.28-.81.69-.35-.24,8.12-13.04,16.71-26.75,27.18-38.72-1.52,1.55-.72.36.22-.97-.69.81-.34-.27-.66-.24l4.41-4.95c.17-1.36,4.11-5.74,4.01-6.68l-1.13,1.76c1.03-2.69-3.62,2.17-4.16,1.28-1.13,3.02-5.88,5.92-7.84,10.78-.81.8.31-.96-.22-.6-.42,1.29-1.27,2.61-3.11,4.85l.11-.33c-4.68,6.67-7.09,9.23-12.5,16.7l.78-.3c-1.17,1.6-1.51,1.87-2.12,2.58-.32,1.15.45-.01,1.24-1.18.81-1.16,1.64-2.33,1.39-1.26-1.14.81-3.09,3.7-4.9,6.56-.92,1.42-1.8,2.84-2.56,3.97-.76,1.13-1.43,1.94-1.88,2.2-1.51,2.67.92-.51-.59,2.15l-.66.56-.04.86c-.99,1.74-1.79,2.47-2.05,2.43.25-.42.58-1.26.81-1.74-1.57,2.14-3.21,6.65-3.67,7.43.45-.88.96-1.73,1.43-2.6-1.73,3.83-3.57,8.13-5.05,12.54-1.49,4.4-2.68,8.71-3.57,12.63l.39-.52c-1.33,5.97-1.63,4.62-3.28,11.12v-.25c-.13,1.35-.51,3.1-1.01,4.87.19-1.7-1.32,2.94-1.02.72-1.3,6.51-.51,3.26-.82,7.69l-.61.88c-.04,1.53.1,1.69-.62,4.96.36-2.74-1.07,1.93-.73-1.15-2.48,6.63-1.66,10.33-3.52,13.2.28,3.37,1.91-5.8,1.73-3.99.67-1.39.13,2.76-.44,4.89-.51,2.18-2.12,3.43-3.27,8.97.12-.55.05-.6.17-1.15-.68,2.02-.5,4.12-1.41,6.59.32,1.55-.69,3.3.02,3.86l.82-5.12c-.37,2.92,0,5.79-1.3,10.46-.09-.4-.04-1.85.03-2.84-.5,1.35-.34,2.7-.83,4.1-.72-.55.95-6.22.97-9.42-.64,1.43-.55,5.96-1.1,4.24.65,2.43-1.16,5.45-.96,9.37l-.43-.33c-.02.61,0,1.89-.2,2.98l-.28-2.09c.03,3.15-1.44,5.83-1.59,8.82.94-6.16.78-1.3,1.53-3.84-.32,3.83-.73,4.88-1.27,6.04-.53,1.15-1.12,2.42-1.61,6.7.1-1.16.89-4.3.86-2.46-.34,1.61-.8,3.73-1.15,4.7-.57,5.68.59-.81.59,1.64-.8,1.86-.09,2.81-.2,5.31l-.48-.03c-.98,6.43.82,1.81-.11,7.59l-.44-2.52-.11,3.05-.49-.68c.1,3.34-.12,4.36-.48,7.59.39-.73.84.49.67,3.35-.42,1.94-.38-1.12-.59,2.95-.24-.93-.55-1.97.01-3.71-.14-.19-.24-.93-.38-1.12-.46,2.09-.46,5.3-.5,6.78.04-.57.1-1.25.19-1.59.11,1.98.28,3.97.41,5.94-.22.92-.33.18-.45-.56,0,1.2.19,2.04.16,3.8-.37-.47-.78-.37-.87-2.88.08,1.89.11,3.77.23,5.66-.17.37-.5,2.89-.64,2.15-.26,3.14.62,7.69.45,11.84.08.21.16.65.23,1.53-.07,3.9-.35,7.38.41,11.97l-.57,2.67c.43,3.6.6-3.6,1.34,2.39.57,4.23-.47,1.63-.54,3.14.26,1.05.65,2.47.94,4.13.29,1.66.58,3.54.51,5.52-.28-1.28-.29-2.3-.48-3.5Zm8.29,43.87c-.32-.81-1.08-2.4-.97-3.08.79.82.74,1.61.97,3.08Zm26.31,62.27c-.44-.49-.83-1.41-1.18-2.48.41.7.82,1.52,1.18,2.48Zm106.98,153.21s-.05-.03-.08-.05c-1.19-1.49-.77-.96.08.05Zm2.62,2.96c.33.23.36.16.29,0-.29-.1-.93-.71-1.6-1.47.11.28.39.73,1.31,1.47ZM203.9,136.06l-.28.73c.22-1.73.24-1.23.28-.73Z"/>
          <path class="cls-3" d="m221.57,358.59c-.04-.25.01-.35.07-.45-.23-.27-.31-.23-.07.45Z"/>
          <path class="cls-3" d="m189.22,231.25v-.14c-.03-.07-.06-.11-.09-.14l.09.27Z"/>
          <path class="cls-3" d="m292.76,476.65c-.42-.71-.61-1.14-.71-1.44-.12.03.01.39.71,1.44Z"/>
          <path class="cls-3" d="m351.26,534.68l-2.02-1.51c.95.76,1.22,1.12,1.65,1.57.03-.12-.24-.55.37-.06Z"/>
          <path class="cls-3" d="m366.91,550.41c.34.17.65.45.99.61l.05-.24c-1.31-.9-2.32-1.38-1.03-.37Z"/>
          <path class="cls-3" d="m352.04,537.41c-.09.43,1.19,1.38,2.65,2.39-.08-.07-.16-.13-.25-.19.76-.12-.85-1.13-2.4-2.2Z"/>
          <path class="cls-3" d="m355.02,540.05c.44.32.89.66,1.3,1,.3-.05-.5-.45-1.3-1Z"/>
          <path class="cls-3" d="m339.06,524.54c.53.66.74-.01.97.43,1.03.27-4.47-3.41-.97-.43Z"/>
          <polygon class="cls-3" points="352.31 539.37 352.13 538.57 351.1 538.25 352.31 539.37"/>
          <path class="cls-3" d="m341.86,529.92l2.04,1.99c.02-.09.33.11.68.38-1.3-1.18-2.67-2.53-2.72-2.37Z"/>
          <path class="cls-3" d="m344.58,532.29c.68.61,1.33,1.18,1.77,1.46-.37-.32-1.18-1.02-1.77-1.46Z"/>
          <polygon class="cls-3" points="349.2 537 348.62 536.38 347.1 535.06 349.2 537"/>
          <path class="cls-3" d="m320.47,508.04l-2.13-2.26c-.34-.13.14.58.94,1.42.58.49,1.38,1.32,1.19.85Z"/>
          <path class="cls-3" d="m325.8,515.93c-.49-.69-.45-.81-.65-1.28l-.52.35,1.17.92Z"/>
          <path class="cls-3" d="m319.56,509.3c-.33-.12-3.33-3.11-.72-.13.32.15,2.55,2.35.72.13Z"/>
          <polygon class="cls-3" points="291.37 471.74 291.84 472.38 292.61 471.7 291.37 471.74"/>
          <path class="cls-3" d="m266.75,438.36c1.74,3.27.99.42,2.5,3.41.66.61-1.24-2.45-.59-1.8-1.39-1.76-1.88-2.83-1.91-1.61Z"/>
          <path class="cls-3" d="m268.67,439.97c.22.28.46.58.73.88-.4-.51-.6-.75-.73-.88Z"/>
          <polygon class="cls-3" points="262.47 6.7 264.03 4.91 262.86 5.94 262.47 6.7"/>
          <path class="cls-3" d="m264.53,2.57l.85-.07.36-1.5c-.29.45-.86,1.32-1.21,1.57Z"/>
          <path class="cls-3" d="m199.85,309.61l.21.13c.04-.4-.1-.94-.36-2.04.05.64.08,1.28.16,1.91Z"/>
          <polygon class="cls-3" points="193.06 277.78 193.13 278.34 193.55 277.21 193.06 277.78"/>
          <path class="cls-3" d="m189.09,250.77c.07,1.11.3,2.41.37,3.53-.3-2.42.34-3.88-.37-3.53Z"/>
        </g>
      </g>
      <g class="cls-2">
        <path class="cls-3" d="m267.52-.22c-1.59,2.04-.69,1.55-.87,1.9,2.53-3.5.71-1.88.87-1.9Z"/>
      </g>
    </g>
  </g>
</svg>