<?xml version="1.0" encoding="UTF-8"?>
<svg xmlns="http://www.w3.org/2000/svg" viewBox="0 0 841.89 595.28">
  <defs>
    <style>
      .cls-1 {
        isolation: isolate;
      }

      .cls-1, .cls-2 {
        fill: none;
      }

      .cls-3 {
        fill: #f671b7;
      }

      .cls-2 {
        mix-blend-mode: color-burn;
      }
    </style>
  </defs>
  <g class="cls-1">
    <g id="Layer_1" data-name="Layer 1">
      <g class="cls-2">
        <g>
          <polygon class="cls-3" points="357.17 587.66 356.92 587.98 359.48 586.16 357.17 587.66"/>
          <path class="cls-3" d="m374.78,578.65c-1,.1-2.59.91-4.34,1.88-1.74.99-3.64,2.11-5.27,2.8l-.59.12-1.15,1.23c3.77-2.03,8.55-4.9,11.36-6.04Z"/>
          <path class="cls-3" d="m384.93,575.42c-.71.03,1.95-1.2-2.25.99.23-.07.3-.09.43-.13.38-.19.91-.44,1.82-.86Z"/>
          <path class="cls-3" d="m383.11,576.28c-1.87.92,1.33-.38,0,0h0Z"/>
          <path class="cls-3" d="m391.72,572l-2.38,1.39c.59-.1,2.81-1.1,2.04-.61,2.49-1.32,1.89-1.22.33-.78Z"/>
          <path class="cls-3" d="m393.85,570.42l-1.24.7c.25-.04.61-.18,1.24-.7Z"/>
          <path class="cls-3" d="m389.97,572.61l2.63-1.48c-.41.06-.55-.13-1.22.66.13-.3-.32.14-1.41.82Z"/>
          <path class="cls-3" d="m388.38,573.24c-1.46.52-3.29,1.3-.91-.12-4.69,2.37-3.77,2.48.91.12Z"/>
          <path class="cls-3" d="m375.36,577.55l-1.94.73-1.49,1c.75-.5,3.64-1.59,3.43-1.73Z"/>
          <path class="cls-3" d="m407.37,565.15c.09-.21-1.01.01-1.28-.08l-1.77,1c.99-.35,2.83-1.07,3.05-.93Z"/>
          <path class="cls-3" d="m406.1,565.07l2.65-1.49c-2.48,1.09-2.88,1.41-2.65,1.49Z"/>
          <polygon class="cls-3" points="393.95 569.5 389.68 572.11 394.82 569.08 393.95 569.5"/>
          <polygon class="cls-3" points="417.94 560.38 416.51 561.41 419.09 559.67 417.94 560.38"/>
          <path class="cls-3" d="m424.92,557.17c-1.04.79,1.8-.26.64.45,1.89-.9,3.41-1.86,4.79-2.72-1.51.81-3.18,1.53-5.43,2.27Z"/>
          <path class="cls-3" d="m432.68,553.5c-.75.41-1.51.89-2.33,1.4.8-.43,1.58-.89,2.33-1.4Z"/>
          <path class="cls-3" d="m413.49,561.5c.25-.01.76.02,2.36-.59l-1.26.1c-.33.15-.71.32-1.09.49Z"/>
          <path class="cls-3" d="m414.54,561.02h.04c1.19-.53,2.01-.89,2.36-1.04-.3.13-1.03.45-2.41,1.04Z"/>
          <path class="cls-3" d="m413.21,561.63c.1-.05.18-.08.27-.12-.12,0-.19.03-.27.12Z"/>
          <path class="cls-3" d="m401.33,566.5c1.52-.96,4.79-2.76,1.37-1.58-1.04.8.92.13-1.37,1.58Z"/>
          <path class="cls-3" d="m411.64,561.75l-2.97,1.25c.1.08.7-.01-.05.46l3.03-1.71Z"/>
          <polygon class="cls-3" points="413.02 560.98 411.64 561.75 412.75 561.29 413.02 560.98"/>
          <path class="cls-3" d="m427.47,555.39c1.2-.74,2.58-1.38,4.14-2.11-1.72.68-3.48,1.42-5.13,2.16-.18.23-.81.77.99-.05Z"/>
          <path class="cls-3" d="m421.17,558.09c.08-.05.19-.11.27-.15-.19.05-.33.1-.27.15Z"/>
          <path class="cls-3" d="m447.09,546.35c-.1.01-.18.03-.28.04,0,.03-.01.06-.03.09l.31-.13Z"/>
          <path class="cls-3" d="m426.17,555.5c-1.3.49-2.01.93-2.68,1.37.93-.46,1.92-.94,3-1.42.08-.1.08-.15-.32.05Z"/>
          <path class="cls-3" d="m436.92,551.38c-.7.21-1.48.48-2.29.77.7-.17,2.1-.56,2.29-.77Z"/>
          <path class="cls-3" d="m421.91,557.86c-.06.03-.12.07-.18.1.45-.1.38-.12.18-.1Z"/>
          <path class="cls-3" d="m421.91,557.86c.63-.35,1.09-.67,1.57-.99-.76.38-1.45.74-2.05,1.07.17-.04.34-.07.47-.08Z"/>
          <path class="cls-3" d="m450.65,541.73c-.06.46-3.23,2.3-6.28,3.2-2.71,1.54-.32,1.9,2.44,1.45.02-.2-.05-.34,2.76-1.87-1.11.27-6.66,2.44-4.35,1.01,3.77-1.92,3.21-1.3,5.17-1.95-1.79.27,4.6-2.87,3.46-3.15l-3.27,1.76c-.11-.07,1.04-.79.06-.46Z"/>
          <path class="cls-3" d="m441.25,548.84l-1.18.58c1.39-.55,2.44-.84,4.36-1.37,1.91-1.07,2.27-1.39,2.35-1.57l-5.92,2.6.39-.24Z"/>
          <path class="cls-3" d="m434.69,551.83c.76-.81,3.56-2.27,1.61-1.9-3.5,1.6-2.32,1.43-4.34,2.54,5.63-2.64-1.53.95,2.67-.66-1.08.57-2.08,1.04-3.02,1.48,1.04-.41,2.05-.79,3.01-1.13-.06.01-.09.02-.14.03h-.03s0,0,0,0c-.27.06-.36.07-.07-.03.02-.01.08-.05.11-.06.01-.07.1-.17.19-.26,1.68-.65.3-.01-.19.26-.01.03-.05.07-.04.09h.02s5.59-2.76,5.59-2.76c-1.23.49-2.73,1.17-5.38,2.41Z"/>
          <path class="cls-3" d="m405.33,562.69c.19-.05.2-.01.22,0,.34-.21.47-.31-.22,0Z"/>
          <path class="cls-3" d="m407.77,561.87c-.39.24-.66.56-2.02,1.12-1.22.41-.08-.19-.2-.29-.76.47-2.7,1.57-.08.6l.38-.24c2.34-.9,5.49-1.75,5.12-1.51-.83-.05-1.53-.03-3.2.31Z"/>
          <path class="cls-3" d="m421.34,556.65l4.64-2.31-2.56.74.21.15c-2.73,1.12-2.03,1.12-2.3,1.42Z"/>
          <polygon class="cls-3" points="447.72 546.3 447.28 547 449.75 545.18 447.72 546.3"/>
          <polygon class="cls-3" points="453.84 543.47 453.78 543.93 455.3 542.98 453.84 543.47"/>
          <path class="cls-3" d="m665.98,260.04l-.19-1.5c.07.71.13,1.17.19,1.5Z"/>
          <path class="cls-3" d="m666.09,270.96l.19.27c-.1-.51-.18-.71-.19-.27Z"/>
          <path class="cls-3" d="m594.36,456.2c1.85-1.31,4.05-2.68,3.53-2.8l-.8.18c-1.06,1.16-1.95,1.97-2.74,2.62Z"/>
          <path class="cls-3" d="m652.65,359.48c-.11.18-.23.37-.35.56-.05.56-.1,1.08-.14,1.55.15-.63.31-1.35.49-2.11Z"/>
          <path class="cls-3" d="m651.47,357.41l1.2-2.66c-.3.59-.69,1.44-1.2,2.66Z"/>
          <path class="cls-3" d="m656.17,201.41l-.95-1.55c.82,2.62.67,1.4.95,1.55Z"/>
          <path class="cls-3" d="m515.86,512.84c1.76-.79,3.13-1.48,4.31-2.12-2.14.92-3.95,1.5-4.31,2.12Z"/>
          <path class="cls-3" d="m670.67,264.24c-.1-.94-.19-1.34-.29-1.31.09.96.19,1.51.29,1.31Z"/>
          <path class="cls-3" d="m525,507.98c-.31.14-.61.28-.93.43-1.18.77-2.39,1.5-3.9,2.32,1.58-.69,3.36-1.52,4.83-2.75Z"/>
          <path class="cls-3" d="m519.74,42.16c-.14-.08-.3-.17-.43-.24-.07.04.13.12.43.24Z"/>
          <path class="cls-3" d="m464.78,10.45c.54.32,1.39.89,2.2,1.41-.37-.28-1.03-.72-2.2-1.41Z"/>
          <path class="cls-3" d="m478.56,532.22c-1.28.64-.18.14,0,0h0Z"/>
          <path class="cls-3" d="m471.53,533.65c.25-.17.44-.33.43-.43-.06.14-.21.29-.43.43Z"/>
          <path class="cls-3" d="m535.86,498.33s.06-.04.11-.06c-.41.15-.34.13-.11.06Z"/>
          <path class="cls-3" d="m476.53,532.97c.51-.18,1.09-.41,1.71-.67-.28.1-.8.3-1.71.67Z"/>
          <path class="cls-3" d="m476.88,533.03c-.45.2-.81.35-1.15.5-.13.14.03.12,1.15-.5Z"/>
          <path class="cls-3" d="m480.35,531.34c-.74.36-1.44.67-2.11.96.27-.09.38-.12.32-.08.38-.18.91-.45,1.79-.88Z"/>
          <path class="cls-3" d="m610.9,112.36c-.05-.08-.11-.17-.17-.26-1.07-.98-.64-.52.17.26Z"/>
          <path class="cls-3" d="m615.39,425.21c-.03.06-.05.09-.08.14.04-.05.1-.11.14-.16l-.06.02Z"/>
          <path class="cls-3" d="m618.1,420.9c-.83,2.07-1.56,3.07-2.66,4.3.68-.2,1.36-.39,2.01-.61l.64-3.69Z"/>
          <path class="cls-3" d="m663.51,234.02c.07,1.19.07,2.39.08,3.59-.55-2.1-.96-3.9-1.19-4.78-.23-.87-.3-.8-.32.89,1.54.29,1.82,13.68,3.11,14.06l-.08,2.37c-.05-.67-.13-.77-.18-1.44-.24,4.6,1.24,3.31,1.39,9.23.02,2.06-.16,3.5-.35,2.11l.43,4.57c0,1.33-.24,1.01-.24-.32.09,2.33.18,4.66.16,6.99l-.04-.05c.2,1,.5,3.27.63,4.38-.22,1.78-.13-.9-.31-.44.11,1.29.16,2.59.21,3.89-.21.78-.37.37-.45-.58-.07-.94-.09-2.41-.07-3.75-.69,1.79-.64,2.59-.55,3.92.09,1.33.26,3.19-.35,7.06.04-1.22,0-2.44.01-3.65-.84,2.31-.79,5.16-1.58,9.22.32-.94,1.83-8.13,1.85-3.93-.19,1.17-.36,2.72-.26,5.01-.46-.02-.56,2.19-.84,4.94l-.62-.26c-.14,2.99.21,2.79.31,4.58-.53,3.3-1.11,3.91-1.64,4.63-.84,5.26,1.3-3.54.54,2.74-.44,2.18-.8,4.03-1.05,6.02-.13.99-.24,2.02-.36,3.12-.15,1.1-.3,2.29-.48,3.61-.84,3.01-.27-.61-.68.45l-.05,2.81c-.15.66-.26.41-.31.29-.28,2.32.6.33-.07,3.93.23.56-.46,2.33-1.23,4.53-.8,2.2-1.78,4.79-1.98,7.08-.47,1.03-.24-.63-.56-.36-.27,1.54-.49,2.62-.69,3.47-.18.85-.31,1.47-.44,2.06-.24,1.18-.41,2.22-.82,4.78l-1.8,3.99c1.48-2.88.73,1.18-.03,4.73.62-.99,1.1-1.85,1.41-2.44-.49,1.86-1.06,3.69-1.63,5.53-.34.61-.34,0-.26-.98-.08.39-.16.75-.23,1.04-.94,1.84-.91.71-.73-.79.37-.61.74-1.21,1.1-1.8.15-1.45.14-2.86-.3-2.7-.06.37-.2,1.08-.46,1.82.03-.38.02-.63-.1-.5-.13.16-.21.76-.38,1.69l-1.12.97.15.39c-1.02,2.28-2,4.56-3.11,6.79-.7,2.59-1.17,5.1-2.04,7.89-.83,2.8-1.84,5.97-3.62,9.84.46-2.13-.57-.78-1.07-1.16.79-.9,1.49-2.39,2.15-4.18.66-1.79,1.36-3.85,2.32-5.82-1,2.06-1.07,1.48-.92.91l-1.33,3.69c-.43,1.24-.89,2.46-1.39,3.67-.38-.38-1.07,1.33-2.16,3.07.79-.47.3.91-.53,2.79-.89,1.85-2.13,4.19-2.74,5.67-.39.01-.33-.82,1.56-4.22-2.69,3.42-1.5,5.49-4.19,8.83.46-.83.76-1.25.8-1.66-.84,2.08-3.74,6.68-3.36,5.42l.46-.83c-.78,1.37-1.87,3.03-2.96,4.84-1.1,1.8-2.22,3.73-3.34,5.47-1.09,1.75-2.06,3.39-2.75,4.66-.69,1.27-1.15,2.15-1.11,2.47-.13-.01-.36-1.26-.28-1.67-1.4,3.58-2.75,7.26-4.33,10.81.02-1.23-3.67.74-.83-3.66-.99,1.13-2.21,2.53-3.93,5.2.7-.75,2.38-1.38,1.58-.22-2.99,2.55-2.01,1.82-5.53,5.06,1.09-1.09.9.96-.68,2.82.11-.4-.99-.58-.52-1.34-1,1.78-2.07,3.52-3.12,5.29.85-1.27-.54-.83-1.67-.03.28-.17-.56.83-1.65,1.97-1.1,1.14-2.4,2.47-2.91,3.09l1.94-1.68c-2.41,2.41-3.24,3.93-4.14,5.41-.9,1.47-1.8,2.95-4.24,5.32.43-.75.44-2.45-2.1-.13-.36.76-1.18,2.43-2.41,4.5-1.24,2.06-2.89,4.52-5.06,6.64l-1.09.51-3.27,3.32c.82-1.28,2.46-3.59,4.24-5.99.9-1.19,1.81-2.44,2.65-3.62.85-1.17,1.65-2.25,2.34-3.12-2.05,1.54-.79.2-3.57,2.81-1.19.68,1.21-1.76,2.02-2.53l-3.32,2.93-3.41,2.83c.74.25-4.69,4.96-4.11,5.13,2.34-2.22,4.59-4.55,6.88-6.81.37.12-.37,1.39-1.81,3.14-1.44,1.75-3.58,4-6.1,5.92-1.42.81.18-1.68-.07-1.77-.49.69-4.37,4.11-4.92,4.35l1.85-1.97c-2.85,2.04-3.97,4.22-7.7,6.29-1.17.87-4.01,1.88-3.98,2.35,2.37-.76,4.18.86,3.22,2.26-.46.25-6.67,3.95-8.29,4.54-2.33.87,2.16-3.22.18-2.48.03.2-.93,1.13-1.35,1.5-1.36.73.2-.82-2.5,1.12-.08.88-5.63,3.76-.98,1.36-2.58,2.01-2.95,1.82-6.15,3.92,1.26-.31-2.05,3.16-4.76,5.04.07-.25-.67-.05-1.03.04-5.72,3.48-9,5.01-14.4,8.14-.58.14-3.31,1.44-2.33.55-.72.54-1.33,1.15-3,2.11-3.53,1.31,3.7-2.18.88-1.41-.01.47-4.07,2.92-6.37,4.41.52.07,1.93-.66,3.49-1.59,1.55-.96,3.26-2.13,4.39-2.91.42.72-3.29,3.88-8.89,7.3-4.48,2.65-2.24.59-2.98,1.12-8.72,4.37-6.7,5.17-14.23,8.26-3.12.96-.61-.89-1.42-.92,3.68-2.09,5.96-2.59,8.5-3.94-1.08.47-2.17.93-3.26,1.38,1.13-.75,3.57-2.18,5-2.75-2.58.87-14.74,7.37-21.72,10.21-1.13.74-3.13,1.9-2.05,1.62l2.12-1.09c2.16-.55-3.79,2.47-.98,1.35-2.75,1.65-5.78,3.63-9.97,5.3l-1.02-.2c.16.12,2.82-.91,3.89-1.61-1.59,1.04-6.6,2.17-8.13,3.75l3.04-.94c-2.78,1.64-6.12,3.87-9.82,5.36,1.9-.21.81-.45,3.68-.98-2.6.23,9.29-4.23,5.31-3.42,2.98-.48,4.71-1.81,8.46-2.78-.19-.14-1.38.23,1.69-1.12.11-.12.4-.34.59-.48.1-.04.13-.05.21-.08-.06.02-.11.04-.18.06.12-.09.13-.1-.07.02-.76.26-1.39.45-1.67.46,1.3-1.14,6.12-3.41,7.64-4.41,1.83-.79-.65.57.42.29l2.26-1.5c.44.29,5.08-1.65.98.64l3.8-1.83c2.34-.87,5.44-2.33,7.24-3.44,1.83-.8,4.25-2.73,2.87-1.62l5.75-3.3.11.07c2.92-1.48,5.77-3.27,8.8-4.99,3.01-1.76,6.14-3.53,9.6-5.01,1.85-1.21,3.74-2.48,6.98-4.24l.82-.03c2.34-1.6,7.46-4.11,8.27-5.11,1.56-.39,4.49-2.21,7.56-4.25,3.02-2.12,6.19-4.44,8.28-5.8l-.14-.53c1.4-.99,2.75-2,4.16-3.09,1.42-1.08,2.9-2.26,4.52-3.65l-.48-.2c1.35-1.26,3.27-2.62,5.43-4.12,2.12-1.55,4.46-3.26,6.71-5.1-.2.38-1.37,1.27-2.25,1.85,6.07-3.58,10.67-10.04,15.76-13.79,1.05-1.17,1.89-1.94,2.75-2.63-.1.1-.19.2-.26.29.12-.11.29-.28.46-.45.55-.43,1.11-.88,1.72-1.36-.54.39-1.06.76-1.47,1.12.85-.86,2.12-2.19,3.32-3.53l.89-.2c.1-.11.18-.19.29-.3,1.37-1.14.82-1.18-.08-.75.57-.71,1.07-1.38,1.42-1.93,1.54-.52,3.06-3.6,4.98-4.49.49-1.2,5.79-6.97,5.67-8.31.12.02.5-.35-.11.4,1.34-1.48,2.69-2.97,3.63-4.51l1.02-.28,2-3.98c1.9-1.88,2.75-2.63,1.52-.25,1.67-2.74,2.33-3.85,2.96-4.84.62-.99,1.18-1.89,2.45-4.3l.17.44c1.12-1.58,2.34-4.48,3.27-5.26,1.54-1.58,4.43-6.09,7.59-11.43,1.53-2.7,3.25-5.54,4.76-8.4,1.57-2.83,3.11-5.59,4.46-8.02-2.01,1.42,2.77-4.41,2.09-5.22.52-.47,1.29-1.83.77-.08,1.04-2.65,2.02-4.55,2.85-6.28.79-1.75,1.41-3.33,1.81-5.28.5-.5-.09,1.28.28.8.12-.45.47-1.76.84-2.25.37-.48-.1.86-.33,1.74,1.11-2.69,1.45-4.28,1.48-5.26.03-.98-.27-1.36-.57-1.7,1.37-2.62,1.89-4,2.05-6.18.57-.88,1.38-2.41.31,1.03.34-.95,1.43-3.85,2.36-6.56.88-2.73,1.56-5.28,1.29-5.47.34-.56.87-2.69.96-3.22,1.22-4.37,1.41-4.74,2.47-9.07-.13.39-.25.79-.4,1.17-.32-1.89.7-3.64,1.44-7.16l.05.12c1.2-3.95,1.24-4.85,1.38-5.72.1-.87.3-1.71,1.32-5.65l-.55.35c-.91-.93,1.9-6.97,2.09-11.72l-.51,1.65c0-1.3.6-3.03,1.26-4.76.64-1.74,1.27-3.49,1.49-4.77.15-.55.05.91.03,1.7,1.34-6.71-.53-.95-.13-5.99.41-.9.77,1.28,1.09-2.12.2-.84.12-3.33.1-6.18-.1-2.86-.14-6.06.28-8.38-.31,1.02-.6,2.02-.71-.33-.03-1.8.25-4.23.43-6.62.21-2.39.15-4.75-.27-6.36.06-.46.13-.63.19-.65-.19-2.75-.76-8.93-1.26-10.55.77-1.32.17-5.58-.39-9.49-.69-3.9-1.35-7.46-.59-7.53-.41-2.79-.91-5.58-1.35-8.36l.19.19c-.85-5.35-1.61-7.16-2.31-8.95-.16-1.24.17-.38.27-.3-.72-3.89-1.14-6.03-1.66-7.98-.57-1.93-1.25-3.68-2.46-6.78l.3-.8c-.34-.84-1.05-3.6-1.96-7.1-.46-1.75-.99-3.67-1.58-5.61-.63-1.92-1.43-3.83-2.23-5.6.08.05.23.17.51.72-.9-2-1.72-4.25-2.49-6.55-.36-1.16-.82-2.29-1.24-3.41-.42-1.12-.84-2.22-1.24-3.29-.81-2.12-1.59-4.08-2.35-5.63-.74-1.56-1.61-2.66-2.35-3.19l-2.95-4.96c3.16,6.72-1.19-.64-.11,2.23-1.38-2.56-2.85-7-1.18-3.83l.17.54c.36.19.3-.24.02-1-.28-.76-.76-1.85-1.36-2.92-1.15-2.16-2.41-4.43-2.08-4.5-.89-1.6-1.78-3.2-2.66-4.79-.85-1.61-1.87-3.11-2.79-4.67-.94-1.55-1.87-3.09-2.8-4.62-.92-1.54-1.83-3.08-2.85-4.54-1.98-2.96-3.95-5.9-5.9-8.81-2.08-2.82-4.18-5.59-6.26-8.32l.39,1.71c-.97-1.27-1.91-2.56-2.9-3.8-.7-1.05-.6-1.69,1.49,1.02-.37-.86-1.37-1.9-2.28-2.72-.91-.83-1.74-1.45-1.83-1.43-4.11-5.29,2.35,1.44,1.03-.13l-1.85-2.09.34.53c-1.69-1.53-2.06-1.47-4.69-4.62-1.65-2.01-.57-1.28-1.25-2.05.04-.03-.18-.3-1.06-1.16l-4.09-4.45,1.23,2.16c-2.03-1.75-3.85-4.16-2.42-1.67-.96-1.91-5-5.82-8.88-9.62-1.91-1.93-3.98-3.61-5.57-5.04-1.61-1.42-2.81-2.5-3.23-2.97-3.03-2.22-5.98-4.43-9.51-7.35.81.8.94,1.74-2.08-.78.96-.06-.31-1.37-2.19-2.84-1.87-1.48-4.25-3.26-5.26-4.58.97,1.1-1.33-.52-3.48-1.98-2.18-1.42-4.28-2.6-2.65-1.02-2.7-1.89.11-.52-1.81-2.15-3.44-1.91-6.95-4.43-10.88-6.76-1.94-1.2-3.93-2.43-5.95-3.68-2.02-1.25-4.21-2.37-6.42-3.42-.21.09,1.13,1.06-.86.36-1.42-.99-2.85-1.99-4.31-2.94-1.8-.7-2.02.22-5.02-1.69.4.32,1,.81-.21.38-8.63-4-17.82-6.95-26.62-10.76-8.85-3.68-16.97-8.87-24.5-14.83,1.98,1.71.52.79-1.14-.29,1.03.78-.26.35-.18.68l-6.36-4.97c-1.57-.27-7.35-4.59-8.43-4.44.75.41,1.51.8,2.26,1.22-3.27-1.14,3.17,3.9,2.21,4.46,3.65,1.29,7.63,6.5,13.51,8.89,1.05.91-1.15-.38-.66.21,1.55.51,3.19,1.49,6.11,3.51l-.4-.12c4.28,2.57,7.37,4.38,10.67,6.16,3.3,1.76,6.78,3.51,11.93,5.74l-.59-.75c2.2.97,2.62,1.27,3.62,1.8,2.82.36-6.25-2.53-3.62-2.34,2.59,2.15,15.75,6.09,17.3,7.91,3.39,1.35-.79-.91,2.6.45l.78.64h1c2.18.98,3.14,1.79,3.12,2.06-.51-.26-1.54-.58-2.12-.8,2.72,1.49,7.98,3.41,8.85,4.03-1-.58-2.02-1.13-3.05-1.67,2.28.96,4.6,2.12,6.95,3.37,2.33,1.31,4.7,2.72,7.07,4.09,1.19.68,2.37,1.37,3.55,2.04,1.19.66,2.29,1.43,3.42,2.11,2.25,1.4,4.44,2.72,6.54,3.91l-.49-.58c1.6.91,2.7,1.59,3.52,2.21.83.6,1.42,1.08,2.03,1.57,1.22.99,2.48,2.05,5.81,4.34l-.27-.13c1.47.73,3.2,2.03,4.92,3.42-1.75-1.07,2.68,2.79.41,1.35,3.25,2.31,4.07,2.86,4.67,3.16.58.32.99.3,3.22,1.75l.67,1.09c1.57.93,1.8.9,4.9,3.5-2.7-1.95,1.56,2.12-1.51-.01,1.44,1.56,2.82,2.78,4.01,3.89,1.19,1.12,2.27,2.05,3.25,2.89,1.95,1.67,3.47,2.99,4.44,4.76,3.52,1.98-4.86-5.5-3.14-4.14-1.08-1.51,2.84,1.69,4.69,3.62,1.87,1.97,2.22,4.27,6.88,9.2-.46-.5-.55-.48-1-.97.76,1.02,1.71,1.84,2.62,2.8.9.96,1.84,1.99,2.69,3.31,1.6.93,2.59,3.1,3.53,2.98l-4.18-4.64c1.22,1.28,2.55,2.4,4,3.8,1.45,1.4,3.06,3.05,4.63,5.53-.41-.26-1.62-1.51-2.46-2.37.88,1.48,2.13,2.5,3.03,4.05-.47.04-1.66-1.43-3.08-3.24-1.48-1.76-3.26-3.82-4.71-5.07.92,1.6,5.08,5.08,3.18,4.18,1.33.67,2.29,2.05,3.41,3.59,1.11,1.55,2.34,3.3,4.07,4.87l-.56.04c.49.54,1.62,1.58,2.39,2.67-.62-.55-1.31-1.04-1.95-1.57,1.38,1.29,2.27,2.86,3.17,4.39.89,1.54,1.75,3.07,2.88,4.45-4.27-6.11-.49-1.7-2.01-4.49,2.9,3.61,3.4,4.87,3.93,6.27.57,1.38,1.01,2.99,3.85,7.28-.79-1.14-2.53-4.59-1.19-2.86.96,1.72,2.18,4.01,2.6,5.16,3.7,5.73-.14-1.14,1.65,1.17.39,1.13.83,1.83,1.41,2.56.58.73,1.29,1.48,2.1,2.75l-.41.26c1.76,3.47,2.23,3.8,2.65,4.05.21.13.41.23.74.7.33.48.85,1.28,1.52,2.91l-.95-1.18-1.02-1.14c.67,1.03,1.25,2.09,1.84,3.16l-.82-.42c2.12,3.37,2.58,4.54,4.16,8.09-.05-.48.21-.46.67.07.46.53,1.15,1.55,1.81,3.15.67,2.28-.94-1.02,1.06,3.44-.71-.89-1.54-1.85-1.97-3.98-.23-.14-.7-.87-.96-1,.74,2.44,2.46,5.86,3.17,7.47-.25-.63-.55-1.39-.65-1.8l3.42,6.25c.21,1.12-.2.33-.68-.42.59,1.31,1.11,2.17,1.89,4.13-.56-.37-.89-.11-2.09-2.83l2.75,6.16c0,.48.76,3.4.32,2.63.26.9.67,1.85,1.07,2.89.38,1.04.82,2.14,1.27,3.27.9,2.27,1.83,4.7,2.42,7.11.14.23.4.69.72,1.69.55,2.26.97,4.42,1.49,6.66.51,2.24,1.01,4.6,1.89,7.23,0,1.07,0,2.13-.04,3.2.96,4.21.08-4.34,1.68,2.68,1.17,4.97-.23,1.98-.09,3.77.39,1.22.91,2.89,1.37,4.85.23.98.44,2.03.6,3.13.16,1.1.21,2.26.22,3.44-.33-1.52-.33-2.75-.63-4.17Zm2.19,53.22c0-1.04-.19-3.11.11-3.85.51,1.21.19,2.11-.11,3.85Zm-16.71,79.32c.13-.78.62-1.87,1.26-3.07-.31.93-.71,1.96-1.26,3.07Zm-156.49,158.43s.06-.05.09-.07c2.17-.88,1.4-.57-.09.07Zm-4.44,1.96c-.41.27-.35.32-.13.29.25-.26,1.22-.74,2.35-1.26-.37.04-.97.23-2.22.97Zm115.3-428.27l.55.78c-1.56-1.47-1.06-1.11-.55-.78Z"/>
          <path class="cls-3" d="m651.6,357.67c.17-.25.28-.3.39-.33.05-.41-.03-.45-.39.33Z"/>
          <path class="cls-3" d="m656.34,201.7l-.04-.16c-.05-.08-.1-.11-.13-.13l.18.29Z"/>
          <path class="cls-3" d="m550.9,486.21c.86-.5,1.36-.74,1.72-.87-.02-.13-.45.04-1.72.87Z"/>
          <path class="cls-3" d="m465.23,538.72l2.76-1.42c-1.35.66-1.88.79-2.6,1.04.11.07.72-.03-.16.39Z"/>
          <path class="cls-3" d="m439.5,547.1c-.39.24-.87.4-1.26.64l.2.15c1.75-.8,2.91-1.52,1.05-.79Z"/>
          <path class="cls-3" d="m461.95,538.46c-.39-.27-2.1.67-4.04,1.64.12-.05.23-.11.35-.16-.35.78,1.68-.35,3.69-1.48Z"/>
          <path class="cls-3" d="m457.46,540.32c-.6.3-1.22.59-1.82.84-.14.31.76-.29,1.82-.84Z"/>
          <path class="cls-3" d="m482.66,529.89c-.97.36-.36.75-.96.85-.81.98,5.91-3.57.96-.85Z"/>
          <polygon class="cls-3" points="459.8 537.97 460.71 538.1 461.65 537.23 459.8 537.97"/>
          <path class="cls-3" d="m475.48,531.08l-3.19,1.36c.08.05-.29.28-.77.55,1.95-.88,4.1-1.81,3.96-1.91Z"/>
          <path class="cls-3" d="m471.52,532.98c-1.01.46-1.97.92-2.49,1.25.54-.26,1.71-.82,2.49-1.25Z"/>
          <polygon class="cls-3" points="464.04 535.86 465.01 535.52 467.25 534.52 464.04 535.86"/>
          <path class="cls-3" d="m508.84,514.46l3.26-1.92c.26-.33-.7.06-1.91.79-.74.54-1.95,1.26-1.36,1.13Z"/>
          <path class="cls-3" d="m498.08,518.56c.95-.38,1.07-.31,1.65-.43l-.18-.6-1.47,1.03Z"/>
          <path class="cls-3" d="m507.77,513.32c.25-.33,4.59-3.03.4-.73-.26.33-3.52,2.25-.4.73Z"/>
          <polygon class="cls-3" points="556.64 484.24 555.87 484.81 556.57 485.56 556.64 484.24"/>
          <path class="cls-3" d="m593.14,450.12c-3.33,2.95-.31,1.19-3.37,3.79-.57.91,2.51-2.13,1.89-1.23,1.73-2.07,2.83-2.96,1.48-2.56Z"/>
          <path class="cls-3" d="m591.66,452.68c-.28.33-.57.69-.87,1.07.51-.59.74-.88.87-1.07Z"/>
          <path class="cls-3" d="m456.14,4.23c-.79-.57-1.58-1.15-2.39-1.7l1.44,1.27.95.43Z"/>
          <path class="cls-3" d="m450.95,2.01l-.28-.9-1.82-.35c.59.3,1.73.88,2.09,1.26Z"/>
          <path class="cls-3" d="m663.74,295.02l.13.23c.21-.42.31-1.08.46-2.41-.18.73-.39,1.45-.59,2.18Z"/>
          <polygon class="cls-3" points="665.15 256.48 665.17 257.14 665.69 255.87 665.15 256.48"/>
          <path class="cls-3" d="m660.65,224.45c.22,1.3.66,2.8.82,4.11-.55-2.82-.19-4.59-.82-4.11Z"/>
        </g>
      </g>
    </g>
  </g>
</svg>