<?xml version="1.0" encoding="UTF-8"?>
<svg xmlns="http://www.w3.org/2000/svg" viewBox="0 0 841.89 595.28">
  <defs>
    <style>
      .cls-1 {
        isolation: isolate;
      }

      .cls-1, .cls-2 {
        fill: none;
      }

      .cls-3 {
        fill: #f671b7;
      }

      .cls-2 {
        mix-blend-mode: color-burn;
      }
    </style>
  </defs>
  <g class="cls-1">
    <g id="Layer_1" data-name="Layer 1">
      <g class="cls-2">
        <g>
          <path class="cls-3" d="m427.19,575.39l.1.59c.07-1.59.1-3.18.14-4.77-.08,1.39-.13,2.79-.23,4.18Z"/>
          <path class="cls-3" d="m429.1,545.25c-.37,1.43-.29,4.17-.32,7.22.02,1.53,0,3.13-.06,4.7-.04,1.56-.13,3.07-.3,4.41l-.23.87c.13.82.27,1.65.38,2.47.51-6.54.43-15.05.53-19.67Z"/>
          <path class="cls-3" d="m429.66,528.94c-.07.52-.25-.35-.26-.44-.02-.09.16.6.55,4.25,0-.37,0-.48,0-.69-.06-.66-.15-1.57-.29-3.11Z"/>
          <path class="cls-3" d="m429.95,532.05c.32,3.21.04-2.13,0,0h0Z"/>
          <path class="cls-3" d="m427.56,517.3l.57,2.06.49,2.08c0-.45-.13-1.62-.27-2.5-.14-.88-.23-1.47-.02-.79-1.06-4.27-1.03-3.34-.77-.85Z"/>
          <path class="cls-3" d="m426.15,513.48c.23.7.44,1.41.61,2.12-.02-.39-.1-.97-.61-2.12Z"/>
          <path class="cls-3" d="m427.95,520.13c-.35-1.52-.79-3.02-1.18-4.53.02.63-.19.74.53,2.08-.3-.33.13.52.65,2.45Z"/>
          <path class="cls-3" d="m428.29,522.76c.07.59.14,1.23.2,1.78.04.56.07,1.03.06,1.3-.01.54-.11.25-.55-1.83.62,4,.96,5.71,1.06,5.39.04-.16.01-.81-.1-1.94-.13-1.12-.27-2.72-.67-4.72Z"/>
          <path class="cls-3" d="m428.34,543.71c-.03,1.05-.12,2.09-.18,3.14l.24,2.71c-.12-1.35.21-6.05-.05-5.85Z"/>
          <path class="cls-3" d="m419.4,491.97c-.25-.18.25,1.48.21,1.85l.75,1.4.68,1.42c-.47-1.56-1.77-4.37-1.65-4.67Z"/>
          <path class="cls-3" d="m419.61,493.81c-.77-1.38-1.45-2.8-2.3-4.13,1.88,3.77,2.24,4.45,2.3,4.13Z"/>
          <path class="cls-3" d="m425.2,512.94l.62,1.82.54,1.84c.35,1.23.75,2.46,1.05,3.71-.77-2.97-1.6-5.91-2.59-8.8l.38,1.43Z"/>
          <path class="cls-3" d="m410.01,476.39c.67.63,1.27,1.31,1.88,1.99-1.03-1.25-2.2-2.39-3.32-3.55l1.45,1.56Z"/>
          <path class="cls-3" d="m401.95,467.31c1.64,1.22-1.63-2.31.02-.93-1.17-1.19-2.45-2.09-3.59-2.97-.58-.43-1.14-.86-1.7-1.24-.58-.36-1.14-.71-1.68-1.05.56.38,1.13.78,1.7,1.2.55.45,1.1.93,1.67,1.44,1.14,1.02,2.37,2.13,3.58,3.56Z"/>
          <path class="cls-3" d="m391.34,458.88c1.19.65,2.35,1.44,3.66,2.23-1.2-.8-2.35-1.62-3.66-2.23Z"/>
          <path class="cls-3" d="m413.37,482.67c-.06-.18-.12-.46-.35-.97-.24-.5-.65-1.25-1.37-2.37l.71,1.78c.33.46.68,1,1.01,1.57Z"/>
          <path class="cls-3" d="m412.39,481.16l-.03-.06c-1.14-1.67-1.93-2.83-2.27-3.33.29.43.98,1.45,2.29,3.39Z"/>
          <path class="cls-3" d="m413.61,483.07c-.09-.15-.15-.26-.24-.4.06.18.1.28.24.4Z"/>
          <path class="cls-3" d="m421.91,501.14c-1.18-2.51-3.67-7.65-1.87-2.41,1,1.72.05-1.32,1.87,2.41Z"/>
          <path class="cls-3" d="m414.35,485.31c.88,1.42,1.56,2.94,2.34,4.41.05-.14-.23-1.01.53.14l-1.4-2.3-.7-1.14-.76-1.11Z"/>
          <polygon class="cls-3" points="412.97 483.3 414.35 485.31 413.42 483.71 412.97 483.3"/>
          <path class="cls-3" d="m398.01,464.49c-1.73-1.34-3.7-2.71-5.87-4.31,1.14.89,2.29,1.8,3.45,2.7,1.14.91,2.2,1.92,3.28,2.83.39.16,1.5.8-.86-1.22Z"/>
          <path class="cls-3" d="m405.55,472.14c-.11-.11-.24-.25-.34-.35.17.25.32.43.34.35Z"/>
          <path class="cls-3" d="m368.28,448.99c.13.07.25.12.38.19.04-.01.07-.03.12-.04l-.5-.15Z"/>
          <path class="cls-3" d="m399.18,466.09c1.56,1.51,2.49,2.39,3.48,3.16-.59-.56-1.19-1.13-1.82-1.73-.31-.3-.62-.6-.95-.91-.34-.29-.68-.59-1.03-.89-.18-.07-.23-.06.31.38Z"/>
          <path class="cls-3" d="m384.85,455.21c.97.6,2.03,1.34,3.16,2.07-.89-.66-2.74-2.02-3.16-2.07Z"/>
          <path class="cls-3" d="m404.82,471.17c.08.08.15.15.23.23-.4-.59-.38-.5-.23-.23Z"/>
          <path class="cls-3" d="m404.82,471.17c-.78-.8-1.44-1.38-2.15-1.92.99.88,1.79,1.81,2.55,2.55-.16-.22-.3-.45-.4-.63Z"/>
          <path class="cls-3" d="m359.99,449.76c.43-.34,5.96.48,10.38,2.39,2.27.61,2.8.37,2.28-.28-.52-.63-2.06-1.78-3.99-2.68-.1.06-.16.13-.79.04-.32-.05-.78-.13-1.46-.28-.68-.13-1.59-.3-2.8-.53.41.16,1.26.43,2.25.74.99.33,2.09.74,3.03,1.08,1.87.69,2.98,1.31.98.8-3.13-.82-4.39-1.21-5.25-1.5-.86-.3-1.3-.57-2.82-1.02,1.26.51-.8.27-3,.03-2.21-.21-4.57-.33-3.93.13,1.86.22,3.71.45,5.56.77.08.13-1.95-.1-.44.31Z"/>
          <path class="cls-3" d="m377.56,452.36c.64.24,1.26.52,1.89.78-1.05-.52-1.94-.97-2.93-1.43-.99-.46-2.04-1.06-3.46-1.68-3.29-.94-4.02-.93-4.28-.88,1.61.45,3.18,1.04,4.77,1.58,1.57.58,3.13,1.21,4.68,1.86-.22-.08-.44-.16-.67-.22Z"/>
          <path class="cls-3" d="m387.62,457.36c-.81-.21-2.27-.92-3.28-1.26-1.01-.34-1.5-.4-.28.48,5.18,2.89,3.79,1.75,6.9,3.53-2.03-1.3-2.9-1.86-3.15-2.02-.25-.17.15,0,.61.23.9.5,2.18,1.06-.76-.88.85.43,1.62.92,2.36,1.38.74.47,1.45.91,2.12,1.36-1.43-1-2.79-2.03-4.13-2.9.07.05.12.09.18.13l.04.02h-.01c.34.26.44.35.04.09-.03-.02-.13-.07-.18-.09-.09.02-.27-.03-.46-.08-2.39-1.49-.33-.32.46.08.04,0,.12.02.14,0,0,0-.02-.01-.03-.02-1.44-.77-2.83-1.61-4.31-2.27l-2.19-1.05c-.74-.33-1.49-.63-2.24-.95.92.45,1.99.91,3.29,1.6.66.33,1.38.7,2.2,1.11.8.45,1.69.95,2.68,1.51Z"/>
          <path class="cls-3" d="m417.17,494.45c-.09-.28-.06-.28-.04-.32-.31-.53-.44-.72.04.32Z"/>
          <path class="cls-3" d="m415.7,490.84c.39.57.79,1.02,1.7,3.07.71,1.81-.19.08-.28.23.68,1.16,2.28,4.16.68.23l-.34-.58c-.36-.89-.76-1.84-1.13-2.75-.4-.91-.78-1.79-1.1-2.54-.32-.76-.57-1.39-.72-1.8-.17-.4-.23-.58-.13-.44.24,1.16.44,2.19,1.31,4.59Z"/>
          <path class="cls-3" d="m403.86,472.1c-.46-.48-.9-.98-1.37-1.45l-1.45-1.37c-.98-.9-1.91-1.85-2.96-2.67.97.95,1.8,2.03,2.68,3.06v-.3c.8.81,1.36,1.36,1.76,1.75.38.4.61.62.77.74.32.24.33.09.58.24Z"/>
          <path class="cls-3" d="m367.46,448.53l1.16-.14c-.78-.11-1.56-.24-2.33-.34l-2.34-.25c1.17.24,2.36.43,3.52.72Z"/>
          <polygon class="cls-3" points="357.24 446.28 357.69 445.95 354.93 445.73 357.24 446.28"/>
          <path class="cls-3" d="m190.3,144.51l2.32-.35c-1.1.15-1.8.26-2.32.35Z"/>
          <path class="cls-3" d="m173.55,147.18l-.36.29c.74-.29,1.04-.43.36-.29Z"/>
          <path class="cls-3" d="m122.58,406.96c-.87-1.41-1.79-2.91-2.46-4-.65-1.11-1.1-1.79-1.17-1.5l.25,1.07c1.41,1.82,2.54,3.18,3.38,4.43Z"/>
          <path class="cls-3" d="m88.41,245.05c-.1.31-.21.62-.31.94,0,.83-.01,1.61-.02,2.31.1-.98.21-2.09.33-3.25Z"/>
          <path class="cls-3" d="m87.11,242.35l1.27-4.3c-.32.96-.73,2.34-1.27,4.3Z"/>
          <path class="cls-3" d="m281.79,148.97l2.71-.17c-4.17-.41-2.36-.01-2.71.17Z"/>
          <path class="cls-3" d="m252.73,453.37c-2.88.03-5.17.02-7.17.1,3.46.08,6.29.36,7.17-.1Z"/>
          <path class="cls-3" d="m184.37,149.9c1.37-.27,1.95-.43,1.89-.52-1.41.26-2.2.46-1.89.52Z"/>
          <path class="cls-3" d="m237.27,453.65c.51.03,1,.05,1.52.08,2.1-.13,4.21-.13,6.77-.26-2.56-.03-5.48-.19-8.29.18Z"/>
          <path class="cls-3" d="m505.32,71.16c-.2-.13-.44-.28-.62-.4-.09.02.2.18.62.4Z"/>
          <path class="cls-3" d="m424.38,20.57c.66.66,1.77,1.7,2.82,2.69-.47-.52-1.37-1.28-2.82-2.69Z"/>
          <path class="cls-3" d="m315.6,445.22c2.18-.23.34-.08,0,0h0Z"/>
          <path class="cls-3" d="m326.32,446.14c-.46.08-.81.16-.86.26.17-.11.47-.2.86-.26Z"/>
          <path class="cls-3" d="m215.74,455.41c-.06,0-.11-.01-.19-.02.63.15.52.12.19.02Z"/>
          <path class="cls-3" d="m318.9,445.12c-.82,0-1.77.06-2.8.12.45,0,1.3-.05,2.8-.12Z"/>
          <path class="cls-3" d="m318.44,444.95c.75-.04,1.35-.07,1.91-.11.27-.09.02-.12-1.91.11Z"/>
          <path class="cls-3" d="m312.58,445.55c1.24-.15,2.4-.24,3.53-.31-.43.01-.61,0-.5-.02-.64.07-1.54.17-3.03.33Z"/>
          <path class="cls-3" d="m434.65,148.94c.14,0,.31,0,.47-.01,2.14-.44,1.2-.3-.47.01Z"/>
          <path class="cls-3" d="m92.41,359.71c.04.09.06.15.1.23-.03-.1-.06-.22-.09-.31v.08Z"/>
          <path class="cls-3" d="m89.81,352.28c.73,1.54,1.21,2.76,1.58,3.91.38,1.15.7,2.21,1.03,3.44l.39-2.84c-1.03-1.48-2-2.99-3.01-4.5Z"/>
          <path class="cls-3" d="m230.69,144.02c-1.82-.27-3.64-.48-5.47-.72,6.68-.28,11.47.35,6.34-.58-.44.65-5.78.29-11.14.15-5.36-.17-10.74-.1-11.12.58l-3.65-.22c1.04,0,1.21-.09,2.24-.1-1.77-.13-2.99-.12-3.96-.04-.97.1-1.69.27-2.47.46-1.56.36-3.36.81-7.91,1.09-3.17.22-5.41.25-3.26-.13-1.17.16-2.34.38-3.51.59-1.16.22-2.33.4-3.49.65-2.04.31-1.58,0,.45-.31-1.78.32-3.56.61-5.34.95-1.77.38-3.54.72-5.3,1.14l.07-.06c-1.46.56-4.79,1.67-6.39,2.3-2.7.54,1.29-.51.57-.48l-2.85.96c-.94.33-1.87.7-2.81,1.05-2.43.43,2.18-1.51,6.22-2.49-2.88.09-4.09.49-6,1.29-1.92.79-4.61,1.8-10.38,3.78l2.61-1.17,2.65-1.07c-.93.14-1.89.34-2.9.63-1,.31-2.04.69-3.17,1.11-1.13.4-2.31.92-3.6,1.47-1.29.54-2.69,1.1-4.18,1.79.38-.11,1.3-.53,2.45-.91,1.14-.39,2.45-.83,3.52-1.16,2.17-.62,3.4-.76.46.68-1.71.7-3.98,1.62-6.95,3.56-.12-.19-.96.1-2.19.78-1.22.72-2.92,1.68-4.72,2.89l-.1-.7c-1.92,1.39-2.75,2.09-3.37,2.67-.59.62-.99,1.1-2.01,2.04-2.15,1.49-3.37,2.49-4.33,3.03-.94.56-1.53.77-2.14,1.02-.81.68-1.35,1.13-1.66,1.44-.3.32-.4.46-.38.49.05.06.58-.37,1.15-.68.56-.33,1.08-.61.99-.41-.07.22-.82.84-2.52,2.64-1.27,1.19-2.44,2.3-3.55,3.41-1.05,1.16-2.02,2.34-3.01,3.55-.49.61-.99,1.22-1.5,1.86-.51.63-.95,1.35-1.45,2.06-.97,1.44-2.05,2.95-3.15,4.7-2.82,3.94.14-.93-.96.42l-1.91,3.88c-.58.87-.53.51-.5.32-1.71,3.19.37.58-2.28,5.57-.02.42-.48,1.21-1.11,2.31-.6,1.11-1.43,2.51-2.33,4.06-.94,1.54-1.8,3.3-2.6,5.09-.8,1.78-1.55,3.58-1.93,5.3-.77,1.55-.08-.92-.49-.52-.71,2.3-1.22,3.94-1.61,5.23-.36,1.3-.59,2.25-.81,3.14-.42,1.8-.88,3.36-1.52,7.25-.71,2.11-1.46,4.22-2.06,6.37.78-2.34.96-1.94.85-.28-.06.83-.18,1.97-.34,3.24-.08.64-.17,1.3-.26,1.98-.07.68-.14,1.38-.21,2.06.53-1.66,1.07-3.05,1.38-3.99l-.4,2.13-.32,2.15-.64,4.29c-.3,1.01-.35.12-.35-1.33-.05.59-.11,1.15-.15,1.59-.72,3.03-.88,1.37-.81-.89.33-1.02.66-2.03.97-3.01.01-1.09,0-2.16-.06-2.91-.04-.74-.15-1.17-.38-.99-.07.57-.21,1.66-.4,2.85,0-.58-.02-.95-.13-.71-.12.28-.15,1.21-.26,2.64l-1.07,1.83.19.53c-.42,1.87-.75,3.75-1.13,5.63-.39,1.88-.7,3.77-1,5.66-.26,8.25.09,15.41.16,28.34-.46-3.22-.84-.7-1.46-.88.71-3.53-.04-10.08.64-16.81-.34,3.5-.56,2.71-.61,1.81-.09,4.02-.1,8.04,0,12.05-.48-.28-.48,2.55-.67,5.69.5-1.19.66,1.06.76,4.2.07,1.57.14,3.37.21,5.08.1,1.71.22,3.33.35,4.55-.3.32-.78-.83-.87-6.81-.55,6.63,1.5,8.45,1.38,14.92-.16-1.45-.13-2.24-.35-2.8.24,1.69.57,4.6.72,6.85.18,2.25.27,3.85,0,2.89l-.18-1.44c.46,4.82,1.53,12.12,2.89,18.32,1.32,6.21,2.93,11.28,3.52,11.87-.08.12-1.31-.97-1.63-1.5,2.3,5.38,4.92,10.59,7.67,15.65-.6-.59-.82.62-1.28,1.07-.23.22-.51.25-.94-.24-.43-.49-1-1.51-1.7-3.4.3,1.12.65,2.37,1.2,3.89.54,1.52,1.19,3.35,2.23,5.57-.5-1.51-.43-4.04.4-2.05,1.41,5.78,1.03,3.98,3.35,10.94-.85-2.21,1.29-.29,2.86,3.07-.4-.45-.88.78-1.58-.41.82,1.33,1.7,2.63,2.58,3.91.88,1.29,1.74,2.58,2.69,3.82-1.32-1.91-1.04.1-.28,2.08-.33-.93,4.04,6.99,5.65,8.92-.65-1.15-1.36-2.27-1.95-3.45,1.36,2.25,2.57,3.81,3.58,5.09,1.05,1.25,2,2.17,2.92,3.09.91.93,1.87,1.81,3,2.96.56.58,1.16,1.23,1.82,1.99.68.75,1.44,1.57,2.28,2.56-.99-.79-3.13-1.42.26,2.69,1.04.69,3.35,2.21,6.35,4.18,1.5.97,3.11,2.12,4.88,3.26.87.58,1.76,1.2,2.64,1.84.91.61,1.84,1.24,2.75,1.9l1.15,1.34c.94.67,1.94,1.27,2.9,1.91.98.61,1.91,1.3,2.93,1.84-2.02-.84-5.77-2.69-9.62-5.02-1.95-1.13-3.84-2.48-5.68-3.69-1.76-1.3-3.42-2.53-4.74-3.61,1.31,1.49,1.46,1.73,1.78,2.14.35.39.84,1,3.05,2.97.68.81,0,.36-1.03-.44-.99-.83-2.3-2.04-2.93-2.64l2.46,2.44c.83.8,1.71,1.56,2.56,2.35,1.69,1.59,3.5,3.04,5.28,4.51-.02-.23.52.04,1.33.55.84.48,1.96,1.2,3.08,1.91.56.36,1.12.72,1.64,1.05.55.3,1.05.57,1.48.8.86.45,1.42.68,1.39.5-4.36-2.44-8.43-5.36-12.44-8.37,0-.91,7.7,4.27,15.92,9.31,1.94,1.56-2.18.02-2.14.31.61.22,2.56,1.47,4.61,2.47,2.01,1.05,3.96,2.11,4.31,2.41l-3.79-1.7c2.33,1.41,4.34,2.38,6.56,3.18,1.1.43,2.22.88,3.42,1.44.6.28,1.22.58,1.86.92.66.3,1.35.64,2.07,1.02,2.06.88,5.92,3.35,6.46,3.03-1.62-.93-2.33-2.14-2.37-2.95-.03-.83.64-1.36,1.84-1.18.34.2,3.02,1.27,5.89,2.5,1.43.64,2.95,1.19,4.25,1.67,1.3.49,2.38.91,2.96,1.18,3.38,1.58-5.68-.12-2.82,1.23.18-.14,2.2.2,3.04.36,1.11.4.84.47.91.6.07.15.48.33,2.99.86.98-.45,10.12,2.35,2.48-.02,1.23.23,2.16.44,2.96.61.81.15,1.48.29,2.18.45,1.4.3,2.9.68,5.79,1.15-.89-.34.47-.54,2.66-.59,2.19-.06,5.2.09,7.68.17-.31.15.78.47,1.31.63,10.11.94,15.57,1.41,25.06,1.27.44.08,1.8.15,2.82.24,1.01.07,1.68.16.7.35,1.36-.18,2.61-.47,5.53-.62,5.7.33-6.53.39-2.17.9.18-.21,2.07-.42,4.43-.67,2.36-.29,5.18-.64,7.26-.89-.67-.26-3.07-.1-5.82.18-2.76.28-5.88.6-7.96.81-.03-.42,1.77-.94,4.79-1.45,1.51-.23,3.32-.58,5.37-.88,2.05-.29,4.33-.62,6.77-.97,7.77-1.02,3.44.19,4.78-.07,7.33-.8,10.39-1.65,13.14-2.35,2.76-.71,5.21-1.33,11.32-1.93,4.9-.18.37,1.03,1.5,1.25-6.31,1.14-9.78,1.11-14.07,1.75l5.33-.52c-1.99.48-6.2,1.22-8.53,1.38,4.12,0,24.7-3.71,36.08-4.46,1.99-.41,5.45-.92,3.78-.98-1.2.13-2.39.29-3.58.44-3.35-.09,6.7-1.3,2.13-1.04,4.79-.78,10.21-1.74,17.1-1.63l1.3.59c-.07-.09-1.2-.17-2.54-.19-1.34,0-2.91.06-3.86.2,1.42-.19,4.05-.11,6.71.02,2.66.12,5.34.23,6.92-.09-1.6-.22-3.2-.36-4.8-.53,4.89-.3,11.05-.65,17.13.36-2.71-.97-1.4-.12-5.69-1.27,1.85.62-2.07.22-5.7.08-.91-.03-1.8-.07-2.58-.1-.78,0-1.44,0-1.9.03-.91.05-.99.16.52.41-4.46-.89-7.73-.34-13.58-.7.2.21,2.08.23-3.04.5-.23.08-.76.19-1.11.26-.16,0-.21,0-.35.01.1,0,.18,0,.28,0-.22.05-.24.05.11,0,1.22,0,2.22.02,2.62.11-2.51.6-10.58,1.38-13.26,1.98-3.01.26,1.23-.38-.44-.4l-4.01.87c-.46-.41-8.05.34-1.03-.88l-6.34.86c-3.77.28-8.89.95-12.01,1.6-2.99.34-7.43,1.58-4.89.86-3.28.56-6.55,1.11-9.83,1.61l-.1-.1c-9.71,1.12-20.02,2.8-31.21,2.11-1.64.08-3.31.18-5.26.15-1.95-.02-4.17,0-6.92-.2l-1.05-.45c-4.23,0-12.56-1.31-14.39-1.16-1.09-.41-2.89-.8-5.1-1.17-.55-.09-1.13-.18-1.72-.28-.59-.11-1.2-.23-1.83-.35-1.26-.22-2.57-.46-3.91-.69-.67-.12-1.34-.23-2.02-.35-.67-.14-1.34-.29-2-.43-1.33-.29-2.65-.57-3.91-.84-1.27-.25-2.46-.58-3.56-.89-1.1-.31-2.11-.6-2.98-.87l-.41.41c-4.85-1.46-9.49-2.92-15.37-5.17l.18.56c-.64-.22-1.35-.44-2.05-.76-.7-.32-1.44-.67-2.21-1.04-1.52-.76-3.2-1.55-4.89-2.51-1.67-1-3.43-2.04-5.23-3.11-.92-.5-1.77-1.13-2.67-1.71-.89-.58-1.79-1.16-2.69-1.75.59.17,2.39,1.39,3.63,2.31-1.01-.8-2.06-1.57-3.13-2.32-1.06-.76-2.2-1.44-3.25-2.24-1.07-.77-2.16-1.53-3.26-2.28-1.07-.79-2.14-1.58-3.2-2.36-.53-.39-1.07-.77-1.59-1.18-.51-.41-1.02-.83-1.52-1.24-1-.83-2.02-1.62-2.95-2.49-1.85-1.73-3.63-3.43-5.07-5.28-.85-.79-1.57-1.48-2.18-2.17-.59-.7-1.1-1.35-1.59-2,.14.16.28.3.39.42-.15-.18-.38-.45-.62-.72-.61-.83-1.25-1.66-1.89-2.61.51.84,1.06,1.59,1.56,2.23-1.22-1.31-2.89-3.44-4.65-5.45l-.28-1.2c-.13-.17-.24-.31-.37-.49-1.39-2.2-1.42-1.56-.89-.22-.84-1.04-1.69-1.96-2.3-2.7-.27-1.11-1.3-2.52-2.38-4.02-1.02-1.54-2.09-3.17-2.49-4.62-.32-.33-.89-1.23-1.62-2.38-.73-1.15-1.6-2.58-2.4-4.03-1.68-2.86-3.21-5.76-3.91-6.22.06-.13-.23-.87.4.44-.3-.69-.6-1.37-.9-2.05-.28-.69-.57-1.37-.85-2.04-.56-1.34-1.2-2.61-1.78-3.83l.1-1.41-1.58-2.89-1.49-2.94c-.51-1.93-.8-3.31-.77-3.76.03-.45.35.05,1.21,1.84-1.84-4.38-2.48-6.21-3.02-7.88-.56-1.66-1.08-3.15-2.42-6.99l.48.29c-.4-1.39-.93-3.2-1.42-4.87-.5-1.67-.88-3.22-.88-4.12-.32-3.24-1.77-11.12-2.78-20.35-1.01-9.22-1.45-19.79-1.01-28.09-1.21,3.21.63-7.71-.16-8.39.32-.96.58-3.26.7-.56,0-2.12.13-3.97.26-5.64.12-1.68.27-3.18.44-4.59.31-2.84.51-5.35.52-8.29.39-.93.18,1.85.45,1.01.02-.68.09-2.7.36-3.55.27-.83.08,1.26.04,2.6.46-4.29.67-6.65.55-8.07-.1-1.41-.45-1.85-.8-2.23.53-2.14.97-3.73,1.2-5.21.25-1.47.33-2.82.45-4.42.6-1.44,1.43-3.86.32,1.4.18-.73.55-2.22.99-4.05.22-.91.47-1.91.72-2.94.28-1.02.57-2.07.86-3.1,1.06-4.15,2.29-7.88,2.01-8.14.22-.43.55-1.43.85-2.43.34-.98.65-1.95.75-2.34.6-1.59,1.06-2.81,1.45-3.86.39-1.04.8-1.87,1.15-2.71.36-.84.72-1.68,1.15-2.69.21-.51.44-1.06.7-1.67.29-.6.61-1.26.97-2.01l-.91,1.61c.23-1.34.8-2.61,1.6-4.15.41-.76.83-1.62,1.39-2.53.55-.92,1.16-1.94,1.8-3.12v.17c1.58-2.64,2.7-4.14,3.39-5.2.7-1.05,1.03-1.62,1.36-2.19.33-.57.65-1.13,1.43-2.1.77-.97,1.89-2.44,3.88-4.72-.26.07-.54.12-.79.21-.05-.77,1.85-2.71,4.26-5.16,2.55-2.29,5.65-5.07,8.26-7.42l-2.11,1.45c.67-.69,1.58-1.41,2.6-2.13,1.03-.71,2.14-1.48,3.36-2.08,1.19-.63,2.39-1.25,3.5-1.83,1.13-.54,2.15-1.06,2.96-1.56.74-.38-1.01.85-1.93,1.54,4.28-2.53,4.54-2.7,4.4-2.95-.12-.21-.58-.36,2.61-2.31,1.38-.34-1.14,1.57,3.3-.7.29-.11.7-.32,1.21-.6.52-.25,1.14-.58,1.84-.95.7-.38,1.48-.79,2.31-1.24.85-.41,1.76-.85,2.71-1.31,1.87-.95,3.96-1.74,5.95-2.52,2.02-.69,3.98-1.3,5.68-1.61-.77.06-1.52.18-1.68.1-.16-.06.27-.37,1.93-.91,2.56-.79,6.13-1.44,9.64-2.01,3.51-.58,6.95-1.07,9.28-1.82.69-.02.95.02.99.08,2.01-.4,5.31-.86,8.42-1.26,1.56-.17,3.06-.35,4.33-.52,1.27-.15,2.31-.28,2.93-.42,1.93.69,8.3.35,14.22.26,5.92-.11,11.37.01,11.27.77,4.22.22,8.44.52,12.66.88l-.34.12c8.07.85,10.97.84,13.85.77,1.86.31.48.3.31.36,11.78,1.63,12.97,1.75,22.98,2.09l.98.61c1.36,0,5.63.66,11.03,1.29,2.7.32,5.68.67,8.72.95,3.04.23,6.15.4,9.08.46-.12.05-.37.13-1.3.13,3.3.09,6.9.36,10.55.58,3.64.27,7.32.55,10.73.8,6.84.36,12.64.6,15.07-.3l8.69-.39c-11.23-.21,1.68-.77-2.94-1.1,2.21-.04,5.06.11,6.68.28,1.62.14,2.02.34-.69.39l-.85-.1c-1.99,1.02,13.96.16,13.67.81,22.11-.48,43.68-1.58,64.28-3.94l-2.45-.44,7.18-.83c1.9-.06,2.6.26-2.53.85,2.74.08,8.55-1.36,8.67-1.58,10.04-1.13-3.79,1.4-.72.98l4.16-.65-.95.05c3.34-.78,3.59-1.13,9.73-1.97,3.9-.45,2.06.13,3.59-.08,0,.05.52,0,2.34-.36l9-1.41-3.69.02c3.94-.9,8.43-1.47,4.19-1.33,1.56-.03,4.43-.41,7.92-.97,1.74-.3,3.64-.62,5.61-.95,1.96-.4,3.98-.81,5.99-1.22,8.04-1.59,15.7-3.52,17.58-3.78,2.71-.84,5.42-1.54,8.3-2.36,2.88-.81,5.91-1.71,9.2-3.02-.84.28-1.56.35-1.36.09.19-.28,1.33-.79,4.06-2.05-.73,1.06,1.92.12,5.12-1.92,1.57-1.05,3.28-2.34,4.68-3.78.73-.68,1.35-1.43,1.96-2.07.55-.69,1.1-1.28,1.53-1.79-1.58,1.82,1.21-2.02,2.11-6.19.52-2.05.68-4.06.63-5.1-.05-1.04-.17-1.09-.5.65.21-2.58.25-2.66.42-2.58.14.07.36.32.43-1.7-.36-3.13-1.06-6.35-2.31-9.52-.59-1.6-1.36-3.15-2.18-4.7-.87-1.52-1.81-3.02-2.87-4.46-4.24-5.8-10.02-10.69-16.28-14.68-.29.02,1.63,1.61-1.16.09-2.04-1.63-4.09-3.26-6.21-4.79-2.58-1.38-2.82-.46-7.22-3.49.6.48,1.49,1.19-.27.34-12.58-7.05-26.29-12.33-39.59-18.36-6.67-3.01-13.22-6.19-19.29-10.12-6.09-3.91-11.69-8.51-16.69-13.59,2.67,2.8.68,1.17-1.47-.86,1.34,1.39-.33.29-.22.72-2.8-2.88-5.38-5.96-7.87-9.08-.48-.31-1.25-1.07-2.15-2.05-.89-.99-1.87-2.23-2.85-3.43-.94-1.23-1.86-2.45-2.62-3.4-.73-.97-1.32-1.66-1.63-1.83.77,1.02,1.52,2.04,2.32,3.03-1.82-1.8-1.1-.15-.04,1.99,1.05,2.13,2.55,4.66,1.93,4.68,1.08.98,2.2,2.23,3.37,3.66,1.21,1.4,2.44,3.02,3.87,4.62,2.79,3.25,6.16,6.7,10.25,9.22,1.5,1.49-1.58-.9-.85-.02.53.31,1.07.65,1.65,1.04.59.38,1.22.81,1.91,1.31,1.36,1.02,3.05,2.24,5.2,3.88-.19-.08-.37-.18-.56-.27,6.29,4.27,11.02,6.94,16.02,9.59,4.99,2.6,10.24,5.19,17.91,8.71l-.95-.94c3.29,1.52,3.93,1.96,5.43,2.75,4.09,1.02-9.3-4.13-5.51-3.33,2,1.42,7.86,3.97,13.49,6.5,5.64,2.52,10.99,5.13,12.19,6.35,4.94,2.46-1.2-1.22,3.73,1.26l1.16.94,1.42.3c3.16,1.76,4.57,2.98,4.56,3.27-.73-.47-2.21-1.14-3.04-1.57,3.97,2.47,11.43,6.52,12.63,7.56-1.41-1.02-2.84-2.03-4.32-2.99,6.43,3.78,13.22,8.65,18.16,14.92,2.46,3.14,4.44,6.54,5.62,10.13.6,1.79,1.05,3.6,1.32,5.39.25,1.79.34,3.56.29,5.27.12-.34.18-.68.28-1.03-.01,2.64-.44,4.46-.85,5.86-.47,1.38-.92,2.37-1.48,3.32-.56.95-1.2,1.9-2.21,3.1-.99,1.22-2.39,2.69-4.72,4.43l.3-.3c-1.73,1.56-4.45,3.26-7.51,4.46,1.35-.69-.02-.27-1.27.09-1.27.33-2.42.6-.62-.21-2.71,1.13-4.49,1.69-5.65,2.1-1.17.4-1.75.61-2.21.8-.92.37-1.3.7-5.11,2l-1.89.05c-2.59.94-2.77,1.16-8.73,2.63,4.84-1.44-3.94.33,1.46-1.35-12.73,1.96-18.54,4.73-24.57,4.62-5.63,2.09,11.06-1.47,7.84-.65,2.79-.19-4.65,1.65-8.65,2.28-2.03.35-3.8.38-6.35.48-2.55.09-5.86.31-10.96,1.16,1.02-.16,1.07-.25,2.09-.41-3.85.4-7.44,1.51-12.2,1.76-2.55.98-6.1.85-6.76,1.71l9.37-1.51c-2.65.48-5.19,1.13-8.18,1.76-2.99.59-6.44,1.11-10.87,1.42.67-.24,3.26-.77,5.05-1.1-2.6.08-4.94.75-7.63.84.34-.44,3.19-.83,6.67-1.27,1.74-.23,3.63-.47,5.45-.71,1.81-.27,3.53-.61,4.94-.96-2.79.11-10.73,1.97-7.96.77-4,1.56-10.11,1.15-16.99,2.61l.41-.52c-1.09.18-3.36.63-5.39.82l3.61-.98c-5.58,1.13-10.91.53-16.3,1.24,11.33-.9,2.59.37,7.41.34-6.97.87-9.01.71-11.26.53-2.25-.22-4.7-.5-12.53.06,2.12-.19,7.98-.17,4.68.24-2.99.06-6.94.15-8.79-.07-10.39.47,1.62.43-2.8.88-3.56-.45-5.1.43-9.66.76l-.04-.48c-11.87-.13-3.13,1.05-13.82.84l4.51-.74c-1.86.08-3.71.19-5.57.24l1.15-.55c-6.05.38-7.94.26-13.87.07.69.17.49.39-.54.56-1.03.15-2.88.24-5.51.18-3.58-.38,2.02-.4-5.43-.54,1.69-.26,3.54-.58,6.77-.05.34-.15,1.66-.26,2.01-.4-3.85-.44-9.69-.33-12.38-.41,1.04.06,2.27.11,2.91.2-3.6.16-7.2.13-10.81.2-1.69-.26-.33-.34,1.01-.42-2.19-.05-3.71.1-6.92-.02.85-.35.68-.77,5.23-.73l-5.14-.03-5.14-.13c-.67-.22-5.23-.83-3.89-.88-1.42-.16-3-.25-4.69-.31-1.69-.07-3.5-.15-5.36-.23-3.72-.17-7.69-.32-11.43-.86-.4.03-1.19.02-2.79-.09-7.06-.85-13.27-2.08-21.74-2.5l-4.7-1.23c-6.62-.55,6.38,1.57-4.64.67-7.81-.56-2.85-.88-5.57-1.35-3.92-.02-10.72.11-17.9-.82,2.39,0,4.26.19,6.49.31Zm-81.15,11.15c1.44-.73,4.3-2.26,5.51-2.41-1.51,1.18-2.91,1.48-5.51,2.41Zm-64.07,101.59c.02-1.19.38-2.99.88-4.99-.19,1.48-.47,3.15-.88,4.99Zm206.52,191.88c-.07.02-.11.03-.16.05-3.52.33-2.27.22.16-.05Zm7.3-.84c.72-.17.66-.23.34-.25-.49.19-2.12.43-3.99.66.53.05,1.48,0,3.64-.41Zm158.73-298.87l-1.43.11c3.16-.66,2.29-.39,1.43-.11Z"/>
          <path class="cls-3" d="m87.24,242.7c.18-.42.3-.53.41-.61.06-.63-.03-.66-.41.61Z"/>
          <path class="cls-3" d="m281.29,149l.25.03c.14-.01.21-.04.26-.06l-.5.03Z"/>
          <path class="cls-3" d="m186.5,452.23c-1.45-.48-2.25-.8-2.77-1.04-.11.09.53.38,2.77,1.04Z"/>
          <path class="cls-3" d="m338.32,444.04c-1.6.03-3.19.02-4.78.09,2.31-.04,3.14.11,4.3.19-.1-.11-1.01-.29.48-.28Z"/>
          <path class="cls-3" d="m377.9,455.02c.65.23,1.33.59,1.97.81l-.08-.28c-2.68-1.2-4.63-1.82-1.89-.53Z"/>
          <path class="cls-3" d="m342.66,445.82c.35.45,3.32.44,6.63.74-.2-.02-.39-.04-.58-.06,1.04-.46-2.52-.67-6.04-.68Z"/>
          <path class="cls-3" d="m350.05,446.62c1.02.1,2.05.24,3.04.38.42-.17-1.23-.22-3.04-.38Z"/>
          <path class="cls-3" d="m308.51,446.32c1.57-.08.92-.63,1.82-.57,1.67-.74-10.31,1.89-1.82.57Z"/>
          <polygon class="cls-3" points="345.24 447.34 344.1 446.75 342.23 447.03 345.24 447.34"/>
          <path class="cls-3" d="m319.28,447.25c1.75-.09,3.5-.19,5.26-.23-.08-.08.58-.17,1.4-.25-3.24.15-6.79.35-6.65.48Z"/>
          <path class="cls-3" d="m325.94,446.77c1.69-.08,3.29-.13,4.23-.25-.91.04-2.88.12-4.23.25Z"/>
          <path class="cls-3" d="m338.06,447.12l-1.55-.12c-1.24-.03-2.47-.06-3.71-.04,1.75,0,3.51.1,5.26.16Z"/>
          <path class="cls-3" d="m263.28,454.38c-1.89.25-3.78.51-5.69.68-.57.2,1,.23,3.12-.05,1.35-.26,3.46-.55,2.57-.62Z"/>
          <path class="cls-3" d="m280.66,453.58c-1.55.12-1.67.02-2.56-.02l-.09.64,2.65-.62Z"/>
          <path class="cls-3" d="m264.06,455.83c-.55.23-8.26,1.36-1.01.56.57-.23,6.28-.97,1.01-.56Z"/>
          <polygon class="cls-3" points="178.43 448.04 179.82 448.51 179.93 447.47 178.43 448.04"/>
          <path class="cls-3" d="m115.27,406.07c2.01,2.83,2.43,3.02,2.74,3.19.16.08.31.15.64.51.34.36.84,1.04,1.82,2.25.63.53-.17-.46-.95-1.47-.75-1.03-1.49-2.05-.89-1.47-2.83-3.07-3.94-4.98-3.36-3.02Z"/>
          <path class="cls-3" d="m118.63,409.09c.45.49.92,1.02,1.45,1.56-.81-.89-1.19-1.31-1.45-1.56Z"/>
          <path class="cls-3" d="m414.44,8.39c-.8-1.19-1.62-2.36-2.39-3.56.43.83.92,1.61,1.37,2.43l1.02,1.14Z"/>
          <path class="cls-3" d="m408.99,2.14l-.02-1.21-1.92-1.83c.56.8,1.65,2.34,1.94,3.04Z"/>
          <path class="cls-3" d="m137.88,159.76l-.22.31c.7-.2,1.59-.77,3.45-1.76-1.1.43-2.15.97-3.24,1.45Z"/>
          <polygon class="cls-3" points="195.81 143.36 194.77 143.43 196.75 143.87 195.81 143.36"/>
          <path class="cls-3" d="m246.04,144.08c-2.03-.24-4.43-.32-6.47-.54,4.45.3,6.95,1.32,6.47.54Z"/>
        </g>
      </g>
    </g>
  </g>
</svg>