<?xml version="1.0" encoding="UTF-8"?>
<svg xmlns="http://www.w3.org/2000/svg" viewBox="0 0 841.89 595.28">
  <defs>
    <style>
      .cls-1 {
        isolation: isolate;
      }

      .cls-1, .cls-2 {
        fill: none;
      }

      .cls-3 {
        fill: #f671b7;
      }

      .cls-2 {
        mix-blend-mode: color-burn;
      }
    </style>
  </defs>
  <g class="cls-1">
    <g id="Layer_1" data-name="Layer 1">
      <g class="cls-2">
        <g>
          <path class="cls-3" d="m342.92,594.63c.48.96.66.42.8.52-.93-1.53-.88-.43-.8-.52Z"/>
          <polygon class="cls-3" points="334.01 579.27 334.3 579.48 332.84 577.27 334.01 579.27"/>
          <path class="cls-3" d="m327.49,563.98c-.07,1.72,2.37,5.54,3.27,8.37l.05.51,1.07.99c-.81-1.61-1.67-3.49-2.48-5.25-.81-1.76-1.53-3.41-1.91-4.62Z"/>
          <path class="cls-3" d="m325.9,555.16c-.07.6-.88-1.71.63,1.96-.04-.2-.04-.26-.06-.37-.13-.33-.3-.79-.56-1.58Z"/>
          <path class="cls-3" d="m326.46,556.74c.62,1.63-.17-1.15,0,0h0Z"/>
          <path class="cls-3" d="m323.76,549.18l.95,2.1c0-.51-.59-2.45-.24-1.77-.86-2.19-.87-1.68-.71-.33Z"/>
          <path class="cls-3" d="m322.58,547.26l.47,1.1c0-.22-.07-.52-.47-1.1Z"/>
          <path class="cls-3" d="m324.05,550.69l-1-2.33c0,.35-.22.45.44,1.08-.27-.13.08.28.56,1.25Z"/>
          <path class="cls-3" d="m324.39,552.08c.25,1.27.68,2.89-.27.77,1.47,4.15,1.74,3.36.27-.77Z"/>
          <path class="cls-3" d="m326.51,563.45c.13.57.28,1.13.43,1.69l.79,1.3c-.4-.65-1.08-3.17-1.22-2.99Z"/>
          <path class="cls-3" d="m320.18,535.36c-.18-.1-.21.85-.35,1.06l.58,1.6c-.11-.87-.42-2.5-.23-2.66Z"/>
          <path class="cls-3" d="m319.83,536.42l-.87-2.4c.52,2.21.74,2.58.87,2.4Z"/>
          <path class="cls-3" d="m321.7,547.11l1.82,3.81c-.68-1.52-1.42-3.03-2.05-4.58l.23.77Z"/>
          <polygon class="cls-3" points="317.99 525.95 318.63 527.28 317.58 524.89 317.99 525.95"/>
          <path class="cls-3" d="m316.65,519.68c.47.99.23-1.52.6-.45-.35-1.7-.85-3.12-1.31-4.4.37,1.38.6,2.87.7,4.85Z"/>
          <path class="cls-3" d="m315.23,512.67c.19.69.44,1.39.71,2.16-.2-.73-.42-1.45-.71-2.16Z"/>
          <path class="cls-3" d="m317.99,529.81c.05-.21.2-.64,0-2.05l-.21,1.07c.06.3.13.64.2.98Z"/>
          <path class="cls-3" d="m317.78,528.87v-.04c-.21-1.06-.36-1.8-.42-2.11.05.27.18.92.42,2.15Z"/>
          <path class="cls-3" d="m318.04,530.06c-.02-.09-.04-.16-.05-.25-.02.1-.02.16.05.25Z"/>
          <path class="cls-3" d="m320.22,540.59c-.67-1.36-1.69-4.33-1.27-1.31.58.96.3-.76,1.27,1.31Z"/>
          <path class="cls-3" d="m317.82,531.38l.56,2.64c.1-.08.14-.59.43.1l-.99-2.74Z"/>
          <polygon class="cls-3" points="317.37 530.13 317.82 531.38 317.61 530.4 317.37 530.13"/>
          <path class="cls-3" d="m315.64,517.28c-.38-1.11-.62-2.37-.9-3.78.18,1.53.41,3.11.68,4.6.17.19.52.8.22-.83Z"/>
          <path class="cls-3" d="m316.57,522.93c-.02-.08-.06-.18-.08-.25,0,.16.01.29.08.25Z"/>
          <path class="cls-3" d="m312.93,499.45c-.02.08-.04.15-.05.23.03.02.05.03.08.05l-.02-.28Z"/>
          <path class="cls-3" d="m315.38,518.37c.12,1.16.34,1.82.59,2.45-.19-.85-.38-1.75-.55-2.72-.08-.08-.12-.09-.03.27Z"/>
          <path class="cls-3" d="m314.49,508.8c0,.61.01,1.3.04,2.02.05-.6.1-1.82-.04-2.02Z"/>
          <path class="cls-3" d="m316.52,522.28c.02.06.03.11.05.17.01-.39-.02-.33-.05-.17Z"/>
          <path class="cls-3" d="m316.52,522.28c-.18-.57-.39-1.01-.56-1.46.14.69.35,1.32.52,1.86,0-.15.01-.3.03-.41Z"/>
          <path class="cls-3" d="m309.77,495.41c.41.18,1.09,3.2.93,5.88.56,2.57,1.68.71,2.18-1.61-.18-.06-.34-.04-.84-2.68-.12.95.1,5.95-.49,3.75-.56-3.51-.15-2.91-.12-4.64-.16.75-.49-.35-.77-1.55-.29-1.2-.61-2.49-.94-2.07l.46,3.1c-.12.07-.37-1.05-.41-.17Z"/>
          <path class="cls-3" d="m313.38,504.74l.2,1.08c-.11-1.25-.07-2.15.08-3.82-.38-1.79-.56-2.15-.7-2.26.18,1.79.28,3.59.53,5.37l-.11-.36Z"/>
          <path class="cls-3" d="m314.25,510.7c-.54-.78-1.09-3.38-1.33-1.71.48,3.2.66,2.19,1.13,4.07-.84-5.13.44,1.44.16-2.31.22,1,.34,1.91.53,2.76-.13-.93-.16-1.83-.2-2.68,0,.05,0,.08-.01.12v.02s0,0,0,0c-.02.23-.04.31-.05.05,0-.02-.02-.08-.02-.11-.06-.03-.13-.11-.19-.21-.12-1.5.08-.25.19.21.02.01.05.05.07.05v-.02s-.94-5.12-.94-5.12c.09,1.1.29,2.46.68,4.88Z"/>
          <path class="cls-3" d="m317.36,536.81c0-.17.03-.17.06-.19-.13-.32-.2-.43-.06.19Z"/>
          <path class="cls-3" d="m317.09,534.65c.15.36.4.62.65,1.83.14,1.07-.2.05-.32.14.29.7.93,2.46.57.13l-.15-.34c-.37-2.08-.5-4.83-.36-4.49-.23.69-.37,1.28-.39,2.73Z"/>
          <path class="cls-3" d="m315.22,522.56c-.39-1.4-.66-2.83-1-4.24l.02,2.25.2-.15c.34,2.46.56,1.87.78,2.14Z"/>
          <polygon class="cls-3" points="313.1 498.94 313.61 499.46 312.72 497.04 313.1 498.94"/>
          <polygon class="cls-3" points="312.54 493.34 312.95 493.52 312.62 492.06 312.54 493.34"/>
          <path class="cls-3" d="m465.36,231.32l.74-1.03c-.36.47-.58.79-.74,1.03Z"/>
          <path class="cls-3" d="m459,237.88l-.03.3c.23-.37.3-.55.03-.3Z"/>
          <path class="cls-3" d="m341.83,360.34c1.22-1.44,2.72-2.96,2.23-2.99l-.65.28c-.56,1.17-1.08,2.01-1.58,2.71Z"/>
          <path class="cls-3" d="m400.3,286.03c-.16.08-.33.17-.5.25-.25.41-.49.79-.7,1.14.36-.42.77-.89,1.21-1.39Z"/>
          <path class="cls-3" d="m400.2,283.79l2.13-1.31c-.5.27-1.19.68-2.13,1.31Z"/>
          <path class="cls-3" d="m487.51,187.72l-.12-1.51c-.49,2.22-.06,1.29.12,1.51Z"/>
          <path class="cls-3" d="m315.12,435.95c.41-1.55.79-2.77,1.01-3.87-.62,1.84-1.33,3.3-1.01,3.87Z"/>
          <path class="cls-3" d="m466.25,237.12c.49-.63.67-.94.58-.99-.51.65-.77,1.04-.58.99Z"/>
          <path class="cls-3" d="m317.06,427.56c-.09.27-.18.53-.27.81-.16,1.16-.34,2.32-.65,3.71.47-1.36.9-2.93.92-4.52Z"/>
          <path class="cls-3" d="m404.37,41.94c-.11-.08-.24-.17-.34-.24-.06.03.1.12.34.24Z"/>
          <path class="cls-3" d="m359.77,11.99c.45.27,1.16.74,1.84,1.18-.31-.24-.86-.6-1.84-1.18Z"/>
          <path class="cls-3" d="m312.12,470.74c.02,1.19.05.19,0,0h0Z"/>
          <path class="cls-3" d="m310.34,476.54c-.05-.25-.11-.45-.21-.48.1.1.17.27.21.48Z"/>
          <path class="cls-3" d="m317.18,415.33s.02-.06.03-.1c-.17.33-.14.27-.03.1Z"/>
          <path class="cls-3" d="m311.9,472.53c.06-.45.11-.96.14-1.52-.04.25-.08.71-.14,1.52Z"/>
          <path class="cls-3" d="m312.11,472.3c-.02.41-.04.73-.05,1.04.07.15.12.02.05-1.04Z"/>
          <path class="cls-3" d="m312.11,469.08c0,.68-.03,1.32-.06,1.93.03-.23.06-.33.07-.27,0-.35,0-.84,0-1.66Z"/>
          <path class="cls-3" d="m475.98,106.41c-.03-.08-.06-.16-.09-.24-.73-.97-.46-.52.09.24Z"/>
          <path class="cls-3" d="m354.73,331.44c-.03.05-.04.08-.06.13.04-.04.08-.1.11-.14h-.05Z"/>
          <path class="cls-3" d="m357.06,327.74c-.35.9-.7,1.54-1.09,2.1-.37.56-.75,1.05-1.2,1.59l1.83-.45c.12-1.09.3-2.16.45-3.24Z"/>
          <path class="cls-3" d="m477.98,213.67l-1.81,2.36c1.23-3.4,2.69-5.48.84-3.38.25.25.02,1-.45,2-.46,1-1.14,2.25-1.96,3.43-.78,1.2-1.56,2.39-2.09,3.36-.53.97-.9,1.66-.67,1.95l-1.42,1.38c.35-.44.34-.56.69-.99-2.84,2.6-.87,2.9-4.26,6.52-1.2,1.24-2.13,2.01-1.48,1.02-.73,1.05-1.58,2.01-2.37,3.03-.79.79-.77.43.01-.36-1.31,1.44-2.63,2.88-4.04,4.24v-.06c-.45.73-1.6,2.28-2.17,3.03-1.23.88.45-.62.05-.48-.7.84-1.47,1.61-2.2,2.42-1.24.61.59-1.4,2.25-2.91-1.54.56-2.02,1.03-2.74,1.9-.36.43-.8.94-1.48,1.58-.68.65-1.61,1.42-3.01,2.3.75-.7,1.51-1.39,2.23-2.12-1.97.73-3.66,2.44-6.63,4.27.79-.31,6.11-3.49,3.62-.97-.84.55-1.85,1.38-3.19,2.77-.32-.37-1.71.88-3.53,2.34l-.27-.6c-1.87,1.7-1.54,1.81-2.55,2.95-2.29,1.65-3.05,1.6-3.84,1.66-3.71,2.58,3-1.2-1.26,2.05-3.18,2.03-5.18,3.78-8.63,6.71-2.28,1.35.15-.59-.73-.19l-1.62,1.77c-.47.32-.41.09-.38-.03-1.5,1.31.24.61-2.19,2.56-.27,1.06-5.8,2.86-8.45,5.8-.88.41.14-.59-.24-.62-3.97,3.54-3.43,3.02-6.49,6.17l-3.18,1.95c2.45-1.29.02,1.27-2.03,3.55.87-.45,1.66-.78,2.15-1.05-1.22,1.06-2.35,2.22-3.51,3.34-.51.3-.28-.19.16-.91-.22.26-.42.5-.58.69-1.47.93-1.02.07-.3-1.01.53-.28,1.07-.55,1.58-.82.66-1.09,1.28-2.11.85-2.25-.21.25-.64.68-1.13,1.14.17-.28.27-.49.12-.44-.17.05-.47.49-.97,1.13l-1.3.16-.03.39-5.17,3.78c-.75.88-1.48,1.72-2.18,2.63-.68.92-1.38,1.87-2.14,2.85-1.53,1.98-3.33,4.13-5.84,6.7.93-1.6-.32-.87-.69-1.38,1.9-.88,3.89-4.04,6.72-6.53-1.47,1.29-1.36.78-1.07.36l-4.47,5.03c-.22-.45-1.34.66-2.68,1.8,1.62-.25-2.98,4.08-4.63,6.26-.36-.11-.16-.81,2.2-3.16-3.08,2.15-2.44,4.21-5.34,6.41.51-.63.87-.89.96-1.24-1.08,1.57-4.23,4.97-3.75,3.94l.52-.62c-.9,1-2.02,2.28-3.19,3.65-.58.69-1.18,1.4-1.77,2.1-.29.36-.59.71-.88,1.06-.27.37-.53.73-.79,1.09-2.07,2.86-3.68,5.34-3.59,5.92-.12-.02-.38-1.18-.32-1.54l-1.8,4.66c-.59,1.55-1.07,3.17-1.6,4.73-.11-1.12-3.39.54-1.17-3.37-.82.99-1.83,2.23-3.16,4.6.59-.66,2.11-1.19,1.49-.17-2.54,2.23-1.66,1.61-4.54,4.56.43-.51.69-.29.67.25,0,.56-.22,1.45-.79,2.32.03-.37-1.04-.47-.74-1.18l-1.78,4.98c.51-1.2-.69-.7-1.57.12.49-.33-2.42,3.76-2.97,5.03.42-.6.87-1.18,1.34-1.75-3.08,4.95-1.45,5.8-4.31,10.77.13-.72-.42-2.19-1.97.32-.1.71-.15,2.37-.4,4.43-.26,2.06-.73,4.51-1.64,6.87l-.73.73-.68,1.82-.59,1.86c.05-.64.11-1.57.29-2.63.18-1.06.41-2.27.66-3.52.5-2.5,1.1-5.16,1.61-7.01-1.19,1.84-.61.37-2.03,3.32-.79.9.37-1.81.78-2.69l-3.55,6.77c.39,0-.13,1.36-.59,2.76-.44,1.41-.89,2.81-.58,2.79.45-1.3.84-2.64,1.35-3.92l1.51-3.86c.77.01-.49,5.06-2.61,9.97-.79,1.15-.69-1.42-.94-1.41-.07.74-1.62,4.87-1.96,5.27l.57-2.24c-1.41,2.67-1.17,4.81-2.97,7.97-.47,1.15-2.11,3.18-1.81,3.53,1.43-1.65,3.78-1.16,3.86.29-.1.19-.85,1.64-1.65,3.19-.42.77-.85,1.58-1.22,2.26-.38.69-.65,1.27-.85,1.57-1.19,1.75-.43-3.38-1.45-1.89.15.13.03,1.28-.05,1.75-.54,1.19-.38-.7-1.15,2.04.51.66-1.78,5.48.15,1.46-.64,2.7-1.02,2.77-1.96,5.88.37-.43.49.37.49,1.62.03,1.26-.09,2.96-.34,4.32-.13-.2-.5.34-.67.6-.74,2.73-1.37,4.81-1.99,6.85-.53,2.06-1.01,4.09-1.54,6.67-.26.44-.96,2.91-1.04,1.79-.03.77.05,1.5-.25,3.1-1.21,2.99.64-3.58-.54-1.35.18.14.08,1.2-.03,2.52-.08,1.33-.21,2.91-.26,4.08.35-.31.58-1.63.73-3.16.12-1.54.36-3.27.45-4.44.42.07.64,1.14.67,2.87.05,1.73.07,4.14-.16,6.88-.44,4.34-.82,1.79-.81,2.56-.73,4.04-.45,5.83-.3,7.42.16,1.59.28,3-.34,6.35-.79,2.64-1.08.04-1.52.61.13-3.57.86-5.42,1.06-7.82l-.53,2.93c-.07-1.14.02-3.53.3-4.8-.35,1.1-.7,4.56-1.09,8.53-.1.99-.2,2.01-.3,3.04-.06,1.03-.12,2.06-.18,3.07-.13,2.02-.28,3.93-.47,5.51.15,1.13.33,3.08.55,2.17l-.05-2.01c.47-1.83.54,3.78.79,1.26.14,1.35.32,2.77.43,4.33.12,1.56.12,3.25.08,5.13l-.59.72c.19-.09.26-2.47.12-3.53.23,1.56-.69,5.81.14,7.51l.35-2.66c.21,1.33.44,2.83.69,4.4.23,1.57.49,3.22.49,4.89.51-1.55-.12-.76.44-3.16-.37,1.04-.54-1.08-.55-3.05-.05-1.97-.1-3.79-.52-2.13.78-2.45.18-4.21.95-7.38-.2.1-.4,1.12-.27-1.67-.06-.13-.13-.42-.17-.61,0-.09.01-.12.02-.19,0,.06-.02.1-.03.15-.03-.12-.04-.13,0,.06-.1.66-.21,1.2-.32,1.42-.44-1.39-.43-5.85-.54-7.36.18-1.66.2.7.46-.19l-.25-2.26c.46-.2.96-4.36,1.03-.45l.19-3.5c.42-2.04.81-4.85.78-6.62.25-1.64-.1-4.21.11-2.74.08-1.84.13-3.68.35-5.5l.12-.04c.43-2.68.66-5.48.99-8.36.09-.72.16-1.45.29-2.17.14-.72.29-1.45.46-2.18.34-1.46.74-2.94,1.25-4.42.13-.91.25-1.83.44-2.9.2-1.07.38-2.3.86-3.76l.53-.49c.46-2.31,2.14-6.72,2-7.8.42-.54.79-1.5,1.21-2.68.45-1.17.89-2.57,1.32-4.03.87-2.91,1.66-6.07,2.41-7.99l-.43-.31c1.02-2.65,1.83-5.26,2.87-8.64l-.49.04c.18-.75.46-1.58.8-2.47.35-.89.83-1.81,1.31-2.79.97-1.96,2.07-4.1,3-6.33.03.37-.5,1.48-.93,2.23.8-1.22,1.46-2.55,2.04-3.92.56-1.38,1.19-2.74,1.73-4.13,1.11-2.76,2.17-5.49,3.65-7.66.44-1.24.98-2.02,1.52-2.77-.06.11-.1.21-.14.29.07-.12.16-.29.26-.46.35-.47.7-.95,1.09-1.47-.36.42-.69.84-.95,1.21.48-.88,1.17-2.24,1.8-3.6l.73-.32c.05-.11.1-.2.16-.31.86-1.19.37-1.14-.32-.64.3-.7.55-1.35.71-1.87.64-.32,1.02-1.23,1.52-2.13.5-.91,1.03-1.86,1.81-2.33.19-1.06,3.71-6.53,3.42-7.67.12.02.4-.33-.02.36.95-1.38,2.04-2.65,2.68-4.02l.91-.24,1.41-3.46c1.57-1.61,2.27-2.23,1.4-.15,1.22-2.39,1.77-3.32,2.33-4.11.54-.81,1.03-1.55,2.13-3.55l.18.42c.97-1.28,2.14-3.65,2.99-4.22,1.33-1.25,4.33-4.56,7.7-8.47.86-.97,1.7-2.01,2.63-2.98.94-.96,1.9-1.94,2.84-2.9,1.9-1.91,3.77-3.75,5.49-5.29-1.03.24-.22-.47.9-1.26,1.09-.81,2.4-1.77,2.23-2.22.58-.17,1.63-.94.7.26,1.62-1.71,2.99-2.85,4.17-3.9.6-.52,1.14-1.04,1.67-1.57.55-.52,1.06-1.08,1.56-1.75.59-.14-.5.95-.03.77.25-.29.98-1.15,1.47-1.34.47-.18-.38.62-.86,1.19,3.63-3.13,3.46-4.1,3.22-4.94,2.12-1.28,2.98-2.15,4.06-3.64.84-.32,2.12-.98-.18.94.68-.5,2.77-2.02,4.66-3.48,1.92-1.43,3.64-2.81,3.52-3.12.52-.19,1.92-1.38,2.24-1.7,3.1-2.2,3.39-2.37,6.4-4.59l-.9.52c.75-1.48,2.43-1.95,4.83-3.77l-.02.11c5.96-3.56,2.28-1.94,8.21-5.4l-.58-.17c-.08-1.2,5.27-3.04,8.23-5.72l-1.32.63c1.53-1.57,5.7-2.5,7.52-3.75.43-.23-.5.59-.99,1.04,4.9-3.05.2-.95,3.47-3.7.83-.22-.26,1.3,2.04-.43.64-.35,2.08-1.9,3.79-3.61,1.71-1.7,3.58-3.69,5.29-4.74-.83.38-1.64.76-.29-.7,1.09-1.06,2.73-2.33,4.31-3.61,1.59-1.27,2.96-2.74,3.63-4,.32-.23.47-.29.53-.26.36-.47.87-1.03,1.39-1.71.51-.67,1.07-1.41,1.61-2.12,1.07-1.44,2.07-2.77,2.29-3.49.65-.17,1.49-1.01,2.41-2.16.46-.58.93-1.23,1.41-1.91.44-.71.87-1.46,1.3-2.18.84-1.47,1.67-2.84,2.29-3.85.6-1.02,1.1-1.62,1.42-1.41l1.78-3.15,1.58-3.26.06.24c.53-1.03.98-1.89,1.3-2.66.3-.78.52-1.43.69-2,.35-1.15.49-1.96.63-2.78.51-.94.34-.18.38-.06,1.33-3.1,1.96-4.85,2.45-6.49.39-1.67.65-3.25,1.02-6.06l.61-.45c0-.79.8-3.1,1.5-6.09.33-1.5.67-3.17.96-4.87.21-1.71.35-3.47.38-5.12.05.07.13.21.14.74.1-1.86.15-3.9.35-5.96.23-2.05.28-4.14.4-6.07.13-1.94.04-3.73-.1-5.2-.17-1.47-.41-2.62-.95-3.25l-.95-4.81c.52,6.28-.88-.84-.9,1.77-.29-2.43-.36-6.37.23-3.4l-.02.48c.55.49.33-1.46.05-3.52-.23-2.07-.74-4.21-.39-4.2-1.2-6.11-2.87-12.05-4.84-17.78-1.94-5.74-4.36-11.21-7.09-16.38v1.52s-1.91-3.58-1.91-3.58c-.36-1.02-.19-1.54,1.18,1.02-.19-.77-.84-1.81-1.49-2.63-.67-.81-1.31-1.42-1.4-1.42-2.69-5.01,1.88,1.46,1-.04l-1.28-2,.2.5c-1.25-1.49-1.57-1.48-3.49-4.39-1.1-1.92-.25-1.19-.71-1.93.04-.02-.09-.29-.73-1.11l-2.97-4.19.74,2c-1.54-1.68-2.86-3.86-1.94-1.6-.66-1.66-3.5-5.5-6.54-8.95-1.49-1.75-3.09-3.35-4.3-4.69-1.23-1.33-2.22-2.28-2.53-2.72-2.51-1.98-4.79-4.09-7.62-6.73.65.72.64,1.58-1.81-.66.9-.11-.16-1.22-1.62-2.62-1.49-1.37-3.42-2.97-4.17-4.2,1.55,1.93-7.69-5.61-5.2-2.6-2.18-1.74.17-.52-1.37-2-5.68-3.46-11.97-8.45-19.18-12.35-.2.09.86,1-.8.36l-3.33-2.88c-1.45-.72-1.79.17-4.08-1.77.29.33.73.82-.24.35-6.81-4.19-14.12-7.77-21.34-11.55-7.21-3.78-14.35-7.79-20.68-12.77,1.66,1.44.41.7-1-.17.87.64-.25.35-.2.67-1.75-1.42-3.51-2.83-5.22-4.27-.68-.08-2.16-1.11-3.57-2.11-1.43-.98-2.71-2.04-3.19-1.99l1.75,1.2c-1.34-.57-.82.38-.03,1.51.8,1.11,1.84,2.42,1.39,2.69.78.29,1.55.81,2.36,1.45.82.62,1.68,1.36,2.59,2.13,1.82,1.56,3.95,3.13,6.51,4.01.89.78-1-.26-.59.26,1.34.37,2.78,1.1,5.26,2.78l-.34-.08c7.31,4.11,10.28,6.16,18.45,10.82l-.39-.74c1.75,1,2.06,1.33,2.84,1.87,2.38.45-4.99-2.68-2.75-2.4,1.92,2.1,12.56,6.65,13.62,8.48,2.72,1.47-.53-.92,2.18.56l.58.65.87.04c1.75,1.03,2.47,1.84,2.41,2.1-.41-.27-1.26-.61-1.73-.84,2.14,1.56,6.51,3.49,7.23,4.04-.82-.56-1.66-1.08-2.48-1.62,3.74,1.93,7.73,4.34,11.65,6.77,1.94,1.24,3.88,2.48,5.76,3.68,1.84,1.24,3.68,2.37,5.39,3.46l-.36-.55c2.59,1.69,3.55,2.49,4.54,3.35.97.9,1.98,1.86,4.67,3.92l-.22-.12c1.17.71,2.62,1.83,4,3.06-.73-.46-.21.16.26.74.47.59.86,1.15-.06.49,2.59,2.11,3.26,2.62,3.75,2.89.49.28.83.29,2.68,1.58l.46.99c.65.42,1.03.62,1.56,1.01.53.38,1.2.96,2.38,2.19-2.12-1.83,1.06,1.98-1.36-.02,1.06,1.44,2.07,2.61,3.01,3.6.92,1.01,1.76,1.87,2.52,2.64.76.77,1.45,1.44,1.98,2.16.53.72.95,1.44,1.22,2.26,1.41.96.57-.33-.46-1.71-1.01-1.4-2.35-2.76-1.65-2.14-.37-.69.21-.3,1.07.48.84.79,1.9,2.03,2.56,2.94,1.41,1.8,1.35,3.85,4.63,8.49-.31-.47-.39-.46-.7-.94.94,1.93,2.64,3.26,3.66,5.71,1.29.93,1.72,2.92,2.62,2.88-.96-1.46-1.9-2.94-2.88-4.38,1.71,2.41,4.05,4.3,5.96,8.87-.32-.26-1.21-1.44-1.79-2.26.48,1.37,1.46,2.35,1.96,3.76-.91,0-3.15-5.53-5.39-7.89.25.74,1.15,1.94,1.79,2.85.63.91.96,1.55.22,1.06,1.02.73,1.67,1.98,2.37,3.41.74,1.42,1.36,3.1,2.61,4.64l-.54-.02c.32.52,1.12,1.54,1.53,2.58-.45-.54-.91-1.07-1.41-1.58.94,1.27,1.37,2.73,1.84,4.13.23.71.45,1.41.7,2.1.23.7.47,1.39.8,2.06-1.08-2.91-1.18-3.25-.94-3.24.21.02.65.44.28-.84.94,1.7,1.36,2.88,1.6,3.76.25.88.29,1.49.34,2.12.12,1.26.13,2.66,1.55,6.7-.42-1.08-1.06-4.23-.3-2.57.42,1.59.9,3.69.88,4.74,1.55,5.46.25-.97,1.15,1.29-.03,1.01.21,1.67.55,2.38.34.71.73,1.48,1.09,2.69l-.47.12c.53,3.21.85,3.59,1.13,3.89.29.3.57.53.84,3.47l-1.05-2.35.65,2.99-.64-.54c.49,1.6.65,2.68.77,3.75.12,1.07.17,2.14.26,3.76.28-.78.91.35,1.06,3.25-.19,1.98-.49-1.08-.25,3-.3-.92-.77-1.9-.41-3.7-.17-.17-.35-.89-.52-1.06-.11,1.06-.06,2.38.03,3.62.1,1.24.11,2.4.13,3.14.02-.57.04-1.24.11-1.59.2,1.96.5,3.93.63,5.91-.23.93-.34.18-.44-.55-.01,1.19.17,2.03.12,3.79-.37-.48-.78-.4-.83-2.87.02,1.86.15,3.74.09,5.62-.21.36-.77,2.81-.84,2.07-.14.76-.21,1.62-.25,2.54-.07.92-.15,1.9-.23,2.91-.08,1.01-.15,2.06-.28,3.11-.18,1.03-.41,2.06-.7,3.05.03.23,0,.66-.13,1.53-.45,1.88-1.17,3.58-1.73,5.4-.27.92-.61,1.83-.92,2.8-.31.98-.6,2.01-.85,3.14-.48.75-1.08,1.44-1.61,2.15-1.24,3.36,2.18-2.91.11,2.71-.69,2.02-1.09,2.27-1.27,2.24-.21-.04-.31-.41-.72.21-.3,1.01-.7,2.42-1.31,3.99-.69,1.51-1.62,3.17-2.83,4.71.53-1.18,1.12-2,1.68-3.06Zm-29.03,33.47c.61-.64,1.74-1.98,2.41-2.17-.4,1.06-1.17,1.34-2.41,2.17Zm-54.37,42.5c.4-.55,1.23-1.14,2.22-1.74-.61.57-1.34,1.16-2.22,1.74Zm-82.19,168.03s0-.06-.01-.09c.37-1.92.23-1.24.01.09Zm-.51,4.01c.05.41.12.39.19.22-.1-.29-.09-1.2.03-2.22-.16.28-.27.79-.22,2.01ZM471.91,93.74l.34.74c-1.12-1.43-.73-1.08-.34-.74Z"/>
          <path class="cls-3" d="m400.19,284.06c.25-.09.36-.06.46-.03.22-.28.17-.36-.46.03Z"/>
          <path class="cls-3" d="m487.53,188l.03-.13c-.01-.08-.03-.12-.06-.15l.02.28Z"/>
          <path class="cls-3" d="m319.99,399.13c.32-.78.54-1.21.73-1.48-.1-.08-.31.25-.73,1.48Z"/>
          <path class="cls-3" d="m312.41,483.07l-.2-2.58c.06,1.25-.04,1.7-.09,2.33.11-.06.26-.56.29.25Z"/>
          <path class="cls-3" d="m311.2,505.76c.11.37.12.8.23,1.17l.21-.13c-.24-1.61-.57-2.71-.44-1.03Z"/>
          <path class="cls-3" d="m310.88,485.52c-.42.22-.2,1.85,0,3.66,0-.11-.01-.21-.02-.32.62.5.25-1.42.01-3.34Z"/>
          <path class="cls-3" d="m310.92,489.6c.06.56.1,1.13.12,1.68.24.2,0-.68-.12-1.68Z"/>
          <path class="cls-3" d="m311.9,466.82c-.15.85.49.56.3,1.04.47.98-.35-5.74-.3-1.04Z"/>
          <path class="cls-3" d="m309.6,487.06l.46-.68-.43-1.01c-.01.56-.05,1.12-.03,1.68Z"/>
          <path class="cls-3" d="m309.74,472.62l-.17,2.92c.08-.04.13.33.16.78.04-1.8.15-3.77,0-3.7Z"/>
          <path class="cls-3" d="m309.74,476.32c-.03.94,0,1.83.1,2.35-.02-.51-.07-1.59-.1-2.35Z"/>
          <polygon class="cls-3" points="309.32 483.07 309.4 482.2 309.38 480.14 309.32 483.07"/>
          <path class="cls-3" d="m312.38,441.39l.33-3.17c-.12-.35-.35.49-.46,1.68,0,.77-.1,1.95.13,1.49Z"/>
          <path class="cls-3" d="m309.79,450.79c.19-.85.3-.9.51-1.36l-.61-.17.1,1.53Z"/>
          <path class="cls-3" d="m310.83,441.51c-.12-.34.2-4.68-.36-.65.12.35-.21,3.54.36.65Z"/>
          <polygon class="cls-3" points="323.24 395.01 322.96 395.78 323.97 396.01 323.24 395.01"/>
          <path class="cls-3" d="m338.7,355.28c-2.07,3.22.11,1.1-1.83,3.97-.22.9,1.59-2.34,1.32-1.44.89-2.13,1.61-3.12.51-2.52Z"/>
          <path class="cls-3" d="m338.19,357.8c-.14.34-.29.71-.43,1.1.27-.61.38-.91.43-1.1Z"/>
          <path class="cls-3" d="m352.84,6.54c-.62-.51-1.2-1.07-1.79-1.6l1.02,1.22.77.39Z"/>
          <path class="cls-3" d="m348.71,4.36l-.05-.86-1.51-.42c.45.31,1.32.91,1.56,1.27Z"/>
          <path class="cls-3" d="m442.93,250.31l-.05.24c.4-.1.85-.43,1.75-1.11l-1.7.87Z"/>
          <polygon class="cls-3" points="466.83 228.63 466.46 229.05 467.58 228.64 466.83 228.63"/>
          <path class="cls-3" d="m480.57,205.82c-.45.99-.94,2.17-1.43,3.14.48-1.08,1.04-1.85,1.39-2.36.34-.51.43-.77.04-.78Z"/>
        </g>
      </g>
      <g class="cls-2">
        <path class="cls-3" d="m347.26,2.29c.39.37.5-.08.61-.09-.74-.49-.66.19-.61.09Z"/>
      </g>
    </g>
  </g>
</svg>