<?xml version="1.0" encoding="UTF-8"?>
<svg id="Layer_1" data-name="Layer 1" xmlns="http://www.w3.org/2000/svg" viewBox="0 0 390 796">
  <defs>
    <style>
      .cls-1 {
        fill: #ff7f11;
      }

      .cls-2 {
        fill: none;
        stroke: #ff7f11;
        stroke-linecap: round;
        stroke-linejoin: round;
        stroke-width: 2px;
      }
    </style>
  </defs>
  <g>
    <path class="cls-1" d="m107.19,398.01c3.01-25.28,98.9-234.94,117.76-140.53-45.76,43.36-99.84,85.19-117.76,140.53Z"/>
    <path class="cls-2" d="m107.19,398.01c3.01-25.28,98.9-234.94,117.76-140.53-45.76,43.36-99.84,85.19-117.76,140.53Z"/>
  </g>
  <g>
    <path class="cls-1" d="m198.22,490.89c7.73-33.69,152.95-137.04,146.13-71.64-48.14,26.34-96.45,47.74-146.13,71.64Z"/>
    <path class="cls-2" d="m198.22,490.89c7.73-33.69,152.95-137.04,146.13-71.64-48.14,26.34-96.45,47.74-146.13,71.64Z"/>
  </g>
  <g>
    <path class="cls-1" d="m224.94,593.78c54.29.21,128.69-44.25,174.41-12.46-2.17,69.42-130.77,12.72-174.41,12.46Z"/>
    <path class="cls-2" d="m224.94,593.78c54.29.21,128.69-44.25,174.41-12.46-2.17,69.42-130.77,12.72-174.41,12.46Z"/>
  </g>
  <g>
    <path class="cls-1" d="m259.09,728.29c24.52,6.71,194.86,52.35,122.48,79.91-43.34-21.36-81.25-54.33-122.48-79.91Z"/>
    <path class="cls-2" d="m259.09,728.29c24.52,6.71,194.86,52.35,122.48,79.91-43.34-21.36-81.25-54.33-122.48-79.91Z"/>
  </g>
  <g>
    <path class="cls-1" d="m-17.24,343.94c-27.1-44.04-63.98-142.01,3.65-164.28,48.85,27.32,17.23,124.44-3.65,164.28Z"/>
    <path class="cls-2" d="m-17.24,343.94c-27.1-44.04-63.98-142.01,3.65-164.28,48.85,27.32,17.23,124.44-3.65,164.28Z"/>
  </g>
  <path class="cls-1" d="m219.47,831.92c-83.84-6.21-170.58-1.51-253.07-13.51-32.07-127.69-11.65-272.05,8.44-402.4,2.6-13.58.8-16.47,14.11-17.99,189.23,17.96,256.91,273.89,230.52,433.91"/>
</svg>