<?xml version="1.0" encoding="UTF-8"?>
<svg id="Layer_1" data-name="Layer 1" xmlns="http://www.w3.org/2000/svg" viewBox="0 0 390 796">
  <defs>
    <style>
      .cls-1 {
        fill: #c7d6d5;
      }
    </style>
  </defs>
  <path class="cls-1" d="m3.92,424.15c-2.1-23.28,30.22-32.47,40.69-11.59,8.67-39.51,64.85-22.04,46.22,14.39,16.17,5.26,48.14,29.31,36.73,48.19-19.02,11.67-47.15-11.37-55.83-28.38-7.21,24.24-42.01,39.45-56.05,13.32-12.01,9.24-24.72-7.23-20.46-19.4,1.34-6.11,5.51-11.14,8.7-16.53Z"/>
  <path class="cls-1" d="m120.39,604.76c10.78,25.8,48.75,29.86,64.75,6.93,19.6,32.37,70.85,15.42,67.31-22.23,34.48,33.76,61.84-58.3-31.91-41.26-7.31-16.68-20.77-31.99-38.61-35.68-17.83-3.7-39.03,8.56-39.99,26.75-17.45-24.45-54.44-2.67-41.56,24.44-33.36-18.93-61.76,28.68-29.28,49.05,13.3,7.43,30.37,2.18,37.42-11.32-2.02,8.57,8.08,10.71,11.87,3.33"/>
  <path class="cls-1" d="m10.45,684.34c21.24-23.7,63.31-16.36,75.27,13.13,19.25-12.42,48.6-4.07,58.42,16.64,24.59-20.82,65.74-8.75,75.19,22.05,7.34-9.64,25.19-4.8,28.61,6.83,4.75,30.07-33.83,35.91-50.27,15.03-23.61,15.55-58.63,10.18-76.49-11.73-13.94,23.63-51.24,28.6-70.88,9.44-17.08,11.72-42.03-2.57-40.58-23.23-4.99,7.49-18.06,4.45-21.99-3.66-3.92-8.1-6.45-21.26,4.04-25.49-8.07-14.11,8.22-28.72,18.67-19.01h0Z"/>
  <path class="cls-1" d="m364.51,672.06c10.02-24.35-31.42-31.59-34.95-5.23-13.94-24.42-50.58-17.02-40.4,8.34-9.88-.28-17.37,11.13-15.14,20.75,2.47,18.53,41.79,27.47,40.71,3.41,7.92,27.81,42.2,26.82,36.55,3.27,8.48,5.23,25.42,4.97,21.97-8.33,18.36-5.18,8.2-30.94-8.74-22.22Z"/>
</svg>