<?xml version="1.0" encoding="UTF-8"?>
<svg id="Layer_1" data-name="Layer 1" xmlns="http://www.w3.org/2000/svg" viewBox="0 0 390 796">
  <defs>
    <style>
      .cls-1 {
        fill: #7692ff;
      }
    </style>
  </defs>
  <g>
    <path class="cls-1" d="m-2.85,425.39c17.05-24.93,37.09-52.62,29.72-81.91.68,29.16,13.37,57.87,34.5,77.98-18.99,27.45-28.95,61.03-28.01,94.39-6.28-32.06-18.63-62.92-36.22-90.46Z"/>
    <path class="cls-1" d="m-.26,426.9c13.37-19.55,28.67-40.23,31.35-64.48.73-6.6.26-13.29-1.33-19.74-.81-3.27-5.98-2.6-5.89.8.58,23.3,8.48,46.36,22.29,65.14,3.93,5.35,8.29,10.38,13.09,14.97l-.47-3.64c-15.07,21.85-24.43,47.38-27.45,73.72-.85,7.36-1.16,14.77-.96,22.18l5.89-.8c-4.95-25.17-13.61-49.6-25.56-72.31-3.39-6.44-7.05-12.73-10.96-18.87-.87-1.36-2.67-1.92-4.1-1.08-1.36.8-1.95,2.73-1.08,4.1,13.6,21.34,24.06,44.6,30.95,68.95,1.94,6.86,3.59,13.8,4.97,20.79.66,3.33,5.98,2.55,5.89-.8-.69-25.51,4.98-51.12,16.4-73.95,3.28-6.56,7.03-12.88,11.19-18.92.73-1.06.44-2.77-.47-3.64-16.1-15.38-27.12-35.66-31.56-57.46-1.23-6.07-1.91-12.21-2.07-18.4l-5.89.8c5.61,22.7-6.28,44.61-18.26,63.07-3.62,5.58-7.4,11.04-11.16,16.53-.92,1.34-.25,3.33,1.08,4.1,1.48.87,3.19.26,4.1-1.08Z"/>
  </g>
  <g>
    <path class="cls-1" d="m183.65,672.48c7.44-13.14,16.26-27.78,11.36-42.06,1.57,14.5,9.1,28.27,20.47,37.4-8.3,14.47-11.85,31.62-9.98,48.21-4.48-15.71-11.93-30.56-21.85-43.54Z"/>
    <path class="cls-1" d="m186.24,674c7.48-13.2,16.9-28.68,11.66-44.37-.47-1.41-1.78-2.38-3.29-2.15-1.34.2-2.77,1.44-2.6,2.95,1.71,15.33,9.32,29.78,21.35,39.52l-.47-3.64c-8.53,14.97-12.28,32.58-10.39,49.72l5.89-.8c-4.58-15.96-12.1-31.05-22.16-44.26-.98-1.29-2.59-1.96-4.1-1.08-1.27.74-2.06,2.81-1.08,4.1,9.76,12.82,17.11,27.33,21.55,42.83.41,1.42,1.82,2.37,3.29,2.15,1.34-.2,2.77-1.44,2.6-2.95-1.78-16.14,1.52-32.57,9.57-46.69.6-1.06.56-2.81-.47-3.64-10.74-8.69-18.06-21.54-19.6-35.28l-5.89.8c4.68,14.01-4.41,28.03-11.06,39.75-1.91,3.36,3.27,6.39,5.18,3.03Z"/>
  </g>
  <g>
    <path class="cls-1" d="m82.45,513.79c49.2-24.13,65.61-88.42,65.06-145.82-.77,50,12.91,100.22,38.46,141.27-26.73,33.58-40.51,79.79-37.25,124.85-12.67-45.46-35.7-87.26-66.27-120.29Z"/>
    <path class="cls-1" d="m83.96,516.38c19.4-9.56,34.39-25.89,44.58-44.77,10.85-20.1,16.69-42.55,19.67-65.08,1.69-12.78,2.41-25.67,2.29-38.56-.03-3.86-5.94-3.87-6,0-.28,19.74,1.64,39.5,5.65,58.83,3.95,19.06,10,37.66,18.01,55.4,4.44,9.84,9.52,19.38,15.22,28.55l.47-3.64c-10.85,13.68-19.41,28.93-25.75,45.19-6.45,16.54-10.44,34-12.07,51.67-.92,10.01-1.02,20.08-.31,30.11l5.89-.8c-4.99-17.85-11.58-35.25-19.68-51.93-7.88-16.22-17.22-31.74-27.96-46.23-6.05-8.16-12.5-16-19.39-23.46-2.63-2.84-6.86,1.41-4.24,4.24,11.93,12.91,22.55,26.98,31.81,41.92s17.43,31.21,23.94,47.83c3.74,9.57,6.99,19.32,9.76,29.21.88,3.16,6.14,2.67,5.89-.8-1.23-17.22-.03-34.57,3.57-51.45,3.56-16.69,9.37-32.9,17.49-47.92,4.43-8.19,9.52-16.05,15.31-23.35.82-1.04,1.23-2.42.47-3.64-9.97-16.06-18.03-33.25-24.1-51.15-6.13-18.1-10.34-36.89-12.42-55.89-1.19-10.86-1.7-21.79-1.54-32.72h-6c.2,22.48-2.02,44.92-7.9,66.63-5.5,20.32-14.39,40.3-28.52,55.96-7.78,8.62-16.72,15.51-27.15,20.65-1.45.72-1.85,2.78-1.08,4.1.87,1.48,2.65,1.8,4.1,1.08Z"/>
  </g>
  <g>
    <path class="cls-1" d="m28.61,808.2c-4.35-26.81,6.15-55.54,26.74-73.24-19.36-19.47-31.74-45.75-34.42-73.08-23.08,100.28-14.82,58.58,7.67,146.32Z"/>
    <path class="cls-1" d="m31.51,807.4c-3.2-20.05,2.37-41.25,14.33-57.74,3.35-4.62,7.31-8.84,11.64-12.58,1.23-1.06,1.08-3.16,0-4.24-14.66-14.8-25.2-33.46-30.42-53.62-1.47-5.69-2.54-11.49-3.12-17.34-.15-1.48-1.03-2.76-2.6-2.95-1.42-.17-2.95.67-3.29,2.15-3.42,14.85-6.97,29.69-10.08,44.61-1.7,8.16-3.41,16.47-3.74,24.83-.23,5.64.51,11.23,2.05,16.65,1.91,6.72,4.54,13.23,6.85,19.82,4.14,11.8,7.76,23.77,10.99,35.85.55,2.05,1.08,4.11,1.61,6.16.96,3.74,6.75,2.15,5.79-1.6-3.33-12.95-7.04-25.8-11.37-38.46-2.42-7.07-5.18-14.04-7.42-21.17-.8-2.55-1.5-5.13-1.96-7.76-.06-.32-.11-.63-.16-.95-.02-.15-.04-.3-.07-.44-.09-.61.02.15.02.16-.06-.65-.15-1.29-.21-1.94-.12-1.35-.17-2.71-.17-4.07,0-3.24.32-6.46.72-9.67.07-.54-.1.72,0-.03.03-.22.06-.44.09-.66.07-.52.15-1.03.23-1.55.16-1.03.33-2.05.5-3.07.4-2.31.84-4.61,1.29-6.9,2.75-13.79,6.03-27.47,9.19-41.17.54-2.35,1.08-4.7,1.63-7.05l-5.89-.8c2.18,21.89,10.17,43.1,23.14,60.89,3.69,5.06,7.74,9.86,12.15,14.31v-4.24c-16.65,14.39-26.78,35.61-28.38,57.48-.46,6.25-.12,12.5.87,18.68.26,1.6,2.25,2.49,3.69,2.1,1.7-.47,2.35-2.08,2.1-3.69Z"/>
  </g>
  <g>
    <path class="cls-1" d="m42.54,638.9c18.69-5.64,16.74-29.51,11.63-44.57,11.64,23.07,36.26,17.28,27.9,30.09-3.93,7.61-3.69,17.22.61,24.63-7.72-9.01-28.29-10.89-40.14-10.15Z"/>
    <path class="cls-1" d="m43.34,641.79c7.46-2.3,12.88-7.68,15.45-15.03s2.19-14.68,1.07-21.88c-.6-3.86-1.55-7.66-2.79-11.35l-5.48,2.31c2.73,5.35,6.58,9.94,11.35,13.58,3.47,2.65,7.33,4.61,11.27,6.43,1.49.69,3,1.36,4.43,2.18.3.17.6.35.88.54.13.08.25.17.37.25.41.28.16.22-.09-.08.18.21.44.39.64.58.09.08.16.22.25.28.03.02-.39-.64-.14-.17.06.11.13.26.21.36.27.35-.11-.36-.11-.29,0,.08.07.26.11.33.24.61-.15-.25,0-.27.05,0-.02.75,0,.82.03.08.18-.75.03-.26-.05.16-.08.33-.12.5-.05.18-.12.35-.18.52-.16.54.14-.23.04-.08-.23.33-.38.76-.58,1.11-.82,1.4-1.49,2.86-2.04,4.39-2.81,7.81-1.9,16.82,2.19,24l4.71-3.64c-3.75-4.3-9.37-6.71-14.73-8.27-5.96-1.73-12.22-2.52-18.41-2.81-3.04-.14-6.08-.14-9.12.05-1.62.1-3,1.31-3,3,0,1.55,1.37,3.1,3,3,5.39-.32,10.82-.12,16.17.55.96.12,2.52.36,3.8.6,1.46.27,2.9.58,4.34.95,2.61.67,5.3,1.57,7.36,2.57,1.29.62,2.53,1.33,3.7,2.16.12.08.23.17.34.25.39.28-.31-.26.06.04.29.23.57.47.84.71.5.45.96.93,1.4,1.44,2.28,2.62,6.36-.74,4.71-3.64-3.29-5.77-3.86-12.74-1.72-19,1.21-3.55,4.31-6.78,2.82-10.79-1.16-3.12-4.27-4.77-7.11-6.12-3.67-1.75-7.4-3.38-10.81-5.62-.57-.38-1.14-.77-1.7-1.17-.12-.09-.78-.59-.41-.3-.3-.24-.6-.48-.9-.72-1.12-.93-2.19-1.94-3.18-3-2.23-2.38-3.93-4.93-5.5-8s-6.57-.92-5.48,2.31c1.03,3.05,1.85,6.17,2.44,9.33.14.77.28,1.54.39,2.32.04.24.07.49.11.73-.02-.13-.06-.53,0,.08.05.44.11.88.15,1.32.18,1.72.28,3.44.29,5.17s-.07,3.3-.25,4.94c-.02.19-.04.38-.07.57.02-.13.09-.55,0,.05-.06.37-.12.75-.19,1.12-.15.82-.33,1.64-.55,2.45-.19.71-.41,1.41-.65,2.1-.12.34-.25.68-.39,1.02.2-.5.03-.07-.01.03-.11.24-.22.49-.34.73-.31.64-.66,1.26-1.03,1.87-.21.34-.43.67-.66,1-.1.14-.21.29-.31.43-.2.27.26-.29-.1.13-.59.68-1.18,1.34-1.85,1.94-.8.73-.65.62-1.56,1.23-.8.53-1.64,1.01-2.51,1.42-.61.29-.3.16-.96.41-.49.19-.99.35-1.49.51-3.68,1.14-2.11,6.93,1.6,5.79Z"/>
  </g>
  <g>
    <path class="cls-1" d="m84.68,769.04c23.7-14.6,42.09-37.62,51.1-63.95-4.85,20.6-1.34,43.03,9.55,61.17-14.5,18.78-23.77,41.56-26.48,65.13,4.3-25.86-11.99-53.63-36.65-62.5"/>
    <path class="cls-1" d="m86.19,771.63c18.94-11.71,34.64-28.58,44.98-48.31,2.94-5.61,5.44-11.45,7.5-17.44l-5.79-1.6c-3.86,16.59-2.68,34.33,3.44,50.23,1.77,4.59,3.89,9.03,6.41,13.25v-3.03c-11.5,14.94-19.77,32.4-24.13,50.75-1.24,5.24-2.14,10.55-2.76,15.9-.39,3.33,5.35,4.13,5.89.8,3.48-21.4-5.78-43.92-22.78-57.28-4.85-3.81-10.16-6.81-15.97-8.92-1.52-.55-3.29.62-3.69,2.1-.46,1.67.57,3.13,2.1,3.69,18.11,6.59,31.29,23.98,34.49,42.96.82,4.85.87,10.99.07,15.85l5.89.8c2.09-17.89,8.11-35.31,17.33-50.76,2.66-4.45,5.58-8.74,8.74-12.85.63-.82.5-2.2,0-3.03-8.18-13.71-12.03-29.72-11.15-45.65.25-4.46.89-8.86,1.9-13.21.88-3.78-4.53-5.23-5.79-1.6-6.9,20.05-19.35,38.03-35.46,51.79-4.48,3.82-9.25,7.27-14.26,10.37-3.28,2.03-.27,7.22,3.03,5.18h0Z"/>
  </g>
  <g>
    <path class="cls-1" d="m182.03,786.53c5.11-.49,8.89-4.17,9.65-9.25,4.33,4.76,4.57,12.71.53,17.72-2.51-3.7-6.08-6.68-10.18-8.47Z"/>
    <path class="cls-1" d="m182.03,789.53c3.2-.34,6.13-1.47,8.5-3.7,2.15-2.02,3.58-4.85,4.05-7.75l-5.01,1.32c.11.12.22.25.33.38.51.59-.17-.29.07.08.2.31.42.61.62.94.17.29.33.58.48.87,0,0,.33.7.16.32-.15-.33.06.16.08.22.26.7.47,1.42.62,2.16.03.16.05.33.09.49.08.36-.04-.52.01.07.03.37.06.75.08,1.12.02.71-.02,1.42-.09,2.12.04-.42.04-.25-.02.07-.03.16-.06.33-.1.49-.08.37-.17.73-.28,1.09s-.24.7-.37,1.06c-.14.41.21-.42.01-.03-.08.15-.14.3-.22.45-.17.33-.35.66-.55.98-.11.18-.22.35-.34.52-.07.11-.44.58-.05.09l4.71.61c-2.83-4.12-6.67-7.51-11.25-9.55-1.43-.64-3.29-.46-4.1,1.08-.69,1.31-.45,3.42,1.08,4.1.96.43,1.89.9,2.78,1.45.49.3.97.61,1.43.94.05.04.64.47.38.27-.2-.15.4.32.48.39.8.67,1.57,1.39,2.28,2.16.36.38.7.78,1.03,1.19.58.71-.31-.45.23.3.17.23.33.46.49.7.97,1.42,3.42,2.24,4.71.61,2.5-3.17,3.88-7.01,3.75-11.08s-1.59-7.87-4.28-10.89c-1.41-1.58-4.66-.89-5.01,1.32-.09.56-.21,1.12-.37,1.67-.09.3-.2.6-.31.9.25-.67,0-.02-.08.14-.24.48-.53.93-.82,1.38-.2.27-.17.25.06-.06-.09.12-.19.23-.29.35-.17.2-.35.39-.54.58s-.39.35-.58.53c-.43.39.44-.26-.2.15-.45.29-.9.55-1.38.8-.68.36.33-.07-.24.1-.26.08-.52.18-.78.25s-.54.14-.81.2c-.16.03-.32.06-.48.09.39-.05.41-.05.06-.01-1.56.16-3.08,1.26-3,3,.07,1.48,1.33,3.18,3,3Z"/>
  </g>
</svg>