<?xml version="1.0" encoding="UTF-8"?>
<svg id="Layer_1" data-name="Layer 1" xmlns="http://www.w3.org/2000/svg" viewBox="0 0 390 796">
  <defs>
    <style>
      .cls-1 {
        fill: #226ce0;
      }
    </style>
  </defs>
  <path class="cls-1" d="m59.1,314.24c-3.8-7.32-10.61-7.68-15.13-.78,0,0-35.1,53.46-23.2,90.17,5.85,16.66,25.33,29.23,41.64,22.45,40.57-27.18-3.3-111.85-3.3-111.85Z"/>
  <path class="cls-1" d="m33.55,575.86c-13.34,23.16-21.77,69.46,5.05,79.99,1.4.55,3,.44,4.31-.29,24.84-13.91,16.21-59.52-.89-80.39-2.29-2.79-6.67-2.44-8.47.69Z"/>
  <path class="cls-1" d="m80.77,724.31c-6.08,10.56-9.93,31.67,2.3,36.47.64.25,1.37.2,1.97-.13,11.33-6.34,7.39-27.14-.4-36.65-1.04-1.27-3.04-1.11-3.86.32Z"/>
  <path class="cls-1" d="m4.19,475.14c-4.91-6.63-9.72-5.36-10.69,2.84,0,0-7.01,59,22.51,41.47,1.31-.78,2.21-2.12,2.43-3.63,2.58-17.94-14.24-40.67-14.24-40.67Z"/>
  <path class="cls-1" d="m123.34,473.17c-11.38,41.42-26.2,125.14,30.08,93.15.58-.33,1.11-.78,1.53-1.32,24.27-31.2-7.61-62.23-21.96-92.69-2.04-4.34-8.37-3.77-9.64.86Z"/>
  <path class="cls-1" d="m7.97,701.25c-5.06-6.51-10.51-5.22-12.11,2.87,0,0-13.25,67.18,1.87,104.14,11.01,21.65,42.36,20.82,48.97-3.44,9.24-41.82-38.74-103.57-38.74-103.57Z"/>
  <path class="cls-1" d="m118.6,640.11c-6.43,20.11-12.77,51.88,2.58,62.27,1.35.91,3.04,1.17,4.59.66,18.46-6.06,12.42-43.58,2.38-63.67-2.08-4.16-8.13-3.68-9.55.75Z"/>
  <path class="cls-1" d="m145.8,748.5c-15.53,19.31-27.05,60.9-1.67,71.45.72.3,1.51.42,2.28.34,30.15-2.8,22.85-50.2,7.63-71.54-1.99-2.79-6.09-2.93-8.24-.26Z"/>
</svg>